; NON-PLATED HOLES START AT T1
; THROUGH (PLATED) HOLES START AT T100
M48
INCH
T1C0.086614
T100C0.059060
T101C0.100000
T102C0.038000
T103C0.035000
T104C0.114173
%
T1
X002331Y002023
X002325Y035657
X017466Y002026
X017466Y035657
T100
X004987Y020380
X011908Y000887
X004987Y031333
X004987Y025428
X004987Y012381
X004987Y023333
X004987Y017428
X004987Y015333
X004987Y009428
X007971Y000887
X014736Y020286
X014736Y031239
X004987Y028381
X006001Y030349
X014736Y023239
X006001Y010412
X006001Y022349
X006001Y014349
X014736Y025333
X000929Y030349
X000929Y010412
X014736Y017333
X009939Y004944
X006986Y004944
X000929Y022349
X014736Y028286
X000929Y014349
X006001Y026412
X012892Y004944
X006001Y018412
X013722Y030254
X011908Y005959
X018794Y030254
X000929Y026412
X013722Y022254
X018794Y022254
X000929Y018412
X013722Y026317
X018794Y026317
X013722Y018317
X018794Y018317
X007971Y005959
T101
X009736Y034861
X007836Y033661
T102
X010237Y023583
X009237Y019583
X009237Y014583
X009237Y015583
X010237Y020583
X009237Y016583
X010237Y021583
X009237Y017583
X010237Y018583
X010237Y022583
X009237Y018583
X010237Y019583
T103
X007487Y011333
X007487Y016083
X007487Y020083
X011737Y025333
X007737Y027583
X011737Y021333
X007487Y015333
X011737Y027583
X011737Y031583
X007737Y023583
T104
X009736Y032461
T00
M30
