G04 MADE WITH FRITZING*
G04 WWW.FRITZING.ORG*
G04 DOUBLE SIDED*
G04 HOLES PLATED*
G04 CONTOUR ON CENTER OF CONTOUR VECTOR*
%ASAXBY*%
%FSLAX23Y23*%
%MOIN*%
%OFA0B0*%
%SFA1.0B1.0*%
%ADD10C,0.096614*%
%ADD11C,0.164173*%
%ADD12C,0.150000*%
%ADD13C,0.088000*%
%ADD14C,0.109060*%
%ADD15C,0.085000*%
%LNMASK1*%
G90*
G70*
G54D10*
X233Y3566D03*
X1747Y3566D03*
X1747Y203D03*
X233Y202D03*
G54D11*
X974Y3246D03*
G54D12*
X974Y3486D03*
X784Y3366D03*
G54D13*
X1024Y2358D03*
X1024Y2258D03*
X1024Y2158D03*
X1024Y2058D03*
X1024Y1958D03*
X1024Y1858D03*
X924Y1958D03*
X924Y1858D03*
X924Y1758D03*
X924Y1658D03*
X924Y1558D03*
X924Y1458D03*
G54D14*
X699Y494D03*
X797Y596D03*
X994Y494D03*
X1191Y596D03*
X1289Y494D03*
X797Y89D03*
X1191Y89D03*
X1474Y2533D03*
X1372Y2632D03*
X1474Y2829D03*
X1372Y3025D03*
X1474Y3124D03*
X1879Y2632D03*
X1879Y3025D03*
X1474Y1733D03*
X1372Y1832D03*
X1474Y2029D03*
X1372Y2225D03*
X1474Y2324D03*
X1879Y1832D03*
X1879Y2225D03*
X499Y1533D03*
X600Y1435D03*
X499Y1238D03*
X600Y1041D03*
X499Y943D03*
X93Y1435D03*
X93Y1041D03*
X499Y2333D03*
X600Y2235D03*
X499Y2038D03*
X600Y1841D03*
X499Y1743D03*
X93Y2235D03*
X93Y1841D03*
X499Y3133D03*
X600Y3035D03*
X499Y2838D03*
X600Y2641D03*
X499Y2543D03*
X93Y3035D03*
X93Y2641D03*
G54D15*
X1174Y2758D03*
X1174Y3158D03*
X1174Y2533D03*
X1174Y2133D03*
X749Y1533D03*
X749Y1133D03*
X749Y1608D03*
X749Y2008D03*
X774Y2358D03*
X774Y2758D03*
G04 End of Mask1*
M02*