<?xml version="1.0" encoding="UTF-8" standalone="no"?>
<!-- Created with Inkscape (http://www.inkscape.org/) -->

<svg
   id="svg1366"
   version="1.1"
   viewBox="0 0 96 50"
   height="50mm"
   width="96mm"
   inkscape:version="1.1.1 (c3084ef, 2021-09-22)"
   sodipodi:docname="back-mvr-electronic.svg"
   xmlns:inkscape="http://www.inkscape.org/namespaces/inkscape"
   xmlns:sodipodi="http://sodipodi.sourceforge.net/DTD/sodipodi-0.dtd"
   xmlns="http://www.w3.org/2000/svg"
   xmlns:svg="http://www.w3.org/2000/svg">
  <sodipodi:namedview
     id="namedview1368"
     pagecolor="#ffffff"
     bordercolor="#666666"
     borderopacity="1.0"
     inkscape:pageshadow="2"
     inkscape:pageopacity="0.0"
     inkscape:pagecheckerboard="0"
     inkscape:document-units="mm"
     showgrid="false"
     width="96mm"
     inkscape:zoom="0.85787895"
     inkscape:cx="197.58032"
     inkscape:cy="115.98373"
     inkscape:window-width="1168"
     inkscape:window-height="735"
     inkscape:window-x="45"
     inkscape:window-y="23"
     inkscape:window-maximized="0"
     inkscape:current-layer="layer2" />
  <defs
     id="defs1363" />
  <g
     inkscape:label="Layer 1"
     inkscape:groupmode="layer"
     id="layer1"
     style="display:none" />
  <g
     inkscape:groupmode="layer"
     id="layer2"
     inkscape:label="Layer 2"
     style="display:inline">
    <path
       style="fill:#000000;stroke-width:0.035804"
       d="M 31.628035,34.294362 C 30.715723,34.097716 30.11328,33.317447 30.01563,32.20602 c -0.124315,-1.414938 0.502581,-2.556209 1.536373,-2.796989 0.232977,-0.05426 0.709853,-0.05469 0.949011,-9.02e-4 0.488634,0.110009 0.888828,0.441759 1.124315,0.932022 0.192432,0.400629 0.258858,0.725755 0.283456,1.387393 l 0.0203,0.546006 h -1.114721 -1.114721 v 0.09129 c 0,0.218621 0.213177,0.445768 0.418354,0.445768 0.176481,0 0.304678,-0.07954 0.399157,-0.247634 0.04551,-0.08099 0.09368,-0.14127 0.107027,-0.133971 0.06565,0.0359 1.243429,0.717705 1.255137,0.726592 0.0074,0.0057 -0.06184,0.131182 -0.153955,0.278971 -0.309232,0.496136 -0.766631,0.799649 -1.321179,0.87669 -0.351448,0.04883 -0.484486,0.04592 -0.77615,-0.01694 z m 0.716083,-3.165747 c 0,-0.179523 -0.101808,-0.383556 -0.214726,-0.430327 -0.196494,-0.08139 -0.38632,0.0961 -0.451541,0.42221 l -0.02296,0.114803 h 0.344615 0.344615 z m 6.265723,3.165747 c -0.912312,-0.196646 -1.514756,-0.976915 -1.612406,-2.088342 -0.124315,-1.414938 0.50258,-2.556209 1.536373,-2.796989 0.232977,-0.05426 0.709853,-0.05469 0.949011,-9.02e-4 0.488634,0.110009 0.888828,0.441759 1.124315,0.932022 0.192432,0.400629 0.258858,0.725755 0.283457,1.387393 l 0.0203,0.546005 h -1.114722 -1.114721 v 0.09129 c 0,0.218622 0.213178,0.445769 0.418354,0.445769 0.176482,0 0.304678,-0.07954 0.399158,-0.247634 0.04551,-0.08099 0.09367,-0.14127 0.107026,-0.133971 0.06565,0.0359 1.24343,0.717705 1.255137,0.726592 0.0074,0.0057 -0.06184,0.131182 -0.153956,0.278971 -0.309231,0.496136 -0.766629,0.799649 -1.321178,0.87669 -0.351448,0.04883 -0.484486,0.04592 -0.776149,-0.01694 z m 0.716082,-3.165747 c 0,-0.179523 -0.101808,-0.383556 -0.214726,-0.430327 -0.196494,-0.08139 -0.386319,0.0961 -0.451542,0.42221 l -0.02297,0.114803 h 0.344616 0.344614 z m 13.167448,3.186927 c -0.781145,-0.142128 -1.340197,-0.671534 -1.597773,-1.513044 -0.166877,-0.545193 -0.166877,-1.371876 0,-1.917068 0.181984,-0.594553 0.542817,-1.05713 1.015477,-1.301817 0.315864,-0.163519 0.546145,-0.217262 0.930906,-0.217262 0.821812,0 1.427953,0.379951 1.782377,1.117257 0.220931,0.459599 0.291848,0.795984 0.290567,1.378258 -0.002,0.830381 -0.216965,1.435442 -0.676232,1.901844 -0.261132,0.265187 -0.47261,0.394836 -0.80481,0.4934 -0.239004,0.07092 -0.71082,0.100223 -0.940512,0.05843 z m 0.559145,-1.635667 c 0.155397,-0.155393 0.211694,-0.422732 0.194948,-0.92575 -0.01263,-0.379543 -0.02637,-0.459857 -0.104654,-0.611975 -0.137958,-0.268076 -0.375577,-0.30593 -0.539008,-0.08586 -0.170629,0.229757 -0.212788,0.951695 -0.08141,1.394089 0.09211,0.310141 0.341509,0.418117 0.530123,0.229503 z M 42.81719,34.274699 c -0.839533,-0.171183 -1.416385,-0.952352 -1.520789,-2.059445 -0.105005,-1.113472 0.245111,-2.093356 0.904296,-2.530894 0.560224,-0.371849 1.377206,-0.385269 1.940882,-0.03188 l 0.17902,0.112235 0.01112,-0.123996 0.01111,-0.123995 h 0.26637 0.266369 v -0.519155 -0.519153 h 0.841396 0.841398 v 0.519153 0.519153 h 0.393845 0.393846 v 0.698171 0.698171 h -0.396877 -0.396871 l 0.01218,0.77873 c 0.01018,0.648854 0.02232,0.797296 0.07295,0.890049 0.08036,0.147221 0.234868,0.208209 0.459946,0.181553 l 0.178564,-0.02115 -0.0097,0.705396 -0.0097,0.705394 -0.143217,0.04872 c -0.210072,0.07147 -0.932663,0.09646 -1.166548,0.04035 -0.299524,-0.07186 -0.4944,-0.172491 -0.665676,-0.343765 C 44.94616,33.5634 44.878533,33.22724 44.87682,31.888715 l -0.0012,-0.97565 h -0.26853 -0.268531 l -0.002,-0.474398 -0.002,-0.474399 -0.300802,0.59603 -0.300802,0.596027 -0.143598,-0.07104 c -0.185291,-0.09167 -0.32415,-0.06245 -0.464892,0.09785 -0.135656,0.154501 -0.182076,0.322975 -0.182076,0.66083 0,0.337854 0.04642,0.506328 0.182076,0.66083 0.14128,0.160908 0.279514,0.189566 0.466984,0.09682 l 0.145692,-0.07208 0.318507,0.654972 c 0.17518,0.360235 0.318508,0.669817 0.318508,0.68796 0,0.05146 -0.381221,0.26979 -0.600107,0.343686 -0.236783,0.07994 -0.710111,0.108896 -0.957009,0.05855 z m 21.625696,0 c -0.839536,-0.171183 -1.416387,-0.952352 -1.52079,-2.059445 -0.127877,-1.355995 0.386725,-2.417957 1.325435,-2.735244 0.304823,-0.103031 0.81531,-0.106768 1.126766,-0.0082 C 65.602556,29.54402 66,29.777212 66,29.83894 c 0,0.02015 -0.144262,0.32481 -0.320587,0.67704 l -0.320586,0.640412 -0.143611,-0.07105 c -0.185307,-0.09168 -0.32416,-0.06245 -0.464906,0.09784 -0.135657,0.154503 -0.182074,0.322977 -0.182074,0.660832 0,0.337854 0.04642,0.506329 0.182074,0.660829 0.141281,0.160908 0.279513,0.189566 0.466982,0.09681 l 0.145691,-0.07207 0.318511,0.654972 C 65.856673,33.54479 66,33.854372 66,33.872515 c 0,0.05146 -0.38122,0.26979 -0.600107,0.343686 -0.236782,0.07993 -0.710113,0.108894 -0.957007,0.05855 z M 34.528169,30.895167 v -3.276036 h 0.913007 0.913005 v 3.276036 3.276034 h -0.913005 -0.913007 z m 13.247529,0.948797 v -2.327238 h 0.840099 0.840103 l 0.01028,0.349085 0.01029,0.349087 0.110405,-0.232962 c 0.125332,-0.264462 0.294467,-0.450945 0.47928,-0.528442 0.124866,-0.05236 0.552063,-0.078 0.594389,-0.03567 0.01201,0.012 -0.0065,0.408901 -0.04097,0.881966 l -0.06282,0.860116 -0.223101,-0.02084 c -0.274381,-0.02562 -0.371449,-0.0029 -0.519397,0.121591 -0.240409,0.202286 -0.246632,0.24374 -0.247508,1.648459 l -8.01e-4,1.26208 H 48.670845 47.77574 Z m 7.8053,0 v -2.327238 h 0.857853 0.85785 l 0.01049,0.29538 c 0.0075,0.213447 0.01958,0.275517 0.04328,0.223772 0.135212,-0.295237 0.428096,-0.553073 0.716456,-0.63072 0.246351,-0.06634 0.672201,-0.04587 0.876768,0.04213 0.317324,0.136508 0.564007,0.477943 0.683932,0.94663 0.03312,0.129439 0.04994,0.677289 0.06071,1.978152 l 0.01488,1.799134 h -0.879572 -0.879572 v -1.487002 c 0,-1.624772 -0.0094,-1.709356 -0.194564,-1.755836 -0.1461,-0.03668 -0.264473,0.01218 -0.332896,0.137389 -0.05714,0.104544 -0.06439,0.26164 -0.07441,1.610646 l -0.01109,1.494803 H 56.45605 55.58099 Z m 4.94097,0 v -2.327238 h 0.877201 0.877202 v 2.327238 2.327237 h -0.877202 -0.877201 z m 0.58503,-2.629238 c -0.276031,-0.08633 -0.504929,-0.318796 -0.587051,-0.596209 -0.05377,-0.181637 -0.04511,-0.530788 0.01756,-0.707239 0.290735,-0.818743 1.432603,-0.818743 1.723339,0 0.06266,0.176451 0.07132,0.525602 0.01756,0.707239 -0.142464,0.481249 -0.673974,0.751773 -1.171393,0.596209 z M 31.48482,21.800776 v -5.281299 l 2.313474,0.0092 2.313475,0.0093 0.952931,2.83744 c 0.524111,1.560591 0.969367,2.837409 0.989456,2.837372 0.02009,-3.6e-5 0.408126,-1.276886 0.862304,-2.837439 l 0.825781,-2.837373 2.29813,-0.0093 c 1.263972,-0.005 2.298131,-0.01443 2.298131,-0.02085 0,-0.0065 -0.06444,-0.192289 -0.143217,-0.413101 -0.07877,-0.220811 -0.143217,-0.408801 -0.143217,-0.417756 0,-0.0089 0.974768,-0.01627 2.16615,-0.01627 1.191383,0 2.16615,0.0088 2.16615,0.01951 0,0.06886 1.873482,7.022363 1.899144,7.048754 0.01919,0.01974 0.0391,0.0126 0.04989,-0.01791 0.0099,-0.02791 0.418922,-1.621627 0.90899,-3.541597 l 0.89103,-3.490857 2.157665,-0.0093 2.157665,-0.0093 -0.01737,0.08085 c -0.0096,0.04447 -0.07409,0.236894 -0.143401,0.427628 l -0.126033,0.346793 2.600706,0.01532 c 2.733138,0.01611 2.81503,0.02056 3.498579,0.190021 0.651717,0.161572 1.336424,0.541368 1.716933,0.952354 0.507385,0.548033 0.732,1.084608 0.806231,1.926004 0.119082,1.349681 -0.417741,2.40726 -1.549255,3.052162 l -0.272724,0.155436 1.334581,2.128733 1.334582,2.128731 -2.026697,0.0094 c -1.685555,0.0078 -2.032784,0.0011 -2.062865,-0.03986 -0.01989,-0.02706 -0.478837,-0.873097 -1.019875,-1.880085 -0.727645,-1.354303 -1.000156,-1.830884 -1.046906,-1.830884 -0.0596,0 -0.0632,0.107225 -0.0632,1.87969 v 1.879693 h -1.700696 -1.700696 l -0.0013,-5.039365 c -0.0011,-4.128066 -0.0098,-5.023177 -0.04746,-4.949854 -0.0253,0.04924 -0.850392,2.317057 -1.833527,5.039617 l -1.787519,4.95011 -2.128377,-0.0092 -2.128375,-0.0092 -1.761744,-4.970143 c -0.968958,-2.73358 -1.771409,-4.979812 -1.783225,-4.991626 -0.01182,-0.01182 -0.02148,2.228776 -0.02148,4.979095 v 5.000576 H 42.800218 41.08281 l 0.0177,-0.635514 c 0.02183,-0.783833 0.0875,-4.523261 0.08741,-4.976708 -3.6e-5,-0.241321 -0.01224,-0.331184 -0.0449,-0.331184 -0.02765,0 -0.421305,1.138923 -1.027291,2.972153 l -0.982464,2.972153 -1.254369,-0.0094 -1.254367,-0.0094 -0.93632,-2.882195 c -1.063711,-3.274325 -1.005968,-3.105501 -1.04649,-3.059716 -0.02571,0.02907 0.03113,2.572617 0.117018,5.23479 l 0.02339,0.725024 h -1.6486 -1.648601 z m 28.893932,-0.842009 c 0.438347,-0.05629 0.696168,-0.195942 0.852437,-0.461752 0.08078,-0.137416 0.09601,-0.204459 0.0941,-0.414552 -0.0025,-0.274616 -0.05331,-0.405261 -0.218819,-0.562516 -0.18803,-0.178653 -0.362354,-0.21662 -1.076813,-0.234534 l -0.653421,-0.01638 v 0.839344 c 0,0.46164 0.01074,0.850086 0.02387,0.863214 0.03523,0.03524 0.669069,0.02693 0.978645,-0.01283 z"
       id="path1880" />
  </g>
</svg>
