G04 MADE WITH FRITZING*
G04 WWW.FRITZING.ORG*
G04 DOUBLE SIDED*
G04 HOLES PLATED*
G04 CONTOUR ON CENTER OF CONTOUR VECTOR*
%ASAXBY*%
%FSLAX23Y23*%
%MOIN*%
%OFA0B0*%
%SFA1.0B1.0*%
%ADD10C,0.075000*%
%ADD11C,0.078000*%
%ADD12C,0.074000*%
%ADD13C,0.070000*%
%ADD14C,0.082000*%
%ADD15R,0.075000X0.075000*%
%ADD16C,0.032000*%
%ADD17C,0.048000*%
%ADD18C,0.024000*%
%ADD19C,0.020000*%
%ADD20R,0.001000X0.001000*%
%LNCOPPER0*%
G90*
G70*
G54D10*
X1278Y2245D03*
X958Y1489D03*
X1462Y847D03*
X1202Y549D03*
X1461Y289D03*
X440Y1032D03*
X366Y2233D03*
X666Y2233D03*
X366Y2033D03*
X666Y2033D03*
G54D11*
X741Y1558D03*
X741Y1458D03*
X741Y1358D03*
X741Y1258D03*
X741Y1158D03*
X741Y1058D03*
X841Y1158D03*
X841Y1058D03*
X841Y958D03*
X841Y858D03*
X841Y758D03*
X841Y658D03*
G54D10*
X566Y1658D03*
X566Y1258D03*
G54D12*
X116Y683D03*
X216Y683D03*
X316Y683D03*
G54D13*
X216Y433D03*
X416Y433D03*
X116Y133D03*
X116Y233D03*
G54D10*
X791Y183D03*
X791Y483D03*
X891Y183D03*
X891Y483D03*
X991Y183D03*
X991Y483D03*
X1091Y183D03*
X1091Y483D03*
G54D14*
X405Y72D03*
X615Y283D03*
G54D10*
X941Y758D03*
X1341Y758D03*
X666Y483D03*
X666Y883D03*
X941Y583D03*
X1341Y583D03*
X1141Y1633D03*
X841Y1633D03*
X1141Y1733D03*
X841Y1733D03*
X1141Y1833D03*
X841Y1833D03*
X1141Y1933D03*
X841Y1933D03*
X1141Y2033D03*
X841Y2033D03*
X1141Y2133D03*
X841Y2133D03*
X1141Y2233D03*
X841Y2233D03*
X466Y1558D03*
X466Y1158D03*
X1341Y858D03*
X941Y858D03*
X1341Y1058D03*
X941Y1058D03*
X1341Y1158D03*
X941Y1158D03*
G54D15*
X366Y2233D03*
X791Y183D03*
X1141Y1633D03*
G54D16*
X891Y1358D02*
X1065Y1182D01*
D02*
X1066Y1058D02*
X966Y958D01*
D02*
X966Y958D02*
X876Y958D01*
D02*
X1065Y1182D02*
X1066Y1058D01*
D02*
X776Y1358D02*
X891Y1358D01*
D02*
X791Y1356D02*
X776Y1357D01*
D02*
X843Y1408D02*
X791Y1356D01*
D02*
X841Y1599D02*
X843Y1408D01*
G54D17*
D02*
X491Y882D02*
X491Y383D01*
D02*
X491Y383D02*
X466Y358D01*
D02*
X466Y358D02*
X216Y133D01*
D02*
X216Y133D02*
X153Y133D01*
D02*
X665Y1060D02*
X491Y882D01*
D02*
X700Y1059D02*
X665Y1060D01*
G54D16*
D02*
X500Y1158D02*
X705Y1158D01*
D02*
X876Y758D02*
X907Y758D01*
D02*
X643Y1508D02*
X691Y1456D01*
D02*
X643Y1908D02*
X643Y1508D01*
D02*
X591Y1956D02*
X643Y1908D01*
D02*
X691Y1456D02*
X705Y1457D01*
D02*
X591Y2156D02*
X591Y1956D01*
D02*
X642Y2208D02*
X591Y2156D01*
D02*
X743Y1956D02*
X690Y2009D01*
D02*
X741Y1594D02*
X743Y1956D01*
D02*
X600Y1258D02*
X705Y1258D01*
D02*
X1191Y2133D02*
X1175Y2133D01*
D02*
X1491Y1008D02*
X1491Y1834D01*
D02*
X1491Y1834D02*
X1191Y2133D01*
D02*
X1365Y882D02*
X1491Y1008D01*
D02*
X1191Y1933D02*
X1175Y1933D01*
D02*
X1416Y1133D02*
X1417Y1708D01*
D02*
X1417Y1708D02*
X1191Y1933D01*
D02*
X1365Y1082D02*
X1416Y1133D01*
D02*
X1343Y1582D02*
X1191Y1733D01*
D02*
X1191Y1733D02*
X1175Y1733D01*
D02*
X1341Y1192D02*
X1343Y1582D01*
D02*
X743Y534D02*
X767Y508D01*
D02*
X739Y908D02*
X743Y534D01*
D02*
X791Y958D02*
X739Y908D01*
D02*
X805Y958D02*
X791Y958D01*
G54D17*
D02*
X316Y1183D02*
X491Y1358D01*
D02*
X316Y533D02*
X316Y1183D01*
D02*
X389Y459D02*
X316Y533D01*
D02*
X491Y1358D02*
X700Y1358D01*
G54D16*
D02*
X991Y234D02*
X991Y217D01*
D02*
X1167Y284D02*
X1041Y282D01*
D02*
X1041Y282D02*
X991Y234D01*
D02*
X1415Y534D02*
X1167Y284D01*
D02*
X1415Y608D02*
X1415Y534D01*
D02*
X1367Y658D02*
X1415Y608D01*
D02*
X876Y658D02*
X1367Y658D01*
G54D17*
D02*
X217Y1882D02*
X216Y725D01*
D02*
X338Y2005D02*
X217Y1882D01*
D02*
X117Y1982D02*
X116Y725D01*
D02*
X338Y2205D02*
X117Y1982D01*
G54D16*
D02*
X907Y858D02*
X876Y858D01*
D02*
X907Y1058D02*
X876Y1058D01*
D02*
X907Y1158D02*
X876Y1158D01*
D02*
X639Y2308D02*
X390Y2057D01*
D02*
X1065Y2308D02*
X639Y2308D01*
D02*
X1116Y2257D02*
X1065Y2308D01*
G54D17*
D02*
X216Y641D02*
X216Y470D01*
D02*
X116Y641D02*
X116Y270D01*
D02*
X316Y533D02*
X316Y641D01*
D02*
X389Y459D02*
X316Y533D01*
G54D16*
D02*
X1241Y482D02*
X1317Y559D01*
D02*
X1125Y483D02*
X1241Y482D01*
D02*
X1117Y60D02*
X966Y58D01*
D02*
X1365Y760D02*
X1491Y634D01*
D02*
X1491Y456D02*
X1117Y60D01*
D02*
X1491Y634D02*
X1491Y456D01*
D02*
X1375Y761D02*
X1365Y760D01*
D02*
X891Y133D02*
X891Y149D01*
D02*
X966Y58D02*
X891Y133D01*
D02*
X993Y231D02*
X992Y217D01*
D02*
X941Y283D02*
X993Y231D01*
D02*
X665Y282D02*
X941Y283D01*
D02*
X653Y282D02*
X665Y282D01*
D02*
X700Y483D02*
X757Y483D01*
D02*
X565Y782D02*
X642Y859D01*
D02*
X991Y433D02*
X967Y408D01*
D02*
X565Y460D02*
X565Y782D01*
D02*
X617Y408D02*
X565Y460D01*
D02*
X967Y408D02*
X617Y408D01*
D02*
X991Y449D02*
X991Y433D01*
D02*
X916Y559D02*
X891Y534D01*
D02*
X891Y534D02*
X891Y517D01*
D02*
X891Y131D02*
X891Y149D01*
D02*
X465Y56D02*
X816Y58D01*
D02*
X441Y62D02*
X465Y56D01*
D02*
X816Y58D02*
X891Y131D01*
G54D17*
D02*
X216Y133D02*
X153Y133D01*
D02*
X216Y396D02*
X216Y133D01*
D02*
X990Y1834D02*
X1101Y1833D01*
D02*
X990Y1734D02*
X990Y1834D01*
D02*
X1090Y1634D02*
X990Y1734D01*
D02*
X1101Y1633D02*
X1090Y1634D01*
D02*
X990Y1834D02*
X1101Y1833D01*
D02*
X990Y2034D02*
X990Y1834D01*
D02*
X1101Y2033D02*
X990Y2034D01*
D02*
X990Y1934D02*
X880Y1933D01*
D02*
X992Y1734D02*
X990Y1934D01*
D02*
X880Y1733D02*
X992Y1734D01*
D02*
X992Y1934D02*
X990Y2134D01*
D02*
X890Y2234D02*
X880Y2233D01*
D02*
X990Y2134D02*
X890Y2234D01*
D02*
X880Y1933D02*
X992Y1934D01*
G54D18*
D02*
X992Y1834D02*
X1112Y1833D01*
D02*
X992Y1934D02*
X992Y1834D01*
D02*
X869Y1933D02*
X992Y1934D01*
G36*
X94Y121D02*
X135Y121D01*
X135Y95D01*
X94Y95D01*
X94Y121D01*
G37*
D02*
G36*
X71Y156D02*
X99Y156D01*
X99Y115D01*
X71Y115D01*
X71Y156D01*
G37*
D02*
G36*
X1067Y529D02*
X1110Y529D01*
X1110Y503D01*
X1067Y503D01*
X1067Y529D01*
G37*
D02*
G36*
X1067Y469D02*
X1110Y469D01*
X1110Y441D01*
X1067Y441D01*
X1067Y469D01*
G37*
D02*
G36*
X40Y2322D02*
X40Y2296D01*
X1146Y2296D01*
X1146Y2294D01*
X1156Y2294D01*
X1156Y2292D01*
X1164Y2292D01*
X1164Y2290D01*
X1168Y2290D01*
X1168Y2288D01*
X1172Y2288D01*
X1172Y2286D01*
X1174Y2286D01*
X1174Y2284D01*
X1178Y2284D01*
X1178Y2282D01*
X1180Y2282D01*
X1180Y2280D01*
X1182Y2280D01*
X1182Y2278D01*
X1184Y2278D01*
X1184Y2276D01*
X1186Y2276D01*
X1186Y2274D01*
X1188Y2274D01*
X1188Y2272D01*
X1190Y2272D01*
X1190Y2270D01*
X1192Y2270D01*
X1192Y2266D01*
X1194Y2266D01*
X1194Y2264D01*
X1196Y2264D01*
X1196Y2260D01*
X1198Y2260D01*
X1198Y2256D01*
X1200Y2256D01*
X1200Y2248D01*
X1202Y2248D01*
X1202Y2236D01*
X1204Y2236D01*
X1204Y2228D01*
X1202Y2228D01*
X1202Y2216D01*
X1200Y2216D01*
X1200Y2210D01*
X1198Y2210D01*
X1198Y2206D01*
X1196Y2206D01*
X1196Y2202D01*
X1194Y2202D01*
X1194Y2198D01*
X1192Y2198D01*
X1192Y2196D01*
X1190Y2196D01*
X1190Y2194D01*
X1188Y2194D01*
X1188Y2174D01*
X1198Y2174D01*
X1198Y2172D01*
X1206Y2172D01*
X1206Y2170D01*
X1210Y2170D01*
X1210Y2168D01*
X1214Y2168D01*
X1214Y2166D01*
X1216Y2166D01*
X1216Y2164D01*
X1218Y2164D01*
X1218Y2162D01*
X1220Y2162D01*
X1220Y2160D01*
X1222Y2160D01*
X1222Y2158D01*
X1224Y2158D01*
X1224Y2156D01*
X1226Y2156D01*
X1226Y2154D01*
X1228Y2154D01*
X1228Y2152D01*
X1230Y2152D01*
X1230Y2150D01*
X1232Y2150D01*
X1232Y2148D01*
X1234Y2148D01*
X1234Y2146D01*
X1236Y2146D01*
X1236Y2144D01*
X1238Y2144D01*
X1238Y2142D01*
X1240Y2142D01*
X1240Y2140D01*
X1242Y2140D01*
X1242Y2138D01*
X1244Y2138D01*
X1244Y2136D01*
X1246Y2136D01*
X1246Y2134D01*
X1248Y2134D01*
X1248Y2132D01*
X1250Y2132D01*
X1250Y2130D01*
X1252Y2130D01*
X1252Y2128D01*
X1254Y2128D01*
X1254Y2126D01*
X1256Y2126D01*
X1256Y2124D01*
X1258Y2124D01*
X1258Y2122D01*
X1260Y2122D01*
X1260Y2120D01*
X1262Y2120D01*
X1262Y2118D01*
X1264Y2118D01*
X1264Y2116D01*
X1266Y2116D01*
X1266Y2114D01*
X1268Y2114D01*
X1268Y2112D01*
X1270Y2112D01*
X1270Y2110D01*
X1272Y2110D01*
X1272Y2108D01*
X1274Y2108D01*
X1274Y2106D01*
X1276Y2106D01*
X1276Y2104D01*
X1278Y2104D01*
X1278Y2102D01*
X1280Y2102D01*
X1280Y2100D01*
X1282Y2100D01*
X1282Y2098D01*
X1284Y2098D01*
X1284Y2096D01*
X1286Y2096D01*
X1286Y2094D01*
X1288Y2094D01*
X1288Y2092D01*
X1290Y2092D01*
X1290Y2090D01*
X1292Y2090D01*
X1292Y2088D01*
X1294Y2088D01*
X1294Y2086D01*
X1296Y2086D01*
X1296Y2084D01*
X1298Y2084D01*
X1298Y2082D01*
X1300Y2082D01*
X1300Y2080D01*
X1302Y2080D01*
X1302Y2078D01*
X1304Y2078D01*
X1304Y2076D01*
X1306Y2076D01*
X1306Y2074D01*
X1308Y2074D01*
X1308Y2072D01*
X1310Y2072D01*
X1310Y2070D01*
X1312Y2070D01*
X1312Y2068D01*
X1314Y2068D01*
X1314Y2066D01*
X1316Y2066D01*
X1316Y2064D01*
X1318Y2064D01*
X1318Y2062D01*
X1320Y2062D01*
X1320Y2060D01*
X1322Y2060D01*
X1322Y2058D01*
X1324Y2058D01*
X1324Y2056D01*
X1326Y2056D01*
X1326Y2054D01*
X1328Y2054D01*
X1328Y2052D01*
X1330Y2052D01*
X1330Y2050D01*
X1332Y2050D01*
X1332Y2048D01*
X1334Y2048D01*
X1334Y2046D01*
X1336Y2046D01*
X1336Y2044D01*
X1338Y2044D01*
X1338Y2042D01*
X1340Y2042D01*
X1340Y2040D01*
X1342Y2040D01*
X1342Y2038D01*
X1344Y2038D01*
X1344Y2036D01*
X1346Y2036D01*
X1346Y2034D01*
X1348Y2034D01*
X1348Y2032D01*
X1350Y2032D01*
X1350Y2030D01*
X1352Y2030D01*
X1352Y2028D01*
X1354Y2028D01*
X1354Y2026D01*
X1356Y2026D01*
X1356Y2024D01*
X1358Y2024D01*
X1358Y2022D01*
X1360Y2022D01*
X1360Y2020D01*
X1362Y2020D01*
X1362Y2018D01*
X1364Y2018D01*
X1364Y2016D01*
X1366Y2016D01*
X1366Y2014D01*
X1368Y2014D01*
X1368Y2012D01*
X1370Y2012D01*
X1370Y2010D01*
X1372Y2010D01*
X1372Y2008D01*
X1374Y2008D01*
X1374Y2006D01*
X1376Y2006D01*
X1376Y2004D01*
X1378Y2004D01*
X1378Y2002D01*
X1380Y2002D01*
X1380Y2000D01*
X1382Y2000D01*
X1382Y1998D01*
X1384Y1998D01*
X1384Y1996D01*
X1388Y1996D01*
X1388Y1994D01*
X1390Y1994D01*
X1390Y1992D01*
X1392Y1992D01*
X1392Y1990D01*
X1394Y1990D01*
X1394Y1988D01*
X1396Y1988D01*
X1396Y1986D01*
X1398Y1986D01*
X1398Y1984D01*
X1400Y1984D01*
X1400Y1982D01*
X1402Y1982D01*
X1402Y1980D01*
X1404Y1980D01*
X1404Y1978D01*
X1406Y1978D01*
X1406Y1976D01*
X1408Y1976D01*
X1408Y1974D01*
X1410Y1974D01*
X1410Y1972D01*
X1412Y1972D01*
X1412Y1970D01*
X1414Y1970D01*
X1414Y1968D01*
X1416Y1968D01*
X1416Y1966D01*
X1418Y1966D01*
X1418Y1964D01*
X1420Y1964D01*
X1420Y1962D01*
X1422Y1962D01*
X1422Y1960D01*
X1424Y1960D01*
X1424Y1958D01*
X1426Y1958D01*
X1426Y1956D01*
X1428Y1956D01*
X1428Y1954D01*
X1430Y1954D01*
X1430Y1952D01*
X1432Y1952D01*
X1432Y1950D01*
X1434Y1950D01*
X1434Y1948D01*
X1436Y1948D01*
X1436Y1946D01*
X1438Y1946D01*
X1438Y1944D01*
X1440Y1944D01*
X1440Y1942D01*
X1442Y1942D01*
X1442Y1940D01*
X1444Y1940D01*
X1444Y1938D01*
X1446Y1938D01*
X1446Y1936D01*
X1448Y1936D01*
X1448Y1934D01*
X1450Y1934D01*
X1450Y1932D01*
X1452Y1932D01*
X1452Y1930D01*
X1454Y1930D01*
X1454Y1928D01*
X1456Y1928D01*
X1456Y1926D01*
X1458Y1926D01*
X1458Y1924D01*
X1460Y1924D01*
X1460Y1922D01*
X1462Y1922D01*
X1462Y1920D01*
X1464Y1920D01*
X1464Y1918D01*
X1466Y1918D01*
X1466Y1916D01*
X1468Y1916D01*
X1468Y1914D01*
X1470Y1914D01*
X1470Y1912D01*
X1472Y1912D01*
X1472Y1910D01*
X1474Y1910D01*
X1474Y1908D01*
X1476Y1908D01*
X1476Y1906D01*
X1478Y1906D01*
X1478Y1904D01*
X1480Y1904D01*
X1480Y1902D01*
X1482Y1902D01*
X1482Y1900D01*
X1484Y1900D01*
X1484Y1898D01*
X1486Y1898D01*
X1486Y1896D01*
X1488Y1896D01*
X1488Y1894D01*
X1490Y1894D01*
X1490Y1892D01*
X1492Y1892D01*
X1492Y1890D01*
X1494Y1890D01*
X1494Y1888D01*
X1496Y1888D01*
X1496Y1886D01*
X1498Y1886D01*
X1498Y1884D01*
X1500Y1884D01*
X1500Y1882D01*
X1502Y1882D01*
X1502Y1880D01*
X1504Y1880D01*
X1504Y1878D01*
X1506Y1878D01*
X1506Y1876D01*
X1508Y1876D01*
X1508Y1874D01*
X1510Y1874D01*
X1510Y1872D01*
X1512Y1872D01*
X1512Y1870D01*
X1514Y1870D01*
X1514Y1868D01*
X1534Y1868D01*
X1534Y2322D01*
X40Y2322D01*
G37*
D02*
G36*
X40Y2296D02*
X40Y708D01*
X60Y708D01*
X60Y712D01*
X62Y712D01*
X62Y714D01*
X64Y714D01*
X64Y718D01*
X66Y718D01*
X66Y1084D01*
X68Y1084D01*
X68Y1994D01*
X70Y1994D01*
X70Y2000D01*
X72Y2000D01*
X72Y2004D01*
X74Y2004D01*
X74Y2008D01*
X76Y2008D01*
X76Y2010D01*
X78Y2010D01*
X78Y2012D01*
X80Y2012D01*
X80Y2016D01*
X82Y2016D01*
X82Y2018D01*
X84Y2018D01*
X84Y2020D01*
X86Y2020D01*
X86Y2022D01*
X88Y2022D01*
X88Y2024D01*
X90Y2024D01*
X90Y2026D01*
X92Y2026D01*
X92Y2028D01*
X94Y2028D01*
X94Y2030D01*
X96Y2030D01*
X96Y2032D01*
X98Y2032D01*
X98Y2034D01*
X100Y2034D01*
X100Y2036D01*
X102Y2036D01*
X102Y2038D01*
X104Y2038D01*
X104Y2040D01*
X106Y2040D01*
X106Y2042D01*
X108Y2042D01*
X108Y2044D01*
X110Y2044D01*
X110Y2046D01*
X112Y2046D01*
X112Y2048D01*
X114Y2048D01*
X114Y2050D01*
X116Y2050D01*
X116Y2052D01*
X118Y2052D01*
X118Y2054D01*
X120Y2054D01*
X120Y2056D01*
X122Y2056D01*
X122Y2058D01*
X124Y2058D01*
X124Y2060D01*
X126Y2060D01*
X126Y2062D01*
X128Y2062D01*
X128Y2064D01*
X130Y2064D01*
X130Y2066D01*
X132Y2066D01*
X132Y2068D01*
X134Y2068D01*
X134Y2070D01*
X136Y2070D01*
X136Y2072D01*
X138Y2072D01*
X138Y2074D01*
X140Y2074D01*
X140Y2076D01*
X142Y2076D01*
X142Y2078D01*
X144Y2078D01*
X144Y2080D01*
X146Y2080D01*
X146Y2082D01*
X148Y2082D01*
X148Y2084D01*
X150Y2084D01*
X150Y2086D01*
X152Y2086D01*
X152Y2088D01*
X154Y2088D01*
X154Y2090D01*
X156Y2090D01*
X156Y2092D01*
X158Y2092D01*
X158Y2094D01*
X160Y2094D01*
X160Y2096D01*
X162Y2096D01*
X162Y2098D01*
X164Y2098D01*
X164Y2100D01*
X166Y2100D01*
X166Y2102D01*
X168Y2102D01*
X168Y2104D01*
X170Y2104D01*
X170Y2106D01*
X172Y2106D01*
X172Y2108D01*
X174Y2108D01*
X174Y2110D01*
X176Y2110D01*
X176Y2112D01*
X178Y2112D01*
X178Y2114D01*
X180Y2114D01*
X180Y2116D01*
X182Y2116D01*
X182Y2118D01*
X184Y2118D01*
X184Y2120D01*
X186Y2120D01*
X186Y2122D01*
X188Y2122D01*
X188Y2124D01*
X190Y2124D01*
X190Y2126D01*
X192Y2126D01*
X192Y2128D01*
X194Y2128D01*
X194Y2130D01*
X196Y2130D01*
X196Y2132D01*
X198Y2132D01*
X198Y2134D01*
X200Y2134D01*
X200Y2136D01*
X202Y2136D01*
X202Y2138D01*
X204Y2138D01*
X204Y2140D01*
X206Y2140D01*
X206Y2142D01*
X208Y2142D01*
X208Y2144D01*
X210Y2144D01*
X210Y2146D01*
X212Y2146D01*
X212Y2148D01*
X214Y2148D01*
X214Y2150D01*
X216Y2150D01*
X216Y2152D01*
X218Y2152D01*
X218Y2154D01*
X220Y2154D01*
X220Y2156D01*
X222Y2156D01*
X222Y2158D01*
X224Y2158D01*
X224Y2160D01*
X226Y2160D01*
X226Y2162D01*
X228Y2162D01*
X228Y2164D01*
X230Y2164D01*
X230Y2166D01*
X232Y2166D01*
X232Y2168D01*
X234Y2168D01*
X234Y2170D01*
X236Y2170D01*
X236Y2172D01*
X238Y2172D01*
X238Y2174D01*
X240Y2174D01*
X240Y2176D01*
X242Y2176D01*
X242Y2178D01*
X244Y2178D01*
X244Y2180D01*
X246Y2180D01*
X246Y2182D01*
X248Y2182D01*
X248Y2184D01*
X250Y2184D01*
X250Y2186D01*
X252Y2186D01*
X252Y2188D01*
X254Y2188D01*
X254Y2190D01*
X256Y2190D01*
X256Y2192D01*
X258Y2192D01*
X258Y2194D01*
X260Y2194D01*
X260Y2196D01*
X262Y2196D01*
X262Y2198D01*
X264Y2198D01*
X264Y2200D01*
X266Y2200D01*
X266Y2202D01*
X268Y2202D01*
X268Y2204D01*
X270Y2204D01*
X270Y2206D01*
X272Y2206D01*
X272Y2208D01*
X274Y2208D01*
X274Y2210D01*
X276Y2210D01*
X276Y2212D01*
X278Y2212D01*
X278Y2214D01*
X280Y2214D01*
X280Y2216D01*
X282Y2216D01*
X282Y2218D01*
X284Y2218D01*
X284Y2220D01*
X286Y2220D01*
X286Y2222D01*
X288Y2222D01*
X288Y2224D01*
X290Y2224D01*
X290Y2228D01*
X292Y2228D01*
X292Y2230D01*
X294Y2230D01*
X294Y2232D01*
X296Y2232D01*
X296Y2234D01*
X298Y2234D01*
X298Y2236D01*
X300Y2236D01*
X300Y2238D01*
X302Y2238D01*
X302Y2240D01*
X304Y2240D01*
X304Y2296D01*
X40Y2296D01*
G37*
D02*
G36*
X428Y2296D02*
X428Y2170D01*
X372Y2170D01*
X372Y2168D01*
X370Y2168D01*
X370Y2166D01*
X368Y2166D01*
X368Y2164D01*
X366Y2164D01*
X366Y2162D01*
X364Y2162D01*
X364Y2160D01*
X362Y2160D01*
X362Y2158D01*
X360Y2158D01*
X360Y2156D01*
X358Y2156D01*
X358Y2154D01*
X356Y2154D01*
X356Y2152D01*
X354Y2152D01*
X354Y2150D01*
X352Y2150D01*
X352Y2148D01*
X350Y2148D01*
X350Y2146D01*
X348Y2146D01*
X348Y2144D01*
X346Y2144D01*
X346Y2142D01*
X344Y2142D01*
X344Y2140D01*
X342Y2140D01*
X342Y2138D01*
X340Y2138D01*
X340Y2136D01*
X338Y2136D01*
X338Y2134D01*
X336Y2134D01*
X336Y2132D01*
X334Y2132D01*
X334Y2130D01*
X332Y2130D01*
X332Y2128D01*
X330Y2128D01*
X330Y2126D01*
X328Y2126D01*
X328Y2124D01*
X326Y2124D01*
X326Y2122D01*
X324Y2122D01*
X324Y2120D01*
X322Y2120D01*
X322Y2118D01*
X320Y2118D01*
X320Y2116D01*
X318Y2116D01*
X318Y2114D01*
X316Y2114D01*
X316Y2112D01*
X314Y2112D01*
X314Y2110D01*
X312Y2110D01*
X312Y2108D01*
X310Y2108D01*
X310Y2106D01*
X308Y2106D01*
X308Y2104D01*
X306Y2104D01*
X306Y2102D01*
X304Y2102D01*
X304Y2100D01*
X302Y2100D01*
X302Y2098D01*
X300Y2098D01*
X300Y2096D01*
X370Y2096D01*
X370Y2094D01*
X382Y2094D01*
X382Y2092D01*
X388Y2092D01*
X388Y2090D01*
X392Y2090D01*
X392Y2088D01*
X396Y2088D01*
X396Y2086D01*
X400Y2086D01*
X400Y2084D01*
X402Y2084D01*
X402Y2082D01*
X406Y2082D01*
X406Y2080D01*
X408Y2080D01*
X408Y2078D01*
X410Y2078D01*
X410Y2076D01*
X412Y2076D01*
X412Y2074D01*
X414Y2074D01*
X414Y2070D01*
X416Y2070D01*
X416Y2068D01*
X418Y2068D01*
X418Y2066D01*
X420Y2066D01*
X420Y2062D01*
X422Y2062D01*
X422Y2058D01*
X424Y2058D01*
X424Y2052D01*
X426Y2052D01*
X426Y2046D01*
X428Y2046D01*
X428Y2020D01*
X426Y2020D01*
X426Y2014D01*
X424Y2014D01*
X424Y2008D01*
X422Y2008D01*
X422Y2004D01*
X420Y2004D01*
X420Y2000D01*
X418Y2000D01*
X418Y1998D01*
X416Y1998D01*
X416Y1994D01*
X414Y1994D01*
X414Y1992D01*
X412Y1992D01*
X412Y1990D01*
X410Y1990D01*
X410Y1988D01*
X408Y1988D01*
X408Y1986D01*
X406Y1986D01*
X406Y1984D01*
X404Y1984D01*
X404Y1982D01*
X400Y1982D01*
X400Y1980D01*
X398Y1980D01*
X398Y1978D01*
X394Y1978D01*
X394Y1976D01*
X390Y1976D01*
X390Y1974D01*
X384Y1974D01*
X384Y1972D01*
X374Y1972D01*
X374Y1970D01*
X550Y1970D01*
X550Y2166D01*
X552Y2166D01*
X552Y2172D01*
X554Y2172D01*
X554Y2176D01*
X556Y2176D01*
X556Y2180D01*
X558Y2180D01*
X558Y2182D01*
X560Y2182D01*
X560Y2184D01*
X562Y2184D01*
X562Y2186D01*
X564Y2186D01*
X564Y2188D01*
X566Y2188D01*
X566Y2190D01*
X568Y2190D01*
X568Y2192D01*
X570Y2192D01*
X570Y2194D01*
X572Y2194D01*
X572Y2196D01*
X574Y2196D01*
X574Y2198D01*
X576Y2198D01*
X576Y2200D01*
X578Y2200D01*
X578Y2202D01*
X580Y2202D01*
X580Y2204D01*
X582Y2204D01*
X582Y2206D01*
X584Y2206D01*
X584Y2208D01*
X586Y2208D01*
X586Y2210D01*
X588Y2210D01*
X588Y2212D01*
X590Y2212D01*
X590Y2214D01*
X592Y2214D01*
X592Y2216D01*
X594Y2216D01*
X594Y2218D01*
X596Y2218D01*
X596Y2222D01*
X598Y2222D01*
X598Y2224D01*
X600Y2224D01*
X600Y2226D01*
X602Y2226D01*
X602Y2228D01*
X604Y2228D01*
X604Y2248D01*
X606Y2248D01*
X606Y2254D01*
X608Y2254D01*
X608Y2258D01*
X610Y2258D01*
X610Y2262D01*
X612Y2262D01*
X612Y2266D01*
X614Y2266D01*
X614Y2268D01*
X616Y2268D01*
X616Y2272D01*
X618Y2272D01*
X618Y2274D01*
X620Y2274D01*
X620Y2276D01*
X622Y2276D01*
X622Y2278D01*
X624Y2278D01*
X624Y2280D01*
X626Y2280D01*
X626Y2282D01*
X628Y2282D01*
X628Y2284D01*
X632Y2284D01*
X632Y2286D01*
X636Y2286D01*
X636Y2288D01*
X638Y2288D01*
X638Y2290D01*
X644Y2290D01*
X644Y2292D01*
X650Y2292D01*
X650Y2294D01*
X662Y2294D01*
X662Y2296D01*
X428Y2296D01*
G37*
D02*
G36*
X670Y2296D02*
X670Y2294D01*
X682Y2294D01*
X682Y2292D01*
X688Y2292D01*
X688Y2290D01*
X692Y2290D01*
X692Y2288D01*
X696Y2288D01*
X696Y2286D01*
X700Y2286D01*
X700Y2284D01*
X702Y2284D01*
X702Y2282D01*
X706Y2282D01*
X706Y2280D01*
X708Y2280D01*
X708Y2278D01*
X710Y2278D01*
X710Y2276D01*
X712Y2276D01*
X712Y2274D01*
X714Y2274D01*
X714Y2270D01*
X716Y2270D01*
X716Y2268D01*
X718Y2268D01*
X718Y2266D01*
X720Y2266D01*
X720Y2262D01*
X722Y2262D01*
X722Y2258D01*
X724Y2258D01*
X724Y2252D01*
X726Y2252D01*
X726Y2246D01*
X728Y2246D01*
X728Y2220D01*
X726Y2220D01*
X726Y2214D01*
X724Y2214D01*
X724Y2208D01*
X722Y2208D01*
X722Y2204D01*
X720Y2204D01*
X720Y2200D01*
X718Y2200D01*
X718Y2198D01*
X716Y2198D01*
X716Y2194D01*
X714Y2194D01*
X714Y2192D01*
X712Y2192D01*
X712Y2190D01*
X710Y2190D01*
X710Y2188D01*
X708Y2188D01*
X708Y2186D01*
X706Y2186D01*
X706Y2184D01*
X704Y2184D01*
X704Y2182D01*
X700Y2182D01*
X700Y2180D01*
X698Y2180D01*
X698Y2178D01*
X694Y2178D01*
X694Y2176D01*
X690Y2176D01*
X690Y2174D01*
X684Y2174D01*
X684Y2172D01*
X674Y2172D01*
X674Y2170D01*
X660Y2170D01*
X660Y2168D01*
X658Y2168D01*
X658Y2166D01*
X656Y2166D01*
X656Y2164D01*
X654Y2164D01*
X654Y2160D01*
X652Y2160D01*
X652Y2158D01*
X650Y2158D01*
X650Y2156D01*
X648Y2156D01*
X648Y2154D01*
X646Y2154D01*
X646Y2152D01*
X644Y2152D01*
X644Y2150D01*
X642Y2150D01*
X642Y2148D01*
X640Y2148D01*
X640Y2146D01*
X638Y2146D01*
X638Y2144D01*
X636Y2144D01*
X636Y2142D01*
X634Y2142D01*
X634Y2140D01*
X632Y2140D01*
X632Y2096D01*
X670Y2096D01*
X670Y2094D01*
X682Y2094D01*
X682Y2092D01*
X688Y2092D01*
X688Y2090D01*
X692Y2090D01*
X692Y2088D01*
X696Y2088D01*
X696Y2086D01*
X700Y2086D01*
X700Y2084D01*
X702Y2084D01*
X702Y2082D01*
X706Y2082D01*
X706Y2080D01*
X708Y2080D01*
X708Y2078D01*
X710Y2078D01*
X710Y2076D01*
X712Y2076D01*
X712Y2074D01*
X714Y2074D01*
X714Y2070D01*
X716Y2070D01*
X716Y2068D01*
X718Y2068D01*
X718Y2066D01*
X720Y2066D01*
X720Y2062D01*
X722Y2062D01*
X722Y2058D01*
X724Y2058D01*
X724Y2052D01*
X726Y2052D01*
X726Y2046D01*
X728Y2046D01*
X728Y2028D01*
X730Y2028D01*
X730Y2026D01*
X732Y2026D01*
X732Y2024D01*
X734Y2024D01*
X734Y2022D01*
X736Y2022D01*
X736Y2020D01*
X738Y2020D01*
X738Y2018D01*
X740Y2018D01*
X740Y2016D01*
X742Y2016D01*
X742Y2014D01*
X744Y2014D01*
X744Y2012D01*
X746Y2012D01*
X746Y2010D01*
X748Y2010D01*
X748Y2008D01*
X750Y2008D01*
X750Y2006D01*
X752Y2006D01*
X752Y2004D01*
X754Y2004D01*
X754Y2002D01*
X756Y2002D01*
X756Y2000D01*
X758Y2000D01*
X758Y1998D01*
X760Y1998D01*
X760Y1996D01*
X762Y1996D01*
X762Y1994D01*
X764Y1994D01*
X764Y1992D01*
X766Y1992D01*
X766Y1990D01*
X768Y1990D01*
X768Y1988D01*
X770Y1988D01*
X770Y1986D01*
X772Y1986D01*
X772Y1984D01*
X774Y1984D01*
X774Y1980D01*
X794Y1980D01*
X794Y1992D01*
X792Y1992D01*
X792Y1996D01*
X790Y1996D01*
X790Y1998D01*
X788Y1998D01*
X788Y2002D01*
X786Y2002D01*
X786Y2004D01*
X784Y2004D01*
X784Y2008D01*
X782Y2008D01*
X782Y2014D01*
X780Y2014D01*
X780Y2024D01*
X778Y2024D01*
X778Y2042D01*
X780Y2042D01*
X780Y2050D01*
X782Y2050D01*
X782Y2056D01*
X784Y2056D01*
X784Y2060D01*
X786Y2060D01*
X786Y2064D01*
X788Y2064D01*
X788Y2068D01*
X790Y2068D01*
X790Y2070D01*
X792Y2070D01*
X792Y2072D01*
X794Y2072D01*
X794Y2092D01*
X792Y2092D01*
X792Y2096D01*
X790Y2096D01*
X790Y2098D01*
X788Y2098D01*
X788Y2102D01*
X786Y2102D01*
X786Y2104D01*
X784Y2104D01*
X784Y2108D01*
X782Y2108D01*
X782Y2114D01*
X780Y2114D01*
X780Y2124D01*
X778Y2124D01*
X778Y2142D01*
X780Y2142D01*
X780Y2150D01*
X782Y2150D01*
X782Y2156D01*
X784Y2156D01*
X784Y2160D01*
X786Y2160D01*
X786Y2164D01*
X788Y2164D01*
X788Y2168D01*
X790Y2168D01*
X790Y2170D01*
X792Y2170D01*
X792Y2172D01*
X794Y2172D01*
X794Y2192D01*
X792Y2192D01*
X792Y2196D01*
X790Y2196D01*
X790Y2198D01*
X788Y2198D01*
X788Y2202D01*
X786Y2202D01*
X786Y2204D01*
X784Y2204D01*
X784Y2208D01*
X782Y2208D01*
X782Y2214D01*
X780Y2214D01*
X780Y2224D01*
X778Y2224D01*
X778Y2242D01*
X780Y2242D01*
X780Y2250D01*
X782Y2250D01*
X782Y2256D01*
X784Y2256D01*
X784Y2260D01*
X786Y2260D01*
X786Y2264D01*
X788Y2264D01*
X788Y2268D01*
X790Y2268D01*
X790Y2270D01*
X792Y2270D01*
X792Y2272D01*
X794Y2272D01*
X794Y2276D01*
X796Y2276D01*
X796Y2278D01*
X798Y2278D01*
X798Y2280D01*
X802Y2280D01*
X802Y2282D01*
X804Y2282D01*
X804Y2284D01*
X806Y2284D01*
X806Y2286D01*
X810Y2286D01*
X810Y2288D01*
X814Y2288D01*
X814Y2290D01*
X818Y2290D01*
X818Y2292D01*
X824Y2292D01*
X824Y2294D01*
X836Y2294D01*
X836Y2296D01*
X670Y2296D01*
G37*
D02*
G36*
X846Y2296D02*
X846Y2294D01*
X856Y2294D01*
X856Y2292D01*
X864Y2292D01*
X864Y2290D01*
X868Y2290D01*
X868Y2288D01*
X872Y2288D01*
X872Y2286D01*
X874Y2286D01*
X874Y2284D01*
X878Y2284D01*
X878Y2282D01*
X900Y2282D01*
X900Y2280D01*
X908Y2280D01*
X908Y2278D01*
X912Y2278D01*
X912Y2276D01*
X916Y2276D01*
X916Y2274D01*
X918Y2274D01*
X918Y2272D01*
X920Y2272D01*
X920Y2270D01*
X924Y2270D01*
X924Y2268D01*
X926Y2268D01*
X926Y2266D01*
X928Y2266D01*
X928Y2264D01*
X930Y2264D01*
X930Y2262D01*
X932Y2262D01*
X932Y2260D01*
X934Y2260D01*
X934Y2258D01*
X936Y2258D01*
X936Y2256D01*
X938Y2256D01*
X938Y2254D01*
X940Y2254D01*
X940Y2252D01*
X942Y2252D01*
X942Y2250D01*
X944Y2250D01*
X944Y2248D01*
X946Y2248D01*
X946Y2246D01*
X948Y2246D01*
X948Y2244D01*
X950Y2244D01*
X950Y2242D01*
X952Y2242D01*
X952Y2240D01*
X954Y2240D01*
X954Y2238D01*
X956Y2238D01*
X956Y2236D01*
X958Y2236D01*
X958Y2234D01*
X960Y2234D01*
X960Y2232D01*
X962Y2232D01*
X962Y2230D01*
X964Y2230D01*
X964Y2228D01*
X966Y2228D01*
X966Y2226D01*
X968Y2226D01*
X968Y2224D01*
X970Y2224D01*
X970Y2222D01*
X972Y2222D01*
X972Y2220D01*
X974Y2220D01*
X974Y2218D01*
X976Y2218D01*
X976Y2216D01*
X978Y2216D01*
X978Y2214D01*
X980Y2214D01*
X980Y2212D01*
X982Y2212D01*
X982Y2210D01*
X984Y2210D01*
X984Y2208D01*
X986Y2208D01*
X986Y2206D01*
X988Y2206D01*
X988Y2204D01*
X990Y2204D01*
X990Y2202D01*
X992Y2202D01*
X992Y2200D01*
X994Y2200D01*
X994Y2198D01*
X996Y2198D01*
X996Y2196D01*
X998Y2196D01*
X998Y2194D01*
X1000Y2194D01*
X1000Y2192D01*
X1002Y2192D01*
X1002Y2190D01*
X1004Y2190D01*
X1004Y2188D01*
X1006Y2188D01*
X1006Y2186D01*
X1008Y2186D01*
X1008Y2184D01*
X1010Y2184D01*
X1010Y2182D01*
X1012Y2182D01*
X1012Y2180D01*
X1014Y2180D01*
X1014Y2178D01*
X1016Y2178D01*
X1016Y2176D01*
X1018Y2176D01*
X1018Y2174D01*
X1020Y2174D01*
X1020Y2172D01*
X1022Y2172D01*
X1022Y2170D01*
X1024Y2170D01*
X1024Y2168D01*
X1026Y2168D01*
X1026Y2164D01*
X1028Y2164D01*
X1028Y2162D01*
X1030Y2162D01*
X1030Y2160D01*
X1032Y2160D01*
X1032Y2156D01*
X1034Y2156D01*
X1034Y2152D01*
X1036Y2152D01*
X1036Y2146D01*
X1038Y2146D01*
X1038Y2100D01*
X1040Y2100D01*
X1040Y2082D01*
X1088Y2082D01*
X1088Y2102D01*
X1086Y2102D01*
X1086Y2104D01*
X1084Y2104D01*
X1084Y2108D01*
X1082Y2108D01*
X1082Y2114D01*
X1080Y2114D01*
X1080Y2124D01*
X1078Y2124D01*
X1078Y2142D01*
X1080Y2142D01*
X1080Y2150D01*
X1082Y2150D01*
X1082Y2156D01*
X1084Y2156D01*
X1084Y2160D01*
X1086Y2160D01*
X1086Y2164D01*
X1088Y2164D01*
X1088Y2168D01*
X1090Y2168D01*
X1090Y2170D01*
X1092Y2170D01*
X1092Y2172D01*
X1094Y2172D01*
X1094Y2192D01*
X1092Y2192D01*
X1092Y2196D01*
X1090Y2196D01*
X1090Y2198D01*
X1088Y2198D01*
X1088Y2202D01*
X1086Y2202D01*
X1086Y2204D01*
X1084Y2204D01*
X1084Y2208D01*
X1082Y2208D01*
X1082Y2214D01*
X1080Y2214D01*
X1080Y2224D01*
X1078Y2224D01*
X1078Y2242D01*
X1080Y2242D01*
X1080Y2250D01*
X1082Y2250D01*
X1082Y2256D01*
X1084Y2256D01*
X1084Y2260D01*
X1086Y2260D01*
X1086Y2264D01*
X1088Y2264D01*
X1088Y2268D01*
X1090Y2268D01*
X1090Y2270D01*
X1092Y2270D01*
X1092Y2272D01*
X1094Y2272D01*
X1094Y2276D01*
X1096Y2276D01*
X1096Y2278D01*
X1098Y2278D01*
X1098Y2280D01*
X1102Y2280D01*
X1102Y2282D01*
X1104Y2282D01*
X1104Y2284D01*
X1106Y2284D01*
X1106Y2286D01*
X1110Y2286D01*
X1110Y2288D01*
X1114Y2288D01*
X1114Y2290D01*
X1118Y2290D01*
X1118Y2292D01*
X1124Y2292D01*
X1124Y2294D01*
X1136Y2294D01*
X1136Y2296D01*
X846Y2296D01*
G37*
D02*
G36*
X298Y2096D02*
X298Y2094D01*
X296Y2094D01*
X296Y2092D01*
X294Y2092D01*
X294Y2090D01*
X292Y2090D01*
X292Y2088D01*
X290Y2088D01*
X290Y2086D01*
X288Y2086D01*
X288Y2084D01*
X286Y2084D01*
X286Y2082D01*
X284Y2082D01*
X284Y2080D01*
X282Y2080D01*
X282Y2078D01*
X280Y2078D01*
X280Y2076D01*
X278Y2076D01*
X278Y2074D01*
X276Y2074D01*
X276Y2072D01*
X274Y2072D01*
X274Y2070D01*
X272Y2070D01*
X272Y2068D01*
X270Y2068D01*
X270Y2066D01*
X268Y2066D01*
X268Y2064D01*
X266Y2064D01*
X266Y2062D01*
X264Y2062D01*
X264Y2060D01*
X262Y2060D01*
X262Y2058D01*
X260Y2058D01*
X260Y2056D01*
X258Y2056D01*
X258Y2054D01*
X256Y2054D01*
X256Y2052D01*
X254Y2052D01*
X254Y2050D01*
X252Y2050D01*
X252Y2048D01*
X250Y2048D01*
X250Y2046D01*
X248Y2046D01*
X248Y2044D01*
X246Y2044D01*
X246Y2042D01*
X244Y2042D01*
X244Y2040D01*
X242Y2040D01*
X242Y2038D01*
X240Y2038D01*
X240Y2036D01*
X238Y2036D01*
X238Y2034D01*
X236Y2034D01*
X236Y2032D01*
X234Y2032D01*
X234Y2030D01*
X232Y2030D01*
X232Y2028D01*
X230Y2028D01*
X230Y2026D01*
X228Y2026D01*
X228Y2024D01*
X226Y2024D01*
X226Y2022D01*
X224Y2022D01*
X224Y2020D01*
X222Y2020D01*
X222Y2018D01*
X220Y2018D01*
X220Y2016D01*
X218Y2016D01*
X218Y2014D01*
X216Y2014D01*
X216Y2012D01*
X214Y2012D01*
X214Y2010D01*
X212Y2010D01*
X212Y2008D01*
X210Y2008D01*
X210Y2006D01*
X208Y2006D01*
X208Y2004D01*
X206Y2004D01*
X206Y2002D01*
X204Y2002D01*
X204Y2000D01*
X202Y2000D01*
X202Y1998D01*
X200Y1998D01*
X200Y1996D01*
X198Y1996D01*
X198Y1994D01*
X196Y1994D01*
X196Y1992D01*
X194Y1992D01*
X194Y1990D01*
X192Y1990D01*
X192Y1988D01*
X190Y1988D01*
X190Y1986D01*
X188Y1986D01*
X188Y1984D01*
X186Y1984D01*
X186Y1982D01*
X184Y1982D01*
X184Y1980D01*
X182Y1980D01*
X182Y1978D01*
X180Y1978D01*
X180Y1976D01*
X178Y1976D01*
X178Y1974D01*
X176Y1974D01*
X176Y1972D01*
X174Y1972D01*
X174Y1970D01*
X356Y1970D01*
X356Y1972D01*
X348Y1972D01*
X348Y1974D01*
X342Y1974D01*
X342Y1976D01*
X338Y1976D01*
X338Y1978D01*
X334Y1978D01*
X334Y1980D01*
X332Y1980D01*
X332Y1982D01*
X328Y1982D01*
X328Y1984D01*
X326Y1984D01*
X326Y1986D01*
X324Y1986D01*
X324Y1988D01*
X322Y1988D01*
X322Y1990D01*
X320Y1990D01*
X320Y1992D01*
X318Y1992D01*
X318Y1994D01*
X316Y1994D01*
X316Y1996D01*
X314Y1996D01*
X314Y2000D01*
X312Y2000D01*
X312Y2002D01*
X310Y2002D01*
X310Y2006D01*
X308Y2006D01*
X308Y2012D01*
X306Y2012D01*
X306Y2018D01*
X304Y2018D01*
X304Y2048D01*
X306Y2048D01*
X306Y2054D01*
X308Y2054D01*
X308Y2058D01*
X310Y2058D01*
X310Y2062D01*
X312Y2062D01*
X312Y2066D01*
X314Y2066D01*
X314Y2068D01*
X316Y2068D01*
X316Y2072D01*
X318Y2072D01*
X318Y2074D01*
X320Y2074D01*
X320Y2076D01*
X322Y2076D01*
X322Y2078D01*
X324Y2078D01*
X324Y2080D01*
X326Y2080D01*
X326Y2082D01*
X328Y2082D01*
X328Y2084D01*
X332Y2084D01*
X332Y2086D01*
X336Y2086D01*
X336Y2088D01*
X338Y2088D01*
X338Y2090D01*
X344Y2090D01*
X344Y2092D01*
X350Y2092D01*
X350Y2094D01*
X362Y2094D01*
X362Y2096D01*
X298Y2096D01*
G37*
D02*
G36*
X632Y2096D02*
X632Y2094D01*
X662Y2094D01*
X662Y2096D01*
X632Y2096D01*
G37*
D02*
G36*
X172Y1970D02*
X172Y1968D01*
X550Y1968D01*
X550Y1970D01*
X172Y1970D01*
G37*
D02*
G36*
X172Y1970D02*
X172Y1968D01*
X550Y1968D01*
X550Y1970D01*
X172Y1970D01*
G37*
D02*
G36*
X170Y1968D02*
X170Y1966D01*
X168Y1966D01*
X168Y1962D01*
X166Y1962D01*
X166Y1720D01*
X578Y1720D01*
X578Y1718D01*
X602Y1718D01*
X602Y1890D01*
X600Y1890D01*
X600Y1892D01*
X598Y1892D01*
X598Y1894D01*
X596Y1894D01*
X596Y1896D01*
X594Y1896D01*
X594Y1898D01*
X592Y1898D01*
X592Y1900D01*
X590Y1900D01*
X590Y1902D01*
X588Y1902D01*
X588Y1904D01*
X586Y1904D01*
X586Y1906D01*
X584Y1906D01*
X584Y1908D01*
X580Y1908D01*
X580Y1910D01*
X578Y1910D01*
X578Y1912D01*
X576Y1912D01*
X576Y1914D01*
X574Y1914D01*
X574Y1916D01*
X572Y1916D01*
X572Y1918D01*
X570Y1918D01*
X570Y1920D01*
X568Y1920D01*
X568Y1922D01*
X566Y1922D01*
X566Y1924D01*
X564Y1924D01*
X564Y1926D01*
X562Y1926D01*
X562Y1928D01*
X560Y1928D01*
X560Y1930D01*
X558Y1930D01*
X558Y1932D01*
X556Y1932D01*
X556Y1936D01*
X554Y1936D01*
X554Y1940D01*
X552Y1940D01*
X552Y1946D01*
X550Y1946D01*
X550Y1968D01*
X170Y1968D01*
G37*
D02*
G36*
X166Y1720D02*
X166Y1620D01*
X478Y1620D01*
X478Y1618D01*
X486Y1618D01*
X486Y1616D01*
X490Y1616D01*
X490Y1614D01*
X494Y1614D01*
X494Y1612D01*
X498Y1612D01*
X498Y1610D01*
X502Y1610D01*
X502Y1608D01*
X504Y1608D01*
X504Y1606D01*
X506Y1606D01*
X506Y1604D01*
X508Y1604D01*
X508Y1602D01*
X510Y1602D01*
X510Y1600D01*
X512Y1600D01*
X512Y1598D01*
X514Y1598D01*
X514Y1596D01*
X552Y1596D01*
X552Y1598D01*
X544Y1598D01*
X544Y1600D01*
X540Y1600D01*
X540Y1602D01*
X536Y1602D01*
X536Y1604D01*
X532Y1604D01*
X532Y1606D01*
X530Y1606D01*
X530Y1608D01*
X526Y1608D01*
X526Y1610D01*
X524Y1610D01*
X524Y1612D01*
X522Y1612D01*
X522Y1614D01*
X520Y1614D01*
X520Y1616D01*
X518Y1616D01*
X518Y1618D01*
X516Y1618D01*
X516Y1622D01*
X514Y1622D01*
X514Y1624D01*
X512Y1624D01*
X512Y1628D01*
X510Y1628D01*
X510Y1632D01*
X508Y1632D01*
X508Y1636D01*
X506Y1636D01*
X506Y1644D01*
X504Y1644D01*
X504Y1672D01*
X506Y1672D01*
X506Y1678D01*
X508Y1678D01*
X508Y1684D01*
X510Y1684D01*
X510Y1688D01*
X512Y1688D01*
X512Y1690D01*
X514Y1690D01*
X514Y1694D01*
X516Y1694D01*
X516Y1696D01*
X518Y1696D01*
X518Y1700D01*
X520Y1700D01*
X520Y1702D01*
X522Y1702D01*
X522Y1704D01*
X524Y1704D01*
X524Y1706D01*
X528Y1706D01*
X528Y1708D01*
X530Y1708D01*
X530Y1710D01*
X534Y1710D01*
X534Y1712D01*
X536Y1712D01*
X536Y1714D01*
X540Y1714D01*
X540Y1716D01*
X546Y1716D01*
X546Y1718D01*
X554Y1718D01*
X554Y1720D01*
X166Y1720D01*
G37*
D02*
G36*
X166Y1620D02*
X166Y1496D01*
X452Y1496D01*
X452Y1498D01*
X444Y1498D01*
X444Y1500D01*
X440Y1500D01*
X440Y1502D01*
X436Y1502D01*
X436Y1504D01*
X432Y1504D01*
X432Y1506D01*
X430Y1506D01*
X430Y1508D01*
X426Y1508D01*
X426Y1510D01*
X424Y1510D01*
X424Y1512D01*
X422Y1512D01*
X422Y1514D01*
X420Y1514D01*
X420Y1516D01*
X418Y1516D01*
X418Y1518D01*
X416Y1518D01*
X416Y1522D01*
X414Y1522D01*
X414Y1524D01*
X412Y1524D01*
X412Y1528D01*
X410Y1528D01*
X410Y1532D01*
X408Y1532D01*
X408Y1536D01*
X406Y1536D01*
X406Y1544D01*
X404Y1544D01*
X404Y1572D01*
X406Y1572D01*
X406Y1578D01*
X408Y1578D01*
X408Y1584D01*
X410Y1584D01*
X410Y1588D01*
X412Y1588D01*
X412Y1590D01*
X414Y1590D01*
X414Y1594D01*
X416Y1594D01*
X416Y1596D01*
X418Y1596D01*
X418Y1600D01*
X420Y1600D01*
X420Y1602D01*
X422Y1602D01*
X422Y1604D01*
X424Y1604D01*
X424Y1606D01*
X428Y1606D01*
X428Y1608D01*
X430Y1608D01*
X430Y1610D01*
X434Y1610D01*
X434Y1612D01*
X436Y1612D01*
X436Y1614D01*
X440Y1614D01*
X440Y1616D01*
X446Y1616D01*
X446Y1618D01*
X454Y1618D01*
X454Y1620D01*
X166Y1620D01*
G37*
D02*
G36*
X580Y1598D02*
X580Y1596D01*
X602Y1596D01*
X602Y1598D01*
X580Y1598D01*
G37*
D02*
G36*
X516Y1596D02*
X516Y1594D01*
X602Y1594D01*
X602Y1596D01*
X516Y1596D01*
G37*
D02*
G36*
X516Y1596D02*
X516Y1594D01*
X602Y1594D01*
X602Y1596D01*
X516Y1596D01*
G37*
D02*
G36*
X518Y1594D02*
X518Y1590D01*
X520Y1590D01*
X520Y1586D01*
X522Y1586D01*
X522Y1582D01*
X524Y1582D01*
X524Y1578D01*
X526Y1578D01*
X526Y1570D01*
X528Y1570D01*
X528Y1546D01*
X526Y1546D01*
X526Y1538D01*
X524Y1538D01*
X524Y1532D01*
X522Y1532D01*
X522Y1528D01*
X520Y1528D01*
X520Y1526D01*
X518Y1526D01*
X518Y1522D01*
X516Y1522D01*
X516Y1520D01*
X514Y1520D01*
X514Y1518D01*
X512Y1518D01*
X512Y1514D01*
X510Y1514D01*
X510Y1512D01*
X508Y1512D01*
X508Y1510D01*
X504Y1510D01*
X504Y1508D01*
X502Y1508D01*
X502Y1506D01*
X498Y1506D01*
X498Y1504D01*
X496Y1504D01*
X496Y1502D01*
X492Y1502D01*
X492Y1500D01*
X486Y1500D01*
X486Y1498D01*
X480Y1498D01*
X480Y1496D01*
X604Y1496D01*
X604Y1498D01*
X602Y1498D01*
X602Y1594D01*
X518Y1594D01*
G37*
D02*
G36*
X166Y1496D02*
X166Y1494D01*
X604Y1494D01*
X604Y1496D01*
X166Y1496D01*
G37*
D02*
G36*
X166Y1496D02*
X166Y1494D01*
X604Y1494D01*
X604Y1496D01*
X166Y1496D01*
G37*
D02*
G36*
X166Y1494D02*
X166Y1070D01*
X164Y1070D01*
X164Y744D01*
X266Y744D01*
X266Y1188D01*
X268Y1188D01*
X268Y1198D01*
X270Y1198D01*
X270Y1202D01*
X272Y1202D01*
X272Y1206D01*
X274Y1206D01*
X274Y1210D01*
X276Y1210D01*
X276Y1212D01*
X278Y1212D01*
X278Y1214D01*
X280Y1214D01*
X280Y1218D01*
X282Y1218D01*
X282Y1220D01*
X284Y1220D01*
X284Y1222D01*
X286Y1222D01*
X286Y1224D01*
X288Y1224D01*
X288Y1226D01*
X290Y1226D01*
X290Y1228D01*
X292Y1228D01*
X292Y1230D01*
X294Y1230D01*
X294Y1232D01*
X296Y1232D01*
X296Y1234D01*
X298Y1234D01*
X298Y1236D01*
X300Y1236D01*
X300Y1238D01*
X302Y1238D01*
X302Y1240D01*
X304Y1240D01*
X304Y1242D01*
X306Y1242D01*
X306Y1244D01*
X308Y1244D01*
X308Y1246D01*
X310Y1246D01*
X310Y1248D01*
X312Y1248D01*
X312Y1250D01*
X314Y1250D01*
X314Y1252D01*
X316Y1252D01*
X316Y1254D01*
X318Y1254D01*
X318Y1256D01*
X320Y1256D01*
X320Y1258D01*
X322Y1258D01*
X322Y1260D01*
X324Y1260D01*
X324Y1262D01*
X326Y1262D01*
X326Y1264D01*
X328Y1264D01*
X328Y1266D01*
X330Y1266D01*
X330Y1268D01*
X332Y1268D01*
X332Y1270D01*
X334Y1270D01*
X334Y1272D01*
X336Y1272D01*
X336Y1274D01*
X338Y1274D01*
X338Y1276D01*
X340Y1276D01*
X340Y1278D01*
X342Y1278D01*
X342Y1280D01*
X344Y1280D01*
X344Y1282D01*
X346Y1282D01*
X346Y1284D01*
X348Y1284D01*
X348Y1286D01*
X350Y1286D01*
X350Y1288D01*
X352Y1288D01*
X352Y1290D01*
X354Y1290D01*
X354Y1292D01*
X356Y1292D01*
X356Y1294D01*
X358Y1294D01*
X358Y1296D01*
X360Y1296D01*
X360Y1298D01*
X362Y1298D01*
X362Y1300D01*
X364Y1300D01*
X364Y1302D01*
X366Y1302D01*
X366Y1304D01*
X368Y1304D01*
X368Y1306D01*
X370Y1306D01*
X370Y1308D01*
X372Y1308D01*
X372Y1310D01*
X374Y1310D01*
X374Y1312D01*
X376Y1312D01*
X376Y1314D01*
X378Y1314D01*
X378Y1316D01*
X380Y1316D01*
X380Y1318D01*
X382Y1318D01*
X382Y1320D01*
X384Y1320D01*
X384Y1322D01*
X386Y1322D01*
X386Y1324D01*
X388Y1324D01*
X388Y1326D01*
X390Y1326D01*
X390Y1328D01*
X392Y1328D01*
X392Y1330D01*
X394Y1330D01*
X394Y1332D01*
X396Y1332D01*
X396Y1334D01*
X398Y1334D01*
X398Y1336D01*
X400Y1336D01*
X400Y1338D01*
X402Y1338D01*
X402Y1340D01*
X404Y1340D01*
X404Y1342D01*
X406Y1342D01*
X406Y1344D01*
X408Y1344D01*
X408Y1346D01*
X410Y1346D01*
X410Y1348D01*
X412Y1348D01*
X412Y1350D01*
X414Y1350D01*
X414Y1352D01*
X416Y1352D01*
X416Y1354D01*
X418Y1354D01*
X418Y1356D01*
X420Y1356D01*
X420Y1358D01*
X422Y1358D01*
X422Y1360D01*
X424Y1360D01*
X424Y1362D01*
X426Y1362D01*
X426Y1364D01*
X428Y1364D01*
X428Y1366D01*
X430Y1366D01*
X430Y1368D01*
X432Y1368D01*
X432Y1370D01*
X434Y1370D01*
X434Y1372D01*
X436Y1372D01*
X436Y1374D01*
X438Y1374D01*
X438Y1376D01*
X440Y1376D01*
X440Y1378D01*
X442Y1378D01*
X442Y1380D01*
X444Y1380D01*
X444Y1382D01*
X446Y1382D01*
X446Y1384D01*
X448Y1384D01*
X448Y1386D01*
X450Y1386D01*
X450Y1388D01*
X452Y1388D01*
X452Y1390D01*
X454Y1390D01*
X454Y1392D01*
X456Y1392D01*
X456Y1394D01*
X460Y1394D01*
X460Y1396D01*
X462Y1396D01*
X462Y1398D01*
X464Y1398D01*
X464Y1400D01*
X468Y1400D01*
X468Y1402D01*
X472Y1402D01*
X472Y1404D01*
X478Y1404D01*
X478Y1406D01*
X664Y1406D01*
X664Y1426D01*
X662Y1426D01*
X662Y1428D01*
X660Y1428D01*
X660Y1430D01*
X658Y1430D01*
X658Y1432D01*
X656Y1432D01*
X656Y1434D01*
X654Y1434D01*
X654Y1436D01*
X652Y1436D01*
X652Y1438D01*
X650Y1438D01*
X650Y1440D01*
X648Y1440D01*
X648Y1442D01*
X646Y1442D01*
X646Y1444D01*
X644Y1444D01*
X644Y1448D01*
X642Y1448D01*
X642Y1450D01*
X640Y1450D01*
X640Y1452D01*
X638Y1452D01*
X638Y1454D01*
X636Y1454D01*
X636Y1456D01*
X634Y1456D01*
X634Y1458D01*
X632Y1458D01*
X632Y1460D01*
X630Y1460D01*
X630Y1462D01*
X628Y1462D01*
X628Y1464D01*
X626Y1464D01*
X626Y1466D01*
X624Y1466D01*
X624Y1468D01*
X622Y1468D01*
X622Y1470D01*
X620Y1470D01*
X620Y1472D01*
X618Y1472D01*
X618Y1476D01*
X616Y1476D01*
X616Y1478D01*
X614Y1478D01*
X614Y1480D01*
X612Y1480D01*
X612Y1482D01*
X610Y1482D01*
X610Y1484D01*
X608Y1484D01*
X608Y1488D01*
X606Y1488D01*
X606Y1492D01*
X604Y1492D01*
X604Y1494D01*
X166Y1494D01*
G37*
D02*
G36*
X904Y2130D02*
X904Y2128D01*
X902Y2128D01*
X902Y2116D01*
X900Y2116D01*
X900Y2110D01*
X898Y2110D01*
X898Y2106D01*
X896Y2106D01*
X896Y2102D01*
X894Y2102D01*
X894Y2098D01*
X892Y2098D01*
X892Y2096D01*
X890Y2096D01*
X890Y2094D01*
X888Y2094D01*
X888Y2072D01*
X890Y2072D01*
X890Y2070D01*
X892Y2070D01*
X892Y2066D01*
X894Y2066D01*
X894Y2064D01*
X896Y2064D01*
X896Y2060D01*
X898Y2060D01*
X898Y2056D01*
X900Y2056D01*
X900Y2048D01*
X902Y2048D01*
X902Y2036D01*
X904Y2036D01*
X904Y2028D01*
X902Y2028D01*
X902Y2016D01*
X900Y2016D01*
X900Y2010D01*
X898Y2010D01*
X898Y2006D01*
X896Y2006D01*
X896Y2002D01*
X894Y2002D01*
X894Y1982D01*
X940Y1982D01*
X940Y2040D01*
X942Y2040D01*
X942Y2098D01*
X940Y2098D01*
X940Y2114D01*
X938Y2114D01*
X938Y2116D01*
X936Y2116D01*
X936Y2118D01*
X934Y2118D01*
X934Y2120D01*
X932Y2120D01*
X932Y2122D01*
X930Y2122D01*
X930Y2124D01*
X928Y2124D01*
X928Y2126D01*
X926Y2126D01*
X926Y2128D01*
X924Y2128D01*
X924Y2130D01*
X904Y2130D01*
G37*
D02*
G36*
X1202Y2044D02*
X1202Y2036D01*
X1204Y2036D01*
X1204Y2028D01*
X1202Y2028D01*
X1202Y2016D01*
X1200Y2016D01*
X1200Y2010D01*
X1198Y2010D01*
X1198Y2006D01*
X1196Y2006D01*
X1196Y2002D01*
X1194Y2002D01*
X1194Y1998D01*
X1192Y1998D01*
X1192Y1996D01*
X1190Y1996D01*
X1190Y1994D01*
X1188Y1994D01*
X1188Y1974D01*
X1198Y1974D01*
X1198Y1972D01*
X1206Y1972D01*
X1206Y1970D01*
X1210Y1970D01*
X1210Y1968D01*
X1214Y1968D01*
X1214Y1966D01*
X1216Y1966D01*
X1216Y1964D01*
X1218Y1964D01*
X1218Y1962D01*
X1220Y1962D01*
X1220Y1960D01*
X1222Y1960D01*
X1222Y1958D01*
X1224Y1958D01*
X1224Y1956D01*
X1226Y1956D01*
X1226Y1954D01*
X1228Y1954D01*
X1228Y1952D01*
X1230Y1952D01*
X1230Y1950D01*
X1232Y1950D01*
X1232Y1948D01*
X1234Y1948D01*
X1234Y1946D01*
X1236Y1946D01*
X1236Y1944D01*
X1238Y1944D01*
X1238Y1942D01*
X1240Y1942D01*
X1240Y1940D01*
X1242Y1940D01*
X1242Y1938D01*
X1244Y1938D01*
X1244Y1936D01*
X1246Y1936D01*
X1246Y1934D01*
X1248Y1934D01*
X1248Y1932D01*
X1250Y1932D01*
X1250Y1930D01*
X1252Y1930D01*
X1252Y1928D01*
X1254Y1928D01*
X1254Y1926D01*
X1256Y1926D01*
X1256Y1924D01*
X1258Y1924D01*
X1258Y1922D01*
X1260Y1922D01*
X1260Y1920D01*
X1262Y1920D01*
X1262Y1918D01*
X1264Y1918D01*
X1264Y1916D01*
X1266Y1916D01*
X1266Y1914D01*
X1268Y1914D01*
X1268Y1912D01*
X1270Y1912D01*
X1270Y1910D01*
X1272Y1910D01*
X1272Y1908D01*
X1274Y1908D01*
X1274Y1906D01*
X1276Y1906D01*
X1276Y1904D01*
X1278Y1904D01*
X1278Y1902D01*
X1280Y1902D01*
X1280Y1900D01*
X1282Y1900D01*
X1282Y1898D01*
X1284Y1898D01*
X1284Y1896D01*
X1286Y1896D01*
X1286Y1894D01*
X1288Y1894D01*
X1288Y1892D01*
X1290Y1892D01*
X1290Y1890D01*
X1292Y1890D01*
X1292Y1888D01*
X1294Y1888D01*
X1294Y1886D01*
X1296Y1886D01*
X1296Y1884D01*
X1298Y1884D01*
X1298Y1882D01*
X1300Y1882D01*
X1300Y1880D01*
X1302Y1880D01*
X1302Y1878D01*
X1304Y1878D01*
X1304Y1876D01*
X1306Y1876D01*
X1306Y1874D01*
X1308Y1874D01*
X1308Y1872D01*
X1310Y1872D01*
X1310Y1870D01*
X1312Y1870D01*
X1312Y1868D01*
X1314Y1868D01*
X1314Y1866D01*
X1316Y1866D01*
X1316Y1864D01*
X1318Y1864D01*
X1318Y1862D01*
X1320Y1862D01*
X1320Y1860D01*
X1322Y1860D01*
X1322Y1858D01*
X1324Y1858D01*
X1324Y1856D01*
X1326Y1856D01*
X1326Y1854D01*
X1328Y1854D01*
X1328Y1852D01*
X1330Y1852D01*
X1330Y1850D01*
X1332Y1850D01*
X1332Y1848D01*
X1334Y1848D01*
X1334Y1846D01*
X1336Y1846D01*
X1336Y1844D01*
X1338Y1844D01*
X1338Y1842D01*
X1340Y1842D01*
X1340Y1840D01*
X1342Y1840D01*
X1342Y1838D01*
X1346Y1838D01*
X1346Y1836D01*
X1348Y1836D01*
X1348Y1834D01*
X1350Y1834D01*
X1350Y1832D01*
X1352Y1832D01*
X1352Y1830D01*
X1354Y1830D01*
X1354Y1828D01*
X1356Y1828D01*
X1356Y1826D01*
X1358Y1826D01*
X1358Y1824D01*
X1360Y1824D01*
X1360Y1822D01*
X1362Y1822D01*
X1362Y1820D01*
X1364Y1820D01*
X1364Y1818D01*
X1366Y1818D01*
X1366Y1816D01*
X1368Y1816D01*
X1368Y1814D01*
X1370Y1814D01*
X1370Y1812D01*
X1372Y1812D01*
X1372Y1810D01*
X1374Y1810D01*
X1374Y1808D01*
X1376Y1808D01*
X1376Y1806D01*
X1378Y1806D01*
X1378Y1804D01*
X1380Y1804D01*
X1380Y1802D01*
X1382Y1802D01*
X1382Y1800D01*
X1384Y1800D01*
X1384Y1798D01*
X1386Y1798D01*
X1386Y1796D01*
X1388Y1796D01*
X1388Y1794D01*
X1390Y1794D01*
X1390Y1792D01*
X1392Y1792D01*
X1392Y1790D01*
X1394Y1790D01*
X1394Y1788D01*
X1396Y1788D01*
X1396Y1786D01*
X1398Y1786D01*
X1398Y1784D01*
X1400Y1784D01*
X1400Y1782D01*
X1402Y1782D01*
X1402Y1780D01*
X1404Y1780D01*
X1404Y1778D01*
X1406Y1778D01*
X1406Y1776D01*
X1408Y1776D01*
X1408Y1774D01*
X1410Y1774D01*
X1410Y1772D01*
X1412Y1772D01*
X1412Y1770D01*
X1414Y1770D01*
X1414Y1768D01*
X1416Y1768D01*
X1416Y1766D01*
X1418Y1766D01*
X1418Y1764D01*
X1420Y1764D01*
X1420Y1762D01*
X1422Y1762D01*
X1422Y1760D01*
X1424Y1760D01*
X1424Y1758D01*
X1426Y1758D01*
X1426Y1756D01*
X1428Y1756D01*
X1428Y1754D01*
X1430Y1754D01*
X1430Y1752D01*
X1450Y1752D01*
X1450Y1818D01*
X1448Y1818D01*
X1448Y1820D01*
X1446Y1820D01*
X1446Y1822D01*
X1444Y1822D01*
X1444Y1824D01*
X1442Y1824D01*
X1442Y1826D01*
X1440Y1826D01*
X1440Y1828D01*
X1438Y1828D01*
X1438Y1830D01*
X1436Y1830D01*
X1436Y1832D01*
X1434Y1832D01*
X1434Y1834D01*
X1432Y1834D01*
X1432Y1836D01*
X1430Y1836D01*
X1430Y1838D01*
X1428Y1838D01*
X1428Y1840D01*
X1426Y1840D01*
X1426Y1842D01*
X1424Y1842D01*
X1424Y1844D01*
X1422Y1844D01*
X1422Y1846D01*
X1420Y1846D01*
X1420Y1848D01*
X1418Y1848D01*
X1418Y1850D01*
X1416Y1850D01*
X1416Y1852D01*
X1414Y1852D01*
X1414Y1854D01*
X1412Y1854D01*
X1412Y1856D01*
X1410Y1856D01*
X1410Y1858D01*
X1408Y1858D01*
X1408Y1860D01*
X1406Y1860D01*
X1406Y1862D01*
X1404Y1862D01*
X1404Y1864D01*
X1402Y1864D01*
X1402Y1866D01*
X1400Y1866D01*
X1400Y1868D01*
X1398Y1868D01*
X1398Y1870D01*
X1396Y1870D01*
X1396Y1872D01*
X1394Y1872D01*
X1394Y1874D01*
X1392Y1874D01*
X1392Y1876D01*
X1390Y1876D01*
X1390Y1878D01*
X1388Y1878D01*
X1388Y1880D01*
X1386Y1880D01*
X1386Y1882D01*
X1384Y1882D01*
X1384Y1884D01*
X1382Y1884D01*
X1382Y1886D01*
X1380Y1886D01*
X1380Y1888D01*
X1378Y1888D01*
X1378Y1890D01*
X1376Y1890D01*
X1376Y1892D01*
X1374Y1892D01*
X1374Y1894D01*
X1372Y1894D01*
X1372Y1896D01*
X1370Y1896D01*
X1370Y1898D01*
X1368Y1898D01*
X1368Y1900D01*
X1366Y1900D01*
X1366Y1902D01*
X1364Y1902D01*
X1364Y1904D01*
X1362Y1904D01*
X1362Y1906D01*
X1360Y1906D01*
X1360Y1908D01*
X1358Y1908D01*
X1358Y1910D01*
X1356Y1910D01*
X1356Y1912D01*
X1354Y1912D01*
X1354Y1914D01*
X1352Y1914D01*
X1352Y1916D01*
X1350Y1916D01*
X1350Y1918D01*
X1348Y1918D01*
X1348Y1920D01*
X1346Y1920D01*
X1346Y1922D01*
X1344Y1922D01*
X1344Y1924D01*
X1342Y1924D01*
X1342Y1926D01*
X1340Y1926D01*
X1340Y1928D01*
X1338Y1928D01*
X1338Y1930D01*
X1336Y1930D01*
X1336Y1932D01*
X1334Y1932D01*
X1334Y1934D01*
X1330Y1934D01*
X1330Y1936D01*
X1328Y1936D01*
X1328Y1938D01*
X1326Y1938D01*
X1326Y1940D01*
X1324Y1940D01*
X1324Y1942D01*
X1322Y1942D01*
X1322Y1944D01*
X1320Y1944D01*
X1320Y1946D01*
X1318Y1946D01*
X1318Y1948D01*
X1316Y1948D01*
X1316Y1950D01*
X1314Y1950D01*
X1314Y1952D01*
X1312Y1952D01*
X1312Y1954D01*
X1310Y1954D01*
X1310Y1956D01*
X1308Y1956D01*
X1308Y1958D01*
X1306Y1958D01*
X1306Y1960D01*
X1304Y1960D01*
X1304Y1962D01*
X1302Y1962D01*
X1302Y1964D01*
X1300Y1964D01*
X1300Y1966D01*
X1298Y1966D01*
X1298Y1968D01*
X1296Y1968D01*
X1296Y1970D01*
X1294Y1970D01*
X1294Y1972D01*
X1292Y1972D01*
X1292Y1974D01*
X1290Y1974D01*
X1290Y1976D01*
X1288Y1976D01*
X1288Y1978D01*
X1286Y1978D01*
X1286Y1980D01*
X1284Y1980D01*
X1284Y1982D01*
X1282Y1982D01*
X1282Y1984D01*
X1280Y1984D01*
X1280Y1986D01*
X1278Y1986D01*
X1278Y1988D01*
X1276Y1988D01*
X1276Y1990D01*
X1274Y1990D01*
X1274Y1992D01*
X1272Y1992D01*
X1272Y1994D01*
X1270Y1994D01*
X1270Y1996D01*
X1268Y1996D01*
X1268Y1998D01*
X1266Y1998D01*
X1266Y2000D01*
X1264Y2000D01*
X1264Y2002D01*
X1262Y2002D01*
X1262Y2004D01*
X1260Y2004D01*
X1260Y2006D01*
X1258Y2006D01*
X1258Y2008D01*
X1256Y2008D01*
X1256Y2010D01*
X1254Y2010D01*
X1254Y2012D01*
X1252Y2012D01*
X1252Y2014D01*
X1250Y2014D01*
X1250Y2016D01*
X1248Y2016D01*
X1248Y2018D01*
X1246Y2018D01*
X1246Y2020D01*
X1244Y2020D01*
X1244Y2022D01*
X1242Y2022D01*
X1242Y2024D01*
X1240Y2024D01*
X1240Y2026D01*
X1238Y2026D01*
X1238Y2028D01*
X1236Y2028D01*
X1236Y2030D01*
X1234Y2030D01*
X1234Y2032D01*
X1232Y2032D01*
X1232Y2034D01*
X1230Y2034D01*
X1230Y2036D01*
X1228Y2036D01*
X1228Y2038D01*
X1226Y2038D01*
X1226Y2040D01*
X1224Y2040D01*
X1224Y2042D01*
X1222Y2042D01*
X1222Y2044D01*
X1202Y2044D01*
G37*
D02*
G36*
X1040Y1984D02*
X1040Y1920D01*
X1038Y1920D01*
X1038Y1900D01*
X1040Y1900D01*
X1040Y1882D01*
X1088Y1882D01*
X1088Y1902D01*
X1086Y1902D01*
X1086Y1904D01*
X1084Y1904D01*
X1084Y1908D01*
X1082Y1908D01*
X1082Y1914D01*
X1080Y1914D01*
X1080Y1924D01*
X1078Y1924D01*
X1078Y1942D01*
X1080Y1942D01*
X1080Y1950D01*
X1082Y1950D01*
X1082Y1956D01*
X1084Y1956D01*
X1084Y1960D01*
X1086Y1960D01*
X1086Y1964D01*
X1088Y1964D01*
X1088Y1984D01*
X1040Y1984D01*
G37*
D02*
G36*
X654Y1968D02*
X654Y1952D01*
X656Y1952D01*
X656Y1950D01*
X658Y1950D01*
X658Y1948D01*
X660Y1948D01*
X660Y1946D01*
X662Y1946D01*
X662Y1944D01*
X664Y1944D01*
X664Y1942D01*
X668Y1942D01*
X668Y1940D01*
X670Y1940D01*
X670Y1938D01*
X672Y1938D01*
X672Y1936D01*
X674Y1936D01*
X674Y1932D01*
X676Y1932D01*
X676Y1930D01*
X678Y1930D01*
X678Y1926D01*
X680Y1926D01*
X680Y1922D01*
X682Y1922D01*
X682Y1914D01*
X702Y1914D01*
X702Y1940D01*
X700Y1940D01*
X700Y1942D01*
X698Y1942D01*
X698Y1944D01*
X696Y1944D01*
X696Y1946D01*
X694Y1946D01*
X694Y1948D01*
X692Y1948D01*
X692Y1950D01*
X690Y1950D01*
X690Y1952D01*
X688Y1952D01*
X688Y1954D01*
X686Y1954D01*
X686Y1956D01*
X684Y1956D01*
X684Y1958D01*
X682Y1958D01*
X682Y1960D01*
X680Y1960D01*
X680Y1962D01*
X678Y1962D01*
X678Y1964D01*
X676Y1964D01*
X676Y1966D01*
X674Y1966D01*
X674Y1968D01*
X654Y1968D01*
G37*
D02*
G36*
X894Y1884D02*
X894Y1864D01*
X896Y1864D01*
X896Y1860D01*
X898Y1860D01*
X898Y1856D01*
X900Y1856D01*
X900Y1848D01*
X902Y1848D01*
X902Y1836D01*
X904Y1836D01*
X904Y1828D01*
X902Y1828D01*
X902Y1816D01*
X900Y1816D01*
X900Y1810D01*
X898Y1810D01*
X898Y1806D01*
X896Y1806D01*
X896Y1802D01*
X894Y1802D01*
X894Y1782D01*
X940Y1782D01*
X940Y1884D01*
X894Y1884D01*
G37*
D02*
G36*
X1202Y1844D02*
X1202Y1836D01*
X1204Y1836D01*
X1204Y1828D01*
X1202Y1828D01*
X1202Y1816D01*
X1200Y1816D01*
X1200Y1810D01*
X1198Y1810D01*
X1198Y1806D01*
X1196Y1806D01*
X1196Y1802D01*
X1194Y1802D01*
X1194Y1798D01*
X1192Y1798D01*
X1192Y1796D01*
X1190Y1796D01*
X1190Y1794D01*
X1188Y1794D01*
X1188Y1774D01*
X1198Y1774D01*
X1198Y1772D01*
X1206Y1772D01*
X1206Y1770D01*
X1210Y1770D01*
X1210Y1768D01*
X1214Y1768D01*
X1214Y1766D01*
X1216Y1766D01*
X1216Y1764D01*
X1218Y1764D01*
X1218Y1762D01*
X1220Y1762D01*
X1220Y1760D01*
X1222Y1760D01*
X1222Y1758D01*
X1224Y1758D01*
X1224Y1756D01*
X1226Y1756D01*
X1226Y1754D01*
X1228Y1754D01*
X1228Y1752D01*
X1230Y1752D01*
X1230Y1750D01*
X1232Y1750D01*
X1232Y1748D01*
X1234Y1748D01*
X1234Y1746D01*
X1236Y1746D01*
X1236Y1744D01*
X1238Y1744D01*
X1238Y1742D01*
X1240Y1742D01*
X1240Y1740D01*
X1242Y1740D01*
X1242Y1738D01*
X1244Y1738D01*
X1244Y1736D01*
X1246Y1736D01*
X1246Y1734D01*
X1248Y1734D01*
X1248Y1732D01*
X1250Y1732D01*
X1250Y1730D01*
X1252Y1730D01*
X1252Y1728D01*
X1254Y1728D01*
X1254Y1726D01*
X1256Y1726D01*
X1256Y1724D01*
X1258Y1724D01*
X1258Y1722D01*
X1260Y1722D01*
X1260Y1720D01*
X1262Y1720D01*
X1262Y1718D01*
X1264Y1718D01*
X1264Y1716D01*
X1266Y1716D01*
X1266Y1714D01*
X1268Y1714D01*
X1268Y1712D01*
X1270Y1712D01*
X1270Y1710D01*
X1272Y1710D01*
X1272Y1708D01*
X1274Y1708D01*
X1274Y1706D01*
X1276Y1706D01*
X1276Y1704D01*
X1278Y1704D01*
X1278Y1702D01*
X1280Y1702D01*
X1280Y1700D01*
X1282Y1700D01*
X1282Y1698D01*
X1284Y1698D01*
X1284Y1696D01*
X1286Y1696D01*
X1286Y1694D01*
X1288Y1694D01*
X1288Y1692D01*
X1290Y1692D01*
X1290Y1690D01*
X1292Y1690D01*
X1292Y1688D01*
X1294Y1688D01*
X1294Y1686D01*
X1296Y1686D01*
X1296Y1684D01*
X1298Y1684D01*
X1298Y1682D01*
X1300Y1682D01*
X1300Y1680D01*
X1304Y1680D01*
X1304Y1678D01*
X1306Y1678D01*
X1306Y1676D01*
X1308Y1676D01*
X1308Y1674D01*
X1310Y1674D01*
X1310Y1672D01*
X1312Y1672D01*
X1312Y1670D01*
X1314Y1670D01*
X1314Y1668D01*
X1316Y1668D01*
X1316Y1666D01*
X1318Y1666D01*
X1318Y1664D01*
X1320Y1664D01*
X1320Y1662D01*
X1322Y1662D01*
X1322Y1660D01*
X1324Y1660D01*
X1324Y1658D01*
X1326Y1658D01*
X1326Y1656D01*
X1328Y1656D01*
X1328Y1654D01*
X1330Y1654D01*
X1330Y1652D01*
X1332Y1652D01*
X1332Y1650D01*
X1334Y1650D01*
X1334Y1648D01*
X1336Y1648D01*
X1336Y1646D01*
X1338Y1646D01*
X1338Y1644D01*
X1340Y1644D01*
X1340Y1642D01*
X1342Y1642D01*
X1342Y1640D01*
X1344Y1640D01*
X1344Y1638D01*
X1346Y1638D01*
X1346Y1636D01*
X1348Y1636D01*
X1348Y1634D01*
X1350Y1634D01*
X1350Y1632D01*
X1352Y1632D01*
X1352Y1630D01*
X1354Y1630D01*
X1354Y1628D01*
X1356Y1628D01*
X1356Y1626D01*
X1376Y1626D01*
X1376Y1692D01*
X1374Y1692D01*
X1374Y1694D01*
X1372Y1694D01*
X1372Y1696D01*
X1370Y1696D01*
X1370Y1698D01*
X1368Y1698D01*
X1368Y1700D01*
X1366Y1700D01*
X1366Y1702D01*
X1364Y1702D01*
X1364Y1704D01*
X1362Y1704D01*
X1362Y1706D01*
X1360Y1706D01*
X1360Y1708D01*
X1358Y1708D01*
X1358Y1710D01*
X1356Y1710D01*
X1356Y1712D01*
X1354Y1712D01*
X1354Y1714D01*
X1352Y1714D01*
X1352Y1716D01*
X1350Y1716D01*
X1350Y1718D01*
X1348Y1718D01*
X1348Y1720D01*
X1346Y1720D01*
X1346Y1722D01*
X1344Y1722D01*
X1344Y1724D01*
X1342Y1724D01*
X1342Y1726D01*
X1340Y1726D01*
X1340Y1728D01*
X1338Y1728D01*
X1338Y1730D01*
X1336Y1730D01*
X1336Y1732D01*
X1334Y1732D01*
X1334Y1734D01*
X1332Y1734D01*
X1332Y1736D01*
X1330Y1736D01*
X1330Y1738D01*
X1328Y1738D01*
X1328Y1740D01*
X1326Y1740D01*
X1326Y1742D01*
X1324Y1742D01*
X1324Y1744D01*
X1322Y1744D01*
X1322Y1746D01*
X1320Y1746D01*
X1320Y1748D01*
X1318Y1748D01*
X1318Y1750D01*
X1316Y1750D01*
X1316Y1752D01*
X1314Y1752D01*
X1314Y1754D01*
X1312Y1754D01*
X1312Y1756D01*
X1310Y1756D01*
X1310Y1758D01*
X1308Y1758D01*
X1308Y1760D01*
X1306Y1760D01*
X1306Y1762D01*
X1304Y1762D01*
X1304Y1764D01*
X1302Y1764D01*
X1302Y1766D01*
X1300Y1766D01*
X1300Y1768D01*
X1298Y1768D01*
X1298Y1770D01*
X1296Y1770D01*
X1296Y1772D01*
X1294Y1772D01*
X1294Y1774D01*
X1292Y1774D01*
X1292Y1776D01*
X1288Y1776D01*
X1288Y1778D01*
X1286Y1778D01*
X1286Y1780D01*
X1284Y1780D01*
X1284Y1782D01*
X1282Y1782D01*
X1282Y1784D01*
X1280Y1784D01*
X1280Y1786D01*
X1278Y1786D01*
X1278Y1788D01*
X1276Y1788D01*
X1276Y1790D01*
X1274Y1790D01*
X1274Y1792D01*
X1272Y1792D01*
X1272Y1794D01*
X1270Y1794D01*
X1270Y1796D01*
X1268Y1796D01*
X1268Y1798D01*
X1266Y1798D01*
X1266Y1800D01*
X1264Y1800D01*
X1264Y1802D01*
X1262Y1802D01*
X1262Y1804D01*
X1260Y1804D01*
X1260Y1806D01*
X1258Y1806D01*
X1258Y1808D01*
X1256Y1808D01*
X1256Y1810D01*
X1254Y1810D01*
X1254Y1812D01*
X1252Y1812D01*
X1252Y1814D01*
X1250Y1814D01*
X1250Y1816D01*
X1248Y1816D01*
X1248Y1818D01*
X1246Y1818D01*
X1246Y1820D01*
X1244Y1820D01*
X1244Y1822D01*
X1242Y1822D01*
X1242Y1824D01*
X1240Y1824D01*
X1240Y1826D01*
X1238Y1826D01*
X1238Y1828D01*
X1236Y1828D01*
X1236Y1830D01*
X1234Y1830D01*
X1234Y1832D01*
X1232Y1832D01*
X1232Y1834D01*
X1230Y1834D01*
X1230Y1836D01*
X1228Y1836D01*
X1228Y1838D01*
X1226Y1838D01*
X1226Y1840D01*
X1224Y1840D01*
X1224Y1842D01*
X1222Y1842D01*
X1222Y1844D01*
X1202Y1844D01*
G37*
D02*
G36*
X1040Y1784D02*
X1040Y1752D01*
X1042Y1752D01*
X1042Y1750D01*
X1044Y1750D01*
X1044Y1748D01*
X1046Y1748D01*
X1046Y1746D01*
X1048Y1746D01*
X1048Y1744D01*
X1050Y1744D01*
X1050Y1742D01*
X1052Y1742D01*
X1052Y1740D01*
X1054Y1740D01*
X1054Y1738D01*
X1056Y1738D01*
X1056Y1736D01*
X1058Y1736D01*
X1058Y1734D01*
X1078Y1734D01*
X1078Y1742D01*
X1080Y1742D01*
X1080Y1750D01*
X1082Y1750D01*
X1082Y1756D01*
X1084Y1756D01*
X1084Y1760D01*
X1086Y1760D01*
X1086Y1764D01*
X1088Y1764D01*
X1088Y1784D01*
X1040Y1784D01*
G37*
D02*
G36*
X894Y1684D02*
X894Y1664D01*
X896Y1664D01*
X896Y1660D01*
X898Y1660D01*
X898Y1656D01*
X900Y1656D01*
X900Y1648D01*
X902Y1648D01*
X902Y1636D01*
X904Y1636D01*
X904Y1628D01*
X902Y1628D01*
X902Y1616D01*
X900Y1616D01*
X900Y1610D01*
X898Y1610D01*
X898Y1606D01*
X896Y1606D01*
X896Y1602D01*
X894Y1602D01*
X894Y1598D01*
X892Y1598D01*
X892Y1596D01*
X890Y1596D01*
X890Y1594D01*
X888Y1594D01*
X888Y1590D01*
X886Y1590D01*
X886Y1588D01*
X884Y1588D01*
X884Y1586D01*
X882Y1586D01*
X882Y1570D01*
X1078Y1570D01*
X1078Y1586D01*
X1074Y1586D01*
X1074Y1588D01*
X1068Y1588D01*
X1068Y1590D01*
X1066Y1590D01*
X1066Y1592D01*
X1062Y1592D01*
X1062Y1594D01*
X1060Y1594D01*
X1060Y1596D01*
X1056Y1596D01*
X1056Y1598D01*
X1054Y1598D01*
X1054Y1600D01*
X1052Y1600D01*
X1052Y1602D01*
X1050Y1602D01*
X1050Y1604D01*
X1048Y1604D01*
X1048Y1606D01*
X1046Y1606D01*
X1046Y1608D01*
X1044Y1608D01*
X1044Y1610D01*
X1042Y1610D01*
X1042Y1612D01*
X1040Y1612D01*
X1040Y1614D01*
X1038Y1614D01*
X1038Y1616D01*
X1036Y1616D01*
X1036Y1618D01*
X1034Y1618D01*
X1034Y1620D01*
X1032Y1620D01*
X1032Y1622D01*
X1030Y1622D01*
X1030Y1624D01*
X1028Y1624D01*
X1028Y1626D01*
X1026Y1626D01*
X1026Y1628D01*
X1024Y1628D01*
X1024Y1630D01*
X1022Y1630D01*
X1022Y1632D01*
X1020Y1632D01*
X1020Y1634D01*
X1018Y1634D01*
X1018Y1636D01*
X1016Y1636D01*
X1016Y1638D01*
X1014Y1638D01*
X1014Y1640D01*
X1012Y1640D01*
X1012Y1642D01*
X1010Y1642D01*
X1010Y1644D01*
X1008Y1644D01*
X1008Y1646D01*
X1006Y1646D01*
X1006Y1648D01*
X1004Y1648D01*
X1004Y1650D01*
X1002Y1650D01*
X1002Y1652D01*
X1000Y1652D01*
X1000Y1654D01*
X998Y1654D01*
X998Y1656D01*
X996Y1656D01*
X996Y1658D01*
X994Y1658D01*
X994Y1660D01*
X992Y1660D01*
X992Y1662D01*
X990Y1662D01*
X990Y1664D01*
X988Y1664D01*
X988Y1666D01*
X986Y1666D01*
X986Y1668D01*
X984Y1668D01*
X984Y1670D01*
X982Y1670D01*
X982Y1672D01*
X980Y1672D01*
X980Y1674D01*
X978Y1674D01*
X978Y1676D01*
X976Y1676D01*
X976Y1678D01*
X974Y1678D01*
X974Y1680D01*
X972Y1680D01*
X972Y1682D01*
X970Y1682D01*
X970Y1684D01*
X894Y1684D01*
G37*
D02*
G36*
X1204Y1642D02*
X1204Y1570D01*
X1296Y1570D01*
X1296Y1572D01*
X1294Y1572D01*
X1294Y1574D01*
X1292Y1574D01*
X1292Y1576D01*
X1290Y1576D01*
X1290Y1578D01*
X1288Y1578D01*
X1288Y1580D01*
X1286Y1580D01*
X1286Y1582D01*
X1284Y1582D01*
X1284Y1584D01*
X1282Y1584D01*
X1282Y1586D01*
X1280Y1586D01*
X1280Y1588D01*
X1278Y1588D01*
X1278Y1590D01*
X1276Y1590D01*
X1276Y1592D01*
X1274Y1592D01*
X1274Y1594D01*
X1272Y1594D01*
X1272Y1596D01*
X1270Y1596D01*
X1270Y1598D01*
X1268Y1598D01*
X1268Y1600D01*
X1266Y1600D01*
X1266Y1602D01*
X1264Y1602D01*
X1264Y1604D01*
X1262Y1604D01*
X1262Y1606D01*
X1260Y1606D01*
X1260Y1608D01*
X1258Y1608D01*
X1258Y1610D01*
X1256Y1610D01*
X1256Y1612D01*
X1254Y1612D01*
X1254Y1614D01*
X1252Y1614D01*
X1252Y1616D01*
X1250Y1616D01*
X1250Y1618D01*
X1248Y1618D01*
X1248Y1620D01*
X1246Y1620D01*
X1246Y1622D01*
X1242Y1622D01*
X1242Y1624D01*
X1240Y1624D01*
X1240Y1626D01*
X1238Y1626D01*
X1238Y1628D01*
X1236Y1628D01*
X1236Y1630D01*
X1234Y1630D01*
X1234Y1632D01*
X1232Y1632D01*
X1232Y1634D01*
X1230Y1634D01*
X1230Y1636D01*
X1228Y1636D01*
X1228Y1638D01*
X1226Y1638D01*
X1226Y1640D01*
X1224Y1640D01*
X1224Y1642D01*
X1204Y1642D01*
G37*
D02*
G36*
X882Y1570D02*
X882Y1568D01*
X1298Y1568D01*
X1298Y1570D01*
X882Y1570D01*
G37*
D02*
G36*
X882Y1570D02*
X882Y1568D01*
X1298Y1568D01*
X1298Y1570D01*
X882Y1570D01*
G37*
D02*
G36*
X882Y1568D02*
X882Y1480D01*
X884Y1480D01*
X884Y1398D01*
X902Y1398D01*
X902Y1396D01*
X908Y1396D01*
X908Y1394D01*
X912Y1394D01*
X912Y1392D01*
X914Y1392D01*
X914Y1390D01*
X918Y1390D01*
X918Y1388D01*
X920Y1388D01*
X920Y1386D01*
X922Y1386D01*
X922Y1384D01*
X924Y1384D01*
X924Y1382D01*
X926Y1382D01*
X926Y1380D01*
X928Y1380D01*
X928Y1378D01*
X930Y1378D01*
X930Y1376D01*
X932Y1376D01*
X932Y1374D01*
X934Y1374D01*
X934Y1372D01*
X936Y1372D01*
X936Y1370D01*
X938Y1370D01*
X938Y1368D01*
X940Y1368D01*
X940Y1366D01*
X942Y1366D01*
X942Y1364D01*
X944Y1364D01*
X944Y1362D01*
X946Y1362D01*
X946Y1360D01*
X948Y1360D01*
X948Y1358D01*
X950Y1358D01*
X950Y1356D01*
X952Y1356D01*
X952Y1354D01*
X954Y1354D01*
X954Y1352D01*
X956Y1352D01*
X956Y1350D01*
X958Y1350D01*
X958Y1348D01*
X960Y1348D01*
X960Y1346D01*
X962Y1346D01*
X962Y1344D01*
X964Y1344D01*
X964Y1340D01*
X966Y1340D01*
X966Y1338D01*
X968Y1338D01*
X968Y1336D01*
X970Y1336D01*
X970Y1334D01*
X972Y1334D01*
X972Y1332D01*
X974Y1332D01*
X974Y1330D01*
X976Y1330D01*
X976Y1328D01*
X978Y1328D01*
X978Y1326D01*
X980Y1326D01*
X980Y1324D01*
X982Y1324D01*
X982Y1322D01*
X984Y1322D01*
X984Y1320D01*
X986Y1320D01*
X986Y1318D01*
X988Y1318D01*
X988Y1316D01*
X990Y1316D01*
X990Y1314D01*
X992Y1314D01*
X992Y1312D01*
X994Y1312D01*
X994Y1310D01*
X996Y1310D01*
X996Y1308D01*
X998Y1308D01*
X998Y1306D01*
X1000Y1306D01*
X1000Y1304D01*
X1002Y1304D01*
X1002Y1302D01*
X1004Y1302D01*
X1004Y1300D01*
X1006Y1300D01*
X1006Y1298D01*
X1008Y1298D01*
X1008Y1296D01*
X1010Y1296D01*
X1010Y1294D01*
X1012Y1294D01*
X1012Y1292D01*
X1014Y1292D01*
X1014Y1290D01*
X1016Y1290D01*
X1016Y1288D01*
X1018Y1288D01*
X1018Y1286D01*
X1020Y1286D01*
X1020Y1284D01*
X1022Y1284D01*
X1022Y1282D01*
X1024Y1282D01*
X1024Y1280D01*
X1026Y1280D01*
X1026Y1278D01*
X1028Y1278D01*
X1028Y1276D01*
X1030Y1276D01*
X1030Y1274D01*
X1032Y1274D01*
X1032Y1272D01*
X1034Y1272D01*
X1034Y1270D01*
X1036Y1270D01*
X1036Y1268D01*
X1038Y1268D01*
X1038Y1266D01*
X1040Y1266D01*
X1040Y1264D01*
X1042Y1264D01*
X1042Y1262D01*
X1044Y1262D01*
X1044Y1260D01*
X1046Y1260D01*
X1046Y1258D01*
X1048Y1258D01*
X1048Y1256D01*
X1050Y1256D01*
X1050Y1254D01*
X1052Y1254D01*
X1052Y1252D01*
X1054Y1252D01*
X1054Y1250D01*
X1056Y1250D01*
X1056Y1248D01*
X1058Y1248D01*
X1058Y1246D01*
X1060Y1246D01*
X1060Y1244D01*
X1062Y1244D01*
X1062Y1242D01*
X1064Y1242D01*
X1064Y1240D01*
X1066Y1240D01*
X1066Y1238D01*
X1068Y1238D01*
X1068Y1236D01*
X1070Y1236D01*
X1070Y1234D01*
X1072Y1234D01*
X1072Y1232D01*
X1074Y1232D01*
X1074Y1230D01*
X1076Y1230D01*
X1076Y1228D01*
X1078Y1228D01*
X1078Y1226D01*
X1080Y1226D01*
X1080Y1224D01*
X1082Y1224D01*
X1082Y1222D01*
X1084Y1222D01*
X1084Y1220D01*
X1086Y1220D01*
X1086Y1218D01*
X1088Y1218D01*
X1088Y1216D01*
X1090Y1216D01*
X1090Y1214D01*
X1092Y1214D01*
X1092Y1212D01*
X1094Y1212D01*
X1094Y1210D01*
X1096Y1210D01*
X1096Y1206D01*
X1098Y1206D01*
X1098Y1204D01*
X1100Y1204D01*
X1100Y1200D01*
X1102Y1200D01*
X1102Y1196D01*
X1104Y1196D01*
X1104Y1190D01*
X1106Y1190D01*
X1106Y1046D01*
X1104Y1046D01*
X1104Y1040D01*
X1102Y1040D01*
X1102Y1038D01*
X1100Y1038D01*
X1100Y1034D01*
X1098Y1034D01*
X1098Y1032D01*
X1096Y1032D01*
X1096Y1030D01*
X1094Y1030D01*
X1094Y1028D01*
X1092Y1028D01*
X1092Y1026D01*
X1090Y1026D01*
X1090Y1024D01*
X1088Y1024D01*
X1088Y1022D01*
X1086Y1022D01*
X1086Y1020D01*
X1084Y1020D01*
X1084Y1018D01*
X1082Y1018D01*
X1082Y1016D01*
X1080Y1016D01*
X1080Y1014D01*
X1078Y1014D01*
X1078Y1012D01*
X1076Y1012D01*
X1076Y1010D01*
X1074Y1010D01*
X1074Y1008D01*
X1072Y1008D01*
X1072Y1006D01*
X1070Y1006D01*
X1070Y1004D01*
X1068Y1004D01*
X1068Y1002D01*
X1066Y1002D01*
X1066Y1000D01*
X1064Y1000D01*
X1064Y998D01*
X1062Y998D01*
X1062Y996D01*
X1326Y996D01*
X1326Y998D01*
X1320Y998D01*
X1320Y1000D01*
X1314Y1000D01*
X1314Y1002D01*
X1310Y1002D01*
X1310Y1004D01*
X1308Y1004D01*
X1308Y1006D01*
X1304Y1006D01*
X1304Y1008D01*
X1302Y1008D01*
X1302Y1010D01*
X1300Y1010D01*
X1300Y1012D01*
X1298Y1012D01*
X1298Y1014D01*
X1296Y1014D01*
X1296Y1016D01*
X1294Y1016D01*
X1294Y1018D01*
X1292Y1018D01*
X1292Y1020D01*
X1290Y1020D01*
X1290Y1022D01*
X1288Y1022D01*
X1288Y1026D01*
X1286Y1026D01*
X1286Y1030D01*
X1284Y1030D01*
X1284Y1034D01*
X1282Y1034D01*
X1282Y1040D01*
X1280Y1040D01*
X1280Y1048D01*
X1278Y1048D01*
X1278Y1066D01*
X1280Y1066D01*
X1280Y1076D01*
X1282Y1076D01*
X1282Y1082D01*
X1284Y1082D01*
X1284Y1086D01*
X1286Y1086D01*
X1286Y1090D01*
X1288Y1090D01*
X1288Y1092D01*
X1290Y1092D01*
X1290Y1096D01*
X1292Y1096D01*
X1292Y1098D01*
X1294Y1098D01*
X1294Y1118D01*
X1292Y1118D01*
X1292Y1120D01*
X1290Y1120D01*
X1290Y1122D01*
X1288Y1122D01*
X1288Y1126D01*
X1286Y1126D01*
X1286Y1130D01*
X1284Y1130D01*
X1284Y1134D01*
X1282Y1134D01*
X1282Y1140D01*
X1280Y1140D01*
X1280Y1148D01*
X1278Y1148D01*
X1278Y1166D01*
X1280Y1166D01*
X1280Y1176D01*
X1282Y1176D01*
X1282Y1182D01*
X1284Y1182D01*
X1284Y1186D01*
X1286Y1186D01*
X1286Y1190D01*
X1288Y1190D01*
X1288Y1192D01*
X1290Y1192D01*
X1290Y1196D01*
X1292Y1196D01*
X1292Y1198D01*
X1294Y1198D01*
X1294Y1200D01*
X1296Y1200D01*
X1296Y1202D01*
X1298Y1202D01*
X1298Y1204D01*
X1300Y1204D01*
X1300Y1450D01*
X1302Y1450D01*
X1302Y1566D01*
X1300Y1566D01*
X1300Y1568D01*
X882Y1568D01*
G37*
D02*
G36*
X1430Y1090D02*
X1430Y1088D01*
X1428Y1088D01*
X1428Y1086D01*
X1426Y1086D01*
X1426Y1084D01*
X1424Y1084D01*
X1424Y1082D01*
X1422Y1082D01*
X1422Y1080D01*
X1420Y1080D01*
X1420Y1078D01*
X1418Y1078D01*
X1418Y1076D01*
X1416Y1076D01*
X1416Y1074D01*
X1414Y1074D01*
X1414Y1072D01*
X1412Y1072D01*
X1412Y1070D01*
X1410Y1070D01*
X1410Y1068D01*
X1408Y1068D01*
X1408Y1066D01*
X1406Y1066D01*
X1406Y1064D01*
X1404Y1064D01*
X1404Y1054D01*
X1402Y1054D01*
X1402Y1042D01*
X1400Y1042D01*
X1400Y1036D01*
X1398Y1036D01*
X1398Y1030D01*
X1396Y1030D01*
X1396Y1028D01*
X1394Y1028D01*
X1394Y1024D01*
X1392Y1024D01*
X1392Y1020D01*
X1390Y1020D01*
X1390Y1018D01*
X1388Y1018D01*
X1388Y1016D01*
X1386Y1016D01*
X1386Y1014D01*
X1384Y1014D01*
X1384Y1012D01*
X1382Y1012D01*
X1382Y1010D01*
X1380Y1010D01*
X1380Y1008D01*
X1376Y1008D01*
X1376Y1006D01*
X1374Y1006D01*
X1374Y1004D01*
X1370Y1004D01*
X1370Y1002D01*
X1366Y1002D01*
X1366Y1000D01*
X1362Y1000D01*
X1362Y998D01*
X1356Y998D01*
X1356Y996D01*
X1422Y996D01*
X1422Y998D01*
X1424Y998D01*
X1424Y1000D01*
X1426Y1000D01*
X1426Y1002D01*
X1428Y1002D01*
X1428Y1004D01*
X1430Y1004D01*
X1430Y1006D01*
X1432Y1006D01*
X1432Y1008D01*
X1434Y1008D01*
X1434Y1010D01*
X1436Y1010D01*
X1436Y1012D01*
X1438Y1012D01*
X1438Y1014D01*
X1440Y1014D01*
X1440Y1016D01*
X1442Y1016D01*
X1442Y1018D01*
X1444Y1018D01*
X1444Y1020D01*
X1446Y1020D01*
X1446Y1022D01*
X1448Y1022D01*
X1448Y1024D01*
X1450Y1024D01*
X1450Y1090D01*
X1430Y1090D01*
G37*
D02*
G36*
X1060Y996D02*
X1060Y994D01*
X1420Y994D01*
X1420Y996D01*
X1060Y996D01*
G37*
D02*
G36*
X1060Y996D02*
X1060Y994D01*
X1420Y994D01*
X1420Y996D01*
X1060Y996D01*
G37*
D02*
G36*
X1058Y994D02*
X1058Y992D01*
X1056Y992D01*
X1056Y990D01*
X1054Y990D01*
X1054Y988D01*
X1052Y988D01*
X1052Y986D01*
X1050Y986D01*
X1050Y984D01*
X1048Y984D01*
X1048Y982D01*
X1046Y982D01*
X1046Y980D01*
X1044Y980D01*
X1044Y978D01*
X1042Y978D01*
X1042Y976D01*
X1040Y976D01*
X1040Y974D01*
X1038Y974D01*
X1038Y972D01*
X1036Y972D01*
X1036Y970D01*
X1034Y970D01*
X1034Y968D01*
X1032Y968D01*
X1032Y966D01*
X1030Y966D01*
X1030Y964D01*
X1028Y964D01*
X1028Y962D01*
X1026Y962D01*
X1026Y960D01*
X1024Y960D01*
X1024Y958D01*
X1022Y958D01*
X1022Y956D01*
X1020Y956D01*
X1020Y954D01*
X1018Y954D01*
X1018Y952D01*
X1016Y952D01*
X1016Y950D01*
X1014Y950D01*
X1014Y948D01*
X1012Y948D01*
X1012Y946D01*
X1010Y946D01*
X1010Y944D01*
X1008Y944D01*
X1008Y942D01*
X1006Y942D01*
X1006Y940D01*
X1004Y940D01*
X1004Y938D01*
X1002Y938D01*
X1002Y936D01*
X1000Y936D01*
X1000Y934D01*
X998Y934D01*
X998Y932D01*
X996Y932D01*
X996Y930D01*
X994Y930D01*
X994Y928D01*
X992Y928D01*
X992Y926D01*
X990Y926D01*
X990Y924D01*
X988Y924D01*
X988Y922D01*
X984Y922D01*
X984Y902D01*
X986Y902D01*
X986Y900D01*
X988Y900D01*
X988Y898D01*
X990Y898D01*
X990Y894D01*
X992Y894D01*
X992Y892D01*
X994Y892D01*
X994Y888D01*
X996Y888D01*
X996Y884D01*
X998Y884D01*
X998Y880D01*
X1000Y880D01*
X1000Y874D01*
X1002Y874D01*
X1002Y862D01*
X1004Y862D01*
X1004Y854D01*
X1002Y854D01*
X1002Y842D01*
X1000Y842D01*
X1000Y836D01*
X998Y836D01*
X998Y830D01*
X996Y830D01*
X996Y828D01*
X994Y828D01*
X994Y824D01*
X992Y824D01*
X992Y820D01*
X990Y820D01*
X990Y818D01*
X988Y818D01*
X988Y798D01*
X990Y798D01*
X990Y794D01*
X992Y794D01*
X992Y792D01*
X994Y792D01*
X994Y788D01*
X996Y788D01*
X996Y784D01*
X998Y784D01*
X998Y780D01*
X1000Y780D01*
X1000Y774D01*
X1002Y774D01*
X1002Y762D01*
X1004Y762D01*
X1004Y754D01*
X1002Y754D01*
X1002Y742D01*
X1000Y742D01*
X1000Y736D01*
X998Y736D01*
X998Y730D01*
X996Y730D01*
X996Y728D01*
X994Y728D01*
X994Y724D01*
X992Y724D01*
X992Y720D01*
X990Y720D01*
X990Y718D01*
X988Y718D01*
X988Y698D01*
X1294Y698D01*
X1294Y718D01*
X1292Y718D01*
X1292Y720D01*
X1290Y720D01*
X1290Y722D01*
X1288Y722D01*
X1288Y726D01*
X1286Y726D01*
X1286Y730D01*
X1284Y730D01*
X1284Y734D01*
X1282Y734D01*
X1282Y740D01*
X1280Y740D01*
X1280Y748D01*
X1278Y748D01*
X1278Y766D01*
X1280Y766D01*
X1280Y776D01*
X1282Y776D01*
X1282Y782D01*
X1284Y782D01*
X1284Y786D01*
X1286Y786D01*
X1286Y790D01*
X1288Y790D01*
X1288Y792D01*
X1290Y792D01*
X1290Y796D01*
X1292Y796D01*
X1292Y798D01*
X1294Y798D01*
X1294Y818D01*
X1292Y818D01*
X1292Y820D01*
X1290Y820D01*
X1290Y822D01*
X1288Y822D01*
X1288Y826D01*
X1286Y826D01*
X1286Y830D01*
X1284Y830D01*
X1284Y834D01*
X1282Y834D01*
X1282Y840D01*
X1280Y840D01*
X1280Y848D01*
X1278Y848D01*
X1278Y866D01*
X1280Y866D01*
X1280Y876D01*
X1282Y876D01*
X1282Y882D01*
X1284Y882D01*
X1284Y886D01*
X1286Y886D01*
X1286Y890D01*
X1288Y890D01*
X1288Y892D01*
X1290Y892D01*
X1290Y896D01*
X1292Y896D01*
X1292Y898D01*
X1294Y898D01*
X1294Y900D01*
X1296Y900D01*
X1296Y902D01*
X1298Y902D01*
X1298Y904D01*
X1300Y904D01*
X1300Y906D01*
X1302Y906D01*
X1302Y908D01*
X1306Y908D01*
X1306Y910D01*
X1308Y910D01*
X1308Y912D01*
X1312Y912D01*
X1312Y914D01*
X1316Y914D01*
X1316Y916D01*
X1322Y916D01*
X1322Y918D01*
X1328Y918D01*
X1328Y920D01*
X1346Y920D01*
X1346Y922D01*
X1348Y922D01*
X1348Y924D01*
X1350Y924D01*
X1350Y926D01*
X1352Y926D01*
X1352Y928D01*
X1354Y928D01*
X1354Y930D01*
X1356Y930D01*
X1356Y932D01*
X1358Y932D01*
X1358Y934D01*
X1360Y934D01*
X1360Y936D01*
X1362Y936D01*
X1362Y938D01*
X1364Y938D01*
X1364Y940D01*
X1366Y940D01*
X1366Y942D01*
X1368Y942D01*
X1368Y944D01*
X1370Y944D01*
X1370Y946D01*
X1372Y946D01*
X1372Y948D01*
X1374Y948D01*
X1374Y950D01*
X1376Y950D01*
X1376Y952D01*
X1378Y952D01*
X1378Y954D01*
X1380Y954D01*
X1380Y956D01*
X1382Y956D01*
X1382Y958D01*
X1384Y958D01*
X1384Y960D01*
X1386Y960D01*
X1386Y962D01*
X1388Y962D01*
X1388Y964D01*
X1390Y964D01*
X1390Y966D01*
X1392Y966D01*
X1392Y968D01*
X1394Y968D01*
X1394Y970D01*
X1396Y970D01*
X1396Y972D01*
X1398Y972D01*
X1398Y974D01*
X1400Y974D01*
X1400Y976D01*
X1402Y976D01*
X1402Y978D01*
X1404Y978D01*
X1404Y980D01*
X1406Y980D01*
X1406Y982D01*
X1408Y982D01*
X1408Y984D01*
X1410Y984D01*
X1410Y986D01*
X1412Y986D01*
X1412Y988D01*
X1414Y988D01*
X1414Y990D01*
X1416Y990D01*
X1416Y992D01*
X1418Y992D01*
X1418Y994D01*
X1058Y994D01*
G37*
D02*
G36*
X794Y1316D02*
X794Y1314D01*
X792Y1314D01*
X792Y1294D01*
X794Y1294D01*
X794Y1292D01*
X796Y1292D01*
X796Y1288D01*
X798Y1288D01*
X798Y1284D01*
X800Y1284D01*
X800Y1280D01*
X802Y1280D01*
X802Y1272D01*
X804Y1272D01*
X804Y1244D01*
X802Y1244D01*
X802Y1236D01*
X800Y1236D01*
X800Y1232D01*
X798Y1232D01*
X798Y1228D01*
X796Y1228D01*
X796Y1224D01*
X794Y1224D01*
X794Y1222D01*
X850Y1222D01*
X850Y1220D01*
X860Y1220D01*
X860Y1218D01*
X864Y1218D01*
X864Y1216D01*
X870Y1216D01*
X870Y1214D01*
X872Y1214D01*
X872Y1212D01*
X876Y1212D01*
X876Y1210D01*
X878Y1210D01*
X878Y1208D01*
X882Y1208D01*
X882Y1206D01*
X902Y1206D01*
X902Y1208D01*
X906Y1208D01*
X906Y1210D01*
X908Y1210D01*
X908Y1212D01*
X912Y1212D01*
X912Y1214D01*
X916Y1214D01*
X916Y1216D01*
X922Y1216D01*
X922Y1218D01*
X928Y1218D01*
X928Y1220D01*
X950Y1220D01*
X950Y1240D01*
X948Y1240D01*
X948Y1242D01*
X946Y1242D01*
X946Y1244D01*
X944Y1244D01*
X944Y1246D01*
X942Y1246D01*
X942Y1248D01*
X940Y1248D01*
X940Y1250D01*
X938Y1250D01*
X938Y1252D01*
X936Y1252D01*
X936Y1254D01*
X934Y1254D01*
X934Y1256D01*
X932Y1256D01*
X932Y1258D01*
X930Y1258D01*
X930Y1260D01*
X928Y1260D01*
X928Y1262D01*
X926Y1262D01*
X926Y1264D01*
X924Y1264D01*
X924Y1266D01*
X922Y1266D01*
X922Y1268D01*
X920Y1268D01*
X920Y1270D01*
X918Y1270D01*
X918Y1272D01*
X916Y1272D01*
X916Y1274D01*
X914Y1274D01*
X914Y1276D01*
X912Y1276D01*
X912Y1278D01*
X910Y1278D01*
X910Y1280D01*
X908Y1280D01*
X908Y1284D01*
X906Y1284D01*
X906Y1286D01*
X904Y1286D01*
X904Y1288D01*
X902Y1288D01*
X902Y1290D01*
X900Y1290D01*
X900Y1292D01*
X898Y1292D01*
X898Y1294D01*
X896Y1294D01*
X896Y1296D01*
X894Y1296D01*
X894Y1298D01*
X892Y1298D01*
X892Y1300D01*
X890Y1300D01*
X890Y1302D01*
X888Y1302D01*
X888Y1304D01*
X886Y1304D01*
X886Y1306D01*
X884Y1306D01*
X884Y1308D01*
X882Y1308D01*
X882Y1310D01*
X880Y1310D01*
X880Y1312D01*
X878Y1312D01*
X878Y1314D01*
X876Y1314D01*
X876Y1316D01*
X794Y1316D01*
G37*
D02*
G36*
X792Y1222D02*
X792Y1218D01*
X790Y1218D01*
X790Y1214D01*
X812Y1214D01*
X812Y1216D01*
X816Y1216D01*
X816Y1218D01*
X822Y1218D01*
X822Y1220D01*
X832Y1220D01*
X832Y1222D01*
X792Y1222D01*
G37*
D02*
G36*
X492Y1290D02*
X492Y1288D01*
X490Y1288D01*
X490Y1286D01*
X488Y1286D01*
X488Y1284D01*
X486Y1284D01*
X486Y1282D01*
X484Y1282D01*
X484Y1280D01*
X482Y1280D01*
X482Y1278D01*
X480Y1278D01*
X480Y1276D01*
X478Y1276D01*
X478Y1274D01*
X476Y1274D01*
X476Y1272D01*
X474Y1272D01*
X474Y1270D01*
X472Y1270D01*
X472Y1268D01*
X470Y1268D01*
X470Y1266D01*
X468Y1266D01*
X468Y1264D01*
X466Y1264D01*
X466Y1262D01*
X464Y1262D01*
X464Y1260D01*
X462Y1260D01*
X462Y1258D01*
X460Y1258D01*
X460Y1256D01*
X458Y1256D01*
X458Y1254D01*
X456Y1254D01*
X456Y1252D01*
X454Y1252D01*
X454Y1250D01*
X452Y1250D01*
X452Y1248D01*
X450Y1248D01*
X450Y1246D01*
X448Y1246D01*
X448Y1244D01*
X446Y1244D01*
X446Y1242D01*
X444Y1242D01*
X444Y1240D01*
X442Y1240D01*
X442Y1238D01*
X440Y1238D01*
X440Y1236D01*
X438Y1236D01*
X438Y1234D01*
X436Y1234D01*
X436Y1232D01*
X434Y1232D01*
X434Y1230D01*
X432Y1230D01*
X432Y1220D01*
X478Y1220D01*
X478Y1218D01*
X486Y1218D01*
X486Y1216D01*
X490Y1216D01*
X490Y1214D01*
X494Y1214D01*
X494Y1212D01*
X498Y1212D01*
X498Y1210D01*
X518Y1210D01*
X518Y1218D01*
X516Y1218D01*
X516Y1222D01*
X514Y1222D01*
X514Y1224D01*
X512Y1224D01*
X512Y1228D01*
X510Y1228D01*
X510Y1232D01*
X508Y1232D01*
X508Y1236D01*
X506Y1236D01*
X506Y1244D01*
X504Y1244D01*
X504Y1272D01*
X506Y1272D01*
X506Y1278D01*
X508Y1278D01*
X508Y1284D01*
X510Y1284D01*
X510Y1288D01*
X512Y1288D01*
X512Y1290D01*
X492Y1290D01*
G37*
D02*
G36*
X432Y1220D02*
X432Y1218D01*
X454Y1218D01*
X454Y1220D01*
X432Y1220D01*
G37*
D02*
G36*
X1002Y1168D02*
X1002Y1162D01*
X1004Y1162D01*
X1004Y1154D01*
X1002Y1154D01*
X1002Y1142D01*
X1000Y1142D01*
X1000Y1136D01*
X998Y1136D01*
X998Y1130D01*
X996Y1130D01*
X996Y1128D01*
X994Y1128D01*
X994Y1124D01*
X992Y1124D01*
X992Y1120D01*
X990Y1120D01*
X990Y1118D01*
X988Y1118D01*
X988Y1098D01*
X990Y1098D01*
X990Y1094D01*
X992Y1094D01*
X992Y1092D01*
X994Y1092D01*
X994Y1088D01*
X996Y1088D01*
X996Y1084D01*
X998Y1084D01*
X998Y1080D01*
X1000Y1080D01*
X1000Y1074D01*
X1002Y1074D01*
X1002Y1072D01*
X1022Y1072D01*
X1022Y1074D01*
X1024Y1074D01*
X1024Y1166D01*
X1022Y1166D01*
X1022Y1168D01*
X1002Y1168D01*
G37*
D02*
G36*
X1514Y974D02*
X1514Y972D01*
X1512Y972D01*
X1512Y970D01*
X1510Y970D01*
X1510Y968D01*
X1508Y968D01*
X1508Y966D01*
X1506Y966D01*
X1506Y964D01*
X1504Y964D01*
X1504Y962D01*
X1502Y962D01*
X1502Y960D01*
X1500Y960D01*
X1500Y958D01*
X1498Y958D01*
X1498Y956D01*
X1496Y956D01*
X1496Y954D01*
X1494Y954D01*
X1494Y952D01*
X1492Y952D01*
X1492Y950D01*
X1490Y950D01*
X1490Y948D01*
X1488Y948D01*
X1488Y946D01*
X1486Y946D01*
X1486Y944D01*
X1484Y944D01*
X1484Y942D01*
X1482Y942D01*
X1482Y940D01*
X1480Y940D01*
X1480Y938D01*
X1478Y938D01*
X1478Y936D01*
X1476Y936D01*
X1476Y934D01*
X1474Y934D01*
X1474Y932D01*
X1472Y932D01*
X1472Y930D01*
X1470Y930D01*
X1470Y928D01*
X1468Y928D01*
X1468Y926D01*
X1466Y926D01*
X1466Y924D01*
X1464Y924D01*
X1464Y922D01*
X1462Y922D01*
X1462Y920D01*
X1460Y920D01*
X1460Y918D01*
X1458Y918D01*
X1458Y916D01*
X1456Y916D01*
X1456Y914D01*
X1454Y914D01*
X1454Y912D01*
X1452Y912D01*
X1452Y910D01*
X1450Y910D01*
X1450Y908D01*
X1448Y908D01*
X1448Y906D01*
X1446Y906D01*
X1446Y904D01*
X1444Y904D01*
X1444Y902D01*
X1442Y902D01*
X1442Y900D01*
X1440Y900D01*
X1440Y898D01*
X1438Y898D01*
X1438Y896D01*
X1436Y896D01*
X1436Y894D01*
X1434Y894D01*
X1434Y892D01*
X1432Y892D01*
X1432Y890D01*
X1430Y890D01*
X1430Y888D01*
X1428Y888D01*
X1428Y886D01*
X1426Y886D01*
X1426Y884D01*
X1424Y884D01*
X1424Y882D01*
X1422Y882D01*
X1422Y880D01*
X1420Y880D01*
X1420Y878D01*
X1418Y878D01*
X1418Y876D01*
X1416Y876D01*
X1416Y874D01*
X1414Y874D01*
X1414Y872D01*
X1412Y872D01*
X1412Y870D01*
X1410Y870D01*
X1410Y868D01*
X1408Y868D01*
X1408Y866D01*
X1406Y866D01*
X1406Y864D01*
X1404Y864D01*
X1404Y854D01*
X1402Y854D01*
X1402Y842D01*
X1400Y842D01*
X1400Y836D01*
X1398Y836D01*
X1398Y830D01*
X1396Y830D01*
X1396Y828D01*
X1394Y828D01*
X1394Y824D01*
X1392Y824D01*
X1392Y820D01*
X1390Y820D01*
X1390Y818D01*
X1388Y818D01*
X1388Y798D01*
X1392Y798D01*
X1392Y796D01*
X1396Y796D01*
X1396Y794D01*
X1400Y794D01*
X1400Y792D01*
X1402Y792D01*
X1402Y790D01*
X1404Y790D01*
X1404Y788D01*
X1406Y788D01*
X1406Y786D01*
X1408Y786D01*
X1408Y782D01*
X1410Y782D01*
X1410Y780D01*
X1412Y780D01*
X1412Y774D01*
X1414Y774D01*
X1414Y768D01*
X1416Y768D01*
X1416Y766D01*
X1418Y766D01*
X1418Y764D01*
X1420Y764D01*
X1420Y762D01*
X1422Y762D01*
X1422Y760D01*
X1424Y760D01*
X1424Y758D01*
X1426Y758D01*
X1426Y756D01*
X1428Y756D01*
X1428Y754D01*
X1430Y754D01*
X1430Y752D01*
X1432Y752D01*
X1432Y750D01*
X1434Y750D01*
X1434Y748D01*
X1436Y748D01*
X1436Y746D01*
X1438Y746D01*
X1438Y744D01*
X1440Y744D01*
X1440Y742D01*
X1442Y742D01*
X1442Y740D01*
X1444Y740D01*
X1444Y738D01*
X1446Y738D01*
X1446Y736D01*
X1448Y736D01*
X1448Y734D01*
X1450Y734D01*
X1450Y732D01*
X1452Y732D01*
X1452Y730D01*
X1454Y730D01*
X1454Y728D01*
X1456Y728D01*
X1456Y726D01*
X1458Y726D01*
X1458Y724D01*
X1460Y724D01*
X1460Y722D01*
X1462Y722D01*
X1462Y720D01*
X1464Y720D01*
X1464Y718D01*
X1466Y718D01*
X1466Y716D01*
X1468Y716D01*
X1468Y714D01*
X1470Y714D01*
X1470Y712D01*
X1472Y712D01*
X1472Y710D01*
X1474Y710D01*
X1474Y708D01*
X1476Y708D01*
X1476Y706D01*
X1478Y706D01*
X1478Y704D01*
X1480Y704D01*
X1480Y702D01*
X1482Y702D01*
X1482Y700D01*
X1484Y700D01*
X1484Y698D01*
X1486Y698D01*
X1486Y696D01*
X1488Y696D01*
X1488Y694D01*
X1490Y694D01*
X1490Y692D01*
X1492Y692D01*
X1492Y690D01*
X1494Y690D01*
X1494Y688D01*
X1496Y688D01*
X1496Y686D01*
X1498Y686D01*
X1498Y684D01*
X1500Y684D01*
X1500Y682D01*
X1502Y682D01*
X1502Y680D01*
X1504Y680D01*
X1504Y678D01*
X1506Y678D01*
X1506Y676D01*
X1508Y676D01*
X1508Y674D01*
X1510Y674D01*
X1510Y672D01*
X1512Y672D01*
X1512Y670D01*
X1514Y670D01*
X1514Y668D01*
X1534Y668D01*
X1534Y974D01*
X1514Y974D01*
G37*
D02*
G36*
X674Y822D02*
X674Y820D01*
X660Y820D01*
X660Y818D01*
X658Y818D01*
X658Y816D01*
X656Y816D01*
X656Y814D01*
X654Y814D01*
X654Y812D01*
X652Y812D01*
X652Y810D01*
X650Y810D01*
X650Y808D01*
X648Y808D01*
X648Y806D01*
X646Y806D01*
X646Y804D01*
X644Y804D01*
X644Y802D01*
X642Y802D01*
X642Y800D01*
X640Y800D01*
X640Y798D01*
X638Y798D01*
X638Y796D01*
X636Y796D01*
X636Y794D01*
X634Y794D01*
X634Y792D01*
X632Y792D01*
X632Y790D01*
X630Y790D01*
X630Y788D01*
X628Y788D01*
X628Y786D01*
X626Y786D01*
X626Y784D01*
X624Y784D01*
X624Y782D01*
X622Y782D01*
X622Y780D01*
X620Y780D01*
X620Y778D01*
X618Y778D01*
X618Y776D01*
X616Y776D01*
X616Y774D01*
X614Y774D01*
X614Y772D01*
X612Y772D01*
X612Y770D01*
X610Y770D01*
X610Y768D01*
X608Y768D01*
X608Y766D01*
X606Y766D01*
X606Y546D01*
X670Y546D01*
X670Y544D01*
X682Y544D01*
X682Y542D01*
X702Y542D01*
X702Y592D01*
X700Y592D01*
X700Y794D01*
X698Y794D01*
X698Y822D01*
X674Y822D01*
G37*
D02*
G36*
X606Y546D02*
X606Y530D01*
X626Y530D01*
X626Y532D01*
X628Y532D01*
X628Y534D01*
X632Y534D01*
X632Y536D01*
X636Y536D01*
X636Y538D01*
X638Y538D01*
X638Y540D01*
X644Y540D01*
X644Y542D01*
X650Y542D01*
X650Y544D01*
X662Y544D01*
X662Y546D01*
X606Y546D01*
G37*
D02*
G36*
X40Y658D02*
X40Y252D01*
X60Y252D01*
X60Y258D01*
X62Y258D01*
X62Y262D01*
X64Y262D01*
X64Y264D01*
X66Y264D01*
X66Y648D01*
X64Y648D01*
X64Y650D01*
X62Y650D01*
X62Y654D01*
X60Y654D01*
X60Y658D01*
X40Y658D01*
G37*
D02*
G36*
X782Y608D02*
X782Y594D01*
X828Y594D01*
X828Y596D01*
X820Y596D01*
X820Y598D01*
X816Y598D01*
X816Y600D01*
X812Y600D01*
X812Y602D01*
X808Y602D01*
X808Y604D01*
X804Y604D01*
X804Y606D01*
X802Y606D01*
X802Y608D01*
X782Y608D01*
G37*
D02*
G36*
X854Y596D02*
X854Y594D01*
X878Y594D01*
X878Y596D01*
X854Y596D01*
G37*
D02*
G36*
X784Y594D02*
X784Y592D01*
X878Y592D01*
X878Y594D01*
X784Y594D01*
G37*
D02*
G36*
X784Y594D02*
X784Y592D01*
X878Y592D01*
X878Y594D01*
X784Y594D01*
G37*
D02*
G36*
X784Y592D02*
X784Y548D01*
X786Y548D01*
X786Y546D01*
X796Y546D01*
X796Y544D01*
X806Y544D01*
X806Y542D01*
X814Y542D01*
X814Y540D01*
X818Y540D01*
X818Y538D01*
X822Y538D01*
X822Y536D01*
X824Y536D01*
X824Y534D01*
X828Y534D01*
X828Y532D01*
X830Y532D01*
X830Y530D01*
X850Y530D01*
X850Y544D01*
X852Y544D01*
X852Y550D01*
X854Y550D01*
X854Y554D01*
X856Y554D01*
X856Y556D01*
X858Y556D01*
X858Y560D01*
X860Y560D01*
X860Y562D01*
X862Y562D01*
X862Y564D01*
X864Y564D01*
X864Y566D01*
X866Y566D01*
X866Y568D01*
X868Y568D01*
X868Y570D01*
X870Y570D01*
X870Y572D01*
X872Y572D01*
X872Y574D01*
X874Y574D01*
X874Y576D01*
X876Y576D01*
X876Y578D01*
X878Y578D01*
X878Y592D01*
X784Y592D01*
G37*
D02*
G36*
X1430Y492D02*
X1430Y490D01*
X1428Y490D01*
X1428Y488D01*
X1426Y488D01*
X1426Y486D01*
X1424Y486D01*
X1424Y484D01*
X1422Y484D01*
X1422Y482D01*
X1420Y482D01*
X1420Y480D01*
X1418Y480D01*
X1418Y478D01*
X1416Y478D01*
X1416Y476D01*
X1414Y476D01*
X1414Y474D01*
X1412Y474D01*
X1412Y472D01*
X1410Y472D01*
X1410Y470D01*
X1408Y470D01*
X1408Y468D01*
X1406Y468D01*
X1406Y466D01*
X1404Y466D01*
X1404Y464D01*
X1402Y464D01*
X1402Y462D01*
X1400Y462D01*
X1400Y460D01*
X1398Y460D01*
X1398Y458D01*
X1396Y458D01*
X1396Y456D01*
X1394Y456D01*
X1394Y454D01*
X1392Y454D01*
X1392Y452D01*
X1390Y452D01*
X1390Y450D01*
X1388Y450D01*
X1388Y448D01*
X1386Y448D01*
X1386Y446D01*
X1384Y446D01*
X1384Y444D01*
X1382Y444D01*
X1382Y442D01*
X1380Y442D01*
X1380Y440D01*
X1378Y440D01*
X1378Y438D01*
X1376Y438D01*
X1376Y436D01*
X1374Y436D01*
X1374Y434D01*
X1372Y434D01*
X1372Y432D01*
X1370Y432D01*
X1370Y430D01*
X1368Y430D01*
X1368Y428D01*
X1366Y428D01*
X1366Y426D01*
X1364Y426D01*
X1364Y424D01*
X1362Y424D01*
X1362Y422D01*
X1360Y422D01*
X1360Y420D01*
X1358Y420D01*
X1358Y418D01*
X1356Y418D01*
X1356Y416D01*
X1354Y416D01*
X1354Y414D01*
X1352Y414D01*
X1352Y412D01*
X1350Y412D01*
X1350Y410D01*
X1348Y410D01*
X1348Y408D01*
X1346Y408D01*
X1346Y406D01*
X1344Y406D01*
X1344Y404D01*
X1342Y404D01*
X1342Y402D01*
X1340Y402D01*
X1340Y400D01*
X1338Y400D01*
X1338Y398D01*
X1336Y398D01*
X1336Y396D01*
X1334Y396D01*
X1334Y394D01*
X1332Y394D01*
X1332Y392D01*
X1330Y392D01*
X1330Y390D01*
X1328Y390D01*
X1328Y388D01*
X1326Y388D01*
X1326Y384D01*
X1324Y384D01*
X1324Y382D01*
X1322Y382D01*
X1322Y380D01*
X1320Y380D01*
X1320Y378D01*
X1318Y378D01*
X1318Y376D01*
X1316Y376D01*
X1316Y374D01*
X1314Y374D01*
X1314Y372D01*
X1312Y372D01*
X1312Y370D01*
X1310Y370D01*
X1310Y368D01*
X1308Y368D01*
X1308Y366D01*
X1306Y366D01*
X1306Y364D01*
X1304Y364D01*
X1304Y362D01*
X1302Y362D01*
X1302Y360D01*
X1300Y360D01*
X1300Y358D01*
X1298Y358D01*
X1298Y356D01*
X1296Y356D01*
X1296Y354D01*
X1294Y354D01*
X1294Y352D01*
X1292Y352D01*
X1292Y350D01*
X1290Y350D01*
X1290Y348D01*
X1288Y348D01*
X1288Y346D01*
X1286Y346D01*
X1286Y344D01*
X1284Y344D01*
X1284Y342D01*
X1282Y342D01*
X1282Y340D01*
X1280Y340D01*
X1280Y338D01*
X1278Y338D01*
X1278Y336D01*
X1276Y336D01*
X1276Y334D01*
X1274Y334D01*
X1274Y332D01*
X1272Y332D01*
X1272Y330D01*
X1270Y330D01*
X1270Y328D01*
X1268Y328D01*
X1268Y326D01*
X1266Y326D01*
X1266Y324D01*
X1264Y324D01*
X1264Y322D01*
X1262Y322D01*
X1262Y320D01*
X1260Y320D01*
X1260Y318D01*
X1258Y318D01*
X1258Y316D01*
X1256Y316D01*
X1256Y314D01*
X1254Y314D01*
X1254Y312D01*
X1252Y312D01*
X1252Y310D01*
X1250Y310D01*
X1250Y308D01*
X1248Y308D01*
X1248Y306D01*
X1246Y306D01*
X1246Y304D01*
X1244Y304D01*
X1244Y302D01*
X1242Y302D01*
X1242Y300D01*
X1240Y300D01*
X1240Y298D01*
X1238Y298D01*
X1238Y296D01*
X1236Y296D01*
X1236Y294D01*
X1234Y294D01*
X1234Y292D01*
X1232Y292D01*
X1232Y290D01*
X1230Y290D01*
X1230Y288D01*
X1228Y288D01*
X1228Y286D01*
X1226Y286D01*
X1226Y284D01*
X1224Y284D01*
X1224Y282D01*
X1222Y282D01*
X1222Y280D01*
X1220Y280D01*
X1220Y278D01*
X1218Y278D01*
X1218Y276D01*
X1216Y276D01*
X1216Y274D01*
X1214Y274D01*
X1214Y272D01*
X1212Y272D01*
X1212Y270D01*
X1210Y270D01*
X1210Y268D01*
X1208Y268D01*
X1208Y266D01*
X1206Y266D01*
X1206Y264D01*
X1204Y264D01*
X1204Y262D01*
X1202Y262D01*
X1202Y260D01*
X1200Y260D01*
X1200Y258D01*
X1198Y258D01*
X1198Y256D01*
X1196Y256D01*
X1196Y254D01*
X1194Y254D01*
X1194Y252D01*
X1192Y252D01*
X1192Y250D01*
X1188Y250D01*
X1188Y248D01*
X1184Y248D01*
X1184Y246D01*
X1180Y246D01*
X1180Y244D01*
X1172Y244D01*
X1172Y242D01*
X1138Y242D01*
X1138Y222D01*
X1140Y222D01*
X1140Y220D01*
X1142Y220D01*
X1142Y216D01*
X1144Y216D01*
X1144Y214D01*
X1146Y214D01*
X1146Y210D01*
X1148Y210D01*
X1148Y206D01*
X1150Y206D01*
X1150Y198D01*
X1152Y198D01*
X1152Y188D01*
X1154Y188D01*
X1154Y180D01*
X1174Y180D01*
X1174Y182D01*
X1176Y182D01*
X1176Y184D01*
X1178Y184D01*
X1178Y186D01*
X1180Y186D01*
X1180Y188D01*
X1182Y188D01*
X1182Y190D01*
X1184Y190D01*
X1184Y192D01*
X1186Y192D01*
X1186Y194D01*
X1188Y194D01*
X1188Y196D01*
X1190Y196D01*
X1190Y198D01*
X1192Y198D01*
X1192Y200D01*
X1194Y200D01*
X1194Y202D01*
X1196Y202D01*
X1196Y204D01*
X1198Y204D01*
X1198Y206D01*
X1200Y206D01*
X1200Y208D01*
X1202Y208D01*
X1202Y210D01*
X1204Y210D01*
X1204Y212D01*
X1206Y212D01*
X1206Y216D01*
X1208Y216D01*
X1208Y218D01*
X1210Y218D01*
X1210Y220D01*
X1212Y220D01*
X1212Y222D01*
X1214Y222D01*
X1214Y224D01*
X1216Y224D01*
X1216Y226D01*
X1218Y226D01*
X1218Y228D01*
X1220Y228D01*
X1220Y230D01*
X1222Y230D01*
X1222Y232D01*
X1224Y232D01*
X1224Y234D01*
X1226Y234D01*
X1226Y236D01*
X1228Y236D01*
X1228Y238D01*
X1230Y238D01*
X1230Y240D01*
X1232Y240D01*
X1232Y242D01*
X1234Y242D01*
X1234Y244D01*
X1236Y244D01*
X1236Y246D01*
X1238Y246D01*
X1238Y248D01*
X1240Y248D01*
X1240Y252D01*
X1242Y252D01*
X1242Y254D01*
X1244Y254D01*
X1244Y256D01*
X1246Y256D01*
X1246Y258D01*
X1248Y258D01*
X1248Y260D01*
X1250Y260D01*
X1250Y262D01*
X1252Y262D01*
X1252Y264D01*
X1254Y264D01*
X1254Y266D01*
X1256Y266D01*
X1256Y268D01*
X1258Y268D01*
X1258Y270D01*
X1260Y270D01*
X1260Y272D01*
X1262Y272D01*
X1262Y274D01*
X1264Y274D01*
X1264Y276D01*
X1266Y276D01*
X1266Y278D01*
X1268Y278D01*
X1268Y280D01*
X1270Y280D01*
X1270Y282D01*
X1272Y282D01*
X1272Y284D01*
X1274Y284D01*
X1274Y288D01*
X1276Y288D01*
X1276Y290D01*
X1278Y290D01*
X1278Y292D01*
X1280Y292D01*
X1280Y294D01*
X1282Y294D01*
X1282Y296D01*
X1284Y296D01*
X1284Y298D01*
X1286Y298D01*
X1286Y300D01*
X1288Y300D01*
X1288Y302D01*
X1290Y302D01*
X1290Y304D01*
X1292Y304D01*
X1292Y306D01*
X1294Y306D01*
X1294Y308D01*
X1296Y308D01*
X1296Y310D01*
X1298Y310D01*
X1298Y312D01*
X1300Y312D01*
X1300Y314D01*
X1302Y314D01*
X1302Y316D01*
X1304Y316D01*
X1304Y318D01*
X1306Y318D01*
X1306Y320D01*
X1308Y320D01*
X1308Y324D01*
X1310Y324D01*
X1310Y326D01*
X1312Y326D01*
X1312Y328D01*
X1314Y328D01*
X1314Y330D01*
X1316Y330D01*
X1316Y332D01*
X1318Y332D01*
X1318Y334D01*
X1320Y334D01*
X1320Y336D01*
X1322Y336D01*
X1322Y338D01*
X1324Y338D01*
X1324Y340D01*
X1326Y340D01*
X1326Y342D01*
X1328Y342D01*
X1328Y344D01*
X1330Y344D01*
X1330Y346D01*
X1332Y346D01*
X1332Y348D01*
X1334Y348D01*
X1334Y350D01*
X1336Y350D01*
X1336Y352D01*
X1338Y352D01*
X1338Y354D01*
X1340Y354D01*
X1340Y358D01*
X1342Y358D01*
X1342Y360D01*
X1344Y360D01*
X1344Y362D01*
X1346Y362D01*
X1346Y364D01*
X1348Y364D01*
X1348Y366D01*
X1350Y366D01*
X1350Y368D01*
X1352Y368D01*
X1352Y370D01*
X1354Y370D01*
X1354Y372D01*
X1356Y372D01*
X1356Y374D01*
X1358Y374D01*
X1358Y376D01*
X1360Y376D01*
X1360Y378D01*
X1362Y378D01*
X1362Y380D01*
X1364Y380D01*
X1364Y382D01*
X1366Y382D01*
X1366Y384D01*
X1368Y384D01*
X1368Y386D01*
X1370Y386D01*
X1370Y388D01*
X1372Y388D01*
X1372Y390D01*
X1374Y390D01*
X1374Y394D01*
X1376Y394D01*
X1376Y396D01*
X1378Y396D01*
X1378Y398D01*
X1380Y398D01*
X1380Y400D01*
X1382Y400D01*
X1382Y402D01*
X1384Y402D01*
X1384Y404D01*
X1386Y404D01*
X1386Y406D01*
X1388Y406D01*
X1388Y408D01*
X1390Y408D01*
X1390Y410D01*
X1392Y410D01*
X1392Y412D01*
X1394Y412D01*
X1394Y414D01*
X1396Y414D01*
X1396Y416D01*
X1398Y416D01*
X1398Y418D01*
X1400Y418D01*
X1400Y420D01*
X1402Y420D01*
X1402Y422D01*
X1404Y422D01*
X1404Y424D01*
X1406Y424D01*
X1406Y426D01*
X1408Y426D01*
X1408Y430D01*
X1410Y430D01*
X1410Y432D01*
X1412Y432D01*
X1412Y434D01*
X1414Y434D01*
X1414Y436D01*
X1416Y436D01*
X1416Y438D01*
X1418Y438D01*
X1418Y440D01*
X1420Y440D01*
X1420Y442D01*
X1422Y442D01*
X1422Y444D01*
X1424Y444D01*
X1424Y446D01*
X1426Y446D01*
X1426Y448D01*
X1428Y448D01*
X1428Y450D01*
X1430Y450D01*
X1430Y452D01*
X1432Y452D01*
X1432Y454D01*
X1434Y454D01*
X1434Y456D01*
X1436Y456D01*
X1436Y458D01*
X1438Y458D01*
X1438Y460D01*
X1440Y460D01*
X1440Y462D01*
X1442Y462D01*
X1442Y466D01*
X1444Y466D01*
X1444Y468D01*
X1446Y468D01*
X1446Y470D01*
X1448Y470D01*
X1448Y472D01*
X1450Y472D01*
X1450Y492D01*
X1430Y492D01*
G37*
D02*
G36*
X1002Y616D02*
X1002Y588D01*
X1004Y588D01*
X1004Y578D01*
X1002Y578D01*
X1002Y566D01*
X1000Y566D01*
X1000Y546D01*
X1096Y546D01*
X1096Y544D01*
X1106Y544D01*
X1106Y542D01*
X1114Y542D01*
X1114Y540D01*
X1118Y540D01*
X1118Y538D01*
X1122Y538D01*
X1122Y536D01*
X1124Y536D01*
X1124Y534D01*
X1128Y534D01*
X1128Y532D01*
X1130Y532D01*
X1130Y530D01*
X1132Y530D01*
X1132Y528D01*
X1134Y528D01*
X1134Y526D01*
X1136Y526D01*
X1136Y524D01*
X1138Y524D01*
X1138Y522D01*
X1140Y522D01*
X1140Y520D01*
X1142Y520D01*
X1142Y516D01*
X1144Y516D01*
X1144Y514D01*
X1146Y514D01*
X1146Y510D01*
X1148Y510D01*
X1148Y506D01*
X1150Y506D01*
X1150Y498D01*
X1152Y498D01*
X1152Y488D01*
X1154Y488D01*
X1154Y478D01*
X1152Y478D01*
X1152Y466D01*
X1150Y466D01*
X1150Y460D01*
X1148Y460D01*
X1148Y456D01*
X1146Y456D01*
X1146Y452D01*
X1144Y452D01*
X1144Y448D01*
X1142Y448D01*
X1142Y446D01*
X1140Y446D01*
X1140Y444D01*
X1138Y444D01*
X1138Y440D01*
X1136Y440D01*
X1136Y438D01*
X1134Y438D01*
X1134Y436D01*
X1130Y436D01*
X1130Y434D01*
X1128Y434D01*
X1128Y432D01*
X1126Y432D01*
X1126Y430D01*
X1122Y430D01*
X1122Y428D01*
X1118Y428D01*
X1118Y426D01*
X1114Y426D01*
X1114Y424D01*
X1108Y424D01*
X1108Y422D01*
X1100Y422D01*
X1100Y420D01*
X1246Y420D01*
X1246Y422D01*
X1248Y422D01*
X1248Y424D01*
X1250Y424D01*
X1250Y426D01*
X1252Y426D01*
X1252Y428D01*
X1254Y428D01*
X1254Y430D01*
X1256Y430D01*
X1256Y432D01*
X1258Y432D01*
X1258Y434D01*
X1260Y434D01*
X1260Y436D01*
X1262Y436D01*
X1262Y438D01*
X1264Y438D01*
X1264Y440D01*
X1266Y440D01*
X1266Y442D01*
X1268Y442D01*
X1268Y444D01*
X1270Y444D01*
X1270Y446D01*
X1272Y446D01*
X1272Y450D01*
X1274Y450D01*
X1274Y452D01*
X1276Y452D01*
X1276Y454D01*
X1278Y454D01*
X1278Y456D01*
X1280Y456D01*
X1280Y458D01*
X1282Y458D01*
X1282Y460D01*
X1284Y460D01*
X1284Y462D01*
X1286Y462D01*
X1286Y464D01*
X1288Y464D01*
X1288Y466D01*
X1290Y466D01*
X1290Y468D01*
X1292Y468D01*
X1292Y470D01*
X1294Y470D01*
X1294Y472D01*
X1296Y472D01*
X1296Y474D01*
X1298Y474D01*
X1298Y476D01*
X1300Y476D01*
X1300Y478D01*
X1302Y478D01*
X1302Y480D01*
X1304Y480D01*
X1304Y482D01*
X1306Y482D01*
X1306Y484D01*
X1308Y484D01*
X1308Y486D01*
X1310Y486D01*
X1310Y488D01*
X1312Y488D01*
X1312Y490D01*
X1314Y490D01*
X1314Y492D01*
X1316Y492D01*
X1316Y494D01*
X1318Y494D01*
X1318Y496D01*
X1320Y496D01*
X1320Y498D01*
X1322Y498D01*
X1322Y500D01*
X1324Y500D01*
X1324Y502D01*
X1326Y502D01*
X1326Y522D01*
X1322Y522D01*
X1322Y524D01*
X1316Y524D01*
X1316Y526D01*
X1312Y526D01*
X1312Y528D01*
X1310Y528D01*
X1310Y530D01*
X1306Y530D01*
X1306Y532D01*
X1304Y532D01*
X1304Y534D01*
X1300Y534D01*
X1300Y536D01*
X1298Y536D01*
X1298Y538D01*
X1296Y538D01*
X1296Y540D01*
X1294Y540D01*
X1294Y542D01*
X1292Y542D01*
X1292Y546D01*
X1290Y546D01*
X1290Y548D01*
X1288Y548D01*
X1288Y552D01*
X1286Y552D01*
X1286Y554D01*
X1284Y554D01*
X1284Y558D01*
X1282Y558D01*
X1282Y564D01*
X1280Y564D01*
X1280Y574D01*
X1278Y574D01*
X1278Y592D01*
X1280Y592D01*
X1280Y616D01*
X1002Y616D01*
G37*
D02*
G36*
X1000Y546D02*
X1000Y544D01*
X1006Y544D01*
X1006Y542D01*
X1014Y542D01*
X1014Y540D01*
X1018Y540D01*
X1018Y538D01*
X1022Y538D01*
X1022Y536D01*
X1024Y536D01*
X1024Y534D01*
X1028Y534D01*
X1028Y532D01*
X1030Y532D01*
X1030Y530D01*
X1052Y530D01*
X1052Y532D01*
X1054Y532D01*
X1054Y534D01*
X1056Y534D01*
X1056Y536D01*
X1060Y536D01*
X1060Y538D01*
X1064Y538D01*
X1064Y540D01*
X1068Y540D01*
X1068Y542D01*
X1074Y542D01*
X1074Y544D01*
X1086Y544D01*
X1086Y546D01*
X1000Y546D01*
G37*
D02*
G36*
X1032Y434D02*
X1032Y426D01*
X1030Y426D01*
X1030Y420D01*
X1082Y420D01*
X1082Y422D01*
X1072Y422D01*
X1072Y424D01*
X1066Y424D01*
X1066Y426D01*
X1062Y426D01*
X1062Y428D01*
X1060Y428D01*
X1060Y430D01*
X1056Y430D01*
X1056Y432D01*
X1054Y432D01*
X1054Y434D01*
X1032Y434D01*
G37*
D02*
G36*
X1030Y420D02*
X1030Y418D01*
X1244Y418D01*
X1244Y420D01*
X1030Y420D01*
G37*
D02*
G36*
X1030Y420D02*
X1030Y418D01*
X1244Y418D01*
X1244Y420D01*
X1030Y420D01*
G37*
D02*
G36*
X1028Y418D02*
X1028Y414D01*
X1026Y414D01*
X1026Y410D01*
X1024Y410D01*
X1024Y408D01*
X1022Y408D01*
X1022Y406D01*
X1020Y406D01*
X1020Y402D01*
X1018Y402D01*
X1018Y400D01*
X1016Y400D01*
X1016Y398D01*
X1014Y398D01*
X1014Y396D01*
X1012Y396D01*
X1012Y394D01*
X1010Y394D01*
X1010Y392D01*
X1008Y392D01*
X1008Y390D01*
X1006Y390D01*
X1006Y388D01*
X1004Y388D01*
X1004Y386D01*
X1002Y386D01*
X1002Y384D01*
X1000Y384D01*
X1000Y382D01*
X998Y382D01*
X998Y380D01*
X996Y380D01*
X996Y378D01*
X994Y378D01*
X994Y376D01*
X992Y376D01*
X992Y374D01*
X988Y374D01*
X988Y372D01*
X984Y372D01*
X984Y370D01*
X980Y370D01*
X980Y368D01*
X970Y368D01*
X970Y366D01*
X628Y366D01*
X628Y346D01*
X636Y346D01*
X636Y344D01*
X642Y344D01*
X642Y342D01*
X646Y342D01*
X646Y340D01*
X650Y340D01*
X650Y338D01*
X652Y338D01*
X652Y336D01*
X654Y336D01*
X654Y334D01*
X658Y334D01*
X658Y332D01*
X660Y332D01*
X660Y330D01*
X662Y330D01*
X662Y328D01*
X664Y328D01*
X664Y326D01*
X666Y326D01*
X666Y324D01*
X948Y324D01*
X948Y322D01*
X956Y322D01*
X956Y320D01*
X960Y320D01*
X960Y318D01*
X964Y318D01*
X964Y316D01*
X966Y316D01*
X966Y314D01*
X968Y314D01*
X968Y312D01*
X970Y312D01*
X970Y310D01*
X972Y310D01*
X972Y308D01*
X974Y308D01*
X974Y306D01*
X976Y306D01*
X976Y304D01*
X978Y304D01*
X978Y302D01*
X980Y302D01*
X980Y300D01*
X1002Y300D01*
X1002Y302D01*
X1004Y302D01*
X1004Y304D01*
X1006Y304D01*
X1006Y306D01*
X1008Y306D01*
X1008Y308D01*
X1010Y308D01*
X1010Y310D01*
X1012Y310D01*
X1012Y312D01*
X1014Y312D01*
X1014Y314D01*
X1016Y314D01*
X1016Y316D01*
X1020Y316D01*
X1020Y318D01*
X1024Y318D01*
X1024Y320D01*
X1030Y320D01*
X1030Y322D01*
X1052Y322D01*
X1052Y324D01*
X1150Y324D01*
X1150Y326D01*
X1152Y326D01*
X1152Y328D01*
X1154Y328D01*
X1154Y330D01*
X1156Y330D01*
X1156Y332D01*
X1158Y332D01*
X1158Y334D01*
X1160Y334D01*
X1160Y336D01*
X1162Y336D01*
X1162Y338D01*
X1164Y338D01*
X1164Y340D01*
X1166Y340D01*
X1166Y342D01*
X1168Y342D01*
X1168Y344D01*
X1170Y344D01*
X1170Y346D01*
X1172Y346D01*
X1172Y348D01*
X1174Y348D01*
X1174Y350D01*
X1176Y350D01*
X1176Y352D01*
X1178Y352D01*
X1178Y354D01*
X1180Y354D01*
X1180Y356D01*
X1182Y356D01*
X1182Y358D01*
X1184Y358D01*
X1184Y360D01*
X1186Y360D01*
X1186Y362D01*
X1188Y362D01*
X1188Y364D01*
X1190Y364D01*
X1190Y366D01*
X1192Y366D01*
X1192Y368D01*
X1194Y368D01*
X1194Y370D01*
X1196Y370D01*
X1196Y372D01*
X1198Y372D01*
X1198Y374D01*
X1200Y374D01*
X1200Y376D01*
X1202Y376D01*
X1202Y378D01*
X1204Y378D01*
X1204Y380D01*
X1206Y380D01*
X1206Y382D01*
X1208Y382D01*
X1208Y384D01*
X1210Y384D01*
X1210Y386D01*
X1212Y386D01*
X1212Y388D01*
X1214Y388D01*
X1214Y390D01*
X1216Y390D01*
X1216Y392D01*
X1218Y392D01*
X1218Y394D01*
X1220Y394D01*
X1220Y396D01*
X1222Y396D01*
X1222Y398D01*
X1224Y398D01*
X1224Y400D01*
X1226Y400D01*
X1226Y402D01*
X1228Y402D01*
X1228Y404D01*
X1230Y404D01*
X1230Y406D01*
X1232Y406D01*
X1232Y408D01*
X1234Y408D01*
X1234Y410D01*
X1236Y410D01*
X1236Y412D01*
X1238Y412D01*
X1238Y414D01*
X1240Y414D01*
X1240Y416D01*
X1242Y416D01*
X1242Y418D01*
X1028Y418D01*
G37*
D02*
G36*
X668Y324D02*
X668Y322D01*
X716Y322D01*
X716Y324D01*
X668Y324D01*
G37*
D02*
G36*
X1514Y422D02*
X1514Y420D01*
X1512Y420D01*
X1512Y418D01*
X1510Y418D01*
X1510Y416D01*
X1508Y416D01*
X1508Y414D01*
X1506Y414D01*
X1506Y412D01*
X1504Y412D01*
X1504Y410D01*
X1502Y410D01*
X1502Y408D01*
X1500Y408D01*
X1500Y404D01*
X1498Y404D01*
X1498Y402D01*
X1496Y402D01*
X1496Y400D01*
X1494Y400D01*
X1494Y398D01*
X1492Y398D01*
X1492Y396D01*
X1490Y396D01*
X1490Y394D01*
X1488Y394D01*
X1488Y392D01*
X1486Y392D01*
X1486Y390D01*
X1484Y390D01*
X1484Y388D01*
X1482Y388D01*
X1482Y386D01*
X1480Y386D01*
X1480Y384D01*
X1478Y384D01*
X1478Y382D01*
X1476Y382D01*
X1476Y380D01*
X1474Y380D01*
X1474Y378D01*
X1472Y378D01*
X1472Y376D01*
X1470Y376D01*
X1470Y374D01*
X1468Y374D01*
X1468Y372D01*
X1466Y372D01*
X1466Y368D01*
X1464Y368D01*
X1464Y366D01*
X1462Y366D01*
X1462Y364D01*
X1460Y364D01*
X1460Y362D01*
X1458Y362D01*
X1458Y360D01*
X1456Y360D01*
X1456Y358D01*
X1454Y358D01*
X1454Y356D01*
X1452Y356D01*
X1452Y354D01*
X1450Y354D01*
X1450Y352D01*
X1448Y352D01*
X1448Y350D01*
X1446Y350D01*
X1446Y348D01*
X1444Y348D01*
X1444Y346D01*
X1442Y346D01*
X1442Y344D01*
X1440Y344D01*
X1440Y342D01*
X1438Y342D01*
X1438Y340D01*
X1436Y340D01*
X1436Y338D01*
X1434Y338D01*
X1434Y334D01*
X1432Y334D01*
X1432Y332D01*
X1430Y332D01*
X1430Y330D01*
X1428Y330D01*
X1428Y328D01*
X1426Y328D01*
X1426Y326D01*
X1424Y326D01*
X1424Y324D01*
X1422Y324D01*
X1422Y322D01*
X1420Y322D01*
X1420Y320D01*
X1418Y320D01*
X1418Y318D01*
X1416Y318D01*
X1416Y316D01*
X1414Y316D01*
X1414Y314D01*
X1412Y314D01*
X1412Y312D01*
X1410Y312D01*
X1410Y310D01*
X1408Y310D01*
X1408Y308D01*
X1406Y308D01*
X1406Y306D01*
X1404Y306D01*
X1404Y304D01*
X1402Y304D01*
X1402Y302D01*
X1400Y302D01*
X1400Y298D01*
X1398Y298D01*
X1398Y296D01*
X1396Y296D01*
X1396Y294D01*
X1394Y294D01*
X1394Y292D01*
X1392Y292D01*
X1392Y290D01*
X1390Y290D01*
X1390Y288D01*
X1388Y288D01*
X1388Y286D01*
X1386Y286D01*
X1386Y284D01*
X1384Y284D01*
X1384Y282D01*
X1382Y282D01*
X1382Y280D01*
X1380Y280D01*
X1380Y278D01*
X1378Y278D01*
X1378Y276D01*
X1376Y276D01*
X1376Y274D01*
X1374Y274D01*
X1374Y272D01*
X1372Y272D01*
X1372Y270D01*
X1370Y270D01*
X1370Y268D01*
X1368Y268D01*
X1368Y266D01*
X1366Y266D01*
X1366Y262D01*
X1364Y262D01*
X1364Y260D01*
X1362Y260D01*
X1362Y258D01*
X1360Y258D01*
X1360Y256D01*
X1358Y256D01*
X1358Y254D01*
X1356Y254D01*
X1356Y252D01*
X1354Y252D01*
X1354Y250D01*
X1352Y250D01*
X1352Y248D01*
X1350Y248D01*
X1350Y246D01*
X1348Y246D01*
X1348Y244D01*
X1346Y244D01*
X1346Y242D01*
X1344Y242D01*
X1344Y240D01*
X1342Y240D01*
X1342Y238D01*
X1340Y238D01*
X1340Y236D01*
X1338Y236D01*
X1338Y234D01*
X1336Y234D01*
X1336Y232D01*
X1334Y232D01*
X1334Y230D01*
X1332Y230D01*
X1332Y226D01*
X1330Y226D01*
X1330Y224D01*
X1328Y224D01*
X1328Y222D01*
X1326Y222D01*
X1326Y220D01*
X1324Y220D01*
X1324Y218D01*
X1322Y218D01*
X1322Y216D01*
X1320Y216D01*
X1320Y214D01*
X1318Y214D01*
X1318Y212D01*
X1316Y212D01*
X1316Y210D01*
X1314Y210D01*
X1314Y208D01*
X1312Y208D01*
X1312Y206D01*
X1310Y206D01*
X1310Y204D01*
X1308Y204D01*
X1308Y202D01*
X1306Y202D01*
X1306Y200D01*
X1304Y200D01*
X1304Y198D01*
X1302Y198D01*
X1302Y196D01*
X1300Y196D01*
X1300Y194D01*
X1298Y194D01*
X1298Y190D01*
X1296Y190D01*
X1296Y188D01*
X1294Y188D01*
X1294Y186D01*
X1292Y186D01*
X1292Y184D01*
X1290Y184D01*
X1290Y182D01*
X1288Y182D01*
X1288Y180D01*
X1286Y180D01*
X1286Y178D01*
X1284Y178D01*
X1284Y176D01*
X1282Y176D01*
X1282Y174D01*
X1280Y174D01*
X1280Y172D01*
X1278Y172D01*
X1278Y170D01*
X1276Y170D01*
X1276Y168D01*
X1274Y168D01*
X1274Y166D01*
X1272Y166D01*
X1272Y164D01*
X1270Y164D01*
X1270Y162D01*
X1268Y162D01*
X1268Y160D01*
X1266Y160D01*
X1266Y158D01*
X1264Y158D01*
X1264Y154D01*
X1262Y154D01*
X1262Y152D01*
X1260Y152D01*
X1260Y150D01*
X1258Y150D01*
X1258Y148D01*
X1256Y148D01*
X1256Y146D01*
X1254Y146D01*
X1254Y144D01*
X1252Y144D01*
X1252Y142D01*
X1250Y142D01*
X1250Y140D01*
X1248Y140D01*
X1248Y138D01*
X1246Y138D01*
X1246Y136D01*
X1244Y136D01*
X1244Y134D01*
X1242Y134D01*
X1242Y132D01*
X1240Y132D01*
X1240Y130D01*
X1238Y130D01*
X1238Y128D01*
X1236Y128D01*
X1236Y126D01*
X1234Y126D01*
X1234Y124D01*
X1232Y124D01*
X1232Y120D01*
X1230Y120D01*
X1230Y118D01*
X1228Y118D01*
X1228Y116D01*
X1226Y116D01*
X1226Y114D01*
X1224Y114D01*
X1224Y112D01*
X1222Y112D01*
X1222Y110D01*
X1220Y110D01*
X1220Y108D01*
X1218Y108D01*
X1218Y106D01*
X1216Y106D01*
X1216Y104D01*
X1214Y104D01*
X1214Y102D01*
X1212Y102D01*
X1212Y100D01*
X1210Y100D01*
X1210Y98D01*
X1208Y98D01*
X1208Y96D01*
X1206Y96D01*
X1206Y94D01*
X1204Y94D01*
X1204Y92D01*
X1202Y92D01*
X1202Y90D01*
X1200Y90D01*
X1200Y88D01*
X1198Y88D01*
X1198Y84D01*
X1196Y84D01*
X1196Y82D01*
X1194Y82D01*
X1194Y80D01*
X1192Y80D01*
X1192Y78D01*
X1190Y78D01*
X1190Y76D01*
X1188Y76D01*
X1188Y74D01*
X1186Y74D01*
X1186Y72D01*
X1184Y72D01*
X1184Y70D01*
X1182Y70D01*
X1182Y68D01*
X1180Y68D01*
X1180Y66D01*
X1178Y66D01*
X1178Y64D01*
X1176Y64D01*
X1176Y62D01*
X1174Y62D01*
X1174Y60D01*
X1172Y60D01*
X1172Y40D01*
X1534Y40D01*
X1534Y422D01*
X1514Y422D01*
G37*
D02*
G36*
X40Y214D02*
X40Y152D01*
X60Y152D01*
X60Y158D01*
X62Y158D01*
X62Y162D01*
X64Y162D01*
X64Y164D01*
X66Y164D01*
X66Y168D01*
X68Y168D01*
X68Y170D01*
X70Y170D01*
X70Y172D01*
X72Y172D01*
X72Y194D01*
X70Y194D01*
X70Y196D01*
X68Y196D01*
X68Y198D01*
X66Y198D01*
X66Y202D01*
X64Y202D01*
X64Y204D01*
X62Y204D01*
X62Y208D01*
X60Y208D01*
X60Y214D01*
X40Y214D01*
G37*
D02*
G36*
X1030Y136D02*
X1030Y134D01*
X1028Y134D01*
X1028Y132D01*
X1026Y132D01*
X1026Y130D01*
X1022Y130D01*
X1022Y128D01*
X1018Y128D01*
X1018Y126D01*
X1014Y126D01*
X1014Y124D01*
X1008Y124D01*
X1008Y122D01*
X1000Y122D01*
X1000Y120D01*
X978Y120D01*
X978Y102D01*
X980Y102D01*
X980Y100D01*
X1100Y100D01*
X1100Y102D01*
X1102Y102D01*
X1102Y120D01*
X1082Y120D01*
X1082Y122D01*
X1072Y122D01*
X1072Y124D01*
X1066Y124D01*
X1066Y126D01*
X1062Y126D01*
X1062Y128D01*
X1060Y128D01*
X1060Y130D01*
X1056Y130D01*
X1056Y132D01*
X1054Y132D01*
X1054Y134D01*
X1050Y134D01*
X1050Y136D01*
X1030Y136D01*
G37*
D02*
G36*
X394Y1192D02*
X394Y1190D01*
X392Y1190D01*
X392Y1188D01*
X390Y1188D01*
X390Y1186D01*
X388Y1186D01*
X388Y1184D01*
X386Y1184D01*
X386Y1182D01*
X384Y1182D01*
X384Y1180D01*
X382Y1180D01*
X382Y1178D01*
X380Y1178D01*
X380Y1176D01*
X378Y1176D01*
X378Y1174D01*
X376Y1174D01*
X376Y1172D01*
X374Y1172D01*
X374Y1170D01*
X372Y1170D01*
X372Y1168D01*
X370Y1168D01*
X370Y1166D01*
X368Y1166D01*
X368Y1164D01*
X366Y1164D01*
X366Y1162D01*
X364Y1162D01*
X364Y1096D01*
X452Y1096D01*
X452Y1098D01*
X444Y1098D01*
X444Y1100D01*
X440Y1100D01*
X440Y1102D01*
X436Y1102D01*
X436Y1104D01*
X432Y1104D01*
X432Y1106D01*
X430Y1106D01*
X430Y1108D01*
X426Y1108D01*
X426Y1110D01*
X424Y1110D01*
X424Y1112D01*
X422Y1112D01*
X422Y1114D01*
X420Y1114D01*
X420Y1116D01*
X418Y1116D01*
X418Y1118D01*
X416Y1118D01*
X416Y1122D01*
X414Y1122D01*
X414Y1124D01*
X412Y1124D01*
X412Y1128D01*
X410Y1128D01*
X410Y1132D01*
X408Y1132D01*
X408Y1136D01*
X406Y1136D01*
X406Y1144D01*
X404Y1144D01*
X404Y1172D01*
X406Y1172D01*
X406Y1178D01*
X408Y1178D01*
X408Y1184D01*
X410Y1184D01*
X410Y1188D01*
X412Y1188D01*
X412Y1190D01*
X414Y1190D01*
X414Y1192D01*
X394Y1192D01*
G37*
D02*
G36*
X512Y1116D02*
X512Y1114D01*
X510Y1114D01*
X510Y1112D01*
X508Y1112D01*
X508Y1110D01*
X504Y1110D01*
X504Y1108D01*
X502Y1108D01*
X502Y1106D01*
X498Y1106D01*
X498Y1104D01*
X496Y1104D01*
X496Y1102D01*
X492Y1102D01*
X492Y1100D01*
X486Y1100D01*
X486Y1098D01*
X480Y1098D01*
X480Y1096D01*
X690Y1096D01*
X690Y1116D01*
X512Y1116D01*
G37*
D02*
G36*
X364Y1096D02*
X364Y1094D01*
X688Y1094D01*
X688Y1096D01*
X364Y1096D01*
G37*
D02*
G36*
X364Y1096D02*
X364Y1094D01*
X688Y1094D01*
X688Y1096D01*
X364Y1096D01*
G37*
D02*
G36*
X364Y1094D02*
X364Y946D01*
X670Y946D01*
X670Y944D01*
X682Y944D01*
X682Y942D01*
X688Y942D01*
X688Y940D01*
X692Y940D01*
X692Y938D01*
X712Y938D01*
X712Y940D01*
X714Y940D01*
X714Y942D01*
X716Y942D01*
X716Y944D01*
X718Y944D01*
X718Y946D01*
X720Y946D01*
X720Y948D01*
X722Y948D01*
X722Y950D01*
X724Y950D01*
X724Y952D01*
X726Y952D01*
X726Y954D01*
X728Y954D01*
X728Y956D01*
X730Y956D01*
X730Y958D01*
X732Y958D01*
X732Y960D01*
X736Y960D01*
X736Y962D01*
X738Y962D01*
X738Y964D01*
X740Y964D01*
X740Y966D01*
X742Y966D01*
X742Y968D01*
X744Y968D01*
X744Y970D01*
X746Y970D01*
X746Y972D01*
X748Y972D01*
X748Y974D01*
X750Y974D01*
X750Y994D01*
X728Y994D01*
X728Y996D01*
X720Y996D01*
X720Y998D01*
X716Y998D01*
X716Y1000D01*
X712Y1000D01*
X712Y1002D01*
X708Y1002D01*
X708Y1004D01*
X704Y1004D01*
X704Y1006D01*
X702Y1006D01*
X702Y1008D01*
X700Y1008D01*
X700Y1010D01*
X698Y1010D01*
X698Y1012D01*
X696Y1012D01*
X696Y1014D01*
X694Y1014D01*
X694Y1016D01*
X692Y1016D01*
X692Y1018D01*
X690Y1018D01*
X690Y1020D01*
X688Y1020D01*
X688Y1024D01*
X686Y1024D01*
X686Y1026D01*
X684Y1026D01*
X684Y1030D01*
X682Y1030D01*
X682Y1034D01*
X680Y1034D01*
X680Y1042D01*
X678Y1042D01*
X678Y1054D01*
X676Y1054D01*
X676Y1062D01*
X678Y1062D01*
X678Y1074D01*
X680Y1074D01*
X680Y1080D01*
X682Y1080D01*
X682Y1086D01*
X684Y1086D01*
X684Y1088D01*
X686Y1088D01*
X686Y1092D01*
X688Y1092D01*
X688Y1094D01*
X364Y1094D01*
G37*
D02*
G36*
X364Y946D02*
X364Y720D01*
X366Y720D01*
X366Y718D01*
X368Y718D01*
X368Y714D01*
X370Y714D01*
X370Y710D01*
X372Y710D01*
X372Y706D01*
X374Y706D01*
X374Y700D01*
X376Y700D01*
X376Y692D01*
X378Y692D01*
X378Y674D01*
X376Y674D01*
X376Y664D01*
X374Y664D01*
X374Y660D01*
X372Y660D01*
X372Y654D01*
X370Y654D01*
X370Y652D01*
X368Y652D01*
X368Y648D01*
X366Y648D01*
X366Y646D01*
X364Y646D01*
X364Y552D01*
X366Y552D01*
X366Y550D01*
X368Y550D01*
X368Y548D01*
X370Y548D01*
X370Y546D01*
X372Y546D01*
X372Y544D01*
X374Y544D01*
X374Y542D01*
X376Y542D01*
X376Y540D01*
X378Y540D01*
X378Y538D01*
X380Y538D01*
X380Y536D01*
X382Y536D01*
X382Y534D01*
X384Y534D01*
X384Y532D01*
X386Y532D01*
X386Y530D01*
X388Y530D01*
X388Y528D01*
X390Y528D01*
X390Y526D01*
X392Y526D01*
X392Y524D01*
X394Y524D01*
X394Y522D01*
X396Y522D01*
X396Y520D01*
X398Y520D01*
X398Y518D01*
X400Y518D01*
X400Y516D01*
X402Y516D01*
X402Y514D01*
X404Y514D01*
X404Y512D01*
X406Y512D01*
X406Y510D01*
X408Y510D01*
X408Y508D01*
X410Y508D01*
X410Y506D01*
X412Y506D01*
X412Y504D01*
X414Y504D01*
X414Y502D01*
X416Y502D01*
X416Y500D01*
X418Y500D01*
X418Y498D01*
X420Y498D01*
X420Y496D01*
X422Y496D01*
X422Y494D01*
X424Y494D01*
X424Y492D01*
X430Y492D01*
X430Y490D01*
X436Y490D01*
X436Y488D01*
X442Y488D01*
X442Y486D01*
X444Y486D01*
X444Y484D01*
X448Y484D01*
X448Y482D01*
X450Y482D01*
X450Y480D01*
X454Y480D01*
X454Y478D01*
X456Y478D01*
X456Y476D01*
X458Y476D01*
X458Y474D01*
X460Y474D01*
X460Y472D01*
X462Y472D01*
X462Y470D01*
X464Y470D01*
X464Y466D01*
X466Y466D01*
X466Y464D01*
X468Y464D01*
X468Y460D01*
X470Y460D01*
X470Y456D01*
X472Y456D01*
X472Y450D01*
X474Y450D01*
X474Y442D01*
X476Y442D01*
X476Y424D01*
X474Y424D01*
X474Y414D01*
X472Y414D01*
X472Y410D01*
X470Y410D01*
X470Y406D01*
X468Y406D01*
X468Y402D01*
X466Y402D01*
X466Y398D01*
X464Y398D01*
X464Y396D01*
X462Y396D01*
X462Y394D01*
X460Y394D01*
X460Y392D01*
X458Y392D01*
X458Y390D01*
X456Y390D01*
X456Y388D01*
X454Y388D01*
X454Y386D01*
X452Y386D01*
X452Y384D01*
X448Y384D01*
X448Y382D01*
X446Y382D01*
X446Y380D01*
X442Y380D01*
X442Y378D01*
X438Y378D01*
X438Y376D01*
X432Y376D01*
X432Y374D01*
X420Y374D01*
X420Y372D01*
X596Y372D01*
X596Y374D01*
X592Y374D01*
X592Y376D01*
X590Y376D01*
X590Y378D01*
X588Y378D01*
X588Y380D01*
X586Y380D01*
X586Y382D01*
X584Y382D01*
X584Y384D01*
X582Y384D01*
X582Y386D01*
X580Y386D01*
X580Y388D01*
X578Y388D01*
X578Y390D01*
X576Y390D01*
X576Y392D01*
X574Y392D01*
X574Y394D01*
X572Y394D01*
X572Y396D01*
X570Y396D01*
X570Y398D01*
X568Y398D01*
X568Y400D01*
X566Y400D01*
X566Y402D01*
X564Y402D01*
X564Y404D01*
X562Y404D01*
X562Y406D01*
X560Y406D01*
X560Y408D01*
X558Y408D01*
X558Y410D01*
X556Y410D01*
X556Y412D01*
X554Y412D01*
X554Y414D01*
X552Y414D01*
X552Y416D01*
X550Y416D01*
X550Y418D01*
X548Y418D01*
X548Y420D01*
X546Y420D01*
X546Y422D01*
X544Y422D01*
X544Y424D01*
X542Y424D01*
X542Y426D01*
X540Y426D01*
X540Y428D01*
X538Y428D01*
X538Y430D01*
X536Y430D01*
X536Y432D01*
X534Y432D01*
X534Y434D01*
X532Y434D01*
X532Y436D01*
X530Y436D01*
X530Y440D01*
X528Y440D01*
X528Y444D01*
X526Y444D01*
X526Y450D01*
X524Y450D01*
X524Y792D01*
X526Y792D01*
X526Y798D01*
X528Y798D01*
X528Y802D01*
X530Y802D01*
X530Y804D01*
X532Y804D01*
X532Y808D01*
X534Y808D01*
X534Y810D01*
X536Y810D01*
X536Y812D01*
X538Y812D01*
X538Y814D01*
X540Y814D01*
X540Y816D01*
X542Y816D01*
X542Y818D01*
X544Y818D01*
X544Y820D01*
X546Y820D01*
X546Y822D01*
X548Y822D01*
X548Y824D01*
X550Y824D01*
X550Y826D01*
X552Y826D01*
X552Y828D01*
X554Y828D01*
X554Y830D01*
X556Y830D01*
X556Y832D01*
X558Y832D01*
X558Y834D01*
X560Y834D01*
X560Y836D01*
X562Y836D01*
X562Y838D01*
X564Y838D01*
X564Y840D01*
X566Y840D01*
X566Y842D01*
X568Y842D01*
X568Y844D01*
X570Y844D01*
X570Y846D01*
X572Y846D01*
X572Y848D01*
X574Y848D01*
X574Y850D01*
X576Y850D01*
X576Y852D01*
X578Y852D01*
X578Y854D01*
X580Y854D01*
X580Y856D01*
X582Y856D01*
X582Y858D01*
X584Y858D01*
X584Y860D01*
X586Y860D01*
X586Y862D01*
X588Y862D01*
X588Y864D01*
X590Y864D01*
X590Y866D01*
X592Y866D01*
X592Y868D01*
X594Y868D01*
X594Y870D01*
X596Y870D01*
X596Y872D01*
X598Y872D01*
X598Y874D01*
X600Y874D01*
X600Y876D01*
X602Y876D01*
X602Y878D01*
X604Y878D01*
X604Y898D01*
X606Y898D01*
X606Y904D01*
X608Y904D01*
X608Y908D01*
X610Y908D01*
X610Y912D01*
X612Y912D01*
X612Y916D01*
X614Y916D01*
X614Y918D01*
X616Y918D01*
X616Y922D01*
X618Y922D01*
X618Y924D01*
X620Y924D01*
X620Y926D01*
X622Y926D01*
X622Y928D01*
X624Y928D01*
X624Y930D01*
X626Y930D01*
X626Y932D01*
X628Y932D01*
X628Y934D01*
X632Y934D01*
X632Y936D01*
X636Y936D01*
X636Y938D01*
X638Y938D01*
X638Y940D01*
X644Y940D01*
X644Y942D01*
X650Y942D01*
X650Y944D01*
X662Y944D01*
X662Y946D01*
X364Y946D01*
G37*
D02*
G36*
X164Y620D02*
X164Y492D01*
X230Y492D01*
X230Y490D01*
X236Y490D01*
X236Y488D01*
X242Y488D01*
X242Y486D01*
X244Y486D01*
X244Y484D01*
X248Y484D01*
X248Y482D01*
X250Y482D01*
X250Y480D01*
X254Y480D01*
X254Y478D01*
X256Y478D01*
X256Y476D01*
X258Y476D01*
X258Y474D01*
X260Y474D01*
X260Y472D01*
X262Y472D01*
X262Y470D01*
X264Y470D01*
X264Y466D01*
X266Y466D01*
X266Y464D01*
X268Y464D01*
X268Y460D01*
X270Y460D01*
X270Y456D01*
X272Y456D01*
X272Y450D01*
X274Y450D01*
X274Y442D01*
X276Y442D01*
X276Y424D01*
X274Y424D01*
X274Y414D01*
X272Y414D01*
X272Y410D01*
X270Y410D01*
X270Y406D01*
X268Y406D01*
X268Y402D01*
X266Y402D01*
X266Y398D01*
X264Y398D01*
X264Y396D01*
X262Y396D01*
X262Y394D01*
X260Y394D01*
X260Y392D01*
X258Y392D01*
X258Y390D01*
X256Y390D01*
X256Y388D01*
X254Y388D01*
X254Y386D01*
X252Y386D01*
X252Y384D01*
X248Y384D01*
X248Y382D01*
X246Y382D01*
X246Y380D01*
X242Y380D01*
X242Y378D01*
X238Y378D01*
X238Y376D01*
X232Y376D01*
X232Y374D01*
X220Y374D01*
X220Y372D01*
X412Y372D01*
X412Y374D01*
X400Y374D01*
X400Y376D01*
X394Y376D01*
X394Y378D01*
X390Y378D01*
X390Y380D01*
X386Y380D01*
X386Y382D01*
X382Y382D01*
X382Y384D01*
X380Y384D01*
X380Y386D01*
X378Y386D01*
X378Y388D01*
X374Y388D01*
X374Y390D01*
X372Y390D01*
X372Y394D01*
X370Y394D01*
X370Y396D01*
X368Y396D01*
X368Y398D01*
X366Y398D01*
X366Y402D01*
X364Y402D01*
X364Y404D01*
X362Y404D01*
X362Y408D01*
X360Y408D01*
X360Y414D01*
X358Y414D01*
X358Y420D01*
X356Y420D01*
X356Y424D01*
X354Y424D01*
X354Y426D01*
X352Y426D01*
X352Y428D01*
X350Y428D01*
X350Y430D01*
X348Y430D01*
X348Y432D01*
X346Y432D01*
X346Y434D01*
X344Y434D01*
X344Y436D01*
X342Y436D01*
X342Y438D01*
X340Y438D01*
X340Y440D01*
X338Y440D01*
X338Y442D01*
X336Y442D01*
X336Y444D01*
X334Y444D01*
X334Y446D01*
X332Y446D01*
X332Y448D01*
X330Y448D01*
X330Y450D01*
X328Y450D01*
X328Y452D01*
X326Y452D01*
X326Y454D01*
X324Y454D01*
X324Y456D01*
X322Y456D01*
X322Y458D01*
X320Y458D01*
X320Y460D01*
X318Y460D01*
X318Y462D01*
X316Y462D01*
X316Y464D01*
X314Y464D01*
X314Y466D01*
X312Y466D01*
X312Y468D01*
X310Y468D01*
X310Y470D01*
X308Y470D01*
X308Y472D01*
X306Y472D01*
X306Y474D01*
X304Y474D01*
X304Y476D01*
X302Y476D01*
X302Y478D01*
X300Y478D01*
X300Y480D01*
X298Y480D01*
X298Y482D01*
X296Y482D01*
X296Y484D01*
X294Y484D01*
X294Y486D01*
X292Y486D01*
X292Y488D01*
X290Y488D01*
X290Y490D01*
X288Y490D01*
X288Y492D01*
X286Y492D01*
X286Y494D01*
X284Y494D01*
X284Y496D01*
X282Y496D01*
X282Y498D01*
X280Y498D01*
X280Y500D01*
X278Y500D01*
X278Y504D01*
X276Y504D01*
X276Y506D01*
X274Y506D01*
X274Y510D01*
X272Y510D01*
X272Y512D01*
X270Y512D01*
X270Y518D01*
X268Y518D01*
X268Y528D01*
X266Y528D01*
X266Y620D01*
X164Y620D01*
G37*
D02*
G36*
X164Y492D02*
X164Y482D01*
X184Y482D01*
X184Y484D01*
X186Y484D01*
X186Y486D01*
X190Y486D01*
X190Y488D01*
X196Y488D01*
X196Y490D01*
X202Y490D01*
X202Y492D01*
X164Y492D01*
G37*
D02*
G36*
X164Y382D02*
X164Y372D01*
X212Y372D01*
X212Y374D01*
X200Y374D01*
X200Y376D01*
X194Y376D01*
X194Y378D01*
X190Y378D01*
X190Y380D01*
X186Y380D01*
X186Y382D01*
X164Y382D01*
G37*
D02*
G36*
X164Y372D02*
X164Y370D01*
X598Y370D01*
X598Y372D01*
X164Y372D01*
G37*
D02*
G36*
X164Y372D02*
X164Y370D01*
X598Y370D01*
X598Y372D01*
X164Y372D01*
G37*
D02*
G36*
X164Y372D02*
X164Y370D01*
X598Y370D01*
X598Y372D01*
X164Y372D01*
G37*
D02*
G36*
X164Y370D02*
X164Y266D01*
X166Y266D01*
X166Y264D01*
X168Y264D01*
X168Y260D01*
X170Y260D01*
X170Y256D01*
X172Y256D01*
X172Y250D01*
X174Y250D01*
X174Y242D01*
X176Y242D01*
X176Y224D01*
X174Y224D01*
X174Y216D01*
X608Y216D01*
X608Y218D01*
X598Y218D01*
X598Y220D01*
X592Y220D01*
X592Y222D01*
X586Y222D01*
X586Y224D01*
X582Y224D01*
X582Y226D01*
X580Y226D01*
X580Y228D01*
X576Y228D01*
X576Y230D01*
X574Y230D01*
X574Y232D01*
X572Y232D01*
X572Y234D01*
X570Y234D01*
X570Y236D01*
X568Y236D01*
X568Y238D01*
X566Y238D01*
X566Y240D01*
X564Y240D01*
X564Y242D01*
X562Y242D01*
X562Y244D01*
X560Y244D01*
X560Y248D01*
X558Y248D01*
X558Y252D01*
X556Y252D01*
X556Y256D01*
X554Y256D01*
X554Y260D01*
X552Y260D01*
X552Y268D01*
X550Y268D01*
X550Y296D01*
X552Y296D01*
X552Y304D01*
X554Y304D01*
X554Y308D01*
X556Y308D01*
X556Y314D01*
X558Y314D01*
X558Y316D01*
X560Y316D01*
X560Y320D01*
X562Y320D01*
X562Y322D01*
X564Y322D01*
X564Y324D01*
X566Y324D01*
X566Y328D01*
X568Y328D01*
X568Y330D01*
X570Y330D01*
X570Y332D01*
X574Y332D01*
X574Y334D01*
X576Y334D01*
X576Y336D01*
X578Y336D01*
X578Y338D01*
X582Y338D01*
X582Y340D01*
X586Y340D01*
X586Y342D01*
X590Y342D01*
X590Y344D01*
X594Y344D01*
X594Y346D01*
X604Y346D01*
X604Y348D01*
X612Y348D01*
X612Y368D01*
X604Y368D01*
X604Y370D01*
X164Y370D01*
G37*
D02*
G36*
X664Y240D02*
X664Y236D01*
X662Y236D01*
X662Y234D01*
X658Y234D01*
X658Y232D01*
X656Y232D01*
X656Y230D01*
X654Y230D01*
X654Y228D01*
X652Y228D01*
X652Y226D01*
X648Y226D01*
X648Y224D01*
X644Y224D01*
X644Y222D01*
X640Y222D01*
X640Y220D01*
X634Y220D01*
X634Y218D01*
X624Y218D01*
X624Y216D01*
X728Y216D01*
X728Y240D01*
X664Y240D01*
G37*
D02*
G36*
X172Y216D02*
X172Y214D01*
X728Y214D01*
X728Y216D01*
X172Y216D01*
G37*
D02*
G36*
X172Y216D02*
X172Y214D01*
X728Y214D01*
X728Y216D01*
X172Y216D01*
G37*
D02*
G36*
X172Y214D02*
X172Y210D01*
X170Y210D01*
X170Y206D01*
X168Y206D01*
X168Y202D01*
X166Y202D01*
X166Y200D01*
X164Y200D01*
X164Y196D01*
X162Y196D01*
X162Y194D01*
X160Y194D01*
X160Y172D01*
X162Y172D01*
X162Y170D01*
X164Y170D01*
X164Y166D01*
X166Y166D01*
X166Y164D01*
X406Y164D01*
X406Y162D01*
X408Y162D01*
X408Y160D01*
X410Y160D01*
X410Y158D01*
X412Y158D01*
X412Y156D01*
X414Y156D01*
X414Y154D01*
X416Y154D01*
X416Y152D01*
X418Y152D01*
X418Y150D01*
X420Y150D01*
X420Y148D01*
X422Y148D01*
X422Y146D01*
X424Y146D01*
X424Y144D01*
X426Y144D01*
X426Y142D01*
X428Y142D01*
X428Y140D01*
X430Y140D01*
X430Y138D01*
X432Y138D01*
X432Y136D01*
X434Y136D01*
X434Y134D01*
X436Y134D01*
X436Y132D01*
X438Y132D01*
X438Y130D01*
X440Y130D01*
X440Y128D01*
X442Y128D01*
X442Y126D01*
X444Y126D01*
X444Y124D01*
X446Y124D01*
X446Y122D01*
X448Y122D01*
X448Y120D01*
X450Y120D01*
X450Y118D01*
X452Y118D01*
X452Y116D01*
X454Y116D01*
X454Y114D01*
X456Y114D01*
X456Y112D01*
X458Y112D01*
X458Y110D01*
X460Y110D01*
X460Y108D01*
X462Y108D01*
X462Y106D01*
X464Y106D01*
X464Y104D01*
X466Y104D01*
X466Y102D01*
X468Y102D01*
X468Y100D01*
X470Y100D01*
X470Y98D01*
X800Y98D01*
X800Y100D01*
X802Y100D01*
X802Y120D01*
X728Y120D01*
X728Y214D01*
X172Y214D01*
G37*
D02*
G36*
X168Y164D02*
X168Y160D01*
X170Y160D01*
X170Y156D01*
X172Y156D01*
X172Y150D01*
X174Y150D01*
X174Y142D01*
X176Y142D01*
X176Y124D01*
X174Y124D01*
X174Y114D01*
X172Y114D01*
X172Y110D01*
X170Y110D01*
X170Y106D01*
X168Y106D01*
X168Y102D01*
X166Y102D01*
X166Y98D01*
X164Y98D01*
X164Y96D01*
X162Y96D01*
X162Y94D01*
X160Y94D01*
X160Y92D01*
X158Y92D01*
X158Y90D01*
X156Y90D01*
X156Y88D01*
X154Y88D01*
X154Y86D01*
X152Y86D01*
X152Y84D01*
X148Y84D01*
X148Y82D01*
X146Y82D01*
X146Y80D01*
X142Y80D01*
X142Y78D01*
X138Y78D01*
X138Y76D01*
X132Y76D01*
X132Y74D01*
X120Y74D01*
X120Y72D01*
X312Y72D01*
X312Y74D01*
X314Y74D01*
X314Y76D01*
X316Y76D01*
X316Y78D01*
X318Y78D01*
X318Y80D01*
X320Y80D01*
X320Y82D01*
X322Y82D01*
X322Y84D01*
X324Y84D01*
X324Y86D01*
X326Y86D01*
X326Y88D01*
X328Y88D01*
X328Y90D01*
X330Y90D01*
X330Y92D01*
X332Y92D01*
X332Y94D01*
X334Y94D01*
X334Y96D01*
X336Y96D01*
X336Y98D01*
X338Y98D01*
X338Y100D01*
X340Y100D01*
X340Y102D01*
X342Y102D01*
X342Y104D01*
X344Y104D01*
X344Y106D01*
X346Y106D01*
X346Y108D01*
X348Y108D01*
X348Y110D01*
X350Y110D01*
X350Y112D01*
X352Y112D01*
X352Y114D01*
X354Y114D01*
X354Y116D01*
X356Y116D01*
X356Y118D01*
X358Y118D01*
X358Y120D01*
X360Y120D01*
X360Y122D01*
X362Y122D01*
X362Y124D01*
X364Y124D01*
X364Y126D01*
X366Y126D01*
X366Y128D01*
X368Y128D01*
X368Y130D01*
X370Y130D01*
X370Y132D01*
X372Y132D01*
X372Y134D01*
X374Y134D01*
X374Y136D01*
X376Y136D01*
X376Y138D01*
X378Y138D01*
X378Y140D01*
X380Y140D01*
X380Y142D01*
X382Y142D01*
X382Y144D01*
X384Y144D01*
X384Y146D01*
X386Y146D01*
X386Y148D01*
X388Y148D01*
X388Y150D01*
X390Y150D01*
X390Y152D01*
X392Y152D01*
X392Y154D01*
X394Y154D01*
X394Y156D01*
X396Y156D01*
X396Y158D01*
X398Y158D01*
X398Y160D01*
X400Y160D01*
X400Y162D01*
X402Y162D01*
X402Y164D01*
X168Y164D01*
G37*
D02*
G36*
X40Y114D02*
X40Y72D01*
X112Y72D01*
X112Y74D01*
X100Y74D01*
X100Y76D01*
X94Y76D01*
X94Y78D01*
X90Y78D01*
X90Y80D01*
X86Y80D01*
X86Y82D01*
X82Y82D01*
X82Y84D01*
X80Y84D01*
X80Y86D01*
X78Y86D01*
X78Y88D01*
X74Y88D01*
X74Y90D01*
X72Y90D01*
X72Y94D01*
X70Y94D01*
X70Y96D01*
X68Y96D01*
X68Y98D01*
X66Y98D01*
X66Y102D01*
X64Y102D01*
X64Y104D01*
X62Y104D01*
X62Y108D01*
X60Y108D01*
X60Y114D01*
X40Y114D01*
G37*
D02*
G36*
X40Y72D02*
X40Y70D01*
X312Y70D01*
X312Y72D01*
X40Y72D01*
G37*
D02*
G36*
X40Y72D02*
X40Y70D01*
X312Y70D01*
X312Y72D01*
X40Y72D01*
G37*
D02*
G36*
X40Y70D02*
X40Y40D01*
X322Y40D01*
X322Y60D01*
X320Y60D01*
X320Y62D01*
X318Y62D01*
X318Y64D01*
X316Y64D01*
X316Y66D01*
X314Y66D01*
X314Y68D01*
X312Y68D01*
X312Y70D01*
X40Y70D01*
G37*
D02*
G36*
X1156Y2256D02*
X1204Y2256D01*
X1204Y2213D01*
X1156Y2213D01*
X1156Y2256D01*
G37*
D02*
G36*
X93Y120D02*
X134Y120D01*
X134Y72D01*
X93Y72D01*
X93Y120D01*
G37*
D02*
G36*
X52Y155D02*
X98Y155D01*
X98Y114D01*
X52Y114D01*
X52Y155D01*
G37*
D02*
G36*
X228Y455D02*
X276Y455D01*
X276Y414D01*
X228Y414D01*
X228Y455D01*
G37*
D02*
G36*
X1068Y550D02*
X1111Y550D01*
X1111Y502D01*
X1068Y502D01*
X1068Y550D01*
G37*
D02*
G36*
X1068Y468D02*
X1111Y468D01*
X1111Y420D01*
X1068Y420D01*
X1068Y468D01*
G37*
D02*
G54D19*
X404Y115D02*
X448Y71D01*
X404Y27D01*
X360Y71D01*
X404Y115D01*
D02*
G54D20*
X179Y720D02*
X252Y720D01*
X179Y719D02*
X252Y719D01*
X179Y718D02*
X252Y718D01*
X179Y717D02*
X252Y717D01*
X179Y716D02*
X252Y716D01*
X179Y715D02*
X252Y715D01*
X179Y714D02*
X252Y714D01*
X179Y713D02*
X252Y713D01*
X179Y712D02*
X252Y712D01*
X179Y711D02*
X252Y711D01*
X179Y710D02*
X252Y710D01*
X179Y709D02*
X252Y709D01*
X179Y708D02*
X252Y708D01*
X179Y707D02*
X252Y707D01*
X179Y706D02*
X252Y706D01*
X179Y705D02*
X252Y705D01*
X179Y704D02*
X252Y704D01*
X179Y703D02*
X214Y703D01*
X216Y703D02*
X252Y703D01*
X179Y702D02*
X208Y702D01*
X222Y702D02*
X252Y702D01*
X179Y701D02*
X206Y701D01*
X224Y701D02*
X252Y701D01*
X179Y700D02*
X204Y700D01*
X226Y700D02*
X252Y700D01*
X179Y699D02*
X203Y699D01*
X227Y699D02*
X252Y699D01*
X179Y698D02*
X202Y698D01*
X229Y698D02*
X252Y698D01*
X179Y697D02*
X200Y697D01*
X230Y697D02*
X252Y697D01*
X179Y696D02*
X200Y696D01*
X231Y696D02*
X252Y696D01*
X179Y695D02*
X199Y695D01*
X231Y695D02*
X252Y695D01*
X179Y694D02*
X198Y694D01*
X232Y694D02*
X252Y694D01*
X179Y693D02*
X198Y693D01*
X233Y693D02*
X252Y693D01*
X179Y692D02*
X197Y692D01*
X233Y692D02*
X252Y692D01*
X179Y691D02*
X197Y691D01*
X234Y691D02*
X252Y691D01*
X179Y690D02*
X196Y690D01*
X234Y690D02*
X252Y690D01*
X179Y689D02*
X196Y689D01*
X234Y689D02*
X252Y689D01*
X179Y688D02*
X196Y688D01*
X235Y688D02*
X252Y688D01*
X179Y687D02*
X195Y687D01*
X235Y687D02*
X252Y687D01*
X179Y686D02*
X195Y686D01*
X235Y686D02*
X252Y686D01*
X179Y685D02*
X195Y685D01*
X235Y685D02*
X252Y685D01*
X179Y684D02*
X195Y684D01*
X235Y684D02*
X252Y684D01*
X179Y683D02*
X195Y683D01*
X235Y683D02*
X252Y683D01*
X179Y682D02*
X195Y682D01*
X235Y682D02*
X252Y682D01*
X179Y681D02*
X195Y681D01*
X235Y681D02*
X252Y681D01*
X179Y680D02*
X195Y680D01*
X235Y680D02*
X252Y680D01*
X179Y679D02*
X195Y679D01*
X235Y679D02*
X252Y679D01*
X179Y678D02*
X196Y678D01*
X234Y678D02*
X252Y678D01*
X179Y677D02*
X196Y677D01*
X234Y677D02*
X252Y677D01*
X179Y676D02*
X196Y676D01*
X234Y676D02*
X252Y676D01*
X179Y675D02*
X197Y675D01*
X233Y675D02*
X252Y675D01*
X179Y674D02*
X197Y674D01*
X233Y674D02*
X252Y674D01*
X179Y673D02*
X198Y673D01*
X232Y673D02*
X252Y673D01*
X179Y672D02*
X199Y672D01*
X232Y672D02*
X252Y672D01*
X179Y671D02*
X199Y671D01*
X231Y671D02*
X252Y671D01*
X179Y670D02*
X200Y670D01*
X230Y670D02*
X252Y670D01*
X179Y669D02*
X201Y669D01*
X229Y669D02*
X252Y669D01*
X179Y668D02*
X203Y668D01*
X228Y668D02*
X252Y668D01*
X179Y667D02*
X204Y667D01*
X226Y667D02*
X252Y667D01*
X179Y666D02*
X206Y666D01*
X225Y666D02*
X252Y666D01*
X179Y665D02*
X208Y665D01*
X222Y665D02*
X252Y665D01*
X179Y664D02*
X212Y664D01*
X218Y664D02*
X252Y664D01*
X179Y663D02*
X252Y663D01*
X179Y662D02*
X252Y662D01*
X179Y661D02*
X252Y661D01*
X179Y660D02*
X252Y660D01*
X179Y659D02*
X252Y659D01*
X179Y658D02*
X252Y658D01*
X179Y657D02*
X252Y657D01*
X179Y656D02*
X252Y656D01*
X179Y655D02*
X252Y655D01*
X179Y654D02*
X252Y654D01*
X179Y653D02*
X252Y653D01*
X179Y652D02*
X252Y652D01*
X179Y651D02*
X252Y651D01*
X179Y650D02*
X252Y650D01*
X179Y649D02*
X252Y649D01*
X179Y648D02*
X252Y648D01*
X179Y647D02*
X252Y647D01*
D02*
G04 End of Copper0*
M02*