G04 MADE WITH FRITZING*
G04 WWW.FRITZING.ORG*
G04 DOUBLE SIDED*
G04 HOLES PLATED*
G04 CONTOUR ON CENTER OF CONTOUR VECTOR*
%ASAXBY*%
%FSLAX23Y23*%
%MOIN*%
%OFA0B0*%
%SFA1.0B1.0*%
%ADD10C,0.075000*%
%ADD11C,0.078000*%
%ADD12C,0.074000*%
%ADD13C,0.070000*%
%ADD14C,0.082000*%
%ADD15R,0.075000X0.075000*%
%ADD16C,0.032000*%
%ADD17C,0.020000*%
%ADD18R,0.001000X0.001000*%
%LNCOPPER1*%
G90*
G70*
G54D10*
X366Y2233D03*
X666Y2233D03*
X366Y2033D03*
X666Y2033D03*
G54D11*
X741Y1558D03*
X741Y1458D03*
X741Y1358D03*
X741Y1258D03*
X741Y1158D03*
X741Y1058D03*
X841Y1158D03*
X841Y1058D03*
X841Y958D03*
X841Y858D03*
X841Y758D03*
X841Y658D03*
G54D10*
X566Y1658D03*
X566Y1258D03*
G54D12*
X116Y683D03*
X216Y683D03*
X316Y683D03*
X116Y683D03*
X216Y683D03*
X316Y683D03*
G54D13*
X216Y433D03*
X416Y433D03*
X116Y133D03*
X116Y233D03*
G54D10*
X791Y183D03*
X791Y483D03*
X891Y183D03*
X891Y483D03*
X991Y183D03*
X991Y483D03*
X1091Y183D03*
X1091Y483D03*
G54D14*
X405Y72D03*
X615Y283D03*
G54D10*
X941Y758D03*
X1341Y758D03*
X666Y483D03*
X666Y883D03*
X941Y583D03*
X1341Y583D03*
X1141Y1633D03*
X841Y1633D03*
X1141Y1733D03*
X841Y1733D03*
X1141Y1833D03*
X841Y1833D03*
X1141Y1933D03*
X841Y1933D03*
X1141Y2033D03*
X841Y2033D03*
X1141Y2133D03*
X841Y2133D03*
X1141Y2233D03*
X841Y2233D03*
X466Y1558D03*
X466Y1158D03*
X1341Y858D03*
X941Y858D03*
X1341Y1058D03*
X941Y1058D03*
X1341Y1158D03*
X941Y1158D03*
G54D15*
X366Y2233D03*
X791Y183D03*
X1141Y1633D03*
G54D16*
X791Y2034D02*
X465Y1708D01*
D02*
X465Y1708D02*
X466Y1592D01*
D02*
X807Y2133D02*
X643Y2134D01*
D02*
X807Y2034D02*
X791Y2034D01*
D02*
X743Y1834D02*
X590Y1682D01*
D02*
X807Y1833D02*
X743Y1834D01*
D02*
X591Y882D02*
X632Y883D01*
D02*
X643Y2134D02*
X365Y1856D01*
D02*
X365Y1856D02*
X365Y1108D01*
D02*
X365Y1108D02*
X591Y882D01*
D02*
X216Y133D02*
X147Y133D01*
D02*
X466Y358D02*
X216Y133D01*
D02*
X1091Y432D02*
X1017Y358D01*
D02*
X1017Y358D02*
X466Y358D01*
D02*
X1091Y449D02*
X1091Y432D01*
G54D17*
X404Y115D02*
X448Y71D01*
X404Y27D01*
X360Y71D01*
X404Y115D01*
D02*
G54D18*
X179Y720D02*
X252Y720D01*
X179Y719D02*
X252Y719D01*
X179Y718D02*
X252Y718D01*
X179Y717D02*
X252Y717D01*
X179Y716D02*
X252Y716D01*
X179Y715D02*
X252Y715D01*
X179Y714D02*
X252Y714D01*
X179Y713D02*
X252Y713D01*
X179Y712D02*
X252Y712D01*
X179Y711D02*
X252Y711D01*
X179Y710D02*
X252Y710D01*
X179Y709D02*
X252Y709D01*
X179Y708D02*
X252Y708D01*
X179Y707D02*
X252Y707D01*
X179Y706D02*
X252Y706D01*
X179Y705D02*
X252Y705D01*
X179Y704D02*
X252Y704D01*
X179Y703D02*
X214Y703D01*
X216Y703D02*
X252Y703D01*
X179Y702D02*
X208Y702D01*
X222Y702D02*
X252Y702D01*
X179Y701D02*
X206Y701D01*
X224Y701D02*
X252Y701D01*
X179Y700D02*
X204Y700D01*
X226Y700D02*
X252Y700D01*
X179Y699D02*
X203Y699D01*
X227Y699D02*
X252Y699D01*
X179Y698D02*
X202Y698D01*
X229Y698D02*
X252Y698D01*
X179Y697D02*
X200Y697D01*
X230Y697D02*
X252Y697D01*
X179Y696D02*
X200Y696D01*
X231Y696D02*
X252Y696D01*
X179Y695D02*
X199Y695D01*
X231Y695D02*
X252Y695D01*
X179Y694D02*
X198Y694D01*
X232Y694D02*
X252Y694D01*
X179Y693D02*
X198Y693D01*
X233Y693D02*
X252Y693D01*
X179Y692D02*
X197Y692D01*
X233Y692D02*
X252Y692D01*
X179Y691D02*
X197Y691D01*
X234Y691D02*
X252Y691D01*
X179Y690D02*
X196Y690D01*
X234Y690D02*
X252Y690D01*
X179Y689D02*
X196Y689D01*
X234Y689D02*
X252Y689D01*
X179Y688D02*
X196Y688D01*
X235Y688D02*
X252Y688D01*
X179Y687D02*
X195Y687D01*
X235Y687D02*
X252Y687D01*
X179Y686D02*
X195Y686D01*
X235Y686D02*
X252Y686D01*
X179Y685D02*
X195Y685D01*
X235Y685D02*
X252Y685D01*
X179Y684D02*
X195Y684D01*
X235Y684D02*
X252Y684D01*
X179Y683D02*
X195Y683D01*
X235Y683D02*
X252Y683D01*
X179Y682D02*
X195Y682D01*
X235Y682D02*
X252Y682D01*
X179Y681D02*
X195Y681D01*
X235Y681D02*
X252Y681D01*
X179Y680D02*
X195Y680D01*
X235Y680D02*
X252Y680D01*
X179Y679D02*
X195Y679D01*
X235Y679D02*
X252Y679D01*
X179Y678D02*
X196Y678D01*
X234Y678D02*
X252Y678D01*
X179Y677D02*
X196Y677D01*
X234Y677D02*
X252Y677D01*
X179Y676D02*
X196Y676D01*
X234Y676D02*
X252Y676D01*
X179Y675D02*
X197Y675D01*
X233Y675D02*
X252Y675D01*
X179Y674D02*
X197Y674D01*
X233Y674D02*
X252Y674D01*
X179Y673D02*
X198Y673D01*
X232Y673D02*
X252Y673D01*
X179Y672D02*
X199Y672D01*
X232Y672D02*
X252Y672D01*
X179Y671D02*
X199Y671D01*
X231Y671D02*
X252Y671D01*
X179Y670D02*
X200Y670D01*
X230Y670D02*
X252Y670D01*
X179Y669D02*
X201Y669D01*
X229Y669D02*
X252Y669D01*
X179Y668D02*
X203Y668D01*
X228Y668D02*
X252Y668D01*
X179Y667D02*
X204Y667D01*
X226Y667D02*
X252Y667D01*
X179Y666D02*
X206Y666D01*
X225Y666D02*
X252Y666D01*
X179Y665D02*
X208Y665D01*
X222Y665D02*
X252Y665D01*
X179Y664D02*
X212Y664D01*
X218Y664D02*
X252Y664D01*
X179Y663D02*
X252Y663D01*
X179Y662D02*
X252Y662D01*
X179Y661D02*
X252Y661D01*
X179Y660D02*
X252Y660D01*
X179Y659D02*
X252Y659D01*
X179Y658D02*
X252Y658D01*
X179Y657D02*
X252Y657D01*
X179Y656D02*
X252Y656D01*
X179Y655D02*
X252Y655D01*
X179Y654D02*
X252Y654D01*
X179Y653D02*
X252Y653D01*
X179Y652D02*
X252Y652D01*
X179Y651D02*
X252Y651D01*
X179Y650D02*
X252Y650D01*
X179Y649D02*
X252Y649D01*
X179Y648D02*
X252Y648D01*
X179Y647D02*
X252Y647D01*
D02*
G04 End of Copper1*
M02*