; NON-PLATED HOLES START AT T1
; THROUGH (PLATED) HOLES START AT T100
M48
INCH
T100C0.042000
T101C0.030000
T102C0.035000
T103C0.038000
T104C0.039370
%
T100
X004046Y000718
X006153Y002825
T101
X002157Y004329
X001157Y002331
X004157Y004329
X001157Y001329
T102
X003657Y020329
X008407Y020329
X011407Y022329
X006657Y020329
X008907Y001829
X008407Y017329
X009407Y010579
X009907Y001829
X007907Y001829
X011407Y019329
X004657Y015579
X011407Y020329
X009407Y005829
X009407Y007579
X010907Y001829
X013407Y010579
X008907Y004829
X011407Y017329
X009907Y004829
X007907Y004829
X013407Y005829
X013407Y007579
X008407Y021329
X006657Y008829
X010907Y004829
X008407Y018329
X004657Y011579
X005657Y016579
X009407Y011579
X011407Y021329
X009407Y008579
X008407Y016329
X013407Y011579
X011407Y018329
X013407Y008579
X006657Y004829
X003657Y022329
X008407Y022329
X006657Y022329
X005657Y012579
X011407Y016329
X008407Y019329
T103
X007407Y012579
X008407Y007579
X008407Y011579
X007407Y013579
X008407Y008579
X007407Y014579
X008407Y009579
X007407Y015579
X007407Y010579
X007407Y011579
X008407Y006579
X008407Y010579
T104
X003157Y006829
X002157Y006829
X001157Y006829
T00
M30
