M48
; DRILL file {KiCad (5.1.5-0-10_14)} date 2020 September 12, Saturday 12:43:47
; FORMAT={-:-/ absolute / inch / decimal}
; #@! TF.CreationDate,2020-09-12T12:43:47+03:00
; #@! TF.GenerationSoftware,Kicad,Pcbnew,(5.1.5-0-10_14)
; #@! TF.FileFunction,Plated,1,2,PTH
FMAT,2
INCH
T1C0.0157
T2C0.0236
T3C0.0295
T4C0.0315
T5C0.0354
T6C0.0394
T7C0.0433
%
G90
G05
T1
X4.5323Y-3.8803
X4.5323Y-4.0961
X4.5323Y-5.1748
X4.748Y-3.8803
X4.748Y-4.3118
X4.748Y-5.1748
X4.83Y-4.4
X4.9638Y-3.8803
X4.9638Y-4.0961
X4.9638Y-4.3118
X4.9638Y-5.1748
X4.9768Y-4.8076
X5.1795Y-3.8803
X5.1795Y-5.1748
X5.35Y-4.4
X5.3768Y-4.8076
X5.3868Y-4.1076
X5.3953Y-3.8576
X5.3953Y-5.1748
X5.5168Y-4.1376
X5.611Y-3.8576
X5.611Y-5.1748
X5.8268Y-3.8576
X5.8268Y-4.3118
X5.8268Y-4.5276
X5.8268Y-5.1748
X5.8768Y-4.8076
X6.0368Y-4.5276
X6.0425Y-3.8576
X6.0425Y-4.3118
X6.0425Y-5.1748
X6.2583Y-3.8576
X6.2583Y-4.0961
X6.2583Y-5.1748
X6.2868Y-4.3118
X6.3406Y-3.7717
X6.474Y-4.1276
X6.474Y-4.3118
X6.474Y-4.5276
X6.474Y-5.1748
X6.5868Y-4.8076
X6.6898Y-3.8726
X6.6898Y-4.3118
X6.6898Y-4.5276
X6.6898Y-5.1748
X6.9055Y-3.8803
X6.9055Y-4.5276
X6.9055Y-5.1748
X6.9567Y-3.6791
X7.0268Y-5.3376
X7.1068Y-3.7076
X7.1213Y-3.8803
X7.1213Y-4.0961
X7.1213Y-4.5276
X7.1368Y-5.1748
T2
X5.22Y-4.5613
X5.22Y-4.64
T3
X6.82Y-4.41
X6.82Y-4.71
T4
X4.1114Y-4.0146
X4.1114Y-4.2146
X4.4114Y-4.0146
X4.4114Y-4.2146
X5.63Y-4.39
X5.63Y-4.69
X5.73Y-4.39
X5.73Y-4.69
X5.83Y-4.39
X5.83Y-4.69
X5.93Y-4.39
X5.93Y-4.69
X6.03Y-4.39
X6.03Y-4.69
X6.13Y-4.39
X6.13Y-4.69
X6.23Y-4.39
X6.23Y-4.69
T5
X7.4882Y-4.9787
X7.4882Y-5.0787
X4.1516Y-4.9173
X4.1516Y-5.0173
T7
X4.75Y-4.63
X4.85Y-4.63
X4.95Y-4.63
T4
G00X5.6161Y-3.6457
M15
G01X5.6437Y-3.6457
M16
G05
G00X5.7146Y-3.6457
M15
G01X5.7421Y-3.6457
M16
G05
G00X5.9114Y-3.6457
M15
G01X5.939Y-3.6457
M16
G05
G00X6.0098Y-3.6457
M15
G01X6.0374Y-3.6457
M16
G05
G00X4.2323Y-4.4843
M15
G01X4.2323Y-4.5709
M16
G05
G00X4.2992Y-4.7165
M15
G01X4.3858Y-4.7165
M16
G05
G00X4.4606Y-4.4764
M15
G01X4.4606Y-4.5787
M16
G05
G00X7.6142Y-4.3169
M15
G01X7.6142Y-4.3445
M16
G05
G00X7.6142Y-4.4154
M15
G01X7.6142Y-4.4429
M16
G05
G00X7.6142Y-4.6122
M15
G01X7.6142Y-4.6398
M16
G05
G00X7.6142Y-4.7106
M15
G01X7.6142Y-4.7382
M16
G05
G00X6.4437Y-5.4094
M15
G01X6.4161Y-5.4094
M16
G05
G00X6.5421Y-5.4094
M15
G01X6.5146Y-5.4094
M16
G05
G00X6.739Y-5.4094
M15
G01X6.7114Y-5.4094
M16
G05
G00X6.8374Y-5.4094
M15
G01X6.8098Y-5.4094
M16
G05
G00X4.8161Y-3.6457
M15
G01X4.8437Y-3.6457
M16
G05
G00X4.9146Y-3.6457
M15
G01X4.9421Y-3.6457
M16
G05
G00X5.1114Y-3.6457
M15
G01X5.139Y-3.6457
M16
G05
G00X5.2098Y-3.6457
M15
G01X5.2374Y-3.6457
M16
G05
G00X4.8437Y-5.4094
M15
G01X4.8161Y-5.4094
M16
G05
G00X4.9421Y-5.4094
M15
G01X4.9146Y-5.4094
M16
G05
G00X5.139Y-5.4094
M15
G01X5.1114Y-5.4094
M16
G05
G00X5.2374Y-5.4094
M15
G01X5.2098Y-5.4094
M16
G05
G00X5.6437Y-5.4094
M15
G01X5.6161Y-5.4094
M16
G05
G00X5.7421Y-5.4094
M15
G01X5.7146Y-5.4094
M16
G05
G00X5.939Y-5.4094
M15
G01X5.9114Y-5.4094
M16
G05
G00X6.0374Y-5.4094
M15
G01X6.0098Y-5.4094
M16
G05
T6
G00X4.7315Y-5.0276
M15
G01X4.7315Y-5.0039
M16
G05
G00X4.8299Y-4.9291
M15
G01X4.8299Y-4.9055
M16
G05
G00X5.0268Y-5.0276
M15
G01X5.0268Y-5.0039
M16
G05
G00X5.2236Y-4.9291
M15
G01X5.2236Y-4.9055
M16
G05
G00X5.322Y-5.0276
M15
G01X5.322Y-5.0039
M16
G05
G00X5.5315Y-5.0276
M15
G01X5.5315Y-5.0039
M16
G05
G00X5.6299Y-4.9291
M15
G01X5.6299Y-4.9055
M16
G05
G00X5.8268Y-5.0276
M15
G01X5.8268Y-5.0039
M16
G05
G00X6.0236Y-4.9291
M15
G01X6.0236Y-4.9055
M16
G05
G00X6.122Y-5.0276
M15
G01X6.122Y-5.0039
M16
G05
G00X5.5315Y-4.0276
M15
G01X5.5315Y-4.0512
M16
G05
G00X5.6299Y-4.126
M15
G01X5.6299Y-4.1496
M16
G05
G00X5.8268Y-4.0276
M15
G01X5.8268Y-4.0512
M16
G05
G00X6.0236Y-4.126
M15
G01X6.0236Y-4.1496
M16
G05
G00X6.122Y-4.0276
M15
G01X6.122Y-4.0512
M16
G05
G00X7.1339Y-4.3307
M15
G01X7.1102Y-4.3307
M16
G05
G00X7.1339Y-4.7244
M15
G01X7.1102Y-4.7244
M16
G05
G00X7.2323Y-4.2323
M15
G01X7.2087Y-4.2323
M16
G05
G00X7.2323Y-4.5276
M15
G01X7.2087Y-4.5276
M16
G05
G00X7.2323Y-4.8228
M15
G01X7.2087Y-4.8228
M16
G05
G00X6.3315Y-5.0276
M15
G01X6.3315Y-5.0039
M16
G05
G00X6.4299Y-4.9291
M15
G01X6.4299Y-4.9055
M16
G05
G00X6.6268Y-5.0276
M15
G01X6.6268Y-5.0039
M16
G05
G00X6.8236Y-4.9291
M15
G01X6.8236Y-4.9055
M16
G05
G00X6.922Y-5.0276
M15
G01X6.922Y-5.0039
M16
G05
G00X4.7315Y-4.0276
M15
G01X4.7315Y-4.0512
M16
G05
G00X4.8299Y-4.126
M15
G01X4.8299Y-4.1496
M16
G05
G00X5.0268Y-4.0276
M15
G01X5.0268Y-4.0512
M16
G05
G00X5.2236Y-4.126
M15
G01X5.2236Y-4.1496
M16
G05
G00X5.322Y-4.0276
M15
G01X5.322Y-4.0512
M16
G05
T0
M30
