G04 #@! TF.GenerationSoftware,KiCad,Pcbnew,(5.1.5-0-10_14)*
G04 #@! TF.CreationDate,2020-09-12T12:44:00+03:00*
G04 #@! TF.ProjectId,midi_splitter,6d696469-5f73-4706-9c69-747465722e6b,rev?*
G04 #@! TF.SameCoordinates,Original*
G04 #@! TF.FileFunction,Copper,L2,Bot*
G04 #@! TF.FilePolarity,Positive*
%FSLAX46Y46*%
G04 Gerber Fmt 4.6, Leading zero omitted, Abs format (unit mm)*
G04 Created by KiCad (PCBNEW (5.1.5-0-10_14)) date 2020-09-12 12:44:00*
%MOMM*%
%LPD*%
G04 APERTURE LIST*
%ADD10O,3.000000X2.300000*%
%ADD11O,2.000000X2.600000*%
%ADD12O,2.300000X3.000000*%
%ADD13O,2.600000X2.000000*%
%ADD14O,4.000000X1.800000*%
%ADD15O,1.800000X4.000000*%
%ADD16R,1.800000X4.400000*%
%ADD17R,1.905000X2.000000*%
%ADD18O,1.905000X2.000000*%
%ADD19R,1.200000X1.200000*%
%ADD20C,1.200000*%
%ADD21O,1.600000X1.600000*%
%ADD22R,1.600000X1.600000*%
%ADD23R,1.800000X1.800000*%
%ADD24C,1.800000*%
%ADD25R,1.500000X1.500000*%
%ADD26O,1.500000X1.500000*%
%ADD27C,0.800000*%
%ADD28C,0.600000*%
%ADD29C,0.400000*%
%ADD30C,0.254000*%
G04 APERTURE END LIST*
D10*
X153000000Y-92600000D03*
X150500000Y-92600000D03*
X145500000Y-92600000D03*
X143000000Y-92600000D03*
D11*
X153000000Y-105100000D03*
X155500000Y-102600000D03*
X148000000Y-102600000D03*
X140500000Y-102600000D03*
X143000000Y-105100000D03*
D12*
X193400000Y-120000000D03*
X193400000Y-117500000D03*
X193400000Y-112500000D03*
X193400000Y-110000000D03*
D13*
X180900000Y-120000000D03*
X183400000Y-122500000D03*
X183400000Y-115000000D03*
X183400000Y-107500000D03*
X180900000Y-110000000D03*
D10*
X122680000Y-137400000D03*
X125180000Y-137400000D03*
X130180000Y-137400000D03*
X132680000Y-137400000D03*
D11*
X122680000Y-124900000D03*
X120180000Y-127400000D03*
X127680000Y-127400000D03*
X135180000Y-127400000D03*
X132680000Y-124900000D03*
D10*
X143000000Y-137400000D03*
X145500000Y-137400000D03*
X150500000Y-137400000D03*
X153000000Y-137400000D03*
D11*
X143000000Y-124900000D03*
X140500000Y-127400000D03*
X148000000Y-127400000D03*
X155500000Y-127400000D03*
X153000000Y-124900000D03*
D10*
X163320000Y-137400000D03*
X165820000Y-137400000D03*
X170820000Y-137400000D03*
X173320000Y-137400000D03*
D11*
X163320000Y-124900000D03*
X160820000Y-127400000D03*
X168320000Y-127400000D03*
X175820000Y-127400000D03*
X173320000Y-124900000D03*
D10*
X132680000Y-92600000D03*
X130180000Y-92600000D03*
X125180000Y-92600000D03*
X122680000Y-92600000D03*
D11*
X132680000Y-105100000D03*
X135180000Y-102600000D03*
X127680000Y-102600000D03*
X120180000Y-102600000D03*
X122680000Y-105100000D03*
D14*
X110300000Y-119800000D03*
D15*
X107500000Y-115000000D03*
D16*
X113300000Y-115000000D03*
D17*
X120650000Y-117602000D03*
D18*
X123190000Y-117602000D03*
X125730000Y-117602000D03*
D19*
X132588000Y-117856000D03*
D20*
X132588000Y-115856000D03*
D21*
X104430000Y-107050000D03*
X112050000Y-101970000D03*
X104430000Y-101970000D03*
D22*
X112050000Y-107050000D03*
X143002000Y-119126000D03*
D21*
X158242000Y-111506000D03*
X145542000Y-119126000D03*
X155702000Y-111506000D03*
X148082000Y-119126000D03*
X153162000Y-111506000D03*
X150622000Y-119126000D03*
X150622000Y-111506000D03*
X153162000Y-119126000D03*
X148082000Y-111506000D03*
X155702000Y-119126000D03*
X145542000Y-111506000D03*
X158242000Y-119126000D03*
X143002000Y-111506000D03*
D23*
X105450000Y-124900000D03*
D24*
X105450000Y-127440000D03*
D23*
X190200000Y-129000000D03*
D24*
X190200000Y-126460000D03*
D25*
X173228000Y-112014000D03*
D26*
X173228000Y-119634000D03*
D27*
X136570000Y-122112000D03*
X149270000Y-122112000D03*
X167304000Y-122112000D03*
X122682000Y-111760000D03*
X135890000Y-111760000D03*
X161050000Y-95800000D03*
X176700000Y-93450000D03*
X178480000Y-135574000D03*
X148000000Y-115000000D03*
X169920000Y-115000000D03*
X175400000Y-115000000D03*
X180880000Y-115000000D03*
X126080000Y-109520000D03*
X120600000Y-109520000D03*
X148000000Y-109520000D03*
X153334000Y-115000000D03*
X169920000Y-109520000D03*
X148000000Y-97982000D03*
X153480000Y-97982000D03*
X158960000Y-97982000D03*
X158960000Y-104040000D03*
X142520000Y-97982000D03*
X137040000Y-97982000D03*
X131560000Y-98560000D03*
X126080000Y-98560000D03*
X120600000Y-98560000D03*
X115120000Y-98560000D03*
X115120000Y-104040000D03*
X126080000Y-104040000D03*
X148000000Y-131440000D03*
X142520000Y-131440000D03*
X137040000Y-131440000D03*
X131560000Y-131440000D03*
X126080000Y-131440000D03*
X120600000Y-131440000D03*
X115120000Y-131440000D03*
X153480000Y-131440000D03*
X158960000Y-131440000D03*
X164440000Y-131440000D03*
X169920000Y-131440000D03*
X175400000Y-131440000D03*
X181274000Y-131440000D03*
X164440000Y-104840000D03*
X159684000Y-109520000D03*
X153480000Y-109520000D03*
X180880000Y-104040000D03*
X180880000Y-98560000D03*
X175400000Y-98560000D03*
X169920000Y-98363000D03*
X136824000Y-104332000D03*
X140126000Y-105094000D03*
X164440000Y-115000000D03*
X164440000Y-109520000D03*
X180512000Y-94172000D03*
X126410000Y-122112000D03*
D28*
X136570000Y-122112000D02*
X149270000Y-122112000D01*
X167304000Y-122112000D02*
X149270000Y-122112000D01*
X167869685Y-122112000D02*
X167304000Y-122112000D01*
X175686000Y-122112000D02*
X167869685Y-122112000D01*
X177718000Y-124144000D02*
X175686000Y-122112000D01*
X187884000Y-124144000D02*
X177718000Y-124144000D01*
X190200000Y-126460000D02*
X187884000Y-124144000D01*
D29*
X144742001Y-119925999D02*
X145542000Y-119126000D01*
X143826000Y-120842000D02*
X144742001Y-119925999D01*
X127680000Y-120842000D02*
X143826000Y-120842000D01*
X126410000Y-122112000D02*
X127680000Y-120842000D01*
D30*
G36*
X193453893Y-90707670D02*
G01*
X193890498Y-90839489D01*
X194293185Y-91053600D01*
X194646612Y-91341848D01*
X194937327Y-91693261D01*
X195154242Y-92094439D01*
X195289106Y-92530113D01*
X195340000Y-93014344D01*
X195340001Y-136967711D01*
X195292330Y-137453894D01*
X195160512Y-137890497D01*
X194946399Y-138293186D01*
X194658150Y-138646613D01*
X194306739Y-138937327D01*
X193905564Y-139154240D01*
X193469886Y-139289106D01*
X192985664Y-139340000D01*
X103032279Y-139340000D01*
X102546106Y-139292330D01*
X102109503Y-139160512D01*
X101706814Y-138946399D01*
X101353387Y-138658150D01*
X101062673Y-138306739D01*
X100845760Y-137905564D01*
X100710894Y-137469886D01*
X100703549Y-137400000D01*
X120536364Y-137400000D01*
X120570828Y-137749921D01*
X120672896Y-138086395D01*
X120838646Y-138396491D01*
X121061708Y-138668292D01*
X121333509Y-138891354D01*
X121643605Y-139057104D01*
X121980079Y-139159172D01*
X122242317Y-139185000D01*
X123117683Y-139185000D01*
X123379921Y-139159172D01*
X123716395Y-139057104D01*
X123930000Y-138942930D01*
X124143605Y-139057104D01*
X124480079Y-139159172D01*
X124742317Y-139185000D01*
X125617683Y-139185000D01*
X125879921Y-139159172D01*
X126216395Y-139057104D01*
X126526491Y-138891354D01*
X126798292Y-138668292D01*
X127021354Y-138396491D01*
X127187104Y-138086395D01*
X127289172Y-137749921D01*
X127323636Y-137400000D01*
X128036364Y-137400000D01*
X128070828Y-137749921D01*
X128172896Y-138086395D01*
X128338646Y-138396491D01*
X128561708Y-138668292D01*
X128833509Y-138891354D01*
X129143605Y-139057104D01*
X129480079Y-139159172D01*
X129742317Y-139185000D01*
X130617683Y-139185000D01*
X130879921Y-139159172D01*
X131216395Y-139057104D01*
X131430000Y-138942930D01*
X131643605Y-139057104D01*
X131980079Y-139159172D01*
X132242317Y-139185000D01*
X133117683Y-139185000D01*
X133379921Y-139159172D01*
X133716395Y-139057104D01*
X134026491Y-138891354D01*
X134298292Y-138668292D01*
X134521354Y-138396491D01*
X134687104Y-138086395D01*
X134789172Y-137749921D01*
X134823636Y-137400000D01*
X140856364Y-137400000D01*
X140890828Y-137749921D01*
X140992896Y-138086395D01*
X141158646Y-138396491D01*
X141381708Y-138668292D01*
X141653509Y-138891354D01*
X141963605Y-139057104D01*
X142300079Y-139159172D01*
X142562317Y-139185000D01*
X143437683Y-139185000D01*
X143699921Y-139159172D01*
X144036395Y-139057104D01*
X144250000Y-138942930D01*
X144463605Y-139057104D01*
X144800079Y-139159172D01*
X145062317Y-139185000D01*
X145937683Y-139185000D01*
X146199921Y-139159172D01*
X146536395Y-139057104D01*
X146846491Y-138891354D01*
X147118292Y-138668292D01*
X147341354Y-138396491D01*
X147507104Y-138086395D01*
X147609172Y-137749921D01*
X147643636Y-137400000D01*
X148356364Y-137400000D01*
X148390828Y-137749921D01*
X148492896Y-138086395D01*
X148658646Y-138396491D01*
X148881708Y-138668292D01*
X149153509Y-138891354D01*
X149463605Y-139057104D01*
X149800079Y-139159172D01*
X150062317Y-139185000D01*
X150937683Y-139185000D01*
X151199921Y-139159172D01*
X151536395Y-139057104D01*
X151750000Y-138942930D01*
X151963605Y-139057104D01*
X152300079Y-139159172D01*
X152562317Y-139185000D01*
X153437683Y-139185000D01*
X153699921Y-139159172D01*
X154036395Y-139057104D01*
X154346491Y-138891354D01*
X154618292Y-138668292D01*
X154841354Y-138396491D01*
X155007104Y-138086395D01*
X155109172Y-137749921D01*
X155143636Y-137400000D01*
X161176364Y-137400000D01*
X161210828Y-137749921D01*
X161312896Y-138086395D01*
X161478646Y-138396491D01*
X161701708Y-138668292D01*
X161973509Y-138891354D01*
X162283605Y-139057104D01*
X162620079Y-139159172D01*
X162882317Y-139185000D01*
X163757683Y-139185000D01*
X164019921Y-139159172D01*
X164356395Y-139057104D01*
X164570000Y-138942930D01*
X164783605Y-139057104D01*
X165120079Y-139159172D01*
X165382317Y-139185000D01*
X166257683Y-139185000D01*
X166519921Y-139159172D01*
X166856395Y-139057104D01*
X167166491Y-138891354D01*
X167438292Y-138668292D01*
X167661354Y-138396491D01*
X167827104Y-138086395D01*
X167929172Y-137749921D01*
X167963636Y-137400000D01*
X168676364Y-137400000D01*
X168710828Y-137749921D01*
X168812896Y-138086395D01*
X168978646Y-138396491D01*
X169201708Y-138668292D01*
X169473509Y-138891354D01*
X169783605Y-139057104D01*
X170120079Y-139159172D01*
X170382317Y-139185000D01*
X171257683Y-139185000D01*
X171519921Y-139159172D01*
X171856395Y-139057104D01*
X172070000Y-138942930D01*
X172283605Y-139057104D01*
X172620079Y-139159172D01*
X172882317Y-139185000D01*
X173757683Y-139185000D01*
X174019921Y-139159172D01*
X174356395Y-139057104D01*
X174666491Y-138891354D01*
X174938292Y-138668292D01*
X175161354Y-138396491D01*
X175327104Y-138086395D01*
X175429172Y-137749921D01*
X175463636Y-137400000D01*
X175429172Y-137050079D01*
X175327104Y-136713605D01*
X175161354Y-136403509D01*
X174938292Y-136131708D01*
X174666491Y-135908646D01*
X174356395Y-135742896D01*
X174019921Y-135640828D01*
X173757683Y-135615000D01*
X172882317Y-135615000D01*
X172620079Y-135640828D01*
X172283605Y-135742896D01*
X172070000Y-135857070D01*
X171856395Y-135742896D01*
X171519921Y-135640828D01*
X171257683Y-135615000D01*
X170382317Y-135615000D01*
X170120079Y-135640828D01*
X169783605Y-135742896D01*
X169473509Y-135908646D01*
X169201708Y-136131708D01*
X168978646Y-136403509D01*
X168812896Y-136713605D01*
X168710828Y-137050079D01*
X168676364Y-137400000D01*
X167963636Y-137400000D01*
X167929172Y-137050079D01*
X167827104Y-136713605D01*
X167661354Y-136403509D01*
X167438292Y-136131708D01*
X167166491Y-135908646D01*
X166856395Y-135742896D01*
X166519921Y-135640828D01*
X166257683Y-135615000D01*
X165382317Y-135615000D01*
X165120079Y-135640828D01*
X164783605Y-135742896D01*
X164570000Y-135857070D01*
X164356395Y-135742896D01*
X164019921Y-135640828D01*
X163757683Y-135615000D01*
X162882317Y-135615000D01*
X162620079Y-135640828D01*
X162283605Y-135742896D01*
X161973509Y-135908646D01*
X161701708Y-136131708D01*
X161478646Y-136403509D01*
X161312896Y-136713605D01*
X161210828Y-137050079D01*
X161176364Y-137400000D01*
X155143636Y-137400000D01*
X155109172Y-137050079D01*
X155007104Y-136713605D01*
X154841354Y-136403509D01*
X154618292Y-136131708D01*
X154346491Y-135908646D01*
X154036395Y-135742896D01*
X153699921Y-135640828D01*
X153437683Y-135615000D01*
X152562317Y-135615000D01*
X152300079Y-135640828D01*
X151963605Y-135742896D01*
X151750000Y-135857070D01*
X151536395Y-135742896D01*
X151199921Y-135640828D01*
X150937683Y-135615000D01*
X150062317Y-135615000D01*
X149800079Y-135640828D01*
X149463605Y-135742896D01*
X149153509Y-135908646D01*
X148881708Y-136131708D01*
X148658646Y-136403509D01*
X148492896Y-136713605D01*
X148390828Y-137050079D01*
X148356364Y-137400000D01*
X147643636Y-137400000D01*
X147609172Y-137050079D01*
X147507104Y-136713605D01*
X147341354Y-136403509D01*
X147118292Y-136131708D01*
X146846491Y-135908646D01*
X146536395Y-135742896D01*
X146199921Y-135640828D01*
X145937683Y-135615000D01*
X145062317Y-135615000D01*
X144800079Y-135640828D01*
X144463605Y-135742896D01*
X144250000Y-135857070D01*
X144036395Y-135742896D01*
X143699921Y-135640828D01*
X143437683Y-135615000D01*
X142562317Y-135615000D01*
X142300079Y-135640828D01*
X141963605Y-135742896D01*
X141653509Y-135908646D01*
X141381708Y-136131708D01*
X141158646Y-136403509D01*
X140992896Y-136713605D01*
X140890828Y-137050079D01*
X140856364Y-137400000D01*
X134823636Y-137400000D01*
X134789172Y-137050079D01*
X134687104Y-136713605D01*
X134521354Y-136403509D01*
X134298292Y-136131708D01*
X134026491Y-135908646D01*
X133716395Y-135742896D01*
X133379921Y-135640828D01*
X133117683Y-135615000D01*
X132242317Y-135615000D01*
X131980079Y-135640828D01*
X131643605Y-135742896D01*
X131430000Y-135857070D01*
X131216395Y-135742896D01*
X130879921Y-135640828D01*
X130617683Y-135615000D01*
X129742317Y-135615000D01*
X129480079Y-135640828D01*
X129143605Y-135742896D01*
X128833509Y-135908646D01*
X128561708Y-136131708D01*
X128338646Y-136403509D01*
X128172896Y-136713605D01*
X128070828Y-137050079D01*
X128036364Y-137400000D01*
X127323636Y-137400000D01*
X127289172Y-137050079D01*
X127187104Y-136713605D01*
X127021354Y-136403509D01*
X126798292Y-136131708D01*
X126526491Y-135908646D01*
X126216395Y-135742896D01*
X125879921Y-135640828D01*
X125617683Y-135615000D01*
X124742317Y-135615000D01*
X124480079Y-135640828D01*
X124143605Y-135742896D01*
X123930000Y-135857070D01*
X123716395Y-135742896D01*
X123379921Y-135640828D01*
X123117683Y-135615000D01*
X122242317Y-135615000D01*
X121980079Y-135640828D01*
X121643605Y-135742896D01*
X121333509Y-135908646D01*
X121061708Y-136131708D01*
X120838646Y-136403509D01*
X120672896Y-136713605D01*
X120570828Y-137050079D01*
X120536364Y-137400000D01*
X100703549Y-137400000D01*
X100660000Y-136985664D01*
X100660000Y-134079117D01*
X103515000Y-134079117D01*
X103515000Y-134420883D01*
X103581675Y-134756081D01*
X103712463Y-135071831D01*
X103902337Y-135355998D01*
X104144002Y-135597663D01*
X104428169Y-135787537D01*
X104743919Y-135918325D01*
X105079117Y-135985000D01*
X105420883Y-135985000D01*
X105756081Y-135918325D01*
X106071831Y-135787537D01*
X106355998Y-135597663D01*
X106597663Y-135355998D01*
X106787537Y-135071831D01*
X106918325Y-134756081D01*
X106985000Y-134420883D01*
X106985000Y-134079117D01*
X189015000Y-134079117D01*
X189015000Y-134420883D01*
X189081675Y-134756081D01*
X189212463Y-135071831D01*
X189402337Y-135355998D01*
X189644002Y-135597663D01*
X189928169Y-135787537D01*
X190243919Y-135918325D01*
X190579117Y-135985000D01*
X190920883Y-135985000D01*
X191256081Y-135918325D01*
X191571831Y-135787537D01*
X191855998Y-135597663D01*
X192097663Y-135355998D01*
X192287537Y-135071831D01*
X192418325Y-134756081D01*
X192485000Y-134420883D01*
X192485000Y-134079117D01*
X192418325Y-133743919D01*
X192287537Y-133428169D01*
X192097663Y-133144002D01*
X191855998Y-132902337D01*
X191571831Y-132712463D01*
X191256081Y-132581675D01*
X190920883Y-132515000D01*
X190579117Y-132515000D01*
X190243919Y-132581675D01*
X189928169Y-132712463D01*
X189644002Y-132902337D01*
X189402337Y-133144002D01*
X189212463Y-133428169D01*
X189081675Y-133743919D01*
X189015000Y-134079117D01*
X106985000Y-134079117D01*
X106918325Y-133743919D01*
X106787537Y-133428169D01*
X106597663Y-133144002D01*
X106355998Y-132902337D01*
X106071831Y-132712463D01*
X105756081Y-132581675D01*
X105420883Y-132515000D01*
X105079117Y-132515000D01*
X104743919Y-132581675D01*
X104428169Y-132712463D01*
X104144002Y-132902337D01*
X103902337Y-133144002D01*
X103712463Y-133428169D01*
X103581675Y-133743919D01*
X103515000Y-134079117D01*
X100660000Y-134079117D01*
X100660000Y-125800000D01*
X103911928Y-125800000D01*
X103924188Y-125924482D01*
X103960498Y-126044180D01*
X104019463Y-126154494D01*
X104098815Y-126251185D01*
X104195506Y-126330537D01*
X104305820Y-126389502D01*
X104324127Y-126395056D01*
X104257688Y-126461495D01*
X104089701Y-126712905D01*
X103973989Y-126992257D01*
X103915000Y-127288816D01*
X103915000Y-127591184D01*
X103973989Y-127887743D01*
X104089701Y-128167095D01*
X104257688Y-128418505D01*
X104471495Y-128632312D01*
X104722905Y-128800299D01*
X105002257Y-128916011D01*
X105298816Y-128975000D01*
X105601184Y-128975000D01*
X105897743Y-128916011D01*
X106177095Y-128800299D01*
X106428505Y-128632312D01*
X106642312Y-128418505D01*
X106810299Y-128167095D01*
X106926011Y-127887743D01*
X106985000Y-127591184D01*
X106985000Y-127288816D01*
X106926011Y-126992257D01*
X106810299Y-126712905D01*
X106642312Y-126461495D01*
X106575873Y-126395056D01*
X106594180Y-126389502D01*
X106704494Y-126330537D01*
X106801185Y-126251185D01*
X106880537Y-126154494D01*
X106939502Y-126044180D01*
X106975812Y-125924482D01*
X106988072Y-125800000D01*
X106985000Y-125185750D01*
X106883249Y-125083999D01*
X107863000Y-125083999D01*
X107863000Y-127392002D01*
X107908362Y-127852567D01*
X108087624Y-128443517D01*
X108378731Y-128988140D01*
X108770496Y-129465505D01*
X109247861Y-129857269D01*
X109792484Y-130148376D01*
X110383434Y-130327638D01*
X110998000Y-130388168D01*
X111612567Y-130327638D01*
X112203517Y-130148376D01*
X112748140Y-129857269D01*
X113225505Y-129465505D01*
X113617269Y-128988140D01*
X113908376Y-128443517D01*
X114087638Y-127852567D01*
X114133000Y-127392002D01*
X114133000Y-127019678D01*
X118545000Y-127019678D01*
X118545000Y-127780321D01*
X118568657Y-128020515D01*
X118662148Y-128328714D01*
X118813969Y-128612751D01*
X119018286Y-128861714D01*
X119267248Y-129066031D01*
X119551285Y-129217852D01*
X119859484Y-129311343D01*
X120180000Y-129342911D01*
X120500515Y-129311343D01*
X120808714Y-129217852D01*
X121092751Y-129066031D01*
X121341714Y-128861714D01*
X121546031Y-128612752D01*
X121697852Y-128328715D01*
X121791343Y-128020516D01*
X121815000Y-127780322D01*
X121815000Y-127527000D01*
X126045000Y-127527000D01*
X126045000Y-127827000D01*
X126101193Y-128143532D01*
X126218058Y-128443020D01*
X126391105Y-128713954D01*
X126613683Y-128945922D01*
X126877239Y-129130010D01*
X127171645Y-129259144D01*
X127299566Y-129290124D01*
X127553000Y-129170777D01*
X127553000Y-127527000D01*
X127807000Y-127527000D01*
X127807000Y-129170777D01*
X128060434Y-129290124D01*
X128188355Y-129259144D01*
X128482761Y-129130010D01*
X128746317Y-128945922D01*
X128968895Y-128713954D01*
X129141942Y-128443020D01*
X129258807Y-128143532D01*
X129315000Y-127827000D01*
X129315000Y-127527000D01*
X127807000Y-127527000D01*
X127553000Y-127527000D01*
X126045000Y-127527000D01*
X121815000Y-127527000D01*
X121815000Y-127019679D01*
X121810403Y-126973000D01*
X126045000Y-126973000D01*
X126045000Y-127273000D01*
X127553000Y-127273000D01*
X127553000Y-125629223D01*
X127807000Y-125629223D01*
X127807000Y-127273000D01*
X129315000Y-127273000D01*
X129315000Y-126973000D01*
X129258807Y-126656468D01*
X129141942Y-126356980D01*
X128968895Y-126086046D01*
X128746317Y-125854078D01*
X128482761Y-125669990D01*
X128188355Y-125540856D01*
X128060434Y-125509876D01*
X127807000Y-125629223D01*
X127553000Y-125629223D01*
X127299566Y-125509876D01*
X127171645Y-125540856D01*
X126877239Y-125669990D01*
X126613683Y-125854078D01*
X126391105Y-126086046D01*
X126218058Y-126356980D01*
X126101193Y-126656468D01*
X126045000Y-126973000D01*
X121810403Y-126973000D01*
X121791343Y-126779485D01*
X121713117Y-126521607D01*
X121767248Y-126566031D01*
X122051285Y-126717852D01*
X122359484Y-126811343D01*
X122680000Y-126842911D01*
X123000515Y-126811343D01*
X123308714Y-126717852D01*
X123592751Y-126566031D01*
X123841714Y-126361714D01*
X124046031Y-126112752D01*
X124197852Y-125828715D01*
X124291343Y-125520516D01*
X124315000Y-125280322D01*
X124315000Y-124519679D01*
X124315000Y-124519678D01*
X131045000Y-124519678D01*
X131045000Y-125280321D01*
X131068657Y-125520515D01*
X131162148Y-125828714D01*
X131313969Y-126112751D01*
X131518286Y-126361714D01*
X131767248Y-126566031D01*
X132051285Y-126717852D01*
X132359484Y-126811343D01*
X132680000Y-126842911D01*
X133000515Y-126811343D01*
X133308714Y-126717852D01*
X133592751Y-126566031D01*
X133646883Y-126521606D01*
X133568657Y-126779484D01*
X133545000Y-127019678D01*
X133545000Y-127780321D01*
X133568657Y-128020515D01*
X133662148Y-128328714D01*
X133813969Y-128612751D01*
X134018286Y-128861714D01*
X134267248Y-129066031D01*
X134551285Y-129217852D01*
X134859484Y-129311343D01*
X135180000Y-129342911D01*
X135500515Y-129311343D01*
X135808714Y-129217852D01*
X136092751Y-129066031D01*
X136341714Y-128861714D01*
X136546031Y-128612752D01*
X136697852Y-128328715D01*
X136791343Y-128020516D01*
X136815000Y-127780322D01*
X136815000Y-127019679D01*
X136791343Y-126779485D01*
X136697852Y-126471285D01*
X136546031Y-126187248D01*
X136341714Y-125938286D01*
X136092752Y-125733969D01*
X135808715Y-125582148D01*
X135500516Y-125488657D01*
X135180000Y-125457089D01*
X134859485Y-125488657D01*
X134551286Y-125582148D01*
X134267249Y-125733969D01*
X134213117Y-125778394D01*
X134291343Y-125520516D01*
X134315000Y-125280322D01*
X134315000Y-124519679D01*
X134291343Y-124279485D01*
X134197852Y-123971285D01*
X134046031Y-123687248D01*
X133841714Y-123438286D01*
X133592752Y-123233969D01*
X133308715Y-123082148D01*
X133000516Y-122988657D01*
X132680000Y-122957089D01*
X132359485Y-122988657D01*
X132051286Y-123082148D01*
X131767249Y-123233969D01*
X131518286Y-123438286D01*
X131313969Y-123687248D01*
X131162148Y-123971285D01*
X131068657Y-124279484D01*
X131045000Y-124519678D01*
X124315000Y-124519678D01*
X124291343Y-124279485D01*
X124197852Y-123971285D01*
X124046031Y-123687248D01*
X123841714Y-123438286D01*
X123592752Y-123233969D01*
X123308715Y-123082148D01*
X123000516Y-122988657D01*
X122680000Y-122957089D01*
X122359485Y-122988657D01*
X122051286Y-123082148D01*
X121767249Y-123233969D01*
X121518286Y-123438286D01*
X121313969Y-123687248D01*
X121162148Y-123971285D01*
X121068657Y-124279484D01*
X121045000Y-124519678D01*
X121045000Y-125280321D01*
X121068657Y-125520515D01*
X121146883Y-125778393D01*
X121092752Y-125733969D01*
X120808715Y-125582148D01*
X120500516Y-125488657D01*
X120180000Y-125457089D01*
X119859485Y-125488657D01*
X119551286Y-125582148D01*
X119267249Y-125733969D01*
X119018286Y-125938286D01*
X118813969Y-126187248D01*
X118662148Y-126471285D01*
X118568657Y-126779484D01*
X118545000Y-127019678D01*
X114133000Y-127019678D01*
X114133000Y-125083998D01*
X114087638Y-124623433D01*
X113908376Y-124032483D01*
X113617269Y-123487860D01*
X113225505Y-123010495D01*
X112748139Y-122618731D01*
X112203516Y-122327624D01*
X111612566Y-122148362D01*
X110998000Y-122087832D01*
X110383433Y-122148362D01*
X109792483Y-122327624D01*
X109247860Y-122618731D01*
X108770495Y-123010495D01*
X108378731Y-123487861D01*
X108087624Y-124032484D01*
X107908362Y-124623434D01*
X107863000Y-125083999D01*
X106883249Y-125083999D01*
X106826250Y-125027000D01*
X105577000Y-125027000D01*
X105577000Y-125047000D01*
X105323000Y-125047000D01*
X105323000Y-125027000D01*
X104073750Y-125027000D01*
X103915000Y-125185750D01*
X103911928Y-125800000D01*
X100660000Y-125800000D01*
X100660000Y-124000000D01*
X103911928Y-124000000D01*
X103915000Y-124614250D01*
X104073750Y-124773000D01*
X105323000Y-124773000D01*
X105323000Y-123523750D01*
X105577000Y-123523750D01*
X105577000Y-124773000D01*
X106826250Y-124773000D01*
X106985000Y-124614250D01*
X106988072Y-124000000D01*
X106975812Y-123875518D01*
X106939502Y-123755820D01*
X106880537Y-123645506D01*
X106801185Y-123548815D01*
X106704494Y-123469463D01*
X106594180Y-123410498D01*
X106474482Y-123374188D01*
X106350000Y-123361928D01*
X105735750Y-123365000D01*
X105577000Y-123523750D01*
X105323000Y-123523750D01*
X105164250Y-123365000D01*
X104550000Y-123361928D01*
X104425518Y-123374188D01*
X104305820Y-123410498D01*
X104195506Y-123469463D01*
X104098815Y-123548815D01*
X104019463Y-123645506D01*
X103960498Y-123755820D01*
X103924188Y-123875518D01*
X103911928Y-124000000D01*
X100660000Y-124000000D01*
X100660000Y-122010061D01*
X125375000Y-122010061D01*
X125375000Y-122213939D01*
X125414774Y-122413898D01*
X125492795Y-122602256D01*
X125606063Y-122771774D01*
X125750226Y-122915937D01*
X125919744Y-123029205D01*
X126108102Y-123107226D01*
X126308061Y-123147000D01*
X126511939Y-123147000D01*
X126711898Y-123107226D01*
X126900256Y-123029205D01*
X127069774Y-122915937D01*
X127213937Y-122771774D01*
X127327205Y-122602256D01*
X127405226Y-122413898D01*
X127434093Y-122268775D01*
X128025868Y-121677000D01*
X135629907Y-121677000D01*
X135574774Y-121810102D01*
X135535000Y-122010061D01*
X135535000Y-122213939D01*
X135574774Y-122413898D01*
X135652795Y-122602256D01*
X135766063Y-122771774D01*
X135910226Y-122915937D01*
X136079744Y-123029205D01*
X136268102Y-123107226D01*
X136468061Y-123147000D01*
X136671939Y-123147000D01*
X136871898Y-123107226D01*
X137017295Y-123047000D01*
X142487154Y-123047000D01*
X142371286Y-123082148D01*
X142087249Y-123233969D01*
X141838286Y-123438286D01*
X141633969Y-123687248D01*
X141482148Y-123971285D01*
X141388657Y-124279484D01*
X141365000Y-124519678D01*
X141365000Y-125280321D01*
X141388657Y-125520515D01*
X141466883Y-125778393D01*
X141412752Y-125733969D01*
X141128715Y-125582148D01*
X140820516Y-125488657D01*
X140500000Y-125457089D01*
X140179485Y-125488657D01*
X139871286Y-125582148D01*
X139587249Y-125733969D01*
X139338286Y-125938286D01*
X139133969Y-126187248D01*
X138982148Y-126471285D01*
X138888657Y-126779484D01*
X138865000Y-127019678D01*
X138865000Y-127780321D01*
X138888657Y-128020515D01*
X138982148Y-128328714D01*
X139133969Y-128612751D01*
X139338286Y-128861714D01*
X139587248Y-129066031D01*
X139871285Y-129217852D01*
X140179484Y-129311343D01*
X140500000Y-129342911D01*
X140820515Y-129311343D01*
X141128714Y-129217852D01*
X141412751Y-129066031D01*
X141661714Y-128861714D01*
X141866031Y-128612752D01*
X142017852Y-128328715D01*
X142111343Y-128020516D01*
X142135000Y-127780322D01*
X142135000Y-127527000D01*
X146365000Y-127527000D01*
X146365000Y-127827000D01*
X146421193Y-128143532D01*
X146538058Y-128443020D01*
X146711105Y-128713954D01*
X146933683Y-128945922D01*
X147197239Y-129130010D01*
X147491645Y-129259144D01*
X147619566Y-129290124D01*
X147873000Y-129170777D01*
X147873000Y-127527000D01*
X148127000Y-127527000D01*
X148127000Y-129170777D01*
X148380434Y-129290124D01*
X148508355Y-129259144D01*
X148802761Y-129130010D01*
X149066317Y-128945922D01*
X149288895Y-128713954D01*
X149461942Y-128443020D01*
X149578807Y-128143532D01*
X149635000Y-127827000D01*
X149635000Y-127527000D01*
X148127000Y-127527000D01*
X147873000Y-127527000D01*
X146365000Y-127527000D01*
X142135000Y-127527000D01*
X142135000Y-127019679D01*
X142130403Y-126973000D01*
X146365000Y-126973000D01*
X146365000Y-127273000D01*
X147873000Y-127273000D01*
X147873000Y-125629223D01*
X148127000Y-125629223D01*
X148127000Y-127273000D01*
X149635000Y-127273000D01*
X149635000Y-126973000D01*
X149578807Y-126656468D01*
X149461942Y-126356980D01*
X149288895Y-126086046D01*
X149066317Y-125854078D01*
X148802761Y-125669990D01*
X148508355Y-125540856D01*
X148380434Y-125509876D01*
X148127000Y-125629223D01*
X147873000Y-125629223D01*
X147619566Y-125509876D01*
X147491645Y-125540856D01*
X147197239Y-125669990D01*
X146933683Y-125854078D01*
X146711105Y-126086046D01*
X146538058Y-126356980D01*
X146421193Y-126656468D01*
X146365000Y-126973000D01*
X142130403Y-126973000D01*
X142111343Y-126779485D01*
X142033117Y-126521607D01*
X142087248Y-126566031D01*
X142371285Y-126717852D01*
X142679484Y-126811343D01*
X143000000Y-126842911D01*
X143320515Y-126811343D01*
X143628714Y-126717852D01*
X143912751Y-126566031D01*
X144161714Y-126361714D01*
X144366031Y-126112752D01*
X144517852Y-125828715D01*
X144611343Y-125520516D01*
X144635000Y-125280322D01*
X144635000Y-124519679D01*
X144611343Y-124279485D01*
X144517852Y-123971285D01*
X144366031Y-123687248D01*
X144161714Y-123438286D01*
X143912752Y-123233969D01*
X143628715Y-123082148D01*
X143512847Y-123047000D01*
X148822705Y-123047000D01*
X148968102Y-123107226D01*
X149168061Y-123147000D01*
X149371939Y-123147000D01*
X149571898Y-123107226D01*
X149717295Y-123047000D01*
X152487154Y-123047000D01*
X152371286Y-123082148D01*
X152087249Y-123233969D01*
X151838286Y-123438286D01*
X151633969Y-123687248D01*
X151482148Y-123971285D01*
X151388657Y-124279484D01*
X151365000Y-124519678D01*
X151365000Y-125280321D01*
X151388657Y-125520515D01*
X151482148Y-125828714D01*
X151633969Y-126112751D01*
X151838286Y-126361714D01*
X152087248Y-126566031D01*
X152371285Y-126717852D01*
X152679484Y-126811343D01*
X153000000Y-126842911D01*
X153320515Y-126811343D01*
X153628714Y-126717852D01*
X153912751Y-126566031D01*
X153966883Y-126521606D01*
X153888657Y-126779484D01*
X153865000Y-127019678D01*
X153865000Y-127780321D01*
X153888657Y-128020515D01*
X153982148Y-128328714D01*
X154133969Y-128612751D01*
X154338286Y-128861714D01*
X154587248Y-129066031D01*
X154871285Y-129217852D01*
X155179484Y-129311343D01*
X155500000Y-129342911D01*
X155820515Y-129311343D01*
X156128714Y-129217852D01*
X156412751Y-129066031D01*
X156661714Y-128861714D01*
X156866031Y-128612752D01*
X157017852Y-128328715D01*
X157111343Y-128020516D01*
X157135000Y-127780322D01*
X157135000Y-127019679D01*
X157111343Y-126779485D01*
X157017852Y-126471285D01*
X156866031Y-126187248D01*
X156661714Y-125938286D01*
X156412752Y-125733969D01*
X156128715Y-125582148D01*
X155820516Y-125488657D01*
X155500000Y-125457089D01*
X155179485Y-125488657D01*
X154871286Y-125582148D01*
X154587249Y-125733969D01*
X154533117Y-125778394D01*
X154611343Y-125520516D01*
X154635000Y-125280322D01*
X154635000Y-124519679D01*
X154611343Y-124279485D01*
X154517852Y-123971285D01*
X154366031Y-123687248D01*
X154161714Y-123438286D01*
X153912752Y-123233969D01*
X153628715Y-123082148D01*
X153512847Y-123047000D01*
X162807154Y-123047000D01*
X162691286Y-123082148D01*
X162407249Y-123233969D01*
X162158286Y-123438286D01*
X161953969Y-123687248D01*
X161802148Y-123971285D01*
X161708657Y-124279484D01*
X161685000Y-124519678D01*
X161685000Y-125280321D01*
X161708657Y-125520515D01*
X161786883Y-125778393D01*
X161732752Y-125733969D01*
X161448715Y-125582148D01*
X161140516Y-125488657D01*
X160820000Y-125457089D01*
X160499485Y-125488657D01*
X160191286Y-125582148D01*
X159907249Y-125733969D01*
X159658286Y-125938286D01*
X159453969Y-126187248D01*
X159302148Y-126471285D01*
X159208657Y-126779484D01*
X159185000Y-127019678D01*
X159185000Y-127780321D01*
X159208657Y-128020515D01*
X159302148Y-128328714D01*
X159453969Y-128612751D01*
X159658286Y-128861714D01*
X159907248Y-129066031D01*
X160191285Y-129217852D01*
X160499484Y-129311343D01*
X160820000Y-129342911D01*
X161140515Y-129311343D01*
X161448714Y-129217852D01*
X161732751Y-129066031D01*
X161981714Y-128861714D01*
X162186031Y-128612752D01*
X162337852Y-128328715D01*
X162431343Y-128020516D01*
X162455000Y-127780322D01*
X162455000Y-127527000D01*
X166685000Y-127527000D01*
X166685000Y-127827000D01*
X166741193Y-128143532D01*
X166858058Y-128443020D01*
X167031105Y-128713954D01*
X167253683Y-128945922D01*
X167517239Y-129130010D01*
X167811645Y-129259144D01*
X167939566Y-129290124D01*
X168193000Y-129170777D01*
X168193000Y-127527000D01*
X168447000Y-127527000D01*
X168447000Y-129170777D01*
X168700434Y-129290124D01*
X168828355Y-129259144D01*
X169122761Y-129130010D01*
X169386317Y-128945922D01*
X169608895Y-128713954D01*
X169781942Y-128443020D01*
X169898807Y-128143532D01*
X169955000Y-127827000D01*
X169955000Y-127527000D01*
X168447000Y-127527000D01*
X168193000Y-127527000D01*
X166685000Y-127527000D01*
X162455000Y-127527000D01*
X162455000Y-127019679D01*
X162450403Y-126973000D01*
X166685000Y-126973000D01*
X166685000Y-127273000D01*
X168193000Y-127273000D01*
X168193000Y-125629223D01*
X168447000Y-125629223D01*
X168447000Y-127273000D01*
X169955000Y-127273000D01*
X169955000Y-126973000D01*
X169898807Y-126656468D01*
X169781942Y-126356980D01*
X169608895Y-126086046D01*
X169386317Y-125854078D01*
X169122761Y-125669990D01*
X168828355Y-125540856D01*
X168700434Y-125509876D01*
X168447000Y-125629223D01*
X168193000Y-125629223D01*
X167939566Y-125509876D01*
X167811645Y-125540856D01*
X167517239Y-125669990D01*
X167253683Y-125854078D01*
X167031105Y-126086046D01*
X166858058Y-126356980D01*
X166741193Y-126656468D01*
X166685000Y-126973000D01*
X162450403Y-126973000D01*
X162431343Y-126779485D01*
X162353117Y-126521607D01*
X162407248Y-126566031D01*
X162691285Y-126717852D01*
X162999484Y-126811343D01*
X163320000Y-126842911D01*
X163640515Y-126811343D01*
X163948714Y-126717852D01*
X164232751Y-126566031D01*
X164481714Y-126361714D01*
X164686031Y-126112752D01*
X164837852Y-125828715D01*
X164931343Y-125520516D01*
X164955000Y-125280322D01*
X164955000Y-124519679D01*
X164931343Y-124279485D01*
X164837852Y-123971285D01*
X164686031Y-123687248D01*
X164481714Y-123438286D01*
X164232752Y-123233969D01*
X163948715Y-123082148D01*
X163832847Y-123047000D01*
X166856705Y-123047000D01*
X167002102Y-123107226D01*
X167202061Y-123147000D01*
X167405939Y-123147000D01*
X167605898Y-123107226D01*
X167751295Y-123047000D01*
X172807154Y-123047000D01*
X172691286Y-123082148D01*
X172407249Y-123233969D01*
X172158286Y-123438286D01*
X171953969Y-123687248D01*
X171802148Y-123971285D01*
X171708657Y-124279484D01*
X171685000Y-124519678D01*
X171685000Y-125280321D01*
X171708657Y-125520515D01*
X171802148Y-125828714D01*
X171953969Y-126112751D01*
X172158286Y-126361714D01*
X172407248Y-126566031D01*
X172691285Y-126717852D01*
X172999484Y-126811343D01*
X173320000Y-126842911D01*
X173640515Y-126811343D01*
X173948714Y-126717852D01*
X174232751Y-126566031D01*
X174286883Y-126521606D01*
X174208657Y-126779484D01*
X174185000Y-127019678D01*
X174185000Y-127780321D01*
X174208657Y-128020515D01*
X174302148Y-128328714D01*
X174453969Y-128612751D01*
X174658286Y-128861714D01*
X174907248Y-129066031D01*
X175191285Y-129217852D01*
X175499484Y-129311343D01*
X175820000Y-129342911D01*
X176140515Y-129311343D01*
X176448714Y-129217852D01*
X176732751Y-129066031D01*
X176981714Y-128861714D01*
X177186031Y-128612752D01*
X177337852Y-128328715D01*
X177431343Y-128020516D01*
X177455000Y-127780322D01*
X177455000Y-127019679D01*
X177431343Y-126779485D01*
X177337852Y-126471285D01*
X177186031Y-126187248D01*
X176981714Y-125938286D01*
X176732752Y-125733969D01*
X176448715Y-125582148D01*
X176140516Y-125488657D01*
X175820000Y-125457089D01*
X175499485Y-125488657D01*
X175191286Y-125582148D01*
X174907249Y-125733969D01*
X174853117Y-125778394D01*
X174931343Y-125520516D01*
X174955000Y-125280322D01*
X174955000Y-124519679D01*
X174931343Y-124279485D01*
X174837852Y-123971285D01*
X174686031Y-123687248D01*
X174481714Y-123438286D01*
X174232752Y-123233969D01*
X173948715Y-123082148D01*
X173832847Y-123047000D01*
X175298711Y-123047000D01*
X177024370Y-124772659D01*
X177053656Y-124808344D01*
X177196028Y-124925186D01*
X177358460Y-125012007D01*
X177534708Y-125065471D01*
X177718000Y-125083524D01*
X177763932Y-125079000D01*
X182686419Y-125079000D01*
X182572495Y-125172495D01*
X182180731Y-125649861D01*
X181889624Y-126194484D01*
X181710362Y-126785434D01*
X181665000Y-127245999D01*
X181665000Y-129554002D01*
X181710362Y-130014567D01*
X181889624Y-130605517D01*
X182180731Y-131150140D01*
X182572496Y-131627505D01*
X183049861Y-132019269D01*
X183594484Y-132310376D01*
X184185434Y-132489638D01*
X184800000Y-132550168D01*
X185414567Y-132489638D01*
X186005517Y-132310376D01*
X186550140Y-132019269D01*
X187027505Y-131627505D01*
X187419269Y-131150140D01*
X187710376Y-130605517D01*
X187889638Y-130014567D01*
X187935000Y-129554002D01*
X187935000Y-127245998D01*
X187889638Y-126785433D01*
X187710376Y-126194483D01*
X187419269Y-125649860D01*
X187027505Y-125172495D01*
X186913581Y-125079000D01*
X187496711Y-125079000D01*
X188675208Y-126257497D01*
X188665000Y-126308816D01*
X188665000Y-126611184D01*
X188723989Y-126907743D01*
X188839701Y-127187095D01*
X189007688Y-127438505D01*
X189074127Y-127504944D01*
X189055820Y-127510498D01*
X188945506Y-127569463D01*
X188848815Y-127648815D01*
X188769463Y-127745506D01*
X188710498Y-127855820D01*
X188674188Y-127975518D01*
X188661928Y-128100000D01*
X188661928Y-129900000D01*
X188674188Y-130024482D01*
X188710498Y-130144180D01*
X188769463Y-130254494D01*
X188848815Y-130351185D01*
X188945506Y-130430537D01*
X189055820Y-130489502D01*
X189175518Y-130525812D01*
X189300000Y-130538072D01*
X191100000Y-130538072D01*
X191224482Y-130525812D01*
X191344180Y-130489502D01*
X191454494Y-130430537D01*
X191551185Y-130351185D01*
X191630537Y-130254494D01*
X191689502Y-130144180D01*
X191725812Y-130024482D01*
X191738072Y-129900000D01*
X191738072Y-128100000D01*
X191725812Y-127975518D01*
X191689502Y-127855820D01*
X191630537Y-127745506D01*
X191551185Y-127648815D01*
X191454494Y-127569463D01*
X191344180Y-127510498D01*
X191325873Y-127504944D01*
X191392312Y-127438505D01*
X191560299Y-127187095D01*
X191676011Y-126907743D01*
X191735000Y-126611184D01*
X191735000Y-126308816D01*
X191676011Y-126012257D01*
X191560299Y-125732905D01*
X191392312Y-125481495D01*
X191178505Y-125267688D01*
X190927095Y-125099701D01*
X190647743Y-124983989D01*
X190351184Y-124925000D01*
X190048816Y-124925000D01*
X189997497Y-124935208D01*
X188577630Y-123515341D01*
X188548344Y-123479656D01*
X188405972Y-123362814D01*
X188243540Y-123275993D01*
X188067292Y-123222529D01*
X187929932Y-123209000D01*
X187884000Y-123204476D01*
X187838068Y-123209000D01*
X185174939Y-123209000D01*
X185217852Y-123128715D01*
X185311343Y-122820516D01*
X185342911Y-122500000D01*
X185311343Y-122179484D01*
X185217852Y-121871285D01*
X185066031Y-121587248D01*
X184861714Y-121338286D01*
X184612752Y-121133969D01*
X184328715Y-120982148D01*
X184020516Y-120888657D01*
X183780322Y-120865000D01*
X183019678Y-120865000D01*
X182779484Y-120888657D01*
X182521607Y-120966883D01*
X182566031Y-120912752D01*
X182717852Y-120628715D01*
X182811343Y-120320516D01*
X182842911Y-120000000D01*
X182811343Y-119679484D01*
X182717852Y-119371285D01*
X182566031Y-119087248D01*
X182361714Y-118838286D01*
X182112752Y-118633969D01*
X181828715Y-118482148D01*
X181520516Y-118388657D01*
X181280322Y-118365000D01*
X180519678Y-118365000D01*
X180279484Y-118388657D01*
X179971285Y-118482148D01*
X179687248Y-118633969D01*
X179438286Y-118838286D01*
X179233969Y-119087248D01*
X179082148Y-119371285D01*
X178988657Y-119679484D01*
X178957089Y-120000000D01*
X178988657Y-120320516D01*
X179082148Y-120628715D01*
X179233969Y-120912752D01*
X179438286Y-121161714D01*
X179687248Y-121366031D01*
X179971285Y-121517852D01*
X180279484Y-121611343D01*
X180519678Y-121635000D01*
X181280322Y-121635000D01*
X181520516Y-121611343D01*
X181778393Y-121533117D01*
X181733969Y-121587248D01*
X181582148Y-121871285D01*
X181488657Y-122179484D01*
X181457089Y-122500000D01*
X181488657Y-122820516D01*
X181582148Y-123128715D01*
X181625061Y-123209000D01*
X178105289Y-123209000D01*
X176379630Y-121483341D01*
X176350344Y-121447656D01*
X176207972Y-121330814D01*
X176045540Y-121243993D01*
X175869292Y-121190529D01*
X175731932Y-121177000D01*
X175686000Y-121172476D01*
X175640068Y-121177000D01*
X167751295Y-121177000D01*
X167605898Y-121116774D01*
X167405939Y-121077000D01*
X167202061Y-121077000D01*
X167002102Y-121116774D01*
X166856705Y-121177000D01*
X149717295Y-121177000D01*
X149571898Y-121116774D01*
X149371939Y-121077000D01*
X149168061Y-121077000D01*
X148968102Y-121116774D01*
X148822705Y-121177000D01*
X144671867Y-121177000D01*
X145306582Y-120542286D01*
X145400665Y-120561000D01*
X145683335Y-120561000D01*
X145960574Y-120505853D01*
X146221727Y-120397680D01*
X146456759Y-120240637D01*
X146656637Y-120040759D01*
X146812000Y-119808241D01*
X146967363Y-120040759D01*
X147167241Y-120240637D01*
X147402273Y-120397680D01*
X147663426Y-120505853D01*
X147940665Y-120561000D01*
X148223335Y-120561000D01*
X148500574Y-120505853D01*
X148761727Y-120397680D01*
X148996759Y-120240637D01*
X149196637Y-120040759D01*
X149352000Y-119808241D01*
X149507363Y-120040759D01*
X149707241Y-120240637D01*
X149942273Y-120397680D01*
X150203426Y-120505853D01*
X150480665Y-120561000D01*
X150763335Y-120561000D01*
X151040574Y-120505853D01*
X151301727Y-120397680D01*
X151536759Y-120240637D01*
X151736637Y-120040759D01*
X151892000Y-119808241D01*
X152047363Y-120040759D01*
X152247241Y-120240637D01*
X152482273Y-120397680D01*
X152743426Y-120505853D01*
X153020665Y-120561000D01*
X153303335Y-120561000D01*
X153580574Y-120505853D01*
X153841727Y-120397680D01*
X154076759Y-120240637D01*
X154276637Y-120040759D01*
X154432000Y-119808241D01*
X154587363Y-120040759D01*
X154787241Y-120240637D01*
X155022273Y-120397680D01*
X155283426Y-120505853D01*
X155560665Y-120561000D01*
X155843335Y-120561000D01*
X156120574Y-120505853D01*
X156381727Y-120397680D01*
X156616759Y-120240637D01*
X156816637Y-120040759D01*
X156973680Y-119805727D01*
X156978067Y-119795135D01*
X157089615Y-119981131D01*
X157278586Y-120189519D01*
X157504580Y-120357037D01*
X157758913Y-120477246D01*
X157892961Y-120517904D01*
X158115000Y-120395915D01*
X158115000Y-119253000D01*
X158369000Y-119253000D01*
X158369000Y-120395915D01*
X158591039Y-120517904D01*
X158725087Y-120477246D01*
X158979420Y-120357037D01*
X159205414Y-120189519D01*
X159394385Y-119981131D01*
X159539070Y-119739881D01*
X159625834Y-119497589D01*
X171843000Y-119497589D01*
X171843000Y-119770411D01*
X171896225Y-120037989D01*
X172000629Y-120290043D01*
X172152201Y-120516886D01*
X172345114Y-120709799D01*
X172571957Y-120861371D01*
X172824011Y-120965775D01*
X173091589Y-121019000D01*
X173364411Y-121019000D01*
X173631989Y-120965775D01*
X173884043Y-120861371D01*
X174110886Y-120709799D01*
X174303799Y-120516886D01*
X174455371Y-120290043D01*
X174559775Y-120037989D01*
X174613000Y-119770411D01*
X174613000Y-119497589D01*
X174559775Y-119230011D01*
X174455371Y-118977957D01*
X174303799Y-118751114D01*
X174110886Y-118558201D01*
X173884043Y-118406629D01*
X173631989Y-118302225D01*
X173364411Y-118249000D01*
X173091589Y-118249000D01*
X172824011Y-118302225D01*
X172571957Y-118406629D01*
X172345114Y-118558201D01*
X172152201Y-118751114D01*
X172000629Y-118977957D01*
X171896225Y-119230011D01*
X171843000Y-119497589D01*
X159625834Y-119497589D01*
X159633909Y-119475040D01*
X159512624Y-119253000D01*
X158369000Y-119253000D01*
X158115000Y-119253000D01*
X158095000Y-119253000D01*
X158095000Y-118999000D01*
X158115000Y-118999000D01*
X158115000Y-117856085D01*
X158369000Y-117856085D01*
X158369000Y-118999000D01*
X159512624Y-118999000D01*
X159633909Y-118776960D01*
X159539070Y-118512119D01*
X159394385Y-118270869D01*
X159205414Y-118062481D01*
X158979420Y-117894963D01*
X158725087Y-117774754D01*
X158591039Y-117734096D01*
X158369000Y-117856085D01*
X158115000Y-117856085D01*
X157892961Y-117734096D01*
X157758913Y-117774754D01*
X157504580Y-117894963D01*
X157278586Y-118062481D01*
X157089615Y-118270869D01*
X156978067Y-118456865D01*
X156973680Y-118446273D01*
X156816637Y-118211241D01*
X156616759Y-118011363D01*
X156381727Y-117854320D01*
X156120574Y-117746147D01*
X155843335Y-117691000D01*
X155560665Y-117691000D01*
X155283426Y-117746147D01*
X155022273Y-117854320D01*
X154787241Y-118011363D01*
X154587363Y-118211241D01*
X154432000Y-118443759D01*
X154276637Y-118211241D01*
X154076759Y-118011363D01*
X153841727Y-117854320D01*
X153580574Y-117746147D01*
X153303335Y-117691000D01*
X153020665Y-117691000D01*
X152743426Y-117746147D01*
X152482273Y-117854320D01*
X152247241Y-118011363D01*
X152047363Y-118211241D01*
X151892000Y-118443759D01*
X151736637Y-118211241D01*
X151536759Y-118011363D01*
X151301727Y-117854320D01*
X151040574Y-117746147D01*
X150763335Y-117691000D01*
X150480665Y-117691000D01*
X150203426Y-117746147D01*
X149942273Y-117854320D01*
X149707241Y-118011363D01*
X149507363Y-118211241D01*
X149352000Y-118443759D01*
X149196637Y-118211241D01*
X148996759Y-118011363D01*
X148761727Y-117854320D01*
X148500574Y-117746147D01*
X148223335Y-117691000D01*
X147940665Y-117691000D01*
X147663426Y-117746147D01*
X147402273Y-117854320D01*
X147167241Y-118011363D01*
X146967363Y-118211241D01*
X146812000Y-118443759D01*
X146656637Y-118211241D01*
X146456759Y-118011363D01*
X146221727Y-117854320D01*
X145960574Y-117746147D01*
X145683335Y-117691000D01*
X145400665Y-117691000D01*
X145123426Y-117746147D01*
X144862273Y-117854320D01*
X144627241Y-118011363D01*
X144428643Y-118209961D01*
X144427812Y-118201518D01*
X144391502Y-118081820D01*
X144332537Y-117971506D01*
X144253185Y-117874815D01*
X144156494Y-117795463D01*
X144046180Y-117736498D01*
X143926482Y-117700188D01*
X143802000Y-117687928D01*
X142202000Y-117687928D01*
X142077518Y-117700188D01*
X141957820Y-117736498D01*
X141847506Y-117795463D01*
X141750815Y-117874815D01*
X141671463Y-117971506D01*
X141612498Y-118081820D01*
X141576188Y-118201518D01*
X141563928Y-118326000D01*
X141563928Y-119926000D01*
X141571906Y-120007000D01*
X127721015Y-120007000D01*
X127679999Y-120002960D01*
X127638983Y-120007000D01*
X127638981Y-120007000D01*
X127516311Y-120019082D01*
X127358913Y-120066828D01*
X127213854Y-120144364D01*
X127086709Y-120248709D01*
X127060561Y-120280571D01*
X126253225Y-121087907D01*
X126108102Y-121116774D01*
X125919744Y-121194795D01*
X125750226Y-121308063D01*
X125606063Y-121452226D01*
X125492795Y-121621744D01*
X125414774Y-121810102D01*
X125375000Y-122010061D01*
X100660000Y-122010061D01*
X100660000Y-119800000D01*
X107657573Y-119800000D01*
X107687210Y-120100913D01*
X107774983Y-120390261D01*
X107917519Y-120656927D01*
X108109339Y-120890661D01*
X108343073Y-121082481D01*
X108609739Y-121225017D01*
X108899087Y-121312790D01*
X109124592Y-121335000D01*
X111475408Y-121335000D01*
X111700913Y-121312790D01*
X111990261Y-121225017D01*
X112256927Y-121082481D01*
X112490661Y-120890661D01*
X112682481Y-120656927D01*
X112825017Y-120390261D01*
X112912790Y-120100913D01*
X112942427Y-119800000D01*
X112912790Y-119499087D01*
X112825017Y-119209739D01*
X112682481Y-118943073D01*
X112490661Y-118709339D01*
X112256927Y-118517519D01*
X111990261Y-118374983D01*
X111700913Y-118287210D01*
X111475408Y-118265000D01*
X109124592Y-118265000D01*
X108899087Y-118287210D01*
X108609739Y-118374983D01*
X108343073Y-118517519D01*
X108109339Y-118709339D01*
X107917519Y-118943073D01*
X107774983Y-119209739D01*
X107687210Y-119499087D01*
X107657573Y-119800000D01*
X100660000Y-119800000D01*
X100660000Y-116175407D01*
X105965000Y-116175407D01*
X105987210Y-116400912D01*
X106074983Y-116690260D01*
X106217519Y-116956926D01*
X106409339Y-117190661D01*
X106643073Y-117382481D01*
X106909739Y-117525017D01*
X107199087Y-117612790D01*
X107500000Y-117642427D01*
X107800912Y-117612790D01*
X108090260Y-117525017D01*
X108356926Y-117382481D01*
X108590661Y-117190661D01*
X108782481Y-116956927D01*
X108925017Y-116690261D01*
X109012790Y-116400913D01*
X109035000Y-116175408D01*
X109035000Y-113824592D01*
X109012790Y-113599087D01*
X108925017Y-113309739D01*
X108782481Y-113043073D01*
X108590661Y-112809339D01*
X108579282Y-112800000D01*
X111761928Y-112800000D01*
X111761928Y-117200000D01*
X111774188Y-117324482D01*
X111810498Y-117444180D01*
X111869463Y-117554494D01*
X111948815Y-117651185D01*
X112045506Y-117730537D01*
X112155820Y-117789502D01*
X112275518Y-117825812D01*
X112400000Y-117838072D01*
X114200000Y-117838072D01*
X114324482Y-117825812D01*
X114444180Y-117789502D01*
X114554494Y-117730537D01*
X114651185Y-117651185D01*
X114730537Y-117554494D01*
X114789502Y-117444180D01*
X114825812Y-117324482D01*
X114838072Y-117200000D01*
X114838072Y-116602000D01*
X119059428Y-116602000D01*
X119059428Y-118602000D01*
X119071688Y-118726482D01*
X119107998Y-118846180D01*
X119166963Y-118956494D01*
X119246315Y-119053185D01*
X119343006Y-119132537D01*
X119453320Y-119191502D01*
X119573018Y-119227812D01*
X119697500Y-119240072D01*
X121602500Y-119240072D01*
X121726982Y-119227812D01*
X121846680Y-119191502D01*
X121956994Y-119132537D01*
X122053685Y-119053185D01*
X122133037Y-118956494D01*
X122182059Y-118864781D01*
X122323077Y-118977969D01*
X122598906Y-119121571D01*
X122817020Y-119192563D01*
X123063000Y-119072594D01*
X123063000Y-117729000D01*
X123043000Y-117729000D01*
X123043000Y-117475000D01*
X123063000Y-117475000D01*
X123063000Y-116131406D01*
X123317000Y-116131406D01*
X123317000Y-117475000D01*
X123337000Y-117475000D01*
X123337000Y-117729000D01*
X123317000Y-117729000D01*
X123317000Y-119072594D01*
X123562980Y-119192563D01*
X123781094Y-119121571D01*
X124056923Y-118977969D01*
X124299437Y-118783315D01*
X124454837Y-118598101D01*
X124602037Y-118777463D01*
X124843766Y-118975845D01*
X125119552Y-119123255D01*
X125418797Y-119214030D01*
X125730000Y-119244681D01*
X126041204Y-119214030D01*
X126340449Y-119123255D01*
X126616235Y-118975845D01*
X126857963Y-118777463D01*
X127056345Y-118535734D01*
X127203755Y-118259948D01*
X127294530Y-117960703D01*
X127317500Y-117727485D01*
X127317500Y-117476514D01*
X127294530Y-117243296D01*
X127203755Y-116944051D01*
X127056345Y-116668265D01*
X126857963Y-116426537D01*
X126616234Y-116228155D01*
X126340448Y-116080745D01*
X126041203Y-115989970D01*
X125730000Y-115959319D01*
X125418796Y-115989970D01*
X125119551Y-116080745D01*
X124843765Y-116228155D01*
X124602037Y-116426537D01*
X124454838Y-116605900D01*
X124299437Y-116420685D01*
X124056923Y-116226031D01*
X123781094Y-116082429D01*
X123562980Y-116011437D01*
X123317000Y-116131406D01*
X123063000Y-116131406D01*
X122817020Y-116011437D01*
X122598906Y-116082429D01*
X122323077Y-116226031D01*
X122182059Y-116339219D01*
X122133037Y-116247506D01*
X122053685Y-116150815D01*
X121956994Y-116071463D01*
X121846680Y-116012498D01*
X121726982Y-115976188D01*
X121602500Y-115963928D01*
X119697500Y-115963928D01*
X119573018Y-115976188D01*
X119453320Y-116012498D01*
X119343006Y-116071463D01*
X119246315Y-116150815D01*
X119166963Y-116247506D01*
X119107998Y-116357820D01*
X119071688Y-116477518D01*
X119059428Y-116602000D01*
X114838072Y-116602000D01*
X114838072Y-115934438D01*
X131349505Y-115934438D01*
X131388605Y-116174549D01*
X131473798Y-116402418D01*
X131514652Y-116478852D01*
X131738234Y-116526158D01*
X131621128Y-116643264D01*
X131679006Y-116701142D01*
X131633506Y-116725463D01*
X131536815Y-116804815D01*
X131457463Y-116901506D01*
X131398498Y-117011820D01*
X131362188Y-117131518D01*
X131349928Y-117256000D01*
X131349928Y-118456000D01*
X131362188Y-118580482D01*
X131398498Y-118700180D01*
X131457463Y-118810494D01*
X131536815Y-118907185D01*
X131633506Y-118986537D01*
X131743820Y-119045502D01*
X131863518Y-119081812D01*
X131988000Y-119094072D01*
X133188000Y-119094072D01*
X133312482Y-119081812D01*
X133432180Y-119045502D01*
X133542494Y-118986537D01*
X133639185Y-118907185D01*
X133718537Y-118810494D01*
X133777502Y-118700180D01*
X133813812Y-118580482D01*
X133826072Y-118456000D01*
X133826072Y-117256000D01*
X133813812Y-117131518D01*
X133792821Y-117062317D01*
X191615000Y-117062317D01*
X191615000Y-117937682D01*
X191640828Y-118199920D01*
X191742896Y-118536394D01*
X191857071Y-118750000D01*
X191742896Y-118963605D01*
X191640828Y-119300079D01*
X191615000Y-119562317D01*
X191615000Y-120437682D01*
X191640828Y-120699920D01*
X191742896Y-121036394D01*
X191908646Y-121346490D01*
X192131708Y-121618292D01*
X192403509Y-121841354D01*
X192713605Y-122007104D01*
X193050079Y-122109172D01*
X193400000Y-122143636D01*
X193749920Y-122109172D01*
X194086394Y-122007104D01*
X194396490Y-121841354D01*
X194668292Y-121618292D01*
X194891354Y-121346491D01*
X195057104Y-121036395D01*
X195159172Y-120699921D01*
X195185000Y-120437683D01*
X195185000Y-119562318D01*
X195159172Y-119300079D01*
X195057104Y-118963605D01*
X194942930Y-118750000D01*
X195057104Y-118536395D01*
X195159172Y-118199921D01*
X195185000Y-117937683D01*
X195185000Y-117062318D01*
X195159172Y-116800079D01*
X195057104Y-116463605D01*
X194891354Y-116153509D01*
X194668292Y-115881708D01*
X194396491Y-115658646D01*
X194086395Y-115492896D01*
X193749921Y-115390828D01*
X193400000Y-115356364D01*
X193050080Y-115390828D01*
X192713606Y-115492896D01*
X192403510Y-115658646D01*
X192131709Y-115881708D01*
X191908646Y-116153509D01*
X191742896Y-116463605D01*
X191640828Y-116800079D01*
X191615000Y-117062317D01*
X133792821Y-117062317D01*
X133777502Y-117011820D01*
X133718537Y-116901506D01*
X133639185Y-116804815D01*
X133542494Y-116725463D01*
X133496994Y-116701142D01*
X133554872Y-116643264D01*
X133437766Y-116526158D01*
X133661348Y-116478852D01*
X133762237Y-116257484D01*
X133818000Y-116020687D01*
X133826495Y-115777562D01*
X133787395Y-115537451D01*
X133702202Y-115309582D01*
X133661348Y-115233148D01*
X133437764Y-115185841D01*
X132767605Y-115856000D01*
X132781748Y-115870143D01*
X132602143Y-116049748D01*
X132588000Y-116035605D01*
X132573858Y-116049748D01*
X132394253Y-115870143D01*
X132408395Y-115856000D01*
X131738236Y-115185841D01*
X131514652Y-115233148D01*
X131413763Y-115454516D01*
X131358000Y-115691313D01*
X131349505Y-115934438D01*
X114838072Y-115934438D01*
X114838072Y-115006236D01*
X131917841Y-115006236D01*
X132588000Y-115676395D01*
X133258159Y-115006236D01*
X133256840Y-115000000D01*
X181457089Y-115000000D01*
X181488657Y-115320516D01*
X181582148Y-115628715D01*
X181733969Y-115912752D01*
X181938286Y-116161714D01*
X182187248Y-116366031D01*
X182471285Y-116517852D01*
X182779484Y-116611343D01*
X183019678Y-116635000D01*
X183780322Y-116635000D01*
X184020516Y-116611343D01*
X184328715Y-116517852D01*
X184612752Y-116366031D01*
X184861714Y-116161714D01*
X185066031Y-115912752D01*
X185217852Y-115628715D01*
X185311343Y-115320516D01*
X185342911Y-115000000D01*
X185311343Y-114679484D01*
X185217852Y-114371285D01*
X185066031Y-114087248D01*
X184861714Y-113838286D01*
X184612752Y-113633969D01*
X184328715Y-113482148D01*
X184020516Y-113388657D01*
X183780322Y-113365000D01*
X183019678Y-113365000D01*
X182779484Y-113388657D01*
X182471285Y-113482148D01*
X182187248Y-113633969D01*
X181938286Y-113838286D01*
X181733969Y-114087248D01*
X181582148Y-114371285D01*
X181488657Y-114679484D01*
X181457089Y-115000000D01*
X133256840Y-115000000D01*
X133210852Y-114782652D01*
X132989484Y-114681763D01*
X132752687Y-114626000D01*
X132509562Y-114617505D01*
X132269451Y-114656605D01*
X132041582Y-114741798D01*
X131965148Y-114782652D01*
X131917841Y-115006236D01*
X114838072Y-115006236D01*
X114838072Y-112800000D01*
X114825812Y-112675518D01*
X114789502Y-112555820D01*
X114730537Y-112445506D01*
X114651185Y-112348815D01*
X114554494Y-112269463D01*
X114444180Y-112210498D01*
X114324482Y-112174188D01*
X114200000Y-112161928D01*
X112400000Y-112161928D01*
X112275518Y-112174188D01*
X112155820Y-112210498D01*
X112045506Y-112269463D01*
X111948815Y-112348815D01*
X111869463Y-112445506D01*
X111810498Y-112555820D01*
X111774188Y-112675518D01*
X111761928Y-112800000D01*
X108579282Y-112800000D01*
X108356927Y-112617519D01*
X108090261Y-112474983D01*
X107800913Y-112387210D01*
X107500000Y-112357573D01*
X107199088Y-112387210D01*
X106909740Y-112474983D01*
X106643074Y-112617519D01*
X106409340Y-112809339D01*
X106217520Y-113043073D01*
X106074984Y-113309739D01*
X105987211Y-113599087D01*
X105965001Y-113824592D01*
X105965000Y-116175407D01*
X100660000Y-116175407D01*
X100660000Y-111364665D01*
X141567000Y-111364665D01*
X141567000Y-111647335D01*
X141622147Y-111924574D01*
X141730320Y-112185727D01*
X141887363Y-112420759D01*
X142087241Y-112620637D01*
X142322273Y-112777680D01*
X142583426Y-112885853D01*
X142860665Y-112941000D01*
X143143335Y-112941000D01*
X143420574Y-112885853D01*
X143681727Y-112777680D01*
X143916759Y-112620637D01*
X144116637Y-112420759D01*
X144272000Y-112188241D01*
X144427363Y-112420759D01*
X144627241Y-112620637D01*
X144862273Y-112777680D01*
X145123426Y-112885853D01*
X145400665Y-112941000D01*
X145683335Y-112941000D01*
X145960574Y-112885853D01*
X146221727Y-112777680D01*
X146456759Y-112620637D01*
X146656637Y-112420759D01*
X146812000Y-112188241D01*
X146967363Y-112420759D01*
X147167241Y-112620637D01*
X147402273Y-112777680D01*
X147663426Y-112885853D01*
X147940665Y-112941000D01*
X148223335Y-112941000D01*
X148500574Y-112885853D01*
X148761727Y-112777680D01*
X148996759Y-112620637D01*
X149196637Y-112420759D01*
X149352000Y-112188241D01*
X149507363Y-112420759D01*
X149707241Y-112620637D01*
X149942273Y-112777680D01*
X150203426Y-112885853D01*
X150480665Y-112941000D01*
X150763335Y-112941000D01*
X151040574Y-112885853D01*
X151301727Y-112777680D01*
X151536759Y-112620637D01*
X151736637Y-112420759D01*
X151892000Y-112188241D01*
X152047363Y-112420759D01*
X152247241Y-112620637D01*
X152482273Y-112777680D01*
X152743426Y-112885853D01*
X153020665Y-112941000D01*
X153303335Y-112941000D01*
X153580574Y-112885853D01*
X153841727Y-112777680D01*
X154076759Y-112620637D01*
X154276637Y-112420759D01*
X154432000Y-112188241D01*
X154587363Y-112420759D01*
X154787241Y-112620637D01*
X155022273Y-112777680D01*
X155283426Y-112885853D01*
X155560665Y-112941000D01*
X155843335Y-112941000D01*
X156120574Y-112885853D01*
X156381727Y-112777680D01*
X156616759Y-112620637D01*
X156816637Y-112420759D01*
X156972000Y-112188241D01*
X157127363Y-112420759D01*
X157327241Y-112620637D01*
X157562273Y-112777680D01*
X157823426Y-112885853D01*
X158100665Y-112941000D01*
X158383335Y-112941000D01*
X158660574Y-112885853D01*
X158921727Y-112777680D01*
X159156759Y-112620637D01*
X159356637Y-112420759D01*
X159513680Y-112185727D01*
X159621853Y-111924574D01*
X159677000Y-111647335D01*
X159677000Y-111364665D01*
X159656977Y-111264000D01*
X171839928Y-111264000D01*
X171839928Y-112764000D01*
X171852188Y-112888482D01*
X171888498Y-113008180D01*
X171947463Y-113118494D01*
X172026815Y-113215185D01*
X172123506Y-113294537D01*
X172233820Y-113353502D01*
X172353518Y-113389812D01*
X172478000Y-113402072D01*
X173978000Y-113402072D01*
X174102482Y-113389812D01*
X174222180Y-113353502D01*
X174332494Y-113294537D01*
X174429185Y-113215185D01*
X174508537Y-113118494D01*
X174567502Y-113008180D01*
X174603812Y-112888482D01*
X174616072Y-112764000D01*
X174616072Y-111264000D01*
X174603812Y-111139518D01*
X174567502Y-111019820D01*
X174508537Y-110909506D01*
X174429185Y-110812815D01*
X174332494Y-110733463D01*
X174222180Y-110674498D01*
X174102482Y-110638188D01*
X173978000Y-110625928D01*
X172478000Y-110625928D01*
X172353518Y-110638188D01*
X172233820Y-110674498D01*
X172123506Y-110733463D01*
X172026815Y-110812815D01*
X171947463Y-110909506D01*
X171888498Y-111019820D01*
X171852188Y-111139518D01*
X171839928Y-111264000D01*
X159656977Y-111264000D01*
X159621853Y-111087426D01*
X159513680Y-110826273D01*
X159356637Y-110591241D01*
X159156759Y-110391363D01*
X158921727Y-110234320D01*
X158660574Y-110126147D01*
X158383335Y-110071000D01*
X158100665Y-110071000D01*
X157823426Y-110126147D01*
X157562273Y-110234320D01*
X157327241Y-110391363D01*
X157127363Y-110591241D01*
X156972000Y-110823759D01*
X156816637Y-110591241D01*
X156616759Y-110391363D01*
X156381727Y-110234320D01*
X156120574Y-110126147D01*
X155843335Y-110071000D01*
X155560665Y-110071000D01*
X155283426Y-110126147D01*
X155022273Y-110234320D01*
X154787241Y-110391363D01*
X154587363Y-110591241D01*
X154432000Y-110823759D01*
X154276637Y-110591241D01*
X154076759Y-110391363D01*
X153841727Y-110234320D01*
X153580574Y-110126147D01*
X153303335Y-110071000D01*
X153020665Y-110071000D01*
X152743426Y-110126147D01*
X152482273Y-110234320D01*
X152247241Y-110391363D01*
X152047363Y-110591241D01*
X151892000Y-110823759D01*
X151736637Y-110591241D01*
X151536759Y-110391363D01*
X151301727Y-110234320D01*
X151040574Y-110126147D01*
X150763335Y-110071000D01*
X150480665Y-110071000D01*
X150203426Y-110126147D01*
X149942273Y-110234320D01*
X149707241Y-110391363D01*
X149507363Y-110591241D01*
X149352000Y-110823759D01*
X149196637Y-110591241D01*
X148996759Y-110391363D01*
X148761727Y-110234320D01*
X148500574Y-110126147D01*
X148223335Y-110071000D01*
X147940665Y-110071000D01*
X147663426Y-110126147D01*
X147402273Y-110234320D01*
X147167241Y-110391363D01*
X146967363Y-110591241D01*
X146812000Y-110823759D01*
X146656637Y-110591241D01*
X146456759Y-110391363D01*
X146221727Y-110234320D01*
X145960574Y-110126147D01*
X145683335Y-110071000D01*
X145400665Y-110071000D01*
X145123426Y-110126147D01*
X144862273Y-110234320D01*
X144627241Y-110391363D01*
X144427363Y-110591241D01*
X144272000Y-110823759D01*
X144116637Y-110591241D01*
X143916759Y-110391363D01*
X143681727Y-110234320D01*
X143420574Y-110126147D01*
X143143335Y-110071000D01*
X142860665Y-110071000D01*
X142583426Y-110126147D01*
X142322273Y-110234320D01*
X142087241Y-110391363D01*
X141887363Y-110591241D01*
X141730320Y-110826273D01*
X141622147Y-111087426D01*
X141567000Y-111364665D01*
X100660000Y-111364665D01*
X100660000Y-110000000D01*
X178957089Y-110000000D01*
X178988657Y-110320516D01*
X179082148Y-110628715D01*
X179233969Y-110912752D01*
X179438286Y-111161714D01*
X179687248Y-111366031D01*
X179971285Y-111517852D01*
X180279484Y-111611343D01*
X180519678Y-111635000D01*
X181280322Y-111635000D01*
X181520516Y-111611343D01*
X181828715Y-111517852D01*
X182112752Y-111366031D01*
X182361714Y-111161714D01*
X182566031Y-110912752D01*
X182717852Y-110628715D01*
X182811343Y-110320516D01*
X182842911Y-110000000D01*
X182811343Y-109679484D01*
X182775801Y-109562317D01*
X191615000Y-109562317D01*
X191615000Y-110437682D01*
X191640828Y-110699920D01*
X191742896Y-111036394D01*
X191857071Y-111250000D01*
X191742896Y-111463605D01*
X191640828Y-111800079D01*
X191615000Y-112062317D01*
X191615000Y-112937682D01*
X191640828Y-113199920D01*
X191742896Y-113536394D01*
X191908646Y-113846490D01*
X192131708Y-114118292D01*
X192403509Y-114341354D01*
X192713605Y-114507104D01*
X193050079Y-114609172D01*
X193400000Y-114643636D01*
X193749920Y-114609172D01*
X194086394Y-114507104D01*
X194396490Y-114341354D01*
X194668292Y-114118292D01*
X194891354Y-113846491D01*
X195057104Y-113536395D01*
X195159172Y-113199921D01*
X195185000Y-112937683D01*
X195185000Y-112062318D01*
X195159172Y-111800079D01*
X195057104Y-111463605D01*
X194942930Y-111250000D01*
X195057104Y-111036395D01*
X195159172Y-110699921D01*
X195185000Y-110437683D01*
X195185000Y-109562318D01*
X195159172Y-109300079D01*
X195057104Y-108963605D01*
X194891354Y-108653509D01*
X194668292Y-108381708D01*
X194396491Y-108158646D01*
X194086395Y-107992896D01*
X193749921Y-107890828D01*
X193400000Y-107856364D01*
X193050080Y-107890828D01*
X192713606Y-107992896D01*
X192403510Y-108158646D01*
X192131709Y-108381708D01*
X191908646Y-108653509D01*
X191742896Y-108963605D01*
X191640828Y-109300079D01*
X191615000Y-109562317D01*
X182775801Y-109562317D01*
X182717852Y-109371285D01*
X182566031Y-109087248D01*
X182521607Y-109033117D01*
X182779484Y-109111343D01*
X183019678Y-109135000D01*
X183780322Y-109135000D01*
X184020516Y-109111343D01*
X184328715Y-109017852D01*
X184612752Y-108866031D01*
X184861714Y-108661714D01*
X185066031Y-108412752D01*
X185217852Y-108128715D01*
X185311343Y-107820516D01*
X185342911Y-107500000D01*
X185311343Y-107179484D01*
X185217852Y-106871285D01*
X185066031Y-106587248D01*
X184861714Y-106338286D01*
X184612752Y-106133969D01*
X184328715Y-105982148D01*
X184020516Y-105888657D01*
X183780322Y-105865000D01*
X183019678Y-105865000D01*
X182779484Y-105888657D01*
X182471285Y-105982148D01*
X182187248Y-106133969D01*
X181938286Y-106338286D01*
X181733969Y-106587248D01*
X181582148Y-106871285D01*
X181488657Y-107179484D01*
X181457089Y-107500000D01*
X181488657Y-107820516D01*
X181582148Y-108128715D01*
X181733969Y-108412752D01*
X181778393Y-108466883D01*
X181520516Y-108388657D01*
X181280322Y-108365000D01*
X180519678Y-108365000D01*
X180279484Y-108388657D01*
X179971285Y-108482148D01*
X179687248Y-108633969D01*
X179438286Y-108838286D01*
X179233969Y-109087248D01*
X179082148Y-109371285D01*
X178988657Y-109679484D01*
X178957089Y-110000000D01*
X100660000Y-110000000D01*
X100660000Y-106908665D01*
X102995000Y-106908665D01*
X102995000Y-107191335D01*
X103050147Y-107468574D01*
X103158320Y-107729727D01*
X103315363Y-107964759D01*
X103515241Y-108164637D01*
X103750273Y-108321680D01*
X104011426Y-108429853D01*
X104288665Y-108485000D01*
X104571335Y-108485000D01*
X104848574Y-108429853D01*
X105109727Y-108321680D01*
X105344759Y-108164637D01*
X105544637Y-107964759D01*
X105701680Y-107729727D01*
X105809853Y-107468574D01*
X105865000Y-107191335D01*
X105865000Y-106908665D01*
X105809853Y-106631426D01*
X105701680Y-106370273D01*
X105621317Y-106250000D01*
X110611928Y-106250000D01*
X110611928Y-107850000D01*
X110624188Y-107974482D01*
X110660498Y-108094180D01*
X110719463Y-108204494D01*
X110798815Y-108301185D01*
X110895506Y-108380537D01*
X111005820Y-108439502D01*
X111125518Y-108475812D01*
X111250000Y-108488072D01*
X112850000Y-108488072D01*
X112974482Y-108475812D01*
X113094180Y-108439502D01*
X113204494Y-108380537D01*
X113301185Y-108301185D01*
X113380537Y-108204494D01*
X113439502Y-108094180D01*
X113475812Y-107974482D01*
X113488072Y-107850000D01*
X113488072Y-106250000D01*
X113475812Y-106125518D01*
X113439502Y-106005820D01*
X113380537Y-105895506D01*
X113301185Y-105798815D01*
X113204494Y-105719463D01*
X113094180Y-105660498D01*
X112974482Y-105624188D01*
X112850000Y-105611928D01*
X111250000Y-105611928D01*
X111125518Y-105624188D01*
X111005820Y-105660498D01*
X110895506Y-105719463D01*
X110798815Y-105798815D01*
X110719463Y-105895506D01*
X110660498Y-106005820D01*
X110624188Y-106125518D01*
X110611928Y-106250000D01*
X105621317Y-106250000D01*
X105544637Y-106135241D01*
X105344759Y-105935363D01*
X105109727Y-105778320D01*
X104848574Y-105670147D01*
X104571335Y-105615000D01*
X104288665Y-105615000D01*
X104011426Y-105670147D01*
X103750273Y-105778320D01*
X103515241Y-105935363D01*
X103315363Y-106135241D01*
X103158320Y-106370273D01*
X103050147Y-106631426D01*
X102995000Y-106908665D01*
X100660000Y-106908665D01*
X100660000Y-101828665D01*
X102995000Y-101828665D01*
X102995000Y-102111335D01*
X103050147Y-102388574D01*
X103158320Y-102649727D01*
X103315363Y-102884759D01*
X103515241Y-103084637D01*
X103750273Y-103241680D01*
X104011426Y-103349853D01*
X104288665Y-103405000D01*
X104571335Y-103405000D01*
X104848574Y-103349853D01*
X105109727Y-103241680D01*
X105344759Y-103084637D01*
X105544637Y-102884759D01*
X105701680Y-102649727D01*
X105809853Y-102388574D01*
X105823684Y-102319039D01*
X110658096Y-102319039D01*
X110698754Y-102453087D01*
X110818963Y-102707420D01*
X110986481Y-102933414D01*
X111194869Y-103122385D01*
X111436119Y-103267070D01*
X111700960Y-103361909D01*
X111923000Y-103240624D01*
X111923000Y-102097000D01*
X112177000Y-102097000D01*
X112177000Y-103240624D01*
X112399040Y-103361909D01*
X112663881Y-103267070D01*
X112905131Y-103122385D01*
X113113519Y-102933414D01*
X113281037Y-102707420D01*
X113401246Y-102453087D01*
X113441904Y-102319039D01*
X113387316Y-102219679D01*
X118545000Y-102219679D01*
X118545000Y-102980322D01*
X118568657Y-103220516D01*
X118662148Y-103528715D01*
X118813969Y-103812752D01*
X119018286Y-104061714D01*
X119267249Y-104266031D01*
X119551286Y-104417852D01*
X119859485Y-104511343D01*
X120180000Y-104542911D01*
X120500516Y-104511343D01*
X120808715Y-104417852D01*
X121092752Y-104266031D01*
X121146883Y-104221607D01*
X121068657Y-104479485D01*
X121045000Y-104719679D01*
X121045000Y-105480322D01*
X121068657Y-105720516D01*
X121162148Y-106028715D01*
X121313969Y-106312752D01*
X121518286Y-106561714D01*
X121767249Y-106766031D01*
X122051286Y-106917852D01*
X122359485Y-107011343D01*
X122680000Y-107042911D01*
X123000516Y-107011343D01*
X123308715Y-106917852D01*
X123592752Y-106766031D01*
X123841714Y-106561714D01*
X124046031Y-106312752D01*
X124197852Y-106028715D01*
X124291343Y-105720515D01*
X124315000Y-105480321D01*
X124315000Y-104719679D01*
X131045000Y-104719679D01*
X131045000Y-105480322D01*
X131068657Y-105720516D01*
X131162148Y-106028715D01*
X131313969Y-106312752D01*
X131518286Y-106561714D01*
X131767249Y-106766031D01*
X132051286Y-106917852D01*
X132359485Y-107011343D01*
X132680000Y-107042911D01*
X133000516Y-107011343D01*
X133308715Y-106917852D01*
X133592752Y-106766031D01*
X133841714Y-106561714D01*
X134046031Y-106312752D01*
X134197852Y-106028715D01*
X134291343Y-105720515D01*
X134315000Y-105480321D01*
X134315000Y-104719678D01*
X134291343Y-104479484D01*
X134213117Y-104221606D01*
X134267249Y-104266031D01*
X134551286Y-104417852D01*
X134859485Y-104511343D01*
X135180000Y-104542911D01*
X135500516Y-104511343D01*
X135808715Y-104417852D01*
X136092752Y-104266031D01*
X136341714Y-104061714D01*
X136546031Y-103812752D01*
X136697852Y-103528715D01*
X136791343Y-103220515D01*
X136815000Y-102980321D01*
X136815000Y-102219679D01*
X138865000Y-102219679D01*
X138865000Y-102980322D01*
X138888657Y-103220516D01*
X138982148Y-103528715D01*
X139133969Y-103812752D01*
X139338286Y-104061714D01*
X139587249Y-104266031D01*
X139871286Y-104417852D01*
X140179485Y-104511343D01*
X140500000Y-104542911D01*
X140820516Y-104511343D01*
X141128715Y-104417852D01*
X141412752Y-104266031D01*
X141466883Y-104221607D01*
X141388657Y-104479485D01*
X141365000Y-104719679D01*
X141365000Y-105480322D01*
X141388657Y-105720516D01*
X141482148Y-106028715D01*
X141633969Y-106312752D01*
X141838286Y-106561714D01*
X142087249Y-106766031D01*
X142371286Y-106917852D01*
X142679485Y-107011343D01*
X143000000Y-107042911D01*
X143320516Y-107011343D01*
X143628715Y-106917852D01*
X143912752Y-106766031D01*
X144161714Y-106561714D01*
X144366031Y-106312752D01*
X144517852Y-106028715D01*
X144611343Y-105720515D01*
X144635000Y-105480321D01*
X144635000Y-104719679D01*
X151365000Y-104719679D01*
X151365000Y-105480322D01*
X151388657Y-105720516D01*
X151482148Y-106028715D01*
X151633969Y-106312752D01*
X151838286Y-106561714D01*
X152087249Y-106766031D01*
X152371286Y-106917852D01*
X152679485Y-107011343D01*
X153000000Y-107042911D01*
X153320516Y-107011343D01*
X153628715Y-106917852D01*
X153912752Y-106766031D01*
X154161714Y-106561714D01*
X154366031Y-106312752D01*
X154517852Y-106028715D01*
X154611343Y-105720515D01*
X154635000Y-105480321D01*
X154635000Y-104719678D01*
X154611343Y-104479484D01*
X154533117Y-104221606D01*
X154587249Y-104266031D01*
X154871286Y-104417852D01*
X155179485Y-104511343D01*
X155500000Y-104542911D01*
X155820516Y-104511343D01*
X156128715Y-104417852D01*
X156412752Y-104266031D01*
X156661714Y-104061714D01*
X156866031Y-103812752D01*
X157017852Y-103528715D01*
X157111343Y-103220515D01*
X157135000Y-102980321D01*
X157135000Y-102219678D01*
X157111343Y-101979484D01*
X157017852Y-101671285D01*
X156866031Y-101387248D01*
X156661714Y-101138286D01*
X156412751Y-100933969D01*
X156128714Y-100782148D01*
X155820515Y-100688657D01*
X155500000Y-100657089D01*
X155179484Y-100688657D01*
X154871285Y-100782148D01*
X154587248Y-100933969D01*
X154338286Y-101138286D01*
X154133969Y-101387249D01*
X153982148Y-101671286D01*
X153888657Y-101979485D01*
X153865000Y-102219679D01*
X153865000Y-102980322D01*
X153888657Y-103220516D01*
X153966883Y-103478394D01*
X153912751Y-103433969D01*
X153628714Y-103282148D01*
X153320515Y-103188657D01*
X153000000Y-103157089D01*
X152679484Y-103188657D01*
X152371285Y-103282148D01*
X152087248Y-103433969D01*
X151838286Y-103638286D01*
X151633969Y-103887249D01*
X151482148Y-104171286D01*
X151388657Y-104479485D01*
X151365000Y-104719679D01*
X144635000Y-104719679D01*
X144635000Y-104719678D01*
X144611343Y-104479484D01*
X144517852Y-104171285D01*
X144366031Y-103887248D01*
X144161714Y-103638286D01*
X143912751Y-103433969D01*
X143628714Y-103282148D01*
X143320515Y-103188657D01*
X143000000Y-103157089D01*
X142679484Y-103188657D01*
X142371285Y-103282148D01*
X142087248Y-103433969D01*
X142033117Y-103478393D01*
X142111343Y-103220515D01*
X142135000Y-102980321D01*
X142135000Y-102727000D01*
X146365000Y-102727000D01*
X146365000Y-103027000D01*
X146421193Y-103343532D01*
X146538058Y-103643020D01*
X146711105Y-103913954D01*
X146933683Y-104145922D01*
X147197239Y-104330010D01*
X147491645Y-104459144D01*
X147619566Y-104490124D01*
X147873000Y-104370777D01*
X147873000Y-102727000D01*
X148127000Y-102727000D01*
X148127000Y-104370777D01*
X148380434Y-104490124D01*
X148508355Y-104459144D01*
X148802761Y-104330010D01*
X149066317Y-104145922D01*
X149288895Y-103913954D01*
X149461942Y-103643020D01*
X149578807Y-103343532D01*
X149635000Y-103027000D01*
X149635000Y-102727000D01*
X148127000Y-102727000D01*
X147873000Y-102727000D01*
X146365000Y-102727000D01*
X142135000Y-102727000D01*
X142135000Y-102219678D01*
X142130403Y-102173000D01*
X146365000Y-102173000D01*
X146365000Y-102473000D01*
X147873000Y-102473000D01*
X147873000Y-100829223D01*
X148127000Y-100829223D01*
X148127000Y-102473000D01*
X149635000Y-102473000D01*
X149635000Y-102173000D01*
X149578807Y-101856468D01*
X149461942Y-101556980D01*
X149288895Y-101286046D01*
X149066317Y-101054078D01*
X148802761Y-100869990D01*
X148508355Y-100740856D01*
X148380434Y-100709876D01*
X148127000Y-100829223D01*
X147873000Y-100829223D01*
X147619566Y-100709876D01*
X147491645Y-100740856D01*
X147197239Y-100869990D01*
X146933683Y-101054078D01*
X146711105Y-101286046D01*
X146538058Y-101556980D01*
X146421193Y-101856468D01*
X146365000Y-102173000D01*
X142130403Y-102173000D01*
X142111343Y-101979484D01*
X142017852Y-101671285D01*
X141866031Y-101387248D01*
X141661714Y-101138286D01*
X141412751Y-100933969D01*
X141128714Y-100782148D01*
X140820515Y-100688657D01*
X140500000Y-100657089D01*
X140179484Y-100688657D01*
X139871285Y-100782148D01*
X139587248Y-100933969D01*
X139338286Y-101138286D01*
X139133969Y-101387249D01*
X138982148Y-101671286D01*
X138888657Y-101979485D01*
X138865000Y-102219679D01*
X136815000Y-102219679D01*
X136815000Y-102219678D01*
X136791343Y-101979484D01*
X136697852Y-101671285D01*
X136546031Y-101387248D01*
X136341714Y-101138286D01*
X136092751Y-100933969D01*
X135808714Y-100782148D01*
X135500515Y-100688657D01*
X135180000Y-100657089D01*
X134859484Y-100688657D01*
X134551285Y-100782148D01*
X134267248Y-100933969D01*
X134018286Y-101138286D01*
X133813969Y-101387249D01*
X133662148Y-101671286D01*
X133568657Y-101979485D01*
X133545000Y-102219679D01*
X133545000Y-102980322D01*
X133568657Y-103220516D01*
X133646883Y-103478394D01*
X133592751Y-103433969D01*
X133308714Y-103282148D01*
X133000515Y-103188657D01*
X132680000Y-103157089D01*
X132359484Y-103188657D01*
X132051285Y-103282148D01*
X131767248Y-103433969D01*
X131518286Y-103638286D01*
X131313969Y-103887249D01*
X131162148Y-104171286D01*
X131068657Y-104479485D01*
X131045000Y-104719679D01*
X124315000Y-104719679D01*
X124315000Y-104719678D01*
X124291343Y-104479484D01*
X124197852Y-104171285D01*
X124046031Y-103887248D01*
X123841714Y-103638286D01*
X123592751Y-103433969D01*
X123308714Y-103282148D01*
X123000515Y-103188657D01*
X122680000Y-103157089D01*
X122359484Y-103188657D01*
X122051285Y-103282148D01*
X121767248Y-103433969D01*
X121713117Y-103478393D01*
X121791343Y-103220515D01*
X121815000Y-102980321D01*
X121815000Y-102727000D01*
X126045000Y-102727000D01*
X126045000Y-103027000D01*
X126101193Y-103343532D01*
X126218058Y-103643020D01*
X126391105Y-103913954D01*
X126613683Y-104145922D01*
X126877239Y-104330010D01*
X127171645Y-104459144D01*
X127299566Y-104490124D01*
X127553000Y-104370777D01*
X127553000Y-102727000D01*
X127807000Y-102727000D01*
X127807000Y-104370777D01*
X128060434Y-104490124D01*
X128188355Y-104459144D01*
X128482761Y-104330010D01*
X128746317Y-104145922D01*
X128968895Y-103913954D01*
X129141942Y-103643020D01*
X129258807Y-103343532D01*
X129315000Y-103027000D01*
X129315000Y-102727000D01*
X127807000Y-102727000D01*
X127553000Y-102727000D01*
X126045000Y-102727000D01*
X121815000Y-102727000D01*
X121815000Y-102219678D01*
X121810403Y-102173000D01*
X126045000Y-102173000D01*
X126045000Y-102473000D01*
X127553000Y-102473000D01*
X127553000Y-100829223D01*
X127807000Y-100829223D01*
X127807000Y-102473000D01*
X129315000Y-102473000D01*
X129315000Y-102173000D01*
X129258807Y-101856468D01*
X129141942Y-101556980D01*
X128968895Y-101286046D01*
X128746317Y-101054078D01*
X128482761Y-100869990D01*
X128188355Y-100740856D01*
X128060434Y-100709876D01*
X127807000Y-100829223D01*
X127553000Y-100829223D01*
X127299566Y-100709876D01*
X127171645Y-100740856D01*
X126877239Y-100869990D01*
X126613683Y-101054078D01*
X126391105Y-101286046D01*
X126218058Y-101556980D01*
X126101193Y-101856468D01*
X126045000Y-102173000D01*
X121810403Y-102173000D01*
X121791343Y-101979484D01*
X121697852Y-101671285D01*
X121546031Y-101387248D01*
X121341714Y-101138286D01*
X121092751Y-100933969D01*
X120808714Y-100782148D01*
X120500515Y-100688657D01*
X120180000Y-100657089D01*
X119859484Y-100688657D01*
X119551285Y-100782148D01*
X119267248Y-100933969D01*
X119018286Y-101138286D01*
X118813969Y-101387249D01*
X118662148Y-101671286D01*
X118568657Y-101979485D01*
X118545000Y-102219679D01*
X113387316Y-102219679D01*
X113319915Y-102097000D01*
X112177000Y-102097000D01*
X111923000Y-102097000D01*
X110780085Y-102097000D01*
X110658096Y-102319039D01*
X105823684Y-102319039D01*
X105865000Y-102111335D01*
X105865000Y-101828665D01*
X105823685Y-101620961D01*
X110658096Y-101620961D01*
X110780085Y-101843000D01*
X111923000Y-101843000D01*
X111923000Y-100699376D01*
X112177000Y-100699376D01*
X112177000Y-101843000D01*
X113319915Y-101843000D01*
X113441904Y-101620961D01*
X113401246Y-101486913D01*
X113281037Y-101232580D01*
X113113519Y-101006586D01*
X112905131Y-100817615D01*
X112663881Y-100672930D01*
X112399040Y-100578091D01*
X112177000Y-100699376D01*
X111923000Y-100699376D01*
X111700960Y-100578091D01*
X111436119Y-100672930D01*
X111194869Y-100817615D01*
X110986481Y-101006586D01*
X110818963Y-101232580D01*
X110698754Y-101486913D01*
X110658096Y-101620961D01*
X105823685Y-101620961D01*
X105809853Y-101551426D01*
X105701680Y-101290273D01*
X105544637Y-101055241D01*
X105344759Y-100855363D01*
X105109727Y-100698320D01*
X104848574Y-100590147D01*
X104571335Y-100535000D01*
X104288665Y-100535000D01*
X104011426Y-100590147D01*
X103750273Y-100698320D01*
X103515241Y-100855363D01*
X103315363Y-101055241D01*
X103158320Y-101290273D01*
X103050147Y-101551426D01*
X102995000Y-101828665D01*
X100660000Y-101828665D01*
X100660000Y-95579117D01*
X103515000Y-95579117D01*
X103515000Y-95920883D01*
X103581675Y-96256081D01*
X103712463Y-96571831D01*
X103902337Y-96855998D01*
X104144002Y-97097663D01*
X104428169Y-97287537D01*
X104743919Y-97418325D01*
X105079117Y-97485000D01*
X105420883Y-97485000D01*
X105756081Y-97418325D01*
X106071831Y-97287537D01*
X106355998Y-97097663D01*
X106597663Y-96855998D01*
X106787537Y-96571831D01*
X106918325Y-96256081D01*
X106985000Y-95920883D01*
X106985000Y-95579117D01*
X189015000Y-95579117D01*
X189015000Y-95920883D01*
X189081675Y-96256081D01*
X189212463Y-96571831D01*
X189402337Y-96855998D01*
X189644002Y-97097663D01*
X189928169Y-97287537D01*
X190243919Y-97418325D01*
X190579117Y-97485000D01*
X190920883Y-97485000D01*
X191256081Y-97418325D01*
X191571831Y-97287537D01*
X191855998Y-97097663D01*
X192097663Y-96855998D01*
X192287537Y-96571831D01*
X192418325Y-96256081D01*
X192485000Y-95920883D01*
X192485000Y-95579117D01*
X192418325Y-95243919D01*
X192287537Y-94928169D01*
X192097663Y-94644002D01*
X191855998Y-94402337D01*
X191571831Y-94212463D01*
X191256081Y-94081675D01*
X190920883Y-94015000D01*
X190579117Y-94015000D01*
X190243919Y-94081675D01*
X189928169Y-94212463D01*
X189644002Y-94402337D01*
X189402337Y-94644002D01*
X189212463Y-94928169D01*
X189081675Y-95243919D01*
X189015000Y-95579117D01*
X106985000Y-95579117D01*
X106918325Y-95243919D01*
X106787537Y-94928169D01*
X106597663Y-94644002D01*
X106355998Y-94402337D01*
X106071831Y-94212463D01*
X105756081Y-94081675D01*
X105420883Y-94015000D01*
X105079117Y-94015000D01*
X104743919Y-94081675D01*
X104428169Y-94212463D01*
X104144002Y-94402337D01*
X103902337Y-94644002D01*
X103712463Y-94928169D01*
X103581675Y-95243919D01*
X103515000Y-95579117D01*
X100660000Y-95579117D01*
X100660000Y-93032279D01*
X100702385Y-92600000D01*
X120536364Y-92600000D01*
X120570828Y-92949921D01*
X120672896Y-93286395D01*
X120838646Y-93596491D01*
X121061708Y-93868292D01*
X121333509Y-94091354D01*
X121643605Y-94257104D01*
X121980079Y-94359172D01*
X122242317Y-94385000D01*
X123117683Y-94385000D01*
X123379921Y-94359172D01*
X123716395Y-94257104D01*
X123930000Y-94142930D01*
X124143605Y-94257104D01*
X124480079Y-94359172D01*
X124742317Y-94385000D01*
X125617683Y-94385000D01*
X125879921Y-94359172D01*
X126216395Y-94257104D01*
X126526491Y-94091354D01*
X126798292Y-93868292D01*
X127021354Y-93596491D01*
X127187104Y-93286395D01*
X127289172Y-92949921D01*
X127323636Y-92600000D01*
X128036364Y-92600000D01*
X128070828Y-92949921D01*
X128172896Y-93286395D01*
X128338646Y-93596491D01*
X128561708Y-93868292D01*
X128833509Y-94091354D01*
X129143605Y-94257104D01*
X129480079Y-94359172D01*
X129742317Y-94385000D01*
X130617683Y-94385000D01*
X130879921Y-94359172D01*
X131216395Y-94257104D01*
X131430000Y-94142930D01*
X131643605Y-94257104D01*
X131980079Y-94359172D01*
X132242317Y-94385000D01*
X133117683Y-94385000D01*
X133379921Y-94359172D01*
X133716395Y-94257104D01*
X134026491Y-94091354D01*
X134298292Y-93868292D01*
X134521354Y-93596491D01*
X134687104Y-93286395D01*
X134789172Y-92949921D01*
X134823636Y-92600000D01*
X140856364Y-92600000D01*
X140890828Y-92949921D01*
X140992896Y-93286395D01*
X141158646Y-93596491D01*
X141381708Y-93868292D01*
X141653509Y-94091354D01*
X141963605Y-94257104D01*
X142300079Y-94359172D01*
X142562317Y-94385000D01*
X143437683Y-94385000D01*
X143699921Y-94359172D01*
X144036395Y-94257104D01*
X144250000Y-94142930D01*
X144463605Y-94257104D01*
X144800079Y-94359172D01*
X145062317Y-94385000D01*
X145937683Y-94385000D01*
X146199921Y-94359172D01*
X146536395Y-94257104D01*
X146846491Y-94091354D01*
X147118292Y-93868292D01*
X147341354Y-93596491D01*
X147507104Y-93286395D01*
X147609172Y-92949921D01*
X147643636Y-92600000D01*
X148356364Y-92600000D01*
X148390828Y-92949921D01*
X148492896Y-93286395D01*
X148658646Y-93596491D01*
X148881708Y-93868292D01*
X149153509Y-94091354D01*
X149463605Y-94257104D01*
X149800079Y-94359172D01*
X150062317Y-94385000D01*
X150937683Y-94385000D01*
X151199921Y-94359172D01*
X151536395Y-94257104D01*
X151750000Y-94142930D01*
X151963605Y-94257104D01*
X152300079Y-94359172D01*
X152562317Y-94385000D01*
X153437683Y-94385000D01*
X153699921Y-94359172D01*
X154036395Y-94257104D01*
X154346491Y-94091354D01*
X154618292Y-93868292D01*
X154841354Y-93596491D01*
X155007104Y-93286395D01*
X155109172Y-92949921D01*
X155143636Y-92600000D01*
X155109172Y-92250079D01*
X155007104Y-91913605D01*
X154841354Y-91603509D01*
X154618292Y-91331708D01*
X154346491Y-91108646D01*
X154036395Y-90942896D01*
X153699921Y-90840828D01*
X153437683Y-90815000D01*
X152562317Y-90815000D01*
X152300079Y-90840828D01*
X151963605Y-90942896D01*
X151750000Y-91057070D01*
X151536395Y-90942896D01*
X151199921Y-90840828D01*
X150937683Y-90815000D01*
X150062317Y-90815000D01*
X149800079Y-90840828D01*
X149463605Y-90942896D01*
X149153509Y-91108646D01*
X148881708Y-91331708D01*
X148658646Y-91603509D01*
X148492896Y-91913605D01*
X148390828Y-92250079D01*
X148356364Y-92600000D01*
X147643636Y-92600000D01*
X147609172Y-92250079D01*
X147507104Y-91913605D01*
X147341354Y-91603509D01*
X147118292Y-91331708D01*
X146846491Y-91108646D01*
X146536395Y-90942896D01*
X146199921Y-90840828D01*
X145937683Y-90815000D01*
X145062317Y-90815000D01*
X144800079Y-90840828D01*
X144463605Y-90942896D01*
X144250000Y-91057070D01*
X144036395Y-90942896D01*
X143699921Y-90840828D01*
X143437683Y-90815000D01*
X142562317Y-90815000D01*
X142300079Y-90840828D01*
X141963605Y-90942896D01*
X141653509Y-91108646D01*
X141381708Y-91331708D01*
X141158646Y-91603509D01*
X140992896Y-91913605D01*
X140890828Y-92250079D01*
X140856364Y-92600000D01*
X134823636Y-92600000D01*
X134789172Y-92250079D01*
X134687104Y-91913605D01*
X134521354Y-91603509D01*
X134298292Y-91331708D01*
X134026491Y-91108646D01*
X133716395Y-90942896D01*
X133379921Y-90840828D01*
X133117683Y-90815000D01*
X132242317Y-90815000D01*
X131980079Y-90840828D01*
X131643605Y-90942896D01*
X131430000Y-91057070D01*
X131216395Y-90942896D01*
X130879921Y-90840828D01*
X130617683Y-90815000D01*
X129742317Y-90815000D01*
X129480079Y-90840828D01*
X129143605Y-90942896D01*
X128833509Y-91108646D01*
X128561708Y-91331708D01*
X128338646Y-91603509D01*
X128172896Y-91913605D01*
X128070828Y-92250079D01*
X128036364Y-92600000D01*
X127323636Y-92600000D01*
X127289172Y-92250079D01*
X127187104Y-91913605D01*
X127021354Y-91603509D01*
X126798292Y-91331708D01*
X126526491Y-91108646D01*
X126216395Y-90942896D01*
X125879921Y-90840828D01*
X125617683Y-90815000D01*
X124742317Y-90815000D01*
X124480079Y-90840828D01*
X124143605Y-90942896D01*
X123930000Y-91057070D01*
X123716395Y-90942896D01*
X123379921Y-90840828D01*
X123117683Y-90815000D01*
X122242317Y-90815000D01*
X121980079Y-90840828D01*
X121643605Y-90942896D01*
X121333509Y-91108646D01*
X121061708Y-91331708D01*
X120838646Y-91603509D01*
X120672896Y-91913605D01*
X120570828Y-92250079D01*
X120536364Y-92600000D01*
X100702385Y-92600000D01*
X100707670Y-92546107D01*
X100839489Y-92109502D01*
X101053600Y-91706815D01*
X101341848Y-91353388D01*
X101693261Y-91062673D01*
X102094439Y-90845758D01*
X102530113Y-90710894D01*
X103014344Y-90660000D01*
X192967721Y-90660000D01*
X193453893Y-90707670D01*
G37*
X193453893Y-90707670D02*
X193890498Y-90839489D01*
X194293185Y-91053600D01*
X194646612Y-91341848D01*
X194937327Y-91693261D01*
X195154242Y-92094439D01*
X195289106Y-92530113D01*
X195340000Y-93014344D01*
X195340001Y-136967711D01*
X195292330Y-137453894D01*
X195160512Y-137890497D01*
X194946399Y-138293186D01*
X194658150Y-138646613D01*
X194306739Y-138937327D01*
X193905564Y-139154240D01*
X193469886Y-139289106D01*
X192985664Y-139340000D01*
X103032279Y-139340000D01*
X102546106Y-139292330D01*
X102109503Y-139160512D01*
X101706814Y-138946399D01*
X101353387Y-138658150D01*
X101062673Y-138306739D01*
X100845760Y-137905564D01*
X100710894Y-137469886D01*
X100703549Y-137400000D01*
X120536364Y-137400000D01*
X120570828Y-137749921D01*
X120672896Y-138086395D01*
X120838646Y-138396491D01*
X121061708Y-138668292D01*
X121333509Y-138891354D01*
X121643605Y-139057104D01*
X121980079Y-139159172D01*
X122242317Y-139185000D01*
X123117683Y-139185000D01*
X123379921Y-139159172D01*
X123716395Y-139057104D01*
X123930000Y-138942930D01*
X124143605Y-139057104D01*
X124480079Y-139159172D01*
X124742317Y-139185000D01*
X125617683Y-139185000D01*
X125879921Y-139159172D01*
X126216395Y-139057104D01*
X126526491Y-138891354D01*
X126798292Y-138668292D01*
X127021354Y-138396491D01*
X127187104Y-138086395D01*
X127289172Y-137749921D01*
X127323636Y-137400000D01*
X128036364Y-137400000D01*
X128070828Y-137749921D01*
X128172896Y-138086395D01*
X128338646Y-138396491D01*
X128561708Y-138668292D01*
X128833509Y-138891354D01*
X129143605Y-139057104D01*
X129480079Y-139159172D01*
X129742317Y-139185000D01*
X130617683Y-139185000D01*
X130879921Y-139159172D01*
X131216395Y-139057104D01*
X131430000Y-138942930D01*
X131643605Y-139057104D01*
X131980079Y-139159172D01*
X132242317Y-139185000D01*
X133117683Y-139185000D01*
X133379921Y-139159172D01*
X133716395Y-139057104D01*
X134026491Y-138891354D01*
X134298292Y-138668292D01*
X134521354Y-138396491D01*
X134687104Y-138086395D01*
X134789172Y-137749921D01*
X134823636Y-137400000D01*
X140856364Y-137400000D01*
X140890828Y-137749921D01*
X140992896Y-138086395D01*
X141158646Y-138396491D01*
X141381708Y-138668292D01*
X141653509Y-138891354D01*
X141963605Y-139057104D01*
X142300079Y-139159172D01*
X142562317Y-139185000D01*
X143437683Y-139185000D01*
X143699921Y-139159172D01*
X144036395Y-139057104D01*
X144250000Y-138942930D01*
X144463605Y-139057104D01*
X144800079Y-139159172D01*
X145062317Y-139185000D01*
X145937683Y-139185000D01*
X146199921Y-139159172D01*
X146536395Y-139057104D01*
X146846491Y-138891354D01*
X147118292Y-138668292D01*
X147341354Y-138396491D01*
X147507104Y-138086395D01*
X147609172Y-137749921D01*
X147643636Y-137400000D01*
X148356364Y-137400000D01*
X148390828Y-137749921D01*
X148492896Y-138086395D01*
X148658646Y-138396491D01*
X148881708Y-138668292D01*
X149153509Y-138891354D01*
X149463605Y-139057104D01*
X149800079Y-139159172D01*
X150062317Y-139185000D01*
X150937683Y-139185000D01*
X151199921Y-139159172D01*
X151536395Y-139057104D01*
X151750000Y-138942930D01*
X151963605Y-139057104D01*
X152300079Y-139159172D01*
X152562317Y-139185000D01*
X153437683Y-139185000D01*
X153699921Y-139159172D01*
X154036395Y-139057104D01*
X154346491Y-138891354D01*
X154618292Y-138668292D01*
X154841354Y-138396491D01*
X155007104Y-138086395D01*
X155109172Y-137749921D01*
X155143636Y-137400000D01*
X161176364Y-137400000D01*
X161210828Y-137749921D01*
X161312896Y-138086395D01*
X161478646Y-138396491D01*
X161701708Y-138668292D01*
X161973509Y-138891354D01*
X162283605Y-139057104D01*
X162620079Y-139159172D01*
X162882317Y-139185000D01*
X163757683Y-139185000D01*
X164019921Y-139159172D01*
X164356395Y-139057104D01*
X164570000Y-138942930D01*
X164783605Y-139057104D01*
X165120079Y-139159172D01*
X165382317Y-139185000D01*
X166257683Y-139185000D01*
X166519921Y-139159172D01*
X166856395Y-139057104D01*
X167166491Y-138891354D01*
X167438292Y-138668292D01*
X167661354Y-138396491D01*
X167827104Y-138086395D01*
X167929172Y-137749921D01*
X167963636Y-137400000D01*
X168676364Y-137400000D01*
X168710828Y-137749921D01*
X168812896Y-138086395D01*
X168978646Y-138396491D01*
X169201708Y-138668292D01*
X169473509Y-138891354D01*
X169783605Y-139057104D01*
X170120079Y-139159172D01*
X170382317Y-139185000D01*
X171257683Y-139185000D01*
X171519921Y-139159172D01*
X171856395Y-139057104D01*
X172070000Y-138942930D01*
X172283605Y-139057104D01*
X172620079Y-139159172D01*
X172882317Y-139185000D01*
X173757683Y-139185000D01*
X174019921Y-139159172D01*
X174356395Y-139057104D01*
X174666491Y-138891354D01*
X174938292Y-138668292D01*
X175161354Y-138396491D01*
X175327104Y-138086395D01*
X175429172Y-137749921D01*
X175463636Y-137400000D01*
X175429172Y-137050079D01*
X175327104Y-136713605D01*
X175161354Y-136403509D01*
X174938292Y-136131708D01*
X174666491Y-135908646D01*
X174356395Y-135742896D01*
X174019921Y-135640828D01*
X173757683Y-135615000D01*
X172882317Y-135615000D01*
X172620079Y-135640828D01*
X172283605Y-135742896D01*
X172070000Y-135857070D01*
X171856395Y-135742896D01*
X171519921Y-135640828D01*
X171257683Y-135615000D01*
X170382317Y-135615000D01*
X170120079Y-135640828D01*
X169783605Y-135742896D01*
X169473509Y-135908646D01*
X169201708Y-136131708D01*
X168978646Y-136403509D01*
X168812896Y-136713605D01*
X168710828Y-137050079D01*
X168676364Y-137400000D01*
X167963636Y-137400000D01*
X167929172Y-137050079D01*
X167827104Y-136713605D01*
X167661354Y-136403509D01*
X167438292Y-136131708D01*
X167166491Y-135908646D01*
X166856395Y-135742896D01*
X166519921Y-135640828D01*
X166257683Y-135615000D01*
X165382317Y-135615000D01*
X165120079Y-135640828D01*
X164783605Y-135742896D01*
X164570000Y-135857070D01*
X164356395Y-135742896D01*
X164019921Y-135640828D01*
X163757683Y-135615000D01*
X162882317Y-135615000D01*
X162620079Y-135640828D01*
X162283605Y-135742896D01*
X161973509Y-135908646D01*
X161701708Y-136131708D01*
X161478646Y-136403509D01*
X161312896Y-136713605D01*
X161210828Y-137050079D01*
X161176364Y-137400000D01*
X155143636Y-137400000D01*
X155109172Y-137050079D01*
X155007104Y-136713605D01*
X154841354Y-136403509D01*
X154618292Y-136131708D01*
X154346491Y-135908646D01*
X154036395Y-135742896D01*
X153699921Y-135640828D01*
X153437683Y-135615000D01*
X152562317Y-135615000D01*
X152300079Y-135640828D01*
X151963605Y-135742896D01*
X151750000Y-135857070D01*
X151536395Y-135742896D01*
X151199921Y-135640828D01*
X150937683Y-135615000D01*
X150062317Y-135615000D01*
X149800079Y-135640828D01*
X149463605Y-135742896D01*
X149153509Y-135908646D01*
X148881708Y-136131708D01*
X148658646Y-136403509D01*
X148492896Y-136713605D01*
X148390828Y-137050079D01*
X148356364Y-137400000D01*
X147643636Y-137400000D01*
X147609172Y-137050079D01*
X147507104Y-136713605D01*
X147341354Y-136403509D01*
X147118292Y-136131708D01*
X146846491Y-135908646D01*
X146536395Y-135742896D01*
X146199921Y-135640828D01*
X145937683Y-135615000D01*
X145062317Y-135615000D01*
X144800079Y-135640828D01*
X144463605Y-135742896D01*
X144250000Y-135857070D01*
X144036395Y-135742896D01*
X143699921Y-135640828D01*
X143437683Y-135615000D01*
X142562317Y-135615000D01*
X142300079Y-135640828D01*
X141963605Y-135742896D01*
X141653509Y-135908646D01*
X141381708Y-136131708D01*
X141158646Y-136403509D01*
X140992896Y-136713605D01*
X140890828Y-137050079D01*
X140856364Y-137400000D01*
X134823636Y-137400000D01*
X134789172Y-137050079D01*
X134687104Y-136713605D01*
X134521354Y-136403509D01*
X134298292Y-136131708D01*
X134026491Y-135908646D01*
X133716395Y-135742896D01*
X133379921Y-135640828D01*
X133117683Y-135615000D01*
X132242317Y-135615000D01*
X131980079Y-135640828D01*
X131643605Y-135742896D01*
X131430000Y-135857070D01*
X131216395Y-135742896D01*
X130879921Y-135640828D01*
X130617683Y-135615000D01*
X129742317Y-135615000D01*
X129480079Y-135640828D01*
X129143605Y-135742896D01*
X128833509Y-135908646D01*
X128561708Y-136131708D01*
X128338646Y-136403509D01*
X128172896Y-136713605D01*
X128070828Y-137050079D01*
X128036364Y-137400000D01*
X127323636Y-137400000D01*
X127289172Y-137050079D01*
X127187104Y-136713605D01*
X127021354Y-136403509D01*
X126798292Y-136131708D01*
X126526491Y-135908646D01*
X126216395Y-135742896D01*
X125879921Y-135640828D01*
X125617683Y-135615000D01*
X124742317Y-135615000D01*
X124480079Y-135640828D01*
X124143605Y-135742896D01*
X123930000Y-135857070D01*
X123716395Y-135742896D01*
X123379921Y-135640828D01*
X123117683Y-135615000D01*
X122242317Y-135615000D01*
X121980079Y-135640828D01*
X121643605Y-135742896D01*
X121333509Y-135908646D01*
X121061708Y-136131708D01*
X120838646Y-136403509D01*
X120672896Y-136713605D01*
X120570828Y-137050079D01*
X120536364Y-137400000D01*
X100703549Y-137400000D01*
X100660000Y-136985664D01*
X100660000Y-134079117D01*
X103515000Y-134079117D01*
X103515000Y-134420883D01*
X103581675Y-134756081D01*
X103712463Y-135071831D01*
X103902337Y-135355998D01*
X104144002Y-135597663D01*
X104428169Y-135787537D01*
X104743919Y-135918325D01*
X105079117Y-135985000D01*
X105420883Y-135985000D01*
X105756081Y-135918325D01*
X106071831Y-135787537D01*
X106355998Y-135597663D01*
X106597663Y-135355998D01*
X106787537Y-135071831D01*
X106918325Y-134756081D01*
X106985000Y-134420883D01*
X106985000Y-134079117D01*
X189015000Y-134079117D01*
X189015000Y-134420883D01*
X189081675Y-134756081D01*
X189212463Y-135071831D01*
X189402337Y-135355998D01*
X189644002Y-135597663D01*
X189928169Y-135787537D01*
X190243919Y-135918325D01*
X190579117Y-135985000D01*
X190920883Y-135985000D01*
X191256081Y-135918325D01*
X191571831Y-135787537D01*
X191855998Y-135597663D01*
X192097663Y-135355998D01*
X192287537Y-135071831D01*
X192418325Y-134756081D01*
X192485000Y-134420883D01*
X192485000Y-134079117D01*
X192418325Y-133743919D01*
X192287537Y-133428169D01*
X192097663Y-133144002D01*
X191855998Y-132902337D01*
X191571831Y-132712463D01*
X191256081Y-132581675D01*
X190920883Y-132515000D01*
X190579117Y-132515000D01*
X190243919Y-132581675D01*
X189928169Y-132712463D01*
X189644002Y-132902337D01*
X189402337Y-133144002D01*
X189212463Y-133428169D01*
X189081675Y-133743919D01*
X189015000Y-134079117D01*
X106985000Y-134079117D01*
X106918325Y-133743919D01*
X106787537Y-133428169D01*
X106597663Y-133144002D01*
X106355998Y-132902337D01*
X106071831Y-132712463D01*
X105756081Y-132581675D01*
X105420883Y-132515000D01*
X105079117Y-132515000D01*
X104743919Y-132581675D01*
X104428169Y-132712463D01*
X104144002Y-132902337D01*
X103902337Y-133144002D01*
X103712463Y-133428169D01*
X103581675Y-133743919D01*
X103515000Y-134079117D01*
X100660000Y-134079117D01*
X100660000Y-125800000D01*
X103911928Y-125800000D01*
X103924188Y-125924482D01*
X103960498Y-126044180D01*
X104019463Y-126154494D01*
X104098815Y-126251185D01*
X104195506Y-126330537D01*
X104305820Y-126389502D01*
X104324127Y-126395056D01*
X104257688Y-126461495D01*
X104089701Y-126712905D01*
X103973989Y-126992257D01*
X103915000Y-127288816D01*
X103915000Y-127591184D01*
X103973989Y-127887743D01*
X104089701Y-128167095D01*
X104257688Y-128418505D01*
X104471495Y-128632312D01*
X104722905Y-128800299D01*
X105002257Y-128916011D01*
X105298816Y-128975000D01*
X105601184Y-128975000D01*
X105897743Y-128916011D01*
X106177095Y-128800299D01*
X106428505Y-128632312D01*
X106642312Y-128418505D01*
X106810299Y-128167095D01*
X106926011Y-127887743D01*
X106985000Y-127591184D01*
X106985000Y-127288816D01*
X106926011Y-126992257D01*
X106810299Y-126712905D01*
X106642312Y-126461495D01*
X106575873Y-126395056D01*
X106594180Y-126389502D01*
X106704494Y-126330537D01*
X106801185Y-126251185D01*
X106880537Y-126154494D01*
X106939502Y-126044180D01*
X106975812Y-125924482D01*
X106988072Y-125800000D01*
X106985000Y-125185750D01*
X106883249Y-125083999D01*
X107863000Y-125083999D01*
X107863000Y-127392002D01*
X107908362Y-127852567D01*
X108087624Y-128443517D01*
X108378731Y-128988140D01*
X108770496Y-129465505D01*
X109247861Y-129857269D01*
X109792484Y-130148376D01*
X110383434Y-130327638D01*
X110998000Y-130388168D01*
X111612567Y-130327638D01*
X112203517Y-130148376D01*
X112748140Y-129857269D01*
X113225505Y-129465505D01*
X113617269Y-128988140D01*
X113908376Y-128443517D01*
X114087638Y-127852567D01*
X114133000Y-127392002D01*
X114133000Y-127019678D01*
X118545000Y-127019678D01*
X118545000Y-127780321D01*
X118568657Y-128020515D01*
X118662148Y-128328714D01*
X118813969Y-128612751D01*
X119018286Y-128861714D01*
X119267248Y-129066031D01*
X119551285Y-129217852D01*
X119859484Y-129311343D01*
X120180000Y-129342911D01*
X120500515Y-129311343D01*
X120808714Y-129217852D01*
X121092751Y-129066031D01*
X121341714Y-128861714D01*
X121546031Y-128612752D01*
X121697852Y-128328715D01*
X121791343Y-128020516D01*
X121815000Y-127780322D01*
X121815000Y-127527000D01*
X126045000Y-127527000D01*
X126045000Y-127827000D01*
X126101193Y-128143532D01*
X126218058Y-128443020D01*
X126391105Y-128713954D01*
X126613683Y-128945922D01*
X126877239Y-129130010D01*
X127171645Y-129259144D01*
X127299566Y-129290124D01*
X127553000Y-129170777D01*
X127553000Y-127527000D01*
X127807000Y-127527000D01*
X127807000Y-129170777D01*
X128060434Y-129290124D01*
X128188355Y-129259144D01*
X128482761Y-129130010D01*
X128746317Y-128945922D01*
X128968895Y-128713954D01*
X129141942Y-128443020D01*
X129258807Y-128143532D01*
X129315000Y-127827000D01*
X129315000Y-127527000D01*
X127807000Y-127527000D01*
X127553000Y-127527000D01*
X126045000Y-127527000D01*
X121815000Y-127527000D01*
X121815000Y-127019679D01*
X121810403Y-126973000D01*
X126045000Y-126973000D01*
X126045000Y-127273000D01*
X127553000Y-127273000D01*
X127553000Y-125629223D01*
X127807000Y-125629223D01*
X127807000Y-127273000D01*
X129315000Y-127273000D01*
X129315000Y-126973000D01*
X129258807Y-126656468D01*
X129141942Y-126356980D01*
X128968895Y-126086046D01*
X128746317Y-125854078D01*
X128482761Y-125669990D01*
X128188355Y-125540856D01*
X128060434Y-125509876D01*
X127807000Y-125629223D01*
X127553000Y-125629223D01*
X127299566Y-125509876D01*
X127171645Y-125540856D01*
X126877239Y-125669990D01*
X126613683Y-125854078D01*
X126391105Y-126086046D01*
X126218058Y-126356980D01*
X126101193Y-126656468D01*
X126045000Y-126973000D01*
X121810403Y-126973000D01*
X121791343Y-126779485D01*
X121713117Y-126521607D01*
X121767248Y-126566031D01*
X122051285Y-126717852D01*
X122359484Y-126811343D01*
X122680000Y-126842911D01*
X123000515Y-126811343D01*
X123308714Y-126717852D01*
X123592751Y-126566031D01*
X123841714Y-126361714D01*
X124046031Y-126112752D01*
X124197852Y-125828715D01*
X124291343Y-125520516D01*
X124315000Y-125280322D01*
X124315000Y-124519679D01*
X124315000Y-124519678D01*
X131045000Y-124519678D01*
X131045000Y-125280321D01*
X131068657Y-125520515D01*
X131162148Y-125828714D01*
X131313969Y-126112751D01*
X131518286Y-126361714D01*
X131767248Y-126566031D01*
X132051285Y-126717852D01*
X132359484Y-126811343D01*
X132680000Y-126842911D01*
X133000515Y-126811343D01*
X133308714Y-126717852D01*
X133592751Y-126566031D01*
X133646883Y-126521606D01*
X133568657Y-126779484D01*
X133545000Y-127019678D01*
X133545000Y-127780321D01*
X133568657Y-128020515D01*
X133662148Y-128328714D01*
X133813969Y-128612751D01*
X134018286Y-128861714D01*
X134267248Y-129066031D01*
X134551285Y-129217852D01*
X134859484Y-129311343D01*
X135180000Y-129342911D01*
X135500515Y-129311343D01*
X135808714Y-129217852D01*
X136092751Y-129066031D01*
X136341714Y-128861714D01*
X136546031Y-128612752D01*
X136697852Y-128328715D01*
X136791343Y-128020516D01*
X136815000Y-127780322D01*
X136815000Y-127019679D01*
X136791343Y-126779485D01*
X136697852Y-126471285D01*
X136546031Y-126187248D01*
X136341714Y-125938286D01*
X136092752Y-125733969D01*
X135808715Y-125582148D01*
X135500516Y-125488657D01*
X135180000Y-125457089D01*
X134859485Y-125488657D01*
X134551286Y-125582148D01*
X134267249Y-125733969D01*
X134213117Y-125778394D01*
X134291343Y-125520516D01*
X134315000Y-125280322D01*
X134315000Y-124519679D01*
X134291343Y-124279485D01*
X134197852Y-123971285D01*
X134046031Y-123687248D01*
X133841714Y-123438286D01*
X133592752Y-123233969D01*
X133308715Y-123082148D01*
X133000516Y-122988657D01*
X132680000Y-122957089D01*
X132359485Y-122988657D01*
X132051286Y-123082148D01*
X131767249Y-123233969D01*
X131518286Y-123438286D01*
X131313969Y-123687248D01*
X131162148Y-123971285D01*
X131068657Y-124279484D01*
X131045000Y-124519678D01*
X124315000Y-124519678D01*
X124291343Y-124279485D01*
X124197852Y-123971285D01*
X124046031Y-123687248D01*
X123841714Y-123438286D01*
X123592752Y-123233969D01*
X123308715Y-123082148D01*
X123000516Y-122988657D01*
X122680000Y-122957089D01*
X122359485Y-122988657D01*
X122051286Y-123082148D01*
X121767249Y-123233969D01*
X121518286Y-123438286D01*
X121313969Y-123687248D01*
X121162148Y-123971285D01*
X121068657Y-124279484D01*
X121045000Y-124519678D01*
X121045000Y-125280321D01*
X121068657Y-125520515D01*
X121146883Y-125778393D01*
X121092752Y-125733969D01*
X120808715Y-125582148D01*
X120500516Y-125488657D01*
X120180000Y-125457089D01*
X119859485Y-125488657D01*
X119551286Y-125582148D01*
X119267249Y-125733969D01*
X119018286Y-125938286D01*
X118813969Y-126187248D01*
X118662148Y-126471285D01*
X118568657Y-126779484D01*
X118545000Y-127019678D01*
X114133000Y-127019678D01*
X114133000Y-125083998D01*
X114087638Y-124623433D01*
X113908376Y-124032483D01*
X113617269Y-123487860D01*
X113225505Y-123010495D01*
X112748139Y-122618731D01*
X112203516Y-122327624D01*
X111612566Y-122148362D01*
X110998000Y-122087832D01*
X110383433Y-122148362D01*
X109792483Y-122327624D01*
X109247860Y-122618731D01*
X108770495Y-123010495D01*
X108378731Y-123487861D01*
X108087624Y-124032484D01*
X107908362Y-124623434D01*
X107863000Y-125083999D01*
X106883249Y-125083999D01*
X106826250Y-125027000D01*
X105577000Y-125027000D01*
X105577000Y-125047000D01*
X105323000Y-125047000D01*
X105323000Y-125027000D01*
X104073750Y-125027000D01*
X103915000Y-125185750D01*
X103911928Y-125800000D01*
X100660000Y-125800000D01*
X100660000Y-124000000D01*
X103911928Y-124000000D01*
X103915000Y-124614250D01*
X104073750Y-124773000D01*
X105323000Y-124773000D01*
X105323000Y-123523750D01*
X105577000Y-123523750D01*
X105577000Y-124773000D01*
X106826250Y-124773000D01*
X106985000Y-124614250D01*
X106988072Y-124000000D01*
X106975812Y-123875518D01*
X106939502Y-123755820D01*
X106880537Y-123645506D01*
X106801185Y-123548815D01*
X106704494Y-123469463D01*
X106594180Y-123410498D01*
X106474482Y-123374188D01*
X106350000Y-123361928D01*
X105735750Y-123365000D01*
X105577000Y-123523750D01*
X105323000Y-123523750D01*
X105164250Y-123365000D01*
X104550000Y-123361928D01*
X104425518Y-123374188D01*
X104305820Y-123410498D01*
X104195506Y-123469463D01*
X104098815Y-123548815D01*
X104019463Y-123645506D01*
X103960498Y-123755820D01*
X103924188Y-123875518D01*
X103911928Y-124000000D01*
X100660000Y-124000000D01*
X100660000Y-122010061D01*
X125375000Y-122010061D01*
X125375000Y-122213939D01*
X125414774Y-122413898D01*
X125492795Y-122602256D01*
X125606063Y-122771774D01*
X125750226Y-122915937D01*
X125919744Y-123029205D01*
X126108102Y-123107226D01*
X126308061Y-123147000D01*
X126511939Y-123147000D01*
X126711898Y-123107226D01*
X126900256Y-123029205D01*
X127069774Y-122915937D01*
X127213937Y-122771774D01*
X127327205Y-122602256D01*
X127405226Y-122413898D01*
X127434093Y-122268775D01*
X128025868Y-121677000D01*
X135629907Y-121677000D01*
X135574774Y-121810102D01*
X135535000Y-122010061D01*
X135535000Y-122213939D01*
X135574774Y-122413898D01*
X135652795Y-122602256D01*
X135766063Y-122771774D01*
X135910226Y-122915937D01*
X136079744Y-123029205D01*
X136268102Y-123107226D01*
X136468061Y-123147000D01*
X136671939Y-123147000D01*
X136871898Y-123107226D01*
X137017295Y-123047000D01*
X142487154Y-123047000D01*
X142371286Y-123082148D01*
X142087249Y-123233969D01*
X141838286Y-123438286D01*
X141633969Y-123687248D01*
X141482148Y-123971285D01*
X141388657Y-124279484D01*
X141365000Y-124519678D01*
X141365000Y-125280321D01*
X141388657Y-125520515D01*
X141466883Y-125778393D01*
X141412752Y-125733969D01*
X141128715Y-125582148D01*
X140820516Y-125488657D01*
X140500000Y-125457089D01*
X140179485Y-125488657D01*
X139871286Y-125582148D01*
X139587249Y-125733969D01*
X139338286Y-125938286D01*
X139133969Y-126187248D01*
X138982148Y-126471285D01*
X138888657Y-126779484D01*
X138865000Y-127019678D01*
X138865000Y-127780321D01*
X138888657Y-128020515D01*
X138982148Y-128328714D01*
X139133969Y-128612751D01*
X139338286Y-128861714D01*
X139587248Y-129066031D01*
X139871285Y-129217852D01*
X140179484Y-129311343D01*
X140500000Y-129342911D01*
X140820515Y-129311343D01*
X141128714Y-129217852D01*
X141412751Y-129066031D01*
X141661714Y-128861714D01*
X141866031Y-128612752D01*
X142017852Y-128328715D01*
X142111343Y-128020516D01*
X142135000Y-127780322D01*
X142135000Y-127527000D01*
X146365000Y-127527000D01*
X146365000Y-127827000D01*
X146421193Y-128143532D01*
X146538058Y-128443020D01*
X146711105Y-128713954D01*
X146933683Y-128945922D01*
X147197239Y-129130010D01*
X147491645Y-129259144D01*
X147619566Y-129290124D01*
X147873000Y-129170777D01*
X147873000Y-127527000D01*
X148127000Y-127527000D01*
X148127000Y-129170777D01*
X148380434Y-129290124D01*
X148508355Y-129259144D01*
X148802761Y-129130010D01*
X149066317Y-128945922D01*
X149288895Y-128713954D01*
X149461942Y-128443020D01*
X149578807Y-128143532D01*
X149635000Y-127827000D01*
X149635000Y-127527000D01*
X148127000Y-127527000D01*
X147873000Y-127527000D01*
X146365000Y-127527000D01*
X142135000Y-127527000D01*
X142135000Y-127019679D01*
X142130403Y-126973000D01*
X146365000Y-126973000D01*
X146365000Y-127273000D01*
X147873000Y-127273000D01*
X147873000Y-125629223D01*
X148127000Y-125629223D01*
X148127000Y-127273000D01*
X149635000Y-127273000D01*
X149635000Y-126973000D01*
X149578807Y-126656468D01*
X149461942Y-126356980D01*
X149288895Y-126086046D01*
X149066317Y-125854078D01*
X148802761Y-125669990D01*
X148508355Y-125540856D01*
X148380434Y-125509876D01*
X148127000Y-125629223D01*
X147873000Y-125629223D01*
X147619566Y-125509876D01*
X147491645Y-125540856D01*
X147197239Y-125669990D01*
X146933683Y-125854078D01*
X146711105Y-126086046D01*
X146538058Y-126356980D01*
X146421193Y-126656468D01*
X146365000Y-126973000D01*
X142130403Y-126973000D01*
X142111343Y-126779485D01*
X142033117Y-126521607D01*
X142087248Y-126566031D01*
X142371285Y-126717852D01*
X142679484Y-126811343D01*
X143000000Y-126842911D01*
X143320515Y-126811343D01*
X143628714Y-126717852D01*
X143912751Y-126566031D01*
X144161714Y-126361714D01*
X144366031Y-126112752D01*
X144517852Y-125828715D01*
X144611343Y-125520516D01*
X144635000Y-125280322D01*
X144635000Y-124519679D01*
X144611343Y-124279485D01*
X144517852Y-123971285D01*
X144366031Y-123687248D01*
X144161714Y-123438286D01*
X143912752Y-123233969D01*
X143628715Y-123082148D01*
X143512847Y-123047000D01*
X148822705Y-123047000D01*
X148968102Y-123107226D01*
X149168061Y-123147000D01*
X149371939Y-123147000D01*
X149571898Y-123107226D01*
X149717295Y-123047000D01*
X152487154Y-123047000D01*
X152371286Y-123082148D01*
X152087249Y-123233969D01*
X151838286Y-123438286D01*
X151633969Y-123687248D01*
X151482148Y-123971285D01*
X151388657Y-124279484D01*
X151365000Y-124519678D01*
X151365000Y-125280321D01*
X151388657Y-125520515D01*
X151482148Y-125828714D01*
X151633969Y-126112751D01*
X151838286Y-126361714D01*
X152087248Y-126566031D01*
X152371285Y-126717852D01*
X152679484Y-126811343D01*
X153000000Y-126842911D01*
X153320515Y-126811343D01*
X153628714Y-126717852D01*
X153912751Y-126566031D01*
X153966883Y-126521606D01*
X153888657Y-126779484D01*
X153865000Y-127019678D01*
X153865000Y-127780321D01*
X153888657Y-128020515D01*
X153982148Y-128328714D01*
X154133969Y-128612751D01*
X154338286Y-128861714D01*
X154587248Y-129066031D01*
X154871285Y-129217852D01*
X155179484Y-129311343D01*
X155500000Y-129342911D01*
X155820515Y-129311343D01*
X156128714Y-129217852D01*
X156412751Y-129066031D01*
X156661714Y-128861714D01*
X156866031Y-128612752D01*
X157017852Y-128328715D01*
X157111343Y-128020516D01*
X157135000Y-127780322D01*
X157135000Y-127019679D01*
X157111343Y-126779485D01*
X157017852Y-126471285D01*
X156866031Y-126187248D01*
X156661714Y-125938286D01*
X156412752Y-125733969D01*
X156128715Y-125582148D01*
X155820516Y-125488657D01*
X155500000Y-125457089D01*
X155179485Y-125488657D01*
X154871286Y-125582148D01*
X154587249Y-125733969D01*
X154533117Y-125778394D01*
X154611343Y-125520516D01*
X154635000Y-125280322D01*
X154635000Y-124519679D01*
X154611343Y-124279485D01*
X154517852Y-123971285D01*
X154366031Y-123687248D01*
X154161714Y-123438286D01*
X153912752Y-123233969D01*
X153628715Y-123082148D01*
X153512847Y-123047000D01*
X162807154Y-123047000D01*
X162691286Y-123082148D01*
X162407249Y-123233969D01*
X162158286Y-123438286D01*
X161953969Y-123687248D01*
X161802148Y-123971285D01*
X161708657Y-124279484D01*
X161685000Y-124519678D01*
X161685000Y-125280321D01*
X161708657Y-125520515D01*
X161786883Y-125778393D01*
X161732752Y-125733969D01*
X161448715Y-125582148D01*
X161140516Y-125488657D01*
X160820000Y-125457089D01*
X160499485Y-125488657D01*
X160191286Y-125582148D01*
X159907249Y-125733969D01*
X159658286Y-125938286D01*
X159453969Y-126187248D01*
X159302148Y-126471285D01*
X159208657Y-126779484D01*
X159185000Y-127019678D01*
X159185000Y-127780321D01*
X159208657Y-128020515D01*
X159302148Y-128328714D01*
X159453969Y-128612751D01*
X159658286Y-128861714D01*
X159907248Y-129066031D01*
X160191285Y-129217852D01*
X160499484Y-129311343D01*
X160820000Y-129342911D01*
X161140515Y-129311343D01*
X161448714Y-129217852D01*
X161732751Y-129066031D01*
X161981714Y-128861714D01*
X162186031Y-128612752D01*
X162337852Y-128328715D01*
X162431343Y-128020516D01*
X162455000Y-127780322D01*
X162455000Y-127527000D01*
X166685000Y-127527000D01*
X166685000Y-127827000D01*
X166741193Y-128143532D01*
X166858058Y-128443020D01*
X167031105Y-128713954D01*
X167253683Y-128945922D01*
X167517239Y-129130010D01*
X167811645Y-129259144D01*
X167939566Y-129290124D01*
X168193000Y-129170777D01*
X168193000Y-127527000D01*
X168447000Y-127527000D01*
X168447000Y-129170777D01*
X168700434Y-129290124D01*
X168828355Y-129259144D01*
X169122761Y-129130010D01*
X169386317Y-128945922D01*
X169608895Y-128713954D01*
X169781942Y-128443020D01*
X169898807Y-128143532D01*
X169955000Y-127827000D01*
X169955000Y-127527000D01*
X168447000Y-127527000D01*
X168193000Y-127527000D01*
X166685000Y-127527000D01*
X162455000Y-127527000D01*
X162455000Y-127019679D01*
X162450403Y-126973000D01*
X166685000Y-126973000D01*
X166685000Y-127273000D01*
X168193000Y-127273000D01*
X168193000Y-125629223D01*
X168447000Y-125629223D01*
X168447000Y-127273000D01*
X169955000Y-127273000D01*
X169955000Y-126973000D01*
X169898807Y-126656468D01*
X169781942Y-126356980D01*
X169608895Y-126086046D01*
X169386317Y-125854078D01*
X169122761Y-125669990D01*
X168828355Y-125540856D01*
X168700434Y-125509876D01*
X168447000Y-125629223D01*
X168193000Y-125629223D01*
X167939566Y-125509876D01*
X167811645Y-125540856D01*
X167517239Y-125669990D01*
X167253683Y-125854078D01*
X167031105Y-126086046D01*
X166858058Y-126356980D01*
X166741193Y-126656468D01*
X166685000Y-126973000D01*
X162450403Y-126973000D01*
X162431343Y-126779485D01*
X162353117Y-126521607D01*
X162407248Y-126566031D01*
X162691285Y-126717852D01*
X162999484Y-126811343D01*
X163320000Y-126842911D01*
X163640515Y-126811343D01*
X163948714Y-126717852D01*
X164232751Y-126566031D01*
X164481714Y-126361714D01*
X164686031Y-126112752D01*
X164837852Y-125828715D01*
X164931343Y-125520516D01*
X164955000Y-125280322D01*
X164955000Y-124519679D01*
X164931343Y-124279485D01*
X164837852Y-123971285D01*
X164686031Y-123687248D01*
X164481714Y-123438286D01*
X164232752Y-123233969D01*
X163948715Y-123082148D01*
X163832847Y-123047000D01*
X166856705Y-123047000D01*
X167002102Y-123107226D01*
X167202061Y-123147000D01*
X167405939Y-123147000D01*
X167605898Y-123107226D01*
X167751295Y-123047000D01*
X172807154Y-123047000D01*
X172691286Y-123082148D01*
X172407249Y-123233969D01*
X172158286Y-123438286D01*
X171953969Y-123687248D01*
X171802148Y-123971285D01*
X171708657Y-124279484D01*
X171685000Y-124519678D01*
X171685000Y-125280321D01*
X171708657Y-125520515D01*
X171802148Y-125828714D01*
X171953969Y-126112751D01*
X172158286Y-126361714D01*
X172407248Y-126566031D01*
X172691285Y-126717852D01*
X172999484Y-126811343D01*
X173320000Y-126842911D01*
X173640515Y-126811343D01*
X173948714Y-126717852D01*
X174232751Y-126566031D01*
X174286883Y-126521606D01*
X174208657Y-126779484D01*
X174185000Y-127019678D01*
X174185000Y-127780321D01*
X174208657Y-128020515D01*
X174302148Y-128328714D01*
X174453969Y-128612751D01*
X174658286Y-128861714D01*
X174907248Y-129066031D01*
X175191285Y-129217852D01*
X175499484Y-129311343D01*
X175820000Y-129342911D01*
X176140515Y-129311343D01*
X176448714Y-129217852D01*
X176732751Y-129066031D01*
X176981714Y-128861714D01*
X177186031Y-128612752D01*
X177337852Y-128328715D01*
X177431343Y-128020516D01*
X177455000Y-127780322D01*
X177455000Y-127019679D01*
X177431343Y-126779485D01*
X177337852Y-126471285D01*
X177186031Y-126187248D01*
X176981714Y-125938286D01*
X176732752Y-125733969D01*
X176448715Y-125582148D01*
X176140516Y-125488657D01*
X175820000Y-125457089D01*
X175499485Y-125488657D01*
X175191286Y-125582148D01*
X174907249Y-125733969D01*
X174853117Y-125778394D01*
X174931343Y-125520516D01*
X174955000Y-125280322D01*
X174955000Y-124519679D01*
X174931343Y-124279485D01*
X174837852Y-123971285D01*
X174686031Y-123687248D01*
X174481714Y-123438286D01*
X174232752Y-123233969D01*
X173948715Y-123082148D01*
X173832847Y-123047000D01*
X175298711Y-123047000D01*
X177024370Y-124772659D01*
X177053656Y-124808344D01*
X177196028Y-124925186D01*
X177358460Y-125012007D01*
X177534708Y-125065471D01*
X177718000Y-125083524D01*
X177763932Y-125079000D01*
X182686419Y-125079000D01*
X182572495Y-125172495D01*
X182180731Y-125649861D01*
X181889624Y-126194484D01*
X181710362Y-126785434D01*
X181665000Y-127245999D01*
X181665000Y-129554002D01*
X181710362Y-130014567D01*
X181889624Y-130605517D01*
X182180731Y-131150140D01*
X182572496Y-131627505D01*
X183049861Y-132019269D01*
X183594484Y-132310376D01*
X184185434Y-132489638D01*
X184800000Y-132550168D01*
X185414567Y-132489638D01*
X186005517Y-132310376D01*
X186550140Y-132019269D01*
X187027505Y-131627505D01*
X187419269Y-131150140D01*
X187710376Y-130605517D01*
X187889638Y-130014567D01*
X187935000Y-129554002D01*
X187935000Y-127245998D01*
X187889638Y-126785433D01*
X187710376Y-126194483D01*
X187419269Y-125649860D01*
X187027505Y-125172495D01*
X186913581Y-125079000D01*
X187496711Y-125079000D01*
X188675208Y-126257497D01*
X188665000Y-126308816D01*
X188665000Y-126611184D01*
X188723989Y-126907743D01*
X188839701Y-127187095D01*
X189007688Y-127438505D01*
X189074127Y-127504944D01*
X189055820Y-127510498D01*
X188945506Y-127569463D01*
X188848815Y-127648815D01*
X188769463Y-127745506D01*
X188710498Y-127855820D01*
X188674188Y-127975518D01*
X188661928Y-128100000D01*
X188661928Y-129900000D01*
X188674188Y-130024482D01*
X188710498Y-130144180D01*
X188769463Y-130254494D01*
X188848815Y-130351185D01*
X188945506Y-130430537D01*
X189055820Y-130489502D01*
X189175518Y-130525812D01*
X189300000Y-130538072D01*
X191100000Y-130538072D01*
X191224482Y-130525812D01*
X191344180Y-130489502D01*
X191454494Y-130430537D01*
X191551185Y-130351185D01*
X191630537Y-130254494D01*
X191689502Y-130144180D01*
X191725812Y-130024482D01*
X191738072Y-129900000D01*
X191738072Y-128100000D01*
X191725812Y-127975518D01*
X191689502Y-127855820D01*
X191630537Y-127745506D01*
X191551185Y-127648815D01*
X191454494Y-127569463D01*
X191344180Y-127510498D01*
X191325873Y-127504944D01*
X191392312Y-127438505D01*
X191560299Y-127187095D01*
X191676011Y-126907743D01*
X191735000Y-126611184D01*
X191735000Y-126308816D01*
X191676011Y-126012257D01*
X191560299Y-125732905D01*
X191392312Y-125481495D01*
X191178505Y-125267688D01*
X190927095Y-125099701D01*
X190647743Y-124983989D01*
X190351184Y-124925000D01*
X190048816Y-124925000D01*
X189997497Y-124935208D01*
X188577630Y-123515341D01*
X188548344Y-123479656D01*
X188405972Y-123362814D01*
X188243540Y-123275993D01*
X188067292Y-123222529D01*
X187929932Y-123209000D01*
X187884000Y-123204476D01*
X187838068Y-123209000D01*
X185174939Y-123209000D01*
X185217852Y-123128715D01*
X185311343Y-122820516D01*
X185342911Y-122500000D01*
X185311343Y-122179484D01*
X185217852Y-121871285D01*
X185066031Y-121587248D01*
X184861714Y-121338286D01*
X184612752Y-121133969D01*
X184328715Y-120982148D01*
X184020516Y-120888657D01*
X183780322Y-120865000D01*
X183019678Y-120865000D01*
X182779484Y-120888657D01*
X182521607Y-120966883D01*
X182566031Y-120912752D01*
X182717852Y-120628715D01*
X182811343Y-120320516D01*
X182842911Y-120000000D01*
X182811343Y-119679484D01*
X182717852Y-119371285D01*
X182566031Y-119087248D01*
X182361714Y-118838286D01*
X182112752Y-118633969D01*
X181828715Y-118482148D01*
X181520516Y-118388657D01*
X181280322Y-118365000D01*
X180519678Y-118365000D01*
X180279484Y-118388657D01*
X179971285Y-118482148D01*
X179687248Y-118633969D01*
X179438286Y-118838286D01*
X179233969Y-119087248D01*
X179082148Y-119371285D01*
X178988657Y-119679484D01*
X178957089Y-120000000D01*
X178988657Y-120320516D01*
X179082148Y-120628715D01*
X179233969Y-120912752D01*
X179438286Y-121161714D01*
X179687248Y-121366031D01*
X179971285Y-121517852D01*
X180279484Y-121611343D01*
X180519678Y-121635000D01*
X181280322Y-121635000D01*
X181520516Y-121611343D01*
X181778393Y-121533117D01*
X181733969Y-121587248D01*
X181582148Y-121871285D01*
X181488657Y-122179484D01*
X181457089Y-122500000D01*
X181488657Y-122820516D01*
X181582148Y-123128715D01*
X181625061Y-123209000D01*
X178105289Y-123209000D01*
X176379630Y-121483341D01*
X176350344Y-121447656D01*
X176207972Y-121330814D01*
X176045540Y-121243993D01*
X175869292Y-121190529D01*
X175731932Y-121177000D01*
X175686000Y-121172476D01*
X175640068Y-121177000D01*
X167751295Y-121177000D01*
X167605898Y-121116774D01*
X167405939Y-121077000D01*
X167202061Y-121077000D01*
X167002102Y-121116774D01*
X166856705Y-121177000D01*
X149717295Y-121177000D01*
X149571898Y-121116774D01*
X149371939Y-121077000D01*
X149168061Y-121077000D01*
X148968102Y-121116774D01*
X148822705Y-121177000D01*
X144671867Y-121177000D01*
X145306582Y-120542286D01*
X145400665Y-120561000D01*
X145683335Y-120561000D01*
X145960574Y-120505853D01*
X146221727Y-120397680D01*
X146456759Y-120240637D01*
X146656637Y-120040759D01*
X146812000Y-119808241D01*
X146967363Y-120040759D01*
X147167241Y-120240637D01*
X147402273Y-120397680D01*
X147663426Y-120505853D01*
X147940665Y-120561000D01*
X148223335Y-120561000D01*
X148500574Y-120505853D01*
X148761727Y-120397680D01*
X148996759Y-120240637D01*
X149196637Y-120040759D01*
X149352000Y-119808241D01*
X149507363Y-120040759D01*
X149707241Y-120240637D01*
X149942273Y-120397680D01*
X150203426Y-120505853D01*
X150480665Y-120561000D01*
X150763335Y-120561000D01*
X151040574Y-120505853D01*
X151301727Y-120397680D01*
X151536759Y-120240637D01*
X151736637Y-120040759D01*
X151892000Y-119808241D01*
X152047363Y-120040759D01*
X152247241Y-120240637D01*
X152482273Y-120397680D01*
X152743426Y-120505853D01*
X153020665Y-120561000D01*
X153303335Y-120561000D01*
X153580574Y-120505853D01*
X153841727Y-120397680D01*
X154076759Y-120240637D01*
X154276637Y-120040759D01*
X154432000Y-119808241D01*
X154587363Y-120040759D01*
X154787241Y-120240637D01*
X155022273Y-120397680D01*
X155283426Y-120505853D01*
X155560665Y-120561000D01*
X155843335Y-120561000D01*
X156120574Y-120505853D01*
X156381727Y-120397680D01*
X156616759Y-120240637D01*
X156816637Y-120040759D01*
X156973680Y-119805727D01*
X156978067Y-119795135D01*
X157089615Y-119981131D01*
X157278586Y-120189519D01*
X157504580Y-120357037D01*
X157758913Y-120477246D01*
X157892961Y-120517904D01*
X158115000Y-120395915D01*
X158115000Y-119253000D01*
X158369000Y-119253000D01*
X158369000Y-120395915D01*
X158591039Y-120517904D01*
X158725087Y-120477246D01*
X158979420Y-120357037D01*
X159205414Y-120189519D01*
X159394385Y-119981131D01*
X159539070Y-119739881D01*
X159625834Y-119497589D01*
X171843000Y-119497589D01*
X171843000Y-119770411D01*
X171896225Y-120037989D01*
X172000629Y-120290043D01*
X172152201Y-120516886D01*
X172345114Y-120709799D01*
X172571957Y-120861371D01*
X172824011Y-120965775D01*
X173091589Y-121019000D01*
X173364411Y-121019000D01*
X173631989Y-120965775D01*
X173884043Y-120861371D01*
X174110886Y-120709799D01*
X174303799Y-120516886D01*
X174455371Y-120290043D01*
X174559775Y-120037989D01*
X174613000Y-119770411D01*
X174613000Y-119497589D01*
X174559775Y-119230011D01*
X174455371Y-118977957D01*
X174303799Y-118751114D01*
X174110886Y-118558201D01*
X173884043Y-118406629D01*
X173631989Y-118302225D01*
X173364411Y-118249000D01*
X173091589Y-118249000D01*
X172824011Y-118302225D01*
X172571957Y-118406629D01*
X172345114Y-118558201D01*
X172152201Y-118751114D01*
X172000629Y-118977957D01*
X171896225Y-119230011D01*
X171843000Y-119497589D01*
X159625834Y-119497589D01*
X159633909Y-119475040D01*
X159512624Y-119253000D01*
X158369000Y-119253000D01*
X158115000Y-119253000D01*
X158095000Y-119253000D01*
X158095000Y-118999000D01*
X158115000Y-118999000D01*
X158115000Y-117856085D01*
X158369000Y-117856085D01*
X158369000Y-118999000D01*
X159512624Y-118999000D01*
X159633909Y-118776960D01*
X159539070Y-118512119D01*
X159394385Y-118270869D01*
X159205414Y-118062481D01*
X158979420Y-117894963D01*
X158725087Y-117774754D01*
X158591039Y-117734096D01*
X158369000Y-117856085D01*
X158115000Y-117856085D01*
X157892961Y-117734096D01*
X157758913Y-117774754D01*
X157504580Y-117894963D01*
X157278586Y-118062481D01*
X157089615Y-118270869D01*
X156978067Y-118456865D01*
X156973680Y-118446273D01*
X156816637Y-118211241D01*
X156616759Y-118011363D01*
X156381727Y-117854320D01*
X156120574Y-117746147D01*
X155843335Y-117691000D01*
X155560665Y-117691000D01*
X155283426Y-117746147D01*
X155022273Y-117854320D01*
X154787241Y-118011363D01*
X154587363Y-118211241D01*
X154432000Y-118443759D01*
X154276637Y-118211241D01*
X154076759Y-118011363D01*
X153841727Y-117854320D01*
X153580574Y-117746147D01*
X153303335Y-117691000D01*
X153020665Y-117691000D01*
X152743426Y-117746147D01*
X152482273Y-117854320D01*
X152247241Y-118011363D01*
X152047363Y-118211241D01*
X151892000Y-118443759D01*
X151736637Y-118211241D01*
X151536759Y-118011363D01*
X151301727Y-117854320D01*
X151040574Y-117746147D01*
X150763335Y-117691000D01*
X150480665Y-117691000D01*
X150203426Y-117746147D01*
X149942273Y-117854320D01*
X149707241Y-118011363D01*
X149507363Y-118211241D01*
X149352000Y-118443759D01*
X149196637Y-118211241D01*
X148996759Y-118011363D01*
X148761727Y-117854320D01*
X148500574Y-117746147D01*
X148223335Y-117691000D01*
X147940665Y-117691000D01*
X147663426Y-117746147D01*
X147402273Y-117854320D01*
X147167241Y-118011363D01*
X146967363Y-118211241D01*
X146812000Y-118443759D01*
X146656637Y-118211241D01*
X146456759Y-118011363D01*
X146221727Y-117854320D01*
X145960574Y-117746147D01*
X145683335Y-117691000D01*
X145400665Y-117691000D01*
X145123426Y-117746147D01*
X144862273Y-117854320D01*
X144627241Y-118011363D01*
X144428643Y-118209961D01*
X144427812Y-118201518D01*
X144391502Y-118081820D01*
X144332537Y-117971506D01*
X144253185Y-117874815D01*
X144156494Y-117795463D01*
X144046180Y-117736498D01*
X143926482Y-117700188D01*
X143802000Y-117687928D01*
X142202000Y-117687928D01*
X142077518Y-117700188D01*
X141957820Y-117736498D01*
X141847506Y-117795463D01*
X141750815Y-117874815D01*
X141671463Y-117971506D01*
X141612498Y-118081820D01*
X141576188Y-118201518D01*
X141563928Y-118326000D01*
X141563928Y-119926000D01*
X141571906Y-120007000D01*
X127721015Y-120007000D01*
X127679999Y-120002960D01*
X127638983Y-120007000D01*
X127638981Y-120007000D01*
X127516311Y-120019082D01*
X127358913Y-120066828D01*
X127213854Y-120144364D01*
X127086709Y-120248709D01*
X127060561Y-120280571D01*
X126253225Y-121087907D01*
X126108102Y-121116774D01*
X125919744Y-121194795D01*
X125750226Y-121308063D01*
X125606063Y-121452226D01*
X125492795Y-121621744D01*
X125414774Y-121810102D01*
X125375000Y-122010061D01*
X100660000Y-122010061D01*
X100660000Y-119800000D01*
X107657573Y-119800000D01*
X107687210Y-120100913D01*
X107774983Y-120390261D01*
X107917519Y-120656927D01*
X108109339Y-120890661D01*
X108343073Y-121082481D01*
X108609739Y-121225017D01*
X108899087Y-121312790D01*
X109124592Y-121335000D01*
X111475408Y-121335000D01*
X111700913Y-121312790D01*
X111990261Y-121225017D01*
X112256927Y-121082481D01*
X112490661Y-120890661D01*
X112682481Y-120656927D01*
X112825017Y-120390261D01*
X112912790Y-120100913D01*
X112942427Y-119800000D01*
X112912790Y-119499087D01*
X112825017Y-119209739D01*
X112682481Y-118943073D01*
X112490661Y-118709339D01*
X112256927Y-118517519D01*
X111990261Y-118374983D01*
X111700913Y-118287210D01*
X111475408Y-118265000D01*
X109124592Y-118265000D01*
X108899087Y-118287210D01*
X108609739Y-118374983D01*
X108343073Y-118517519D01*
X108109339Y-118709339D01*
X107917519Y-118943073D01*
X107774983Y-119209739D01*
X107687210Y-119499087D01*
X107657573Y-119800000D01*
X100660000Y-119800000D01*
X100660000Y-116175407D01*
X105965000Y-116175407D01*
X105987210Y-116400912D01*
X106074983Y-116690260D01*
X106217519Y-116956926D01*
X106409339Y-117190661D01*
X106643073Y-117382481D01*
X106909739Y-117525017D01*
X107199087Y-117612790D01*
X107500000Y-117642427D01*
X107800912Y-117612790D01*
X108090260Y-117525017D01*
X108356926Y-117382481D01*
X108590661Y-117190661D01*
X108782481Y-116956927D01*
X108925017Y-116690261D01*
X109012790Y-116400913D01*
X109035000Y-116175408D01*
X109035000Y-113824592D01*
X109012790Y-113599087D01*
X108925017Y-113309739D01*
X108782481Y-113043073D01*
X108590661Y-112809339D01*
X108579282Y-112800000D01*
X111761928Y-112800000D01*
X111761928Y-117200000D01*
X111774188Y-117324482D01*
X111810498Y-117444180D01*
X111869463Y-117554494D01*
X111948815Y-117651185D01*
X112045506Y-117730537D01*
X112155820Y-117789502D01*
X112275518Y-117825812D01*
X112400000Y-117838072D01*
X114200000Y-117838072D01*
X114324482Y-117825812D01*
X114444180Y-117789502D01*
X114554494Y-117730537D01*
X114651185Y-117651185D01*
X114730537Y-117554494D01*
X114789502Y-117444180D01*
X114825812Y-117324482D01*
X114838072Y-117200000D01*
X114838072Y-116602000D01*
X119059428Y-116602000D01*
X119059428Y-118602000D01*
X119071688Y-118726482D01*
X119107998Y-118846180D01*
X119166963Y-118956494D01*
X119246315Y-119053185D01*
X119343006Y-119132537D01*
X119453320Y-119191502D01*
X119573018Y-119227812D01*
X119697500Y-119240072D01*
X121602500Y-119240072D01*
X121726982Y-119227812D01*
X121846680Y-119191502D01*
X121956994Y-119132537D01*
X122053685Y-119053185D01*
X122133037Y-118956494D01*
X122182059Y-118864781D01*
X122323077Y-118977969D01*
X122598906Y-119121571D01*
X122817020Y-119192563D01*
X123063000Y-119072594D01*
X123063000Y-117729000D01*
X123043000Y-117729000D01*
X123043000Y-117475000D01*
X123063000Y-117475000D01*
X123063000Y-116131406D01*
X123317000Y-116131406D01*
X123317000Y-117475000D01*
X123337000Y-117475000D01*
X123337000Y-117729000D01*
X123317000Y-117729000D01*
X123317000Y-119072594D01*
X123562980Y-119192563D01*
X123781094Y-119121571D01*
X124056923Y-118977969D01*
X124299437Y-118783315D01*
X124454837Y-118598101D01*
X124602037Y-118777463D01*
X124843766Y-118975845D01*
X125119552Y-119123255D01*
X125418797Y-119214030D01*
X125730000Y-119244681D01*
X126041204Y-119214030D01*
X126340449Y-119123255D01*
X126616235Y-118975845D01*
X126857963Y-118777463D01*
X127056345Y-118535734D01*
X127203755Y-118259948D01*
X127294530Y-117960703D01*
X127317500Y-117727485D01*
X127317500Y-117476514D01*
X127294530Y-117243296D01*
X127203755Y-116944051D01*
X127056345Y-116668265D01*
X126857963Y-116426537D01*
X126616234Y-116228155D01*
X126340448Y-116080745D01*
X126041203Y-115989970D01*
X125730000Y-115959319D01*
X125418796Y-115989970D01*
X125119551Y-116080745D01*
X124843765Y-116228155D01*
X124602037Y-116426537D01*
X124454838Y-116605900D01*
X124299437Y-116420685D01*
X124056923Y-116226031D01*
X123781094Y-116082429D01*
X123562980Y-116011437D01*
X123317000Y-116131406D01*
X123063000Y-116131406D01*
X122817020Y-116011437D01*
X122598906Y-116082429D01*
X122323077Y-116226031D01*
X122182059Y-116339219D01*
X122133037Y-116247506D01*
X122053685Y-116150815D01*
X121956994Y-116071463D01*
X121846680Y-116012498D01*
X121726982Y-115976188D01*
X121602500Y-115963928D01*
X119697500Y-115963928D01*
X119573018Y-115976188D01*
X119453320Y-116012498D01*
X119343006Y-116071463D01*
X119246315Y-116150815D01*
X119166963Y-116247506D01*
X119107998Y-116357820D01*
X119071688Y-116477518D01*
X119059428Y-116602000D01*
X114838072Y-116602000D01*
X114838072Y-115934438D01*
X131349505Y-115934438D01*
X131388605Y-116174549D01*
X131473798Y-116402418D01*
X131514652Y-116478852D01*
X131738234Y-116526158D01*
X131621128Y-116643264D01*
X131679006Y-116701142D01*
X131633506Y-116725463D01*
X131536815Y-116804815D01*
X131457463Y-116901506D01*
X131398498Y-117011820D01*
X131362188Y-117131518D01*
X131349928Y-117256000D01*
X131349928Y-118456000D01*
X131362188Y-118580482D01*
X131398498Y-118700180D01*
X131457463Y-118810494D01*
X131536815Y-118907185D01*
X131633506Y-118986537D01*
X131743820Y-119045502D01*
X131863518Y-119081812D01*
X131988000Y-119094072D01*
X133188000Y-119094072D01*
X133312482Y-119081812D01*
X133432180Y-119045502D01*
X133542494Y-118986537D01*
X133639185Y-118907185D01*
X133718537Y-118810494D01*
X133777502Y-118700180D01*
X133813812Y-118580482D01*
X133826072Y-118456000D01*
X133826072Y-117256000D01*
X133813812Y-117131518D01*
X133792821Y-117062317D01*
X191615000Y-117062317D01*
X191615000Y-117937682D01*
X191640828Y-118199920D01*
X191742896Y-118536394D01*
X191857071Y-118750000D01*
X191742896Y-118963605D01*
X191640828Y-119300079D01*
X191615000Y-119562317D01*
X191615000Y-120437682D01*
X191640828Y-120699920D01*
X191742896Y-121036394D01*
X191908646Y-121346490D01*
X192131708Y-121618292D01*
X192403509Y-121841354D01*
X192713605Y-122007104D01*
X193050079Y-122109172D01*
X193400000Y-122143636D01*
X193749920Y-122109172D01*
X194086394Y-122007104D01*
X194396490Y-121841354D01*
X194668292Y-121618292D01*
X194891354Y-121346491D01*
X195057104Y-121036395D01*
X195159172Y-120699921D01*
X195185000Y-120437683D01*
X195185000Y-119562318D01*
X195159172Y-119300079D01*
X195057104Y-118963605D01*
X194942930Y-118750000D01*
X195057104Y-118536395D01*
X195159172Y-118199921D01*
X195185000Y-117937683D01*
X195185000Y-117062318D01*
X195159172Y-116800079D01*
X195057104Y-116463605D01*
X194891354Y-116153509D01*
X194668292Y-115881708D01*
X194396491Y-115658646D01*
X194086395Y-115492896D01*
X193749921Y-115390828D01*
X193400000Y-115356364D01*
X193050080Y-115390828D01*
X192713606Y-115492896D01*
X192403510Y-115658646D01*
X192131709Y-115881708D01*
X191908646Y-116153509D01*
X191742896Y-116463605D01*
X191640828Y-116800079D01*
X191615000Y-117062317D01*
X133792821Y-117062317D01*
X133777502Y-117011820D01*
X133718537Y-116901506D01*
X133639185Y-116804815D01*
X133542494Y-116725463D01*
X133496994Y-116701142D01*
X133554872Y-116643264D01*
X133437766Y-116526158D01*
X133661348Y-116478852D01*
X133762237Y-116257484D01*
X133818000Y-116020687D01*
X133826495Y-115777562D01*
X133787395Y-115537451D01*
X133702202Y-115309582D01*
X133661348Y-115233148D01*
X133437764Y-115185841D01*
X132767605Y-115856000D01*
X132781748Y-115870143D01*
X132602143Y-116049748D01*
X132588000Y-116035605D01*
X132573858Y-116049748D01*
X132394253Y-115870143D01*
X132408395Y-115856000D01*
X131738236Y-115185841D01*
X131514652Y-115233148D01*
X131413763Y-115454516D01*
X131358000Y-115691313D01*
X131349505Y-115934438D01*
X114838072Y-115934438D01*
X114838072Y-115006236D01*
X131917841Y-115006236D01*
X132588000Y-115676395D01*
X133258159Y-115006236D01*
X133256840Y-115000000D01*
X181457089Y-115000000D01*
X181488657Y-115320516D01*
X181582148Y-115628715D01*
X181733969Y-115912752D01*
X181938286Y-116161714D01*
X182187248Y-116366031D01*
X182471285Y-116517852D01*
X182779484Y-116611343D01*
X183019678Y-116635000D01*
X183780322Y-116635000D01*
X184020516Y-116611343D01*
X184328715Y-116517852D01*
X184612752Y-116366031D01*
X184861714Y-116161714D01*
X185066031Y-115912752D01*
X185217852Y-115628715D01*
X185311343Y-115320516D01*
X185342911Y-115000000D01*
X185311343Y-114679484D01*
X185217852Y-114371285D01*
X185066031Y-114087248D01*
X184861714Y-113838286D01*
X184612752Y-113633969D01*
X184328715Y-113482148D01*
X184020516Y-113388657D01*
X183780322Y-113365000D01*
X183019678Y-113365000D01*
X182779484Y-113388657D01*
X182471285Y-113482148D01*
X182187248Y-113633969D01*
X181938286Y-113838286D01*
X181733969Y-114087248D01*
X181582148Y-114371285D01*
X181488657Y-114679484D01*
X181457089Y-115000000D01*
X133256840Y-115000000D01*
X133210852Y-114782652D01*
X132989484Y-114681763D01*
X132752687Y-114626000D01*
X132509562Y-114617505D01*
X132269451Y-114656605D01*
X132041582Y-114741798D01*
X131965148Y-114782652D01*
X131917841Y-115006236D01*
X114838072Y-115006236D01*
X114838072Y-112800000D01*
X114825812Y-112675518D01*
X114789502Y-112555820D01*
X114730537Y-112445506D01*
X114651185Y-112348815D01*
X114554494Y-112269463D01*
X114444180Y-112210498D01*
X114324482Y-112174188D01*
X114200000Y-112161928D01*
X112400000Y-112161928D01*
X112275518Y-112174188D01*
X112155820Y-112210498D01*
X112045506Y-112269463D01*
X111948815Y-112348815D01*
X111869463Y-112445506D01*
X111810498Y-112555820D01*
X111774188Y-112675518D01*
X111761928Y-112800000D01*
X108579282Y-112800000D01*
X108356927Y-112617519D01*
X108090261Y-112474983D01*
X107800913Y-112387210D01*
X107500000Y-112357573D01*
X107199088Y-112387210D01*
X106909740Y-112474983D01*
X106643074Y-112617519D01*
X106409340Y-112809339D01*
X106217520Y-113043073D01*
X106074984Y-113309739D01*
X105987211Y-113599087D01*
X105965001Y-113824592D01*
X105965000Y-116175407D01*
X100660000Y-116175407D01*
X100660000Y-111364665D01*
X141567000Y-111364665D01*
X141567000Y-111647335D01*
X141622147Y-111924574D01*
X141730320Y-112185727D01*
X141887363Y-112420759D01*
X142087241Y-112620637D01*
X142322273Y-112777680D01*
X142583426Y-112885853D01*
X142860665Y-112941000D01*
X143143335Y-112941000D01*
X143420574Y-112885853D01*
X143681727Y-112777680D01*
X143916759Y-112620637D01*
X144116637Y-112420759D01*
X144272000Y-112188241D01*
X144427363Y-112420759D01*
X144627241Y-112620637D01*
X144862273Y-112777680D01*
X145123426Y-112885853D01*
X145400665Y-112941000D01*
X145683335Y-112941000D01*
X145960574Y-112885853D01*
X146221727Y-112777680D01*
X146456759Y-112620637D01*
X146656637Y-112420759D01*
X146812000Y-112188241D01*
X146967363Y-112420759D01*
X147167241Y-112620637D01*
X147402273Y-112777680D01*
X147663426Y-112885853D01*
X147940665Y-112941000D01*
X148223335Y-112941000D01*
X148500574Y-112885853D01*
X148761727Y-112777680D01*
X148996759Y-112620637D01*
X149196637Y-112420759D01*
X149352000Y-112188241D01*
X149507363Y-112420759D01*
X149707241Y-112620637D01*
X149942273Y-112777680D01*
X150203426Y-112885853D01*
X150480665Y-112941000D01*
X150763335Y-112941000D01*
X151040574Y-112885853D01*
X151301727Y-112777680D01*
X151536759Y-112620637D01*
X151736637Y-112420759D01*
X151892000Y-112188241D01*
X152047363Y-112420759D01*
X152247241Y-112620637D01*
X152482273Y-112777680D01*
X152743426Y-112885853D01*
X153020665Y-112941000D01*
X153303335Y-112941000D01*
X153580574Y-112885853D01*
X153841727Y-112777680D01*
X154076759Y-112620637D01*
X154276637Y-112420759D01*
X154432000Y-112188241D01*
X154587363Y-112420759D01*
X154787241Y-112620637D01*
X155022273Y-112777680D01*
X155283426Y-112885853D01*
X155560665Y-112941000D01*
X155843335Y-112941000D01*
X156120574Y-112885853D01*
X156381727Y-112777680D01*
X156616759Y-112620637D01*
X156816637Y-112420759D01*
X156972000Y-112188241D01*
X157127363Y-112420759D01*
X157327241Y-112620637D01*
X157562273Y-112777680D01*
X157823426Y-112885853D01*
X158100665Y-112941000D01*
X158383335Y-112941000D01*
X158660574Y-112885853D01*
X158921727Y-112777680D01*
X159156759Y-112620637D01*
X159356637Y-112420759D01*
X159513680Y-112185727D01*
X159621853Y-111924574D01*
X159677000Y-111647335D01*
X159677000Y-111364665D01*
X159656977Y-111264000D01*
X171839928Y-111264000D01*
X171839928Y-112764000D01*
X171852188Y-112888482D01*
X171888498Y-113008180D01*
X171947463Y-113118494D01*
X172026815Y-113215185D01*
X172123506Y-113294537D01*
X172233820Y-113353502D01*
X172353518Y-113389812D01*
X172478000Y-113402072D01*
X173978000Y-113402072D01*
X174102482Y-113389812D01*
X174222180Y-113353502D01*
X174332494Y-113294537D01*
X174429185Y-113215185D01*
X174508537Y-113118494D01*
X174567502Y-113008180D01*
X174603812Y-112888482D01*
X174616072Y-112764000D01*
X174616072Y-111264000D01*
X174603812Y-111139518D01*
X174567502Y-111019820D01*
X174508537Y-110909506D01*
X174429185Y-110812815D01*
X174332494Y-110733463D01*
X174222180Y-110674498D01*
X174102482Y-110638188D01*
X173978000Y-110625928D01*
X172478000Y-110625928D01*
X172353518Y-110638188D01*
X172233820Y-110674498D01*
X172123506Y-110733463D01*
X172026815Y-110812815D01*
X171947463Y-110909506D01*
X171888498Y-111019820D01*
X171852188Y-111139518D01*
X171839928Y-111264000D01*
X159656977Y-111264000D01*
X159621853Y-111087426D01*
X159513680Y-110826273D01*
X159356637Y-110591241D01*
X159156759Y-110391363D01*
X158921727Y-110234320D01*
X158660574Y-110126147D01*
X158383335Y-110071000D01*
X158100665Y-110071000D01*
X157823426Y-110126147D01*
X157562273Y-110234320D01*
X157327241Y-110391363D01*
X157127363Y-110591241D01*
X156972000Y-110823759D01*
X156816637Y-110591241D01*
X156616759Y-110391363D01*
X156381727Y-110234320D01*
X156120574Y-110126147D01*
X155843335Y-110071000D01*
X155560665Y-110071000D01*
X155283426Y-110126147D01*
X155022273Y-110234320D01*
X154787241Y-110391363D01*
X154587363Y-110591241D01*
X154432000Y-110823759D01*
X154276637Y-110591241D01*
X154076759Y-110391363D01*
X153841727Y-110234320D01*
X153580574Y-110126147D01*
X153303335Y-110071000D01*
X153020665Y-110071000D01*
X152743426Y-110126147D01*
X152482273Y-110234320D01*
X152247241Y-110391363D01*
X152047363Y-110591241D01*
X151892000Y-110823759D01*
X151736637Y-110591241D01*
X151536759Y-110391363D01*
X151301727Y-110234320D01*
X151040574Y-110126147D01*
X150763335Y-110071000D01*
X150480665Y-110071000D01*
X150203426Y-110126147D01*
X149942273Y-110234320D01*
X149707241Y-110391363D01*
X149507363Y-110591241D01*
X149352000Y-110823759D01*
X149196637Y-110591241D01*
X148996759Y-110391363D01*
X148761727Y-110234320D01*
X148500574Y-110126147D01*
X148223335Y-110071000D01*
X147940665Y-110071000D01*
X147663426Y-110126147D01*
X147402273Y-110234320D01*
X147167241Y-110391363D01*
X146967363Y-110591241D01*
X146812000Y-110823759D01*
X146656637Y-110591241D01*
X146456759Y-110391363D01*
X146221727Y-110234320D01*
X145960574Y-110126147D01*
X145683335Y-110071000D01*
X145400665Y-110071000D01*
X145123426Y-110126147D01*
X144862273Y-110234320D01*
X144627241Y-110391363D01*
X144427363Y-110591241D01*
X144272000Y-110823759D01*
X144116637Y-110591241D01*
X143916759Y-110391363D01*
X143681727Y-110234320D01*
X143420574Y-110126147D01*
X143143335Y-110071000D01*
X142860665Y-110071000D01*
X142583426Y-110126147D01*
X142322273Y-110234320D01*
X142087241Y-110391363D01*
X141887363Y-110591241D01*
X141730320Y-110826273D01*
X141622147Y-111087426D01*
X141567000Y-111364665D01*
X100660000Y-111364665D01*
X100660000Y-110000000D01*
X178957089Y-110000000D01*
X178988657Y-110320516D01*
X179082148Y-110628715D01*
X179233969Y-110912752D01*
X179438286Y-111161714D01*
X179687248Y-111366031D01*
X179971285Y-111517852D01*
X180279484Y-111611343D01*
X180519678Y-111635000D01*
X181280322Y-111635000D01*
X181520516Y-111611343D01*
X181828715Y-111517852D01*
X182112752Y-111366031D01*
X182361714Y-111161714D01*
X182566031Y-110912752D01*
X182717852Y-110628715D01*
X182811343Y-110320516D01*
X182842911Y-110000000D01*
X182811343Y-109679484D01*
X182775801Y-109562317D01*
X191615000Y-109562317D01*
X191615000Y-110437682D01*
X191640828Y-110699920D01*
X191742896Y-111036394D01*
X191857071Y-111250000D01*
X191742896Y-111463605D01*
X191640828Y-111800079D01*
X191615000Y-112062317D01*
X191615000Y-112937682D01*
X191640828Y-113199920D01*
X191742896Y-113536394D01*
X191908646Y-113846490D01*
X192131708Y-114118292D01*
X192403509Y-114341354D01*
X192713605Y-114507104D01*
X193050079Y-114609172D01*
X193400000Y-114643636D01*
X193749920Y-114609172D01*
X194086394Y-114507104D01*
X194396490Y-114341354D01*
X194668292Y-114118292D01*
X194891354Y-113846491D01*
X195057104Y-113536395D01*
X195159172Y-113199921D01*
X195185000Y-112937683D01*
X195185000Y-112062318D01*
X195159172Y-111800079D01*
X195057104Y-111463605D01*
X194942930Y-111250000D01*
X195057104Y-111036395D01*
X195159172Y-110699921D01*
X195185000Y-110437683D01*
X195185000Y-109562318D01*
X195159172Y-109300079D01*
X195057104Y-108963605D01*
X194891354Y-108653509D01*
X194668292Y-108381708D01*
X194396491Y-108158646D01*
X194086395Y-107992896D01*
X193749921Y-107890828D01*
X193400000Y-107856364D01*
X193050080Y-107890828D01*
X192713606Y-107992896D01*
X192403510Y-108158646D01*
X192131709Y-108381708D01*
X191908646Y-108653509D01*
X191742896Y-108963605D01*
X191640828Y-109300079D01*
X191615000Y-109562317D01*
X182775801Y-109562317D01*
X182717852Y-109371285D01*
X182566031Y-109087248D01*
X182521607Y-109033117D01*
X182779484Y-109111343D01*
X183019678Y-109135000D01*
X183780322Y-109135000D01*
X184020516Y-109111343D01*
X184328715Y-109017852D01*
X184612752Y-108866031D01*
X184861714Y-108661714D01*
X185066031Y-108412752D01*
X185217852Y-108128715D01*
X185311343Y-107820516D01*
X185342911Y-107500000D01*
X185311343Y-107179484D01*
X185217852Y-106871285D01*
X185066031Y-106587248D01*
X184861714Y-106338286D01*
X184612752Y-106133969D01*
X184328715Y-105982148D01*
X184020516Y-105888657D01*
X183780322Y-105865000D01*
X183019678Y-105865000D01*
X182779484Y-105888657D01*
X182471285Y-105982148D01*
X182187248Y-106133969D01*
X181938286Y-106338286D01*
X181733969Y-106587248D01*
X181582148Y-106871285D01*
X181488657Y-107179484D01*
X181457089Y-107500000D01*
X181488657Y-107820516D01*
X181582148Y-108128715D01*
X181733969Y-108412752D01*
X181778393Y-108466883D01*
X181520516Y-108388657D01*
X181280322Y-108365000D01*
X180519678Y-108365000D01*
X180279484Y-108388657D01*
X179971285Y-108482148D01*
X179687248Y-108633969D01*
X179438286Y-108838286D01*
X179233969Y-109087248D01*
X179082148Y-109371285D01*
X178988657Y-109679484D01*
X178957089Y-110000000D01*
X100660000Y-110000000D01*
X100660000Y-106908665D01*
X102995000Y-106908665D01*
X102995000Y-107191335D01*
X103050147Y-107468574D01*
X103158320Y-107729727D01*
X103315363Y-107964759D01*
X103515241Y-108164637D01*
X103750273Y-108321680D01*
X104011426Y-108429853D01*
X104288665Y-108485000D01*
X104571335Y-108485000D01*
X104848574Y-108429853D01*
X105109727Y-108321680D01*
X105344759Y-108164637D01*
X105544637Y-107964759D01*
X105701680Y-107729727D01*
X105809853Y-107468574D01*
X105865000Y-107191335D01*
X105865000Y-106908665D01*
X105809853Y-106631426D01*
X105701680Y-106370273D01*
X105621317Y-106250000D01*
X110611928Y-106250000D01*
X110611928Y-107850000D01*
X110624188Y-107974482D01*
X110660498Y-108094180D01*
X110719463Y-108204494D01*
X110798815Y-108301185D01*
X110895506Y-108380537D01*
X111005820Y-108439502D01*
X111125518Y-108475812D01*
X111250000Y-108488072D01*
X112850000Y-108488072D01*
X112974482Y-108475812D01*
X113094180Y-108439502D01*
X113204494Y-108380537D01*
X113301185Y-108301185D01*
X113380537Y-108204494D01*
X113439502Y-108094180D01*
X113475812Y-107974482D01*
X113488072Y-107850000D01*
X113488072Y-106250000D01*
X113475812Y-106125518D01*
X113439502Y-106005820D01*
X113380537Y-105895506D01*
X113301185Y-105798815D01*
X113204494Y-105719463D01*
X113094180Y-105660498D01*
X112974482Y-105624188D01*
X112850000Y-105611928D01*
X111250000Y-105611928D01*
X111125518Y-105624188D01*
X111005820Y-105660498D01*
X110895506Y-105719463D01*
X110798815Y-105798815D01*
X110719463Y-105895506D01*
X110660498Y-106005820D01*
X110624188Y-106125518D01*
X110611928Y-106250000D01*
X105621317Y-106250000D01*
X105544637Y-106135241D01*
X105344759Y-105935363D01*
X105109727Y-105778320D01*
X104848574Y-105670147D01*
X104571335Y-105615000D01*
X104288665Y-105615000D01*
X104011426Y-105670147D01*
X103750273Y-105778320D01*
X103515241Y-105935363D01*
X103315363Y-106135241D01*
X103158320Y-106370273D01*
X103050147Y-106631426D01*
X102995000Y-106908665D01*
X100660000Y-106908665D01*
X100660000Y-101828665D01*
X102995000Y-101828665D01*
X102995000Y-102111335D01*
X103050147Y-102388574D01*
X103158320Y-102649727D01*
X103315363Y-102884759D01*
X103515241Y-103084637D01*
X103750273Y-103241680D01*
X104011426Y-103349853D01*
X104288665Y-103405000D01*
X104571335Y-103405000D01*
X104848574Y-103349853D01*
X105109727Y-103241680D01*
X105344759Y-103084637D01*
X105544637Y-102884759D01*
X105701680Y-102649727D01*
X105809853Y-102388574D01*
X105823684Y-102319039D01*
X110658096Y-102319039D01*
X110698754Y-102453087D01*
X110818963Y-102707420D01*
X110986481Y-102933414D01*
X111194869Y-103122385D01*
X111436119Y-103267070D01*
X111700960Y-103361909D01*
X111923000Y-103240624D01*
X111923000Y-102097000D01*
X112177000Y-102097000D01*
X112177000Y-103240624D01*
X112399040Y-103361909D01*
X112663881Y-103267070D01*
X112905131Y-103122385D01*
X113113519Y-102933414D01*
X113281037Y-102707420D01*
X113401246Y-102453087D01*
X113441904Y-102319039D01*
X113387316Y-102219679D01*
X118545000Y-102219679D01*
X118545000Y-102980322D01*
X118568657Y-103220516D01*
X118662148Y-103528715D01*
X118813969Y-103812752D01*
X119018286Y-104061714D01*
X119267249Y-104266031D01*
X119551286Y-104417852D01*
X119859485Y-104511343D01*
X120180000Y-104542911D01*
X120500516Y-104511343D01*
X120808715Y-104417852D01*
X121092752Y-104266031D01*
X121146883Y-104221607D01*
X121068657Y-104479485D01*
X121045000Y-104719679D01*
X121045000Y-105480322D01*
X121068657Y-105720516D01*
X121162148Y-106028715D01*
X121313969Y-106312752D01*
X121518286Y-106561714D01*
X121767249Y-106766031D01*
X122051286Y-106917852D01*
X122359485Y-107011343D01*
X122680000Y-107042911D01*
X123000516Y-107011343D01*
X123308715Y-106917852D01*
X123592752Y-106766031D01*
X123841714Y-106561714D01*
X124046031Y-106312752D01*
X124197852Y-106028715D01*
X124291343Y-105720515D01*
X124315000Y-105480321D01*
X124315000Y-104719679D01*
X131045000Y-104719679D01*
X131045000Y-105480322D01*
X131068657Y-105720516D01*
X131162148Y-106028715D01*
X131313969Y-106312752D01*
X131518286Y-106561714D01*
X131767249Y-106766031D01*
X132051286Y-106917852D01*
X132359485Y-107011343D01*
X132680000Y-107042911D01*
X133000516Y-107011343D01*
X133308715Y-106917852D01*
X133592752Y-106766031D01*
X133841714Y-106561714D01*
X134046031Y-106312752D01*
X134197852Y-106028715D01*
X134291343Y-105720515D01*
X134315000Y-105480321D01*
X134315000Y-104719678D01*
X134291343Y-104479484D01*
X134213117Y-104221606D01*
X134267249Y-104266031D01*
X134551286Y-104417852D01*
X134859485Y-104511343D01*
X135180000Y-104542911D01*
X135500516Y-104511343D01*
X135808715Y-104417852D01*
X136092752Y-104266031D01*
X136341714Y-104061714D01*
X136546031Y-103812752D01*
X136697852Y-103528715D01*
X136791343Y-103220515D01*
X136815000Y-102980321D01*
X136815000Y-102219679D01*
X138865000Y-102219679D01*
X138865000Y-102980322D01*
X138888657Y-103220516D01*
X138982148Y-103528715D01*
X139133969Y-103812752D01*
X139338286Y-104061714D01*
X139587249Y-104266031D01*
X139871286Y-104417852D01*
X140179485Y-104511343D01*
X140500000Y-104542911D01*
X140820516Y-104511343D01*
X141128715Y-104417852D01*
X141412752Y-104266031D01*
X141466883Y-104221607D01*
X141388657Y-104479485D01*
X141365000Y-104719679D01*
X141365000Y-105480322D01*
X141388657Y-105720516D01*
X141482148Y-106028715D01*
X141633969Y-106312752D01*
X141838286Y-106561714D01*
X142087249Y-106766031D01*
X142371286Y-106917852D01*
X142679485Y-107011343D01*
X143000000Y-107042911D01*
X143320516Y-107011343D01*
X143628715Y-106917852D01*
X143912752Y-106766031D01*
X144161714Y-106561714D01*
X144366031Y-106312752D01*
X144517852Y-106028715D01*
X144611343Y-105720515D01*
X144635000Y-105480321D01*
X144635000Y-104719679D01*
X151365000Y-104719679D01*
X151365000Y-105480322D01*
X151388657Y-105720516D01*
X151482148Y-106028715D01*
X151633969Y-106312752D01*
X151838286Y-106561714D01*
X152087249Y-106766031D01*
X152371286Y-106917852D01*
X152679485Y-107011343D01*
X153000000Y-107042911D01*
X153320516Y-107011343D01*
X153628715Y-106917852D01*
X153912752Y-106766031D01*
X154161714Y-106561714D01*
X154366031Y-106312752D01*
X154517852Y-106028715D01*
X154611343Y-105720515D01*
X154635000Y-105480321D01*
X154635000Y-104719678D01*
X154611343Y-104479484D01*
X154533117Y-104221606D01*
X154587249Y-104266031D01*
X154871286Y-104417852D01*
X155179485Y-104511343D01*
X155500000Y-104542911D01*
X155820516Y-104511343D01*
X156128715Y-104417852D01*
X156412752Y-104266031D01*
X156661714Y-104061714D01*
X156866031Y-103812752D01*
X157017852Y-103528715D01*
X157111343Y-103220515D01*
X157135000Y-102980321D01*
X157135000Y-102219678D01*
X157111343Y-101979484D01*
X157017852Y-101671285D01*
X156866031Y-101387248D01*
X156661714Y-101138286D01*
X156412751Y-100933969D01*
X156128714Y-100782148D01*
X155820515Y-100688657D01*
X155500000Y-100657089D01*
X155179484Y-100688657D01*
X154871285Y-100782148D01*
X154587248Y-100933969D01*
X154338286Y-101138286D01*
X154133969Y-101387249D01*
X153982148Y-101671286D01*
X153888657Y-101979485D01*
X153865000Y-102219679D01*
X153865000Y-102980322D01*
X153888657Y-103220516D01*
X153966883Y-103478394D01*
X153912751Y-103433969D01*
X153628714Y-103282148D01*
X153320515Y-103188657D01*
X153000000Y-103157089D01*
X152679484Y-103188657D01*
X152371285Y-103282148D01*
X152087248Y-103433969D01*
X151838286Y-103638286D01*
X151633969Y-103887249D01*
X151482148Y-104171286D01*
X151388657Y-104479485D01*
X151365000Y-104719679D01*
X144635000Y-104719679D01*
X144635000Y-104719678D01*
X144611343Y-104479484D01*
X144517852Y-104171285D01*
X144366031Y-103887248D01*
X144161714Y-103638286D01*
X143912751Y-103433969D01*
X143628714Y-103282148D01*
X143320515Y-103188657D01*
X143000000Y-103157089D01*
X142679484Y-103188657D01*
X142371285Y-103282148D01*
X142087248Y-103433969D01*
X142033117Y-103478393D01*
X142111343Y-103220515D01*
X142135000Y-102980321D01*
X142135000Y-102727000D01*
X146365000Y-102727000D01*
X146365000Y-103027000D01*
X146421193Y-103343532D01*
X146538058Y-103643020D01*
X146711105Y-103913954D01*
X146933683Y-104145922D01*
X147197239Y-104330010D01*
X147491645Y-104459144D01*
X147619566Y-104490124D01*
X147873000Y-104370777D01*
X147873000Y-102727000D01*
X148127000Y-102727000D01*
X148127000Y-104370777D01*
X148380434Y-104490124D01*
X148508355Y-104459144D01*
X148802761Y-104330010D01*
X149066317Y-104145922D01*
X149288895Y-103913954D01*
X149461942Y-103643020D01*
X149578807Y-103343532D01*
X149635000Y-103027000D01*
X149635000Y-102727000D01*
X148127000Y-102727000D01*
X147873000Y-102727000D01*
X146365000Y-102727000D01*
X142135000Y-102727000D01*
X142135000Y-102219678D01*
X142130403Y-102173000D01*
X146365000Y-102173000D01*
X146365000Y-102473000D01*
X147873000Y-102473000D01*
X147873000Y-100829223D01*
X148127000Y-100829223D01*
X148127000Y-102473000D01*
X149635000Y-102473000D01*
X149635000Y-102173000D01*
X149578807Y-101856468D01*
X149461942Y-101556980D01*
X149288895Y-101286046D01*
X149066317Y-101054078D01*
X148802761Y-100869990D01*
X148508355Y-100740856D01*
X148380434Y-100709876D01*
X148127000Y-100829223D01*
X147873000Y-100829223D01*
X147619566Y-100709876D01*
X147491645Y-100740856D01*
X147197239Y-100869990D01*
X146933683Y-101054078D01*
X146711105Y-101286046D01*
X146538058Y-101556980D01*
X146421193Y-101856468D01*
X146365000Y-102173000D01*
X142130403Y-102173000D01*
X142111343Y-101979484D01*
X142017852Y-101671285D01*
X141866031Y-101387248D01*
X141661714Y-101138286D01*
X141412751Y-100933969D01*
X141128714Y-100782148D01*
X140820515Y-100688657D01*
X140500000Y-100657089D01*
X140179484Y-100688657D01*
X139871285Y-100782148D01*
X139587248Y-100933969D01*
X139338286Y-101138286D01*
X139133969Y-101387249D01*
X138982148Y-101671286D01*
X138888657Y-101979485D01*
X138865000Y-102219679D01*
X136815000Y-102219679D01*
X136815000Y-102219678D01*
X136791343Y-101979484D01*
X136697852Y-101671285D01*
X136546031Y-101387248D01*
X136341714Y-101138286D01*
X136092751Y-100933969D01*
X135808714Y-100782148D01*
X135500515Y-100688657D01*
X135180000Y-100657089D01*
X134859484Y-100688657D01*
X134551285Y-100782148D01*
X134267248Y-100933969D01*
X134018286Y-101138286D01*
X133813969Y-101387249D01*
X133662148Y-101671286D01*
X133568657Y-101979485D01*
X133545000Y-102219679D01*
X133545000Y-102980322D01*
X133568657Y-103220516D01*
X133646883Y-103478394D01*
X133592751Y-103433969D01*
X133308714Y-103282148D01*
X133000515Y-103188657D01*
X132680000Y-103157089D01*
X132359484Y-103188657D01*
X132051285Y-103282148D01*
X131767248Y-103433969D01*
X131518286Y-103638286D01*
X131313969Y-103887249D01*
X131162148Y-104171286D01*
X131068657Y-104479485D01*
X131045000Y-104719679D01*
X124315000Y-104719679D01*
X124315000Y-104719678D01*
X124291343Y-104479484D01*
X124197852Y-104171285D01*
X124046031Y-103887248D01*
X123841714Y-103638286D01*
X123592751Y-103433969D01*
X123308714Y-103282148D01*
X123000515Y-103188657D01*
X122680000Y-103157089D01*
X122359484Y-103188657D01*
X122051285Y-103282148D01*
X121767248Y-103433969D01*
X121713117Y-103478393D01*
X121791343Y-103220515D01*
X121815000Y-102980321D01*
X121815000Y-102727000D01*
X126045000Y-102727000D01*
X126045000Y-103027000D01*
X126101193Y-103343532D01*
X126218058Y-103643020D01*
X126391105Y-103913954D01*
X126613683Y-104145922D01*
X126877239Y-104330010D01*
X127171645Y-104459144D01*
X127299566Y-104490124D01*
X127553000Y-104370777D01*
X127553000Y-102727000D01*
X127807000Y-102727000D01*
X127807000Y-104370777D01*
X128060434Y-104490124D01*
X128188355Y-104459144D01*
X128482761Y-104330010D01*
X128746317Y-104145922D01*
X128968895Y-103913954D01*
X129141942Y-103643020D01*
X129258807Y-103343532D01*
X129315000Y-103027000D01*
X129315000Y-102727000D01*
X127807000Y-102727000D01*
X127553000Y-102727000D01*
X126045000Y-102727000D01*
X121815000Y-102727000D01*
X121815000Y-102219678D01*
X121810403Y-102173000D01*
X126045000Y-102173000D01*
X126045000Y-102473000D01*
X127553000Y-102473000D01*
X127553000Y-100829223D01*
X127807000Y-100829223D01*
X127807000Y-102473000D01*
X129315000Y-102473000D01*
X129315000Y-102173000D01*
X129258807Y-101856468D01*
X129141942Y-101556980D01*
X128968895Y-101286046D01*
X128746317Y-101054078D01*
X128482761Y-100869990D01*
X128188355Y-100740856D01*
X128060434Y-100709876D01*
X127807000Y-100829223D01*
X127553000Y-100829223D01*
X127299566Y-100709876D01*
X127171645Y-100740856D01*
X126877239Y-100869990D01*
X126613683Y-101054078D01*
X126391105Y-101286046D01*
X126218058Y-101556980D01*
X126101193Y-101856468D01*
X126045000Y-102173000D01*
X121810403Y-102173000D01*
X121791343Y-101979484D01*
X121697852Y-101671285D01*
X121546031Y-101387248D01*
X121341714Y-101138286D01*
X121092751Y-100933969D01*
X120808714Y-100782148D01*
X120500515Y-100688657D01*
X120180000Y-100657089D01*
X119859484Y-100688657D01*
X119551285Y-100782148D01*
X119267248Y-100933969D01*
X119018286Y-101138286D01*
X118813969Y-101387249D01*
X118662148Y-101671286D01*
X118568657Y-101979485D01*
X118545000Y-102219679D01*
X113387316Y-102219679D01*
X113319915Y-102097000D01*
X112177000Y-102097000D01*
X111923000Y-102097000D01*
X110780085Y-102097000D01*
X110658096Y-102319039D01*
X105823684Y-102319039D01*
X105865000Y-102111335D01*
X105865000Y-101828665D01*
X105823685Y-101620961D01*
X110658096Y-101620961D01*
X110780085Y-101843000D01*
X111923000Y-101843000D01*
X111923000Y-100699376D01*
X112177000Y-100699376D01*
X112177000Y-101843000D01*
X113319915Y-101843000D01*
X113441904Y-101620961D01*
X113401246Y-101486913D01*
X113281037Y-101232580D01*
X113113519Y-101006586D01*
X112905131Y-100817615D01*
X112663881Y-100672930D01*
X112399040Y-100578091D01*
X112177000Y-100699376D01*
X111923000Y-100699376D01*
X111700960Y-100578091D01*
X111436119Y-100672930D01*
X111194869Y-100817615D01*
X110986481Y-101006586D01*
X110818963Y-101232580D01*
X110698754Y-101486913D01*
X110658096Y-101620961D01*
X105823685Y-101620961D01*
X105809853Y-101551426D01*
X105701680Y-101290273D01*
X105544637Y-101055241D01*
X105344759Y-100855363D01*
X105109727Y-100698320D01*
X104848574Y-100590147D01*
X104571335Y-100535000D01*
X104288665Y-100535000D01*
X104011426Y-100590147D01*
X103750273Y-100698320D01*
X103515241Y-100855363D01*
X103315363Y-101055241D01*
X103158320Y-101290273D01*
X103050147Y-101551426D01*
X102995000Y-101828665D01*
X100660000Y-101828665D01*
X100660000Y-95579117D01*
X103515000Y-95579117D01*
X103515000Y-95920883D01*
X103581675Y-96256081D01*
X103712463Y-96571831D01*
X103902337Y-96855998D01*
X104144002Y-97097663D01*
X104428169Y-97287537D01*
X104743919Y-97418325D01*
X105079117Y-97485000D01*
X105420883Y-97485000D01*
X105756081Y-97418325D01*
X106071831Y-97287537D01*
X106355998Y-97097663D01*
X106597663Y-96855998D01*
X106787537Y-96571831D01*
X106918325Y-96256081D01*
X106985000Y-95920883D01*
X106985000Y-95579117D01*
X189015000Y-95579117D01*
X189015000Y-95920883D01*
X189081675Y-96256081D01*
X189212463Y-96571831D01*
X189402337Y-96855998D01*
X189644002Y-97097663D01*
X189928169Y-97287537D01*
X190243919Y-97418325D01*
X190579117Y-97485000D01*
X190920883Y-97485000D01*
X191256081Y-97418325D01*
X191571831Y-97287537D01*
X191855998Y-97097663D01*
X192097663Y-96855998D01*
X192287537Y-96571831D01*
X192418325Y-96256081D01*
X192485000Y-95920883D01*
X192485000Y-95579117D01*
X192418325Y-95243919D01*
X192287537Y-94928169D01*
X192097663Y-94644002D01*
X191855998Y-94402337D01*
X191571831Y-94212463D01*
X191256081Y-94081675D01*
X190920883Y-94015000D01*
X190579117Y-94015000D01*
X190243919Y-94081675D01*
X189928169Y-94212463D01*
X189644002Y-94402337D01*
X189402337Y-94644002D01*
X189212463Y-94928169D01*
X189081675Y-95243919D01*
X189015000Y-95579117D01*
X106985000Y-95579117D01*
X106918325Y-95243919D01*
X106787537Y-94928169D01*
X106597663Y-94644002D01*
X106355998Y-94402337D01*
X106071831Y-94212463D01*
X105756081Y-94081675D01*
X105420883Y-94015000D01*
X105079117Y-94015000D01*
X104743919Y-94081675D01*
X104428169Y-94212463D01*
X104144002Y-94402337D01*
X103902337Y-94644002D01*
X103712463Y-94928169D01*
X103581675Y-95243919D01*
X103515000Y-95579117D01*
X100660000Y-95579117D01*
X100660000Y-93032279D01*
X100702385Y-92600000D01*
X120536364Y-92600000D01*
X120570828Y-92949921D01*
X120672896Y-93286395D01*
X120838646Y-93596491D01*
X121061708Y-93868292D01*
X121333509Y-94091354D01*
X121643605Y-94257104D01*
X121980079Y-94359172D01*
X122242317Y-94385000D01*
X123117683Y-94385000D01*
X123379921Y-94359172D01*
X123716395Y-94257104D01*
X123930000Y-94142930D01*
X124143605Y-94257104D01*
X124480079Y-94359172D01*
X124742317Y-94385000D01*
X125617683Y-94385000D01*
X125879921Y-94359172D01*
X126216395Y-94257104D01*
X126526491Y-94091354D01*
X126798292Y-93868292D01*
X127021354Y-93596491D01*
X127187104Y-93286395D01*
X127289172Y-92949921D01*
X127323636Y-92600000D01*
X128036364Y-92600000D01*
X128070828Y-92949921D01*
X128172896Y-93286395D01*
X128338646Y-93596491D01*
X128561708Y-93868292D01*
X128833509Y-94091354D01*
X129143605Y-94257104D01*
X129480079Y-94359172D01*
X129742317Y-94385000D01*
X130617683Y-94385000D01*
X130879921Y-94359172D01*
X131216395Y-94257104D01*
X131430000Y-94142930D01*
X131643605Y-94257104D01*
X131980079Y-94359172D01*
X132242317Y-94385000D01*
X133117683Y-94385000D01*
X133379921Y-94359172D01*
X133716395Y-94257104D01*
X134026491Y-94091354D01*
X134298292Y-93868292D01*
X134521354Y-93596491D01*
X134687104Y-93286395D01*
X134789172Y-92949921D01*
X134823636Y-92600000D01*
X140856364Y-92600000D01*
X140890828Y-92949921D01*
X140992896Y-93286395D01*
X141158646Y-93596491D01*
X141381708Y-93868292D01*
X141653509Y-94091354D01*
X141963605Y-94257104D01*
X142300079Y-94359172D01*
X142562317Y-94385000D01*
X143437683Y-94385000D01*
X143699921Y-94359172D01*
X144036395Y-94257104D01*
X144250000Y-94142930D01*
X144463605Y-94257104D01*
X144800079Y-94359172D01*
X145062317Y-94385000D01*
X145937683Y-94385000D01*
X146199921Y-94359172D01*
X146536395Y-94257104D01*
X146846491Y-94091354D01*
X147118292Y-93868292D01*
X147341354Y-93596491D01*
X147507104Y-93286395D01*
X147609172Y-92949921D01*
X147643636Y-92600000D01*
X148356364Y-92600000D01*
X148390828Y-92949921D01*
X148492896Y-93286395D01*
X148658646Y-93596491D01*
X148881708Y-93868292D01*
X149153509Y-94091354D01*
X149463605Y-94257104D01*
X149800079Y-94359172D01*
X150062317Y-94385000D01*
X150937683Y-94385000D01*
X151199921Y-94359172D01*
X151536395Y-94257104D01*
X151750000Y-94142930D01*
X151963605Y-94257104D01*
X152300079Y-94359172D01*
X152562317Y-94385000D01*
X153437683Y-94385000D01*
X153699921Y-94359172D01*
X154036395Y-94257104D01*
X154346491Y-94091354D01*
X154618292Y-93868292D01*
X154841354Y-93596491D01*
X155007104Y-93286395D01*
X155109172Y-92949921D01*
X155143636Y-92600000D01*
X155109172Y-92250079D01*
X155007104Y-91913605D01*
X154841354Y-91603509D01*
X154618292Y-91331708D01*
X154346491Y-91108646D01*
X154036395Y-90942896D01*
X153699921Y-90840828D01*
X153437683Y-90815000D01*
X152562317Y-90815000D01*
X152300079Y-90840828D01*
X151963605Y-90942896D01*
X151750000Y-91057070D01*
X151536395Y-90942896D01*
X151199921Y-90840828D01*
X150937683Y-90815000D01*
X150062317Y-90815000D01*
X149800079Y-90840828D01*
X149463605Y-90942896D01*
X149153509Y-91108646D01*
X148881708Y-91331708D01*
X148658646Y-91603509D01*
X148492896Y-91913605D01*
X148390828Y-92250079D01*
X148356364Y-92600000D01*
X147643636Y-92600000D01*
X147609172Y-92250079D01*
X147507104Y-91913605D01*
X147341354Y-91603509D01*
X147118292Y-91331708D01*
X146846491Y-91108646D01*
X146536395Y-90942896D01*
X146199921Y-90840828D01*
X145937683Y-90815000D01*
X145062317Y-90815000D01*
X144800079Y-90840828D01*
X144463605Y-90942896D01*
X144250000Y-91057070D01*
X144036395Y-90942896D01*
X143699921Y-90840828D01*
X143437683Y-90815000D01*
X142562317Y-90815000D01*
X142300079Y-90840828D01*
X141963605Y-90942896D01*
X141653509Y-91108646D01*
X141381708Y-91331708D01*
X141158646Y-91603509D01*
X140992896Y-91913605D01*
X140890828Y-92250079D01*
X140856364Y-92600000D01*
X134823636Y-92600000D01*
X134789172Y-92250079D01*
X134687104Y-91913605D01*
X134521354Y-91603509D01*
X134298292Y-91331708D01*
X134026491Y-91108646D01*
X133716395Y-90942896D01*
X133379921Y-90840828D01*
X133117683Y-90815000D01*
X132242317Y-90815000D01*
X131980079Y-90840828D01*
X131643605Y-90942896D01*
X131430000Y-91057070D01*
X131216395Y-90942896D01*
X130879921Y-90840828D01*
X130617683Y-90815000D01*
X129742317Y-90815000D01*
X129480079Y-90840828D01*
X129143605Y-90942896D01*
X128833509Y-91108646D01*
X128561708Y-91331708D01*
X128338646Y-91603509D01*
X128172896Y-91913605D01*
X128070828Y-92250079D01*
X128036364Y-92600000D01*
X127323636Y-92600000D01*
X127289172Y-92250079D01*
X127187104Y-91913605D01*
X127021354Y-91603509D01*
X126798292Y-91331708D01*
X126526491Y-91108646D01*
X126216395Y-90942896D01*
X125879921Y-90840828D01*
X125617683Y-90815000D01*
X124742317Y-90815000D01*
X124480079Y-90840828D01*
X124143605Y-90942896D01*
X123930000Y-91057070D01*
X123716395Y-90942896D01*
X123379921Y-90840828D01*
X123117683Y-90815000D01*
X122242317Y-90815000D01*
X121980079Y-90840828D01*
X121643605Y-90942896D01*
X121333509Y-91108646D01*
X121061708Y-91331708D01*
X120838646Y-91603509D01*
X120672896Y-91913605D01*
X120570828Y-92250079D01*
X120536364Y-92600000D01*
X100702385Y-92600000D01*
X100707670Y-92546107D01*
X100839489Y-92109502D01*
X101053600Y-91706815D01*
X101341848Y-91353388D01*
X101693261Y-91062673D01*
X102094439Y-90845758D01*
X102530113Y-90710894D01*
X103014344Y-90660000D01*
X192967721Y-90660000D01*
X193453893Y-90707670D01*
M02*
