G04 #@! TF.GenerationSoftware,KiCad,Pcbnew,(5.1.5-0-10_14)*
G04 #@! TF.CreationDate,2020-09-12T12:44:00+03:00*
G04 #@! TF.ProjectId,midi_splitter,6d696469-5f73-4706-9c69-747465722e6b,rev?*
G04 #@! TF.SameCoordinates,Original*
G04 #@! TF.FileFunction,Legend,Top*
G04 #@! TF.FilePolarity,Positive*
%FSLAX46Y46*%
G04 Gerber Fmt 4.6, Leading zero omitted, Abs format (unit mm)*
G04 Created by KiCad (PCBNEW (5.1.5-0-10_14)) date 2020-09-12 12:44:00*
%MOMM*%
%LPD*%
G04 APERTURE LIST*
%ADD10C,0.070000*%
%ADD11C,0.100000*%
%ADD12C,0.080000*%
%ADD13C,0.120000*%
%ADD14C,0.150000*%
G04 APERTURE END LIST*
D10*
X100000000Y-115000000D02*
X105000000Y-115000000D01*
X190000000Y-115000000D02*
X196000000Y-115000000D01*
D11*
X139371666Y-95298095D02*
X139414523Y-95260000D01*
X139495476Y-95221904D01*
X139685952Y-95221904D01*
X139757380Y-95260000D01*
X139790714Y-95298095D01*
X139819285Y-95374285D01*
X139809761Y-95450476D01*
X139757380Y-95564761D01*
X139243095Y-96021904D01*
X139738333Y-96021904D01*
X140333571Y-95221904D02*
X140409761Y-95221904D01*
X140481190Y-95260000D01*
X140514523Y-95298095D01*
X140543095Y-95374285D01*
X140562142Y-95526666D01*
X140538333Y-95717142D01*
X140481190Y-95869523D01*
X140433571Y-95945714D01*
X140390714Y-95983809D01*
X140309761Y-96021904D01*
X140233571Y-96021904D01*
X140162142Y-95983809D01*
X140128809Y-95945714D01*
X140100238Y-95869523D01*
X140081190Y-95717142D01*
X140105000Y-95526666D01*
X140162142Y-95374285D01*
X140209761Y-95298095D01*
X140252619Y-95260000D01*
X140333571Y-95221904D01*
X140852619Y-95945714D02*
X140885952Y-95983809D01*
X140843095Y-96021904D01*
X140809761Y-95983809D01*
X140852619Y-95945714D01*
X140843095Y-96021904D01*
X141247857Y-95221904D02*
X141743095Y-95221904D01*
X141438333Y-95526666D01*
X141552619Y-95526666D01*
X141624047Y-95564761D01*
X141657380Y-95602857D01*
X141685952Y-95679047D01*
X141662142Y-95869523D01*
X141614523Y-95945714D01*
X141571666Y-95983809D01*
X141490714Y-96021904D01*
X141262142Y-96021904D01*
X141190714Y-95983809D01*
X141157380Y-95945714D01*
X142038333Y-95298095D02*
X142081190Y-95260000D01*
X142162142Y-95221904D01*
X142352619Y-95221904D01*
X142424047Y-95260000D01*
X142457380Y-95298095D01*
X142485952Y-95374285D01*
X142476428Y-95450476D01*
X142424047Y-95564761D01*
X141909761Y-96021904D01*
X142405000Y-96021904D01*
X143357380Y-96021904D02*
X143424047Y-95488571D01*
X143414523Y-95564761D02*
X143457380Y-95526666D01*
X143538333Y-95488571D01*
X143652619Y-95488571D01*
X143724047Y-95526666D01*
X143752619Y-95602857D01*
X143700238Y-96021904D01*
X143752619Y-95602857D02*
X143800238Y-95526666D01*
X143881190Y-95488571D01*
X143995476Y-95488571D01*
X144066904Y-95526666D01*
X144095476Y-95602857D01*
X144043095Y-96021904D01*
X144424047Y-96021904D02*
X144490714Y-95488571D01*
X144481190Y-95564761D02*
X144524047Y-95526666D01*
X144605000Y-95488571D01*
X144719285Y-95488571D01*
X144790714Y-95526666D01*
X144819285Y-95602857D01*
X144766904Y-96021904D01*
X144819285Y-95602857D02*
X144866904Y-95526666D01*
X144947857Y-95488571D01*
X145062142Y-95488571D01*
X145133571Y-95526666D01*
X145162142Y-95602857D01*
X145109761Y-96021904D01*
D12*
X148000000Y-94680000D02*
X127680000Y-94680000D01*
X148000000Y-90029999D02*
X148000000Y-95266421D01*
X127680000Y-90029999D02*
X127680000Y-95266421D01*
X127680000Y-94680000D02*
X128806504Y-94093579D01*
X127680000Y-94680000D02*
X128806504Y-95266421D01*
X148000000Y-94680000D02*
X146873496Y-94093579D01*
X148000000Y-94680000D02*
X146873496Y-95266421D01*
D11*
X130465892Y-133978095D02*
X130508750Y-133940000D01*
X130589702Y-133901904D01*
X130780178Y-133901904D01*
X130851607Y-133940000D01*
X130884940Y-133978095D01*
X130913511Y-134054285D01*
X130903988Y-134130476D01*
X130851607Y-134244761D01*
X130337321Y-134701904D01*
X130832559Y-134701904D01*
X131427797Y-133901904D02*
X131503988Y-133901904D01*
X131575416Y-133940000D01*
X131608750Y-133978095D01*
X131637321Y-134054285D01*
X131656369Y-134206666D01*
X131632559Y-134397142D01*
X131575416Y-134549523D01*
X131527797Y-134625714D01*
X131484940Y-134663809D01*
X131403988Y-134701904D01*
X131327797Y-134701904D01*
X131256369Y-134663809D01*
X131223035Y-134625714D01*
X131194464Y-134549523D01*
X131175416Y-134397142D01*
X131199226Y-134206666D01*
X131256369Y-134054285D01*
X131303988Y-133978095D01*
X131346845Y-133940000D01*
X131427797Y-133901904D01*
X131946845Y-134625714D02*
X131980178Y-134663809D01*
X131937321Y-134701904D01*
X131903988Y-134663809D01*
X131946845Y-134625714D01*
X131937321Y-134701904D01*
X132342083Y-133901904D02*
X132837321Y-133901904D01*
X132532559Y-134206666D01*
X132646845Y-134206666D01*
X132718273Y-134244761D01*
X132751607Y-134282857D01*
X132780178Y-134359047D01*
X132756369Y-134549523D01*
X132708750Y-134625714D01*
X132665892Y-134663809D01*
X132584940Y-134701904D01*
X132356369Y-134701904D01*
X132284940Y-134663809D01*
X132251607Y-134625714D01*
X133132559Y-133978095D02*
X133175416Y-133940000D01*
X133256369Y-133901904D01*
X133446845Y-133901904D01*
X133518273Y-133940000D01*
X133551607Y-133978095D01*
X133580178Y-134054285D01*
X133570654Y-134130476D01*
X133518273Y-134244761D01*
X133003988Y-134701904D01*
X133499226Y-134701904D01*
X134451607Y-134701904D02*
X134518273Y-134168571D01*
X134508750Y-134244761D02*
X134551607Y-134206666D01*
X134632559Y-134168571D01*
X134746845Y-134168571D01*
X134818273Y-134206666D01*
X134846845Y-134282857D01*
X134794464Y-134701904D01*
X134846845Y-134282857D02*
X134894464Y-134206666D01*
X134975416Y-134168571D01*
X135089702Y-134168571D01*
X135161130Y-134206666D01*
X135189702Y-134282857D01*
X135137321Y-134701904D01*
X135518273Y-134701904D02*
X135584940Y-134168571D01*
X135575416Y-134244761D02*
X135618273Y-134206666D01*
X135699226Y-134168571D01*
X135813511Y-134168571D01*
X135884940Y-134206666D01*
X135913511Y-134282857D01*
X135861130Y-134701904D01*
X135913511Y-134282857D02*
X135961130Y-134206666D01*
X136042083Y-134168571D01*
X136156369Y-134168571D01*
X136227797Y-134206666D01*
X136256369Y-134282857D01*
X136203988Y-134701904D01*
D12*
X127680000Y-135320000D02*
X148000000Y-135320000D01*
X127680000Y-139970001D02*
X127680000Y-134733579D01*
X148000000Y-139970001D02*
X148000000Y-134733579D01*
X148000000Y-135320000D02*
X146873496Y-135906421D01*
X148000000Y-135320000D02*
X146873496Y-134733579D01*
X127680000Y-135320000D02*
X128806504Y-135906421D01*
X127680000Y-135320000D02*
X128806504Y-134733579D01*
D11*
X159691666Y-133978095D02*
X159734523Y-133940000D01*
X159815476Y-133901904D01*
X160005952Y-133901904D01*
X160077380Y-133940000D01*
X160110714Y-133978095D01*
X160139285Y-134054285D01*
X160129761Y-134130476D01*
X160077380Y-134244761D01*
X159563095Y-134701904D01*
X160058333Y-134701904D01*
X160653571Y-133901904D02*
X160729761Y-133901904D01*
X160801190Y-133940000D01*
X160834523Y-133978095D01*
X160863095Y-134054285D01*
X160882142Y-134206666D01*
X160858333Y-134397142D01*
X160801190Y-134549523D01*
X160753571Y-134625714D01*
X160710714Y-134663809D01*
X160629761Y-134701904D01*
X160553571Y-134701904D01*
X160482142Y-134663809D01*
X160448809Y-134625714D01*
X160420238Y-134549523D01*
X160401190Y-134397142D01*
X160425000Y-134206666D01*
X160482142Y-134054285D01*
X160529761Y-133978095D01*
X160572619Y-133940000D01*
X160653571Y-133901904D01*
X161172619Y-134625714D02*
X161205952Y-134663809D01*
X161163095Y-134701904D01*
X161129761Y-134663809D01*
X161172619Y-134625714D01*
X161163095Y-134701904D01*
X161567857Y-133901904D02*
X162063095Y-133901904D01*
X161758333Y-134206666D01*
X161872619Y-134206666D01*
X161944047Y-134244761D01*
X161977380Y-134282857D01*
X162005952Y-134359047D01*
X161982142Y-134549523D01*
X161934523Y-134625714D01*
X161891666Y-134663809D01*
X161810714Y-134701904D01*
X161582142Y-134701904D01*
X161510714Y-134663809D01*
X161477380Y-134625714D01*
X162358333Y-133978095D02*
X162401190Y-133940000D01*
X162482142Y-133901904D01*
X162672619Y-133901904D01*
X162744047Y-133940000D01*
X162777380Y-133978095D01*
X162805952Y-134054285D01*
X162796428Y-134130476D01*
X162744047Y-134244761D01*
X162229761Y-134701904D01*
X162725000Y-134701904D01*
X163677380Y-134701904D02*
X163744047Y-134168571D01*
X163734523Y-134244761D02*
X163777380Y-134206666D01*
X163858333Y-134168571D01*
X163972619Y-134168571D01*
X164044047Y-134206666D01*
X164072619Y-134282857D01*
X164020238Y-134701904D01*
X164072619Y-134282857D02*
X164120238Y-134206666D01*
X164201190Y-134168571D01*
X164315476Y-134168571D01*
X164386904Y-134206666D01*
X164415476Y-134282857D01*
X164363095Y-134701904D01*
X164744047Y-134701904D02*
X164810714Y-134168571D01*
X164801190Y-134244761D02*
X164844047Y-134206666D01*
X164925000Y-134168571D01*
X165039285Y-134168571D01*
X165110714Y-134206666D01*
X165139285Y-134282857D01*
X165086904Y-134701904D01*
X165139285Y-134282857D02*
X165186904Y-134206666D01*
X165267857Y-134168571D01*
X165382142Y-134168571D01*
X165453571Y-134206666D01*
X165482142Y-134282857D01*
X165429761Y-134701904D01*
D12*
X148000000Y-135320000D02*
X168320000Y-135320000D01*
X148000000Y-139970001D02*
X148000000Y-134733579D01*
X168320000Y-139970001D02*
X168320000Y-134733579D01*
X168320000Y-135320000D02*
X167193496Y-135906421D01*
X168320000Y-135320000D02*
X167193496Y-134733579D01*
X148000000Y-135320000D02*
X149126504Y-135906421D01*
X148000000Y-135320000D02*
X149126504Y-134733579D01*
D13*
X141960000Y-105990000D02*
X138000000Y-105990000D01*
X151940000Y-105990000D02*
X144070000Y-105990000D01*
X138000000Y-105990000D02*
X138000000Y-90060000D01*
X158000000Y-90060000D02*
X138000000Y-90060000D01*
X158000000Y-105990000D02*
X158000000Y-90060000D01*
X158000000Y-105990000D02*
X154040000Y-105990000D01*
X180010000Y-108960000D02*
X180010000Y-105000000D01*
X180010000Y-118940000D02*
X180010000Y-111070000D01*
X180010000Y-105000000D02*
X195940000Y-105000000D01*
X195940000Y-125000000D02*
X195940000Y-105000000D01*
X180010000Y-125000000D02*
X195940000Y-125000000D01*
X180010000Y-125000000D02*
X180010000Y-121040000D01*
X133720000Y-124010000D02*
X137680000Y-124010000D01*
X123740000Y-124010000D02*
X131610000Y-124010000D01*
X137680000Y-124010000D02*
X137680000Y-139940000D01*
X117680000Y-139940000D02*
X137680000Y-139940000D01*
X117680000Y-124010000D02*
X117680000Y-139940000D01*
X117680000Y-124010000D02*
X121640000Y-124010000D01*
X154040000Y-124010000D02*
X158000000Y-124010000D01*
X144060000Y-124010000D02*
X151930000Y-124010000D01*
X158000000Y-124010000D02*
X158000000Y-139940000D01*
X138000000Y-139940000D02*
X158000000Y-139940000D01*
X138000000Y-124010000D02*
X138000000Y-139940000D01*
X138000000Y-124010000D02*
X141960000Y-124010000D01*
X174360000Y-124010000D02*
X178320000Y-124010000D01*
X164380000Y-124010000D02*
X172250000Y-124010000D01*
X178320000Y-124010000D02*
X178320000Y-139940000D01*
X158320000Y-139940000D02*
X178320000Y-139940000D01*
X158320000Y-124010000D02*
X158320000Y-139940000D01*
X158320000Y-124010000D02*
X162280000Y-124010000D01*
X121640000Y-105990000D02*
X117680000Y-105990000D01*
X131620000Y-105990000D02*
X123750000Y-105990000D01*
X117680000Y-105990000D02*
X117680000Y-90060000D01*
X137680000Y-90060000D02*
X117680000Y-90060000D01*
X137680000Y-105990000D02*
X137680000Y-90060000D01*
X137680000Y-105990000D02*
X133720000Y-105990000D01*
X164011252Y-96560000D02*
X163488748Y-96560000D01*
X164011252Y-95140000D02*
X163488748Y-95140000D01*
X138691252Y-111050000D02*
X138168748Y-111050000D01*
X138691252Y-112470000D02*
X138168748Y-112470000D01*
X119880748Y-111050000D02*
X120403252Y-111050000D01*
X119880748Y-112470000D02*
X120403252Y-112470000D01*
X108100000Y-119600000D02*
X99600000Y-119600000D01*
X99600000Y-119600000D02*
X99600000Y-110400000D01*
X99600000Y-110400000D02*
X114300000Y-110400000D01*
X114300000Y-117500000D02*
X114300000Y-119600000D01*
X114300000Y-119600000D02*
X112500000Y-119600000D01*
X114600000Y-111800000D02*
X114600000Y-110100000D01*
X114600000Y-110100000D02*
X113000000Y-110100000D01*
X114300000Y-110400000D02*
X114300000Y-112500000D01*
X163338748Y-100210000D02*
X163861252Y-100210000D01*
X163338748Y-98790000D02*
X163861252Y-98790000D01*
X123354748Y-122822000D02*
X123877252Y-122822000D01*
X123354748Y-121402000D02*
X123877252Y-121402000D01*
X134037252Y-122822000D02*
X133514748Y-122822000D01*
X134037252Y-121402000D02*
X133514748Y-121402000D01*
X173982748Y-109018000D02*
X174505252Y-109018000D01*
X173982748Y-110438000D02*
X174505252Y-110438000D01*
X182125252Y-96468000D02*
X181602748Y-96468000D01*
X182125252Y-95048000D02*
X181602748Y-95048000D01*
X143674748Y-122822000D02*
X144197252Y-122822000D01*
X143674748Y-121402000D02*
X144197252Y-121402000D01*
X151802748Y-121402000D02*
X152325252Y-121402000D01*
X151802748Y-122822000D02*
X152325252Y-122822000D01*
X162485252Y-121402000D02*
X161962748Y-121402000D01*
X162485252Y-122822000D02*
X161962748Y-122822000D01*
X169582748Y-121402000D02*
X170105252Y-121402000D01*
X169582748Y-122822000D02*
X170105252Y-122822000D01*
X153580748Y-108598000D02*
X154103252Y-108598000D01*
X153580748Y-107178000D02*
X154103252Y-107178000D01*
X141642748Y-108598000D02*
X142165252Y-108598000D01*
X141642748Y-107178000D02*
X142165252Y-107178000D01*
X133514748Y-107178000D02*
X134037252Y-107178000D01*
X133514748Y-108598000D02*
X134037252Y-108598000D01*
X123877252Y-108598000D02*
X123354748Y-108598000D01*
X123877252Y-107178000D02*
X123354748Y-107178000D01*
X167760000Y-99300000D02*
G75*
G02X167760000Y-101300000I0J-1000000D01*
G01*
X167760000Y-101300000D02*
X167760000Y-102835000D01*
X167760000Y-102835000D02*
X178040000Y-102835000D01*
X178040000Y-102835000D02*
X178040000Y-97765000D01*
X178040000Y-97765000D02*
X167760000Y-97765000D01*
X167760000Y-97765000D02*
X167760000Y-99300000D01*
X167700000Y-106535000D02*
X178100000Y-106535000D01*
X178100000Y-106535000D02*
X178100000Y-94065000D01*
X178100000Y-94065000D02*
X167700000Y-94065000D01*
X167700000Y-94065000D02*
X167700000Y-106535000D01*
X118070000Y-114332000D02*
X128310000Y-114332000D01*
X118070000Y-118973000D02*
X128310000Y-118973000D01*
X118070000Y-114332000D02*
X118070000Y-118973000D01*
X128310000Y-114332000D02*
X128310000Y-118973000D01*
X118070000Y-115842000D02*
X128310000Y-115842000D01*
X121340000Y-114332000D02*
X121340000Y-115842000D01*
X125041000Y-114332000D02*
X125041000Y-115842000D01*
X134708000Y-116856000D02*
G75*
G03X134708000Y-116856000I-2120000J0D01*
G01*
X130508000Y-116856000D02*
X134668000Y-116856000D01*
X130508000Y-116816000D02*
X134668000Y-116816000D01*
X130509000Y-116776000D02*
X134667000Y-116776000D01*
X130511000Y-116736000D02*
X134665000Y-116736000D01*
X130514000Y-116696000D02*
X134662000Y-116696000D01*
X130517000Y-116656000D02*
X131748000Y-116656000D01*
X133428000Y-116656000D02*
X134659000Y-116656000D01*
X130521000Y-116616000D02*
X131748000Y-116616000D01*
X133428000Y-116616000D02*
X134655000Y-116616000D01*
X130526000Y-116576000D02*
X131748000Y-116576000D01*
X133428000Y-116576000D02*
X134650000Y-116576000D01*
X130532000Y-116536000D02*
X131748000Y-116536000D01*
X133428000Y-116536000D02*
X134644000Y-116536000D01*
X130538000Y-116496000D02*
X131748000Y-116496000D01*
X133428000Y-116496000D02*
X134638000Y-116496000D01*
X130546000Y-116456000D02*
X131748000Y-116456000D01*
X133428000Y-116456000D02*
X134630000Y-116456000D01*
X130554000Y-116416000D02*
X131748000Y-116416000D01*
X133428000Y-116416000D02*
X134622000Y-116416000D01*
X130563000Y-116376000D02*
X131748000Y-116376000D01*
X133428000Y-116376000D02*
X134613000Y-116376000D01*
X130572000Y-116336000D02*
X131748000Y-116336000D01*
X133428000Y-116336000D02*
X134604000Y-116336000D01*
X130583000Y-116296000D02*
X131748000Y-116296000D01*
X133428000Y-116296000D02*
X134593000Y-116296000D01*
X130594000Y-116256000D02*
X131748000Y-116256000D01*
X133428000Y-116256000D02*
X134582000Y-116256000D01*
X130606000Y-116216000D02*
X131748000Y-116216000D01*
X133428000Y-116216000D02*
X134570000Y-116216000D01*
X130620000Y-116176000D02*
X131748000Y-116176000D01*
X133428000Y-116176000D02*
X134556000Y-116176000D01*
X130634000Y-116135000D02*
X131748000Y-116135000D01*
X133428000Y-116135000D02*
X134542000Y-116135000D01*
X130648000Y-116095000D02*
X131748000Y-116095000D01*
X133428000Y-116095000D02*
X134528000Y-116095000D01*
X130664000Y-116055000D02*
X131748000Y-116055000D01*
X133428000Y-116055000D02*
X134512000Y-116055000D01*
X130681000Y-116015000D02*
X131748000Y-116015000D01*
X133428000Y-116015000D02*
X134495000Y-116015000D01*
X130699000Y-115975000D02*
X131748000Y-115975000D01*
X133428000Y-115975000D02*
X134477000Y-115975000D01*
X130718000Y-115935000D02*
X131748000Y-115935000D01*
X133428000Y-115935000D02*
X134458000Y-115935000D01*
X130737000Y-115895000D02*
X131748000Y-115895000D01*
X133428000Y-115895000D02*
X134439000Y-115895000D01*
X130758000Y-115855000D02*
X131748000Y-115855000D01*
X133428000Y-115855000D02*
X134418000Y-115855000D01*
X130780000Y-115815000D02*
X131748000Y-115815000D01*
X133428000Y-115815000D02*
X134396000Y-115815000D01*
X130803000Y-115775000D02*
X131748000Y-115775000D01*
X133428000Y-115775000D02*
X134373000Y-115775000D01*
X130828000Y-115735000D02*
X131748000Y-115735000D01*
X133428000Y-115735000D02*
X134348000Y-115735000D01*
X130853000Y-115695000D02*
X131748000Y-115695000D01*
X133428000Y-115695000D02*
X134323000Y-115695000D01*
X130880000Y-115655000D02*
X131748000Y-115655000D01*
X133428000Y-115655000D02*
X134296000Y-115655000D01*
X130908000Y-115615000D02*
X131748000Y-115615000D01*
X133428000Y-115615000D02*
X134268000Y-115615000D01*
X130938000Y-115575000D02*
X131748000Y-115575000D01*
X133428000Y-115575000D02*
X134238000Y-115575000D01*
X130969000Y-115535000D02*
X131748000Y-115535000D01*
X133428000Y-115535000D02*
X134207000Y-115535000D01*
X131001000Y-115495000D02*
X131748000Y-115495000D01*
X133428000Y-115495000D02*
X134175000Y-115495000D01*
X131036000Y-115455000D02*
X131748000Y-115455000D01*
X133428000Y-115455000D02*
X134140000Y-115455000D01*
X131072000Y-115415000D02*
X131748000Y-115415000D01*
X133428000Y-115415000D02*
X134104000Y-115415000D01*
X131110000Y-115375000D02*
X131748000Y-115375000D01*
X133428000Y-115375000D02*
X134066000Y-115375000D01*
X131150000Y-115335000D02*
X131748000Y-115335000D01*
X133428000Y-115335000D02*
X134026000Y-115335000D01*
X131192000Y-115295000D02*
X131748000Y-115295000D01*
X133428000Y-115295000D02*
X133984000Y-115295000D01*
X131237000Y-115255000D02*
X131748000Y-115255000D01*
X133428000Y-115255000D02*
X133939000Y-115255000D01*
X131284000Y-115215000D02*
X131748000Y-115215000D01*
X133428000Y-115215000D02*
X133892000Y-115215000D01*
X131334000Y-115175000D02*
X131748000Y-115175000D01*
X133428000Y-115175000D02*
X133842000Y-115175000D01*
X131388000Y-115135000D02*
X131748000Y-115135000D01*
X133428000Y-115135000D02*
X133788000Y-115135000D01*
X131446000Y-115095000D02*
X131748000Y-115095000D01*
X133428000Y-115095000D02*
X133730000Y-115095000D01*
X131508000Y-115055000D02*
X131748000Y-115055000D01*
X133428000Y-115055000D02*
X133668000Y-115055000D01*
X131575000Y-115015000D02*
X133601000Y-115015000D01*
X131648000Y-114975000D02*
X133528000Y-114975000D01*
X131729000Y-114935000D02*
X133447000Y-114935000D01*
X131820000Y-114895000D02*
X133356000Y-114895000D01*
X131924000Y-114855000D02*
X133252000Y-114855000D01*
X132051000Y-114815000D02*
X133125000Y-114815000D01*
X132218000Y-114775000D02*
X132958000Y-114775000D01*
X131393000Y-119125801D02*
X131393000Y-118725801D01*
X131193000Y-118925801D02*
X131593000Y-118925801D01*
X105470000Y-108950000D02*
X107240000Y-108950000D01*
X105470000Y-100350000D02*
X105470000Y-108950000D01*
X111010000Y-100350000D02*
X105470000Y-100350000D01*
X111010000Y-108950000D02*
X111010000Y-100350000D01*
X109240000Y-108950000D02*
X111010000Y-108950000D01*
X107240000Y-108950000D02*
G75*
G02X109240000Y-108950000I1000000J0D01*
G01*
X141672000Y-114316000D02*
G75*
G02X141672000Y-116316000I0J-1000000D01*
G01*
X141672000Y-116316000D02*
X141672000Y-117966000D01*
X141672000Y-117966000D02*
X159572000Y-117966000D01*
X159572000Y-117966000D02*
X159572000Y-112666000D01*
X159572000Y-112666000D02*
X141672000Y-112666000D01*
X141672000Y-112666000D02*
X141672000Y-114316000D01*
X181780000Y-136138000D02*
X181780000Y-135208000D01*
X181780000Y-132978000D02*
X181780000Y-133908000D01*
X181780000Y-132978000D02*
X179620000Y-132978000D01*
X181780000Y-136138000D02*
X180320000Y-136138000D01*
X184822748Y-135268000D02*
X185345252Y-135268000D01*
X184822748Y-133848000D02*
X185345252Y-133848000D01*
X176963252Y-122822000D02*
X176440748Y-122822000D01*
X176963252Y-121402000D02*
X176440748Y-121402000D01*
X110863748Y-131878000D02*
X111386252Y-131878000D01*
X110863748Y-133298000D02*
X111386252Y-133298000D01*
X100380000Y-127730000D02*
G75*
G02X100380000Y-124610000I0J1560000D01*
G01*
X104240000Y-124610000D02*
X100380000Y-124610000D01*
X104240000Y-127730000D02*
X100380000Y-127730000D01*
X104240000Y-124610000D02*
X104240000Y-127730000D01*
X104240000Y-128130000D02*
X103120000Y-128130000D01*
X103120000Y-128130000D02*
X103120000Y-127730000D01*
X103120000Y-127730000D02*
X104240000Y-127730000D01*
X104240000Y-127730000D02*
X104240000Y-128130000D01*
X104370000Y-124900000D02*
X104240000Y-124900000D01*
X104240000Y-124900000D02*
X104240000Y-124900000D01*
X104240000Y-124900000D02*
X104370000Y-124900000D01*
X104370000Y-124900000D02*
X104370000Y-124900000D01*
X104370000Y-127440000D02*
X104240000Y-127440000D01*
X104240000Y-127440000D02*
X104240000Y-127440000D01*
X104240000Y-127440000D02*
X104370000Y-127440000D01*
X104370000Y-127440000D02*
X104370000Y-127440000D01*
X195270000Y-126170000D02*
G75*
G02X195270000Y-129290000I0J-1560000D01*
G01*
X191410000Y-129290000D02*
X195270000Y-129290000D01*
X191410000Y-126170000D02*
X195270000Y-126170000D01*
X191410000Y-129290000D02*
X191410000Y-126170000D01*
X191410000Y-125770000D02*
X192530000Y-125770000D01*
X192530000Y-125770000D02*
X192530000Y-126170000D01*
X192530000Y-126170000D02*
X191410000Y-126170000D01*
X191410000Y-126170000D02*
X191410000Y-125770000D01*
X191280000Y-129000000D02*
X191410000Y-129000000D01*
X191410000Y-129000000D02*
X191410000Y-129000000D01*
X191410000Y-129000000D02*
X191280000Y-129000000D01*
X191280000Y-129000000D02*
X191280000Y-129000000D01*
X191280000Y-126460000D02*
X191410000Y-126460000D01*
X191410000Y-126460000D02*
X191410000Y-126460000D01*
X191410000Y-126460000D02*
X191280000Y-126460000D01*
X191280000Y-126460000D02*
X191280000Y-126460000D01*
X174148000Y-114184000D02*
X172308000Y-114184000D01*
X172308000Y-114184000D02*
X172308000Y-117464000D01*
X172308000Y-117464000D02*
X174148000Y-117464000D01*
X174148000Y-117464000D02*
X174148000Y-114184000D01*
X173228000Y-113004000D02*
X173228000Y-114184000D01*
X173228000Y-118644000D02*
X173228000Y-117464000D01*
X174148000Y-114760000D02*
X172308000Y-114760000D01*
X174148000Y-114880000D02*
X172308000Y-114880000D01*
X174148000Y-114640000D02*
X172308000Y-114640000D01*
D14*
X147666666Y-106602380D02*
X147666666Y-107316666D01*
X147619047Y-107459523D01*
X147523809Y-107554761D01*
X147380952Y-107602380D01*
X147285714Y-107602380D01*
X148619047Y-106602380D02*
X148142857Y-106602380D01*
X148095238Y-107078571D01*
X148142857Y-107030952D01*
X148238095Y-106983333D01*
X148476190Y-106983333D01*
X148571428Y-107030952D01*
X148619047Y-107078571D01*
X148666666Y-107173809D01*
X148666666Y-107411904D01*
X148619047Y-107507142D01*
X148571428Y-107554761D01*
X148476190Y-107602380D01*
X148238095Y-107602380D01*
X148142857Y-107554761D01*
X148095238Y-107507142D01*
X178102380Y-107833333D02*
X178816666Y-107833333D01*
X178959523Y-107880952D01*
X179054761Y-107976190D01*
X179102380Y-108119047D01*
X179102380Y-108214285D01*
X179102380Y-106833333D02*
X179102380Y-107404761D01*
X179102380Y-107119047D02*
X178102380Y-107119047D01*
X178245238Y-107214285D01*
X178340476Y-107309523D01*
X178388095Y-107404761D01*
X127296666Y-122452380D02*
X127296666Y-123166666D01*
X127249047Y-123309523D01*
X127153809Y-123404761D01*
X127010952Y-123452380D01*
X126915714Y-123452380D01*
X127725238Y-122547619D02*
X127772857Y-122500000D01*
X127868095Y-122452380D01*
X128106190Y-122452380D01*
X128201428Y-122500000D01*
X128249047Y-122547619D01*
X128296666Y-122642857D01*
X128296666Y-122738095D01*
X128249047Y-122880952D01*
X127677619Y-123452380D01*
X128296666Y-123452380D01*
X147566666Y-122452380D02*
X147566666Y-123166666D01*
X147519047Y-123309523D01*
X147423809Y-123404761D01*
X147280952Y-123452380D01*
X147185714Y-123452380D01*
X147947619Y-122452380D02*
X148566666Y-122452380D01*
X148233333Y-122833333D01*
X148376190Y-122833333D01*
X148471428Y-122880952D01*
X148519047Y-122928571D01*
X148566666Y-123023809D01*
X148566666Y-123261904D01*
X148519047Y-123357142D01*
X148471428Y-123404761D01*
X148376190Y-123452380D01*
X148090476Y-123452380D01*
X147995238Y-123404761D01*
X147947619Y-123357142D01*
X166208666Y-122452380D02*
X166208666Y-123166666D01*
X166161047Y-123309523D01*
X166065809Y-123404761D01*
X165922952Y-123452380D01*
X165827714Y-123452380D01*
X167113428Y-122785714D02*
X167113428Y-123452380D01*
X166875333Y-122404761D02*
X166637238Y-123119047D01*
X167256285Y-123119047D01*
X127246666Y-106652380D02*
X127246666Y-107366666D01*
X127199047Y-107509523D01*
X127103809Y-107604761D01*
X126960952Y-107652380D01*
X126865714Y-107652380D01*
X127627619Y-106652380D02*
X128294285Y-106652380D01*
X127865714Y-107652380D01*
X163633333Y-94507142D02*
X163585714Y-94554761D01*
X163442857Y-94602380D01*
X163347619Y-94602380D01*
X163204761Y-94554761D01*
X163109523Y-94459523D01*
X163061904Y-94364285D01*
X163014285Y-94173809D01*
X163014285Y-94030952D01*
X163061904Y-93840476D01*
X163109523Y-93745238D01*
X163204761Y-93650000D01*
X163347619Y-93602380D01*
X163442857Y-93602380D01*
X163585714Y-93650000D01*
X163633333Y-93697619D01*
X164585714Y-94602380D02*
X164014285Y-94602380D01*
X164300000Y-94602380D02*
X164300000Y-93602380D01*
X164204761Y-93745238D01*
X164109523Y-93840476D01*
X164014285Y-93888095D01*
X138263333Y-113767142D02*
X138215714Y-113814761D01*
X138072857Y-113862380D01*
X137977619Y-113862380D01*
X137834761Y-113814761D01*
X137739523Y-113719523D01*
X137691904Y-113624285D01*
X137644285Y-113433809D01*
X137644285Y-113290952D01*
X137691904Y-113100476D01*
X137739523Y-113005238D01*
X137834761Y-112910000D01*
X137977619Y-112862380D01*
X138072857Y-112862380D01*
X138215714Y-112910000D01*
X138263333Y-112957619D01*
X138644285Y-112957619D02*
X138691904Y-112910000D01*
X138787142Y-112862380D01*
X139025238Y-112862380D01*
X139120476Y-112910000D01*
X139168095Y-112957619D01*
X139215714Y-113052857D01*
X139215714Y-113148095D01*
X139168095Y-113290952D01*
X138596666Y-113862380D01*
X139215714Y-113862380D01*
X119975333Y-110277142D02*
X119927714Y-110324761D01*
X119784857Y-110372380D01*
X119689619Y-110372380D01*
X119546761Y-110324761D01*
X119451523Y-110229523D01*
X119403904Y-110134285D01*
X119356285Y-109943809D01*
X119356285Y-109800952D01*
X119403904Y-109610476D01*
X119451523Y-109515238D01*
X119546761Y-109420000D01*
X119689619Y-109372380D01*
X119784857Y-109372380D01*
X119927714Y-109420000D01*
X119975333Y-109467619D01*
X120308666Y-109372380D02*
X120927714Y-109372380D01*
X120594380Y-109753333D01*
X120737238Y-109753333D01*
X120832476Y-109800952D01*
X120880095Y-109848571D01*
X120927714Y-109943809D01*
X120927714Y-110181904D01*
X120880095Y-110277142D01*
X120832476Y-110324761D01*
X120737238Y-110372380D01*
X120451523Y-110372380D01*
X120356285Y-110324761D01*
X120308666Y-110277142D01*
X115466666Y-117452380D02*
X115466666Y-118166666D01*
X115419047Y-118309523D01*
X115323809Y-118404761D01*
X115180952Y-118452380D01*
X115085714Y-118452380D01*
X116371428Y-117452380D02*
X116180952Y-117452380D01*
X116085714Y-117500000D01*
X116038095Y-117547619D01*
X115942857Y-117690476D01*
X115895238Y-117880952D01*
X115895238Y-118261904D01*
X115942857Y-118357142D01*
X115990476Y-118404761D01*
X116085714Y-118452380D01*
X116276190Y-118452380D01*
X116371428Y-118404761D01*
X116419047Y-118357142D01*
X116466666Y-118261904D01*
X116466666Y-118023809D01*
X116419047Y-117928571D01*
X116371428Y-117880952D01*
X116276190Y-117833333D01*
X116085714Y-117833333D01*
X115990476Y-117880952D01*
X115942857Y-117928571D01*
X115895238Y-118023809D01*
X163483333Y-98302380D02*
X163150000Y-97826190D01*
X162911904Y-98302380D02*
X162911904Y-97302380D01*
X163292857Y-97302380D01*
X163388095Y-97350000D01*
X163435714Y-97397619D01*
X163483333Y-97492857D01*
X163483333Y-97635714D01*
X163435714Y-97730952D01*
X163388095Y-97778571D01*
X163292857Y-97826190D01*
X162911904Y-97826190D01*
X164435714Y-98302380D02*
X163864285Y-98302380D01*
X164150000Y-98302380D02*
X164150000Y-97302380D01*
X164054761Y-97445238D01*
X163959523Y-97540476D01*
X163864285Y-97588095D01*
D11*
X162990476Y-100978571D02*
X162990476Y-101511904D01*
X162800000Y-100673809D02*
X162609523Y-101245238D01*
X163104761Y-101245238D01*
X163333333Y-100711904D02*
X163866666Y-100711904D01*
X163523809Y-101511904D01*
X164323809Y-100711904D02*
X164400000Y-100711904D01*
X164476190Y-100750000D01*
X164514285Y-100788095D01*
X164552380Y-100864285D01*
X164590476Y-101016666D01*
X164590476Y-101207142D01*
X164552380Y-101359523D01*
X164514285Y-101435714D01*
X164476190Y-101473809D01*
X164400000Y-101511904D01*
X164323809Y-101511904D01*
X164247619Y-101473809D01*
X164209523Y-101435714D01*
X164171428Y-101359523D01*
X164133333Y-101207142D01*
X164133333Y-101016666D01*
X164171428Y-100864285D01*
X164209523Y-100788095D01*
X164247619Y-100750000D01*
X164323809Y-100711904D01*
D14*
X123449333Y-120914380D02*
X123116000Y-120438190D01*
X122877904Y-120914380D02*
X122877904Y-119914380D01*
X123258857Y-119914380D01*
X123354095Y-119962000D01*
X123401714Y-120009619D01*
X123449333Y-120104857D01*
X123449333Y-120247714D01*
X123401714Y-120342952D01*
X123354095Y-120390571D01*
X123258857Y-120438190D01*
X122877904Y-120438190D01*
X123830285Y-120009619D02*
X123877904Y-119962000D01*
X123973142Y-119914380D01*
X124211238Y-119914380D01*
X124306476Y-119962000D01*
X124354095Y-120009619D01*
X124401714Y-120104857D01*
X124401714Y-120200095D01*
X124354095Y-120342952D01*
X123782666Y-120914380D01*
X124401714Y-120914380D01*
X133609333Y-120786380D02*
X133276000Y-120310190D01*
X133037904Y-120786380D02*
X133037904Y-119786380D01*
X133418857Y-119786380D01*
X133514095Y-119834000D01*
X133561714Y-119881619D01*
X133609333Y-119976857D01*
X133609333Y-120119714D01*
X133561714Y-120214952D01*
X133514095Y-120262571D01*
X133418857Y-120310190D01*
X133037904Y-120310190D01*
X133942666Y-119786380D02*
X134561714Y-119786380D01*
X134228380Y-120167333D01*
X134371238Y-120167333D01*
X134466476Y-120214952D01*
X134514095Y-120262571D01*
X134561714Y-120357809D01*
X134561714Y-120595904D01*
X134514095Y-120691142D01*
X134466476Y-120738761D01*
X134371238Y-120786380D01*
X134085523Y-120786380D01*
X133990285Y-120738761D01*
X133942666Y-120691142D01*
X174077333Y-108530380D02*
X173744000Y-108054190D01*
X173505904Y-108530380D02*
X173505904Y-107530380D01*
X173886857Y-107530380D01*
X173982095Y-107578000D01*
X174029714Y-107625619D01*
X174077333Y-107720857D01*
X174077333Y-107863714D01*
X174029714Y-107958952D01*
X173982095Y-108006571D01*
X173886857Y-108054190D01*
X173505904Y-108054190D01*
X174934476Y-107863714D02*
X174934476Y-108530380D01*
X174696380Y-107482761D02*
X174458285Y-108197047D01*
X175077333Y-108197047D01*
X181733333Y-94502380D02*
X181400000Y-94026190D01*
X181161904Y-94502380D02*
X181161904Y-93502380D01*
X181542857Y-93502380D01*
X181638095Y-93550000D01*
X181685714Y-93597619D01*
X181733333Y-93692857D01*
X181733333Y-93835714D01*
X181685714Y-93930952D01*
X181638095Y-93978571D01*
X181542857Y-94026190D01*
X181161904Y-94026190D01*
X182638095Y-93502380D02*
X182161904Y-93502380D01*
X182114285Y-93978571D01*
X182161904Y-93930952D01*
X182257142Y-93883333D01*
X182495238Y-93883333D01*
X182590476Y-93930952D01*
X182638095Y-93978571D01*
X182685714Y-94073809D01*
X182685714Y-94311904D01*
X182638095Y-94407142D01*
X182590476Y-94454761D01*
X182495238Y-94502380D01*
X182257142Y-94502380D01*
X182161904Y-94454761D01*
X182114285Y-94407142D01*
D11*
X181423809Y-97861904D02*
X180966666Y-97861904D01*
X181195238Y-97861904D02*
X181195238Y-97061904D01*
X181119047Y-97176190D01*
X181042857Y-97252380D01*
X180966666Y-97290476D01*
X181919047Y-97061904D02*
X181995238Y-97061904D01*
X182071428Y-97100000D01*
X182109523Y-97138095D01*
X182147619Y-97214285D01*
X182185714Y-97366666D01*
X182185714Y-97557142D01*
X182147619Y-97709523D01*
X182109523Y-97785714D01*
X182071428Y-97823809D01*
X181995238Y-97861904D01*
X181919047Y-97861904D01*
X181842857Y-97823809D01*
X181804761Y-97785714D01*
X181766666Y-97709523D01*
X181728571Y-97557142D01*
X181728571Y-97366666D01*
X181766666Y-97214285D01*
X181804761Y-97138095D01*
X181842857Y-97100000D01*
X181919047Y-97061904D01*
X182528571Y-97861904D02*
X182528571Y-97061904D01*
X182604761Y-97557142D02*
X182833333Y-97861904D01*
X182833333Y-97328571D02*
X182528571Y-97633333D01*
D14*
X140721333Y-122502380D02*
X140388000Y-122026190D01*
X140149904Y-122502380D02*
X140149904Y-121502380D01*
X140530857Y-121502380D01*
X140626095Y-121550000D01*
X140673714Y-121597619D01*
X140721333Y-121692857D01*
X140721333Y-121835714D01*
X140673714Y-121930952D01*
X140626095Y-121978571D01*
X140530857Y-122026190D01*
X140149904Y-122026190D01*
X141578476Y-121502380D02*
X141388000Y-121502380D01*
X141292761Y-121550000D01*
X141245142Y-121597619D01*
X141149904Y-121740476D01*
X141102285Y-121930952D01*
X141102285Y-122311904D01*
X141149904Y-122407142D01*
X141197523Y-122454761D01*
X141292761Y-122502380D01*
X141483238Y-122502380D01*
X141578476Y-122454761D01*
X141626095Y-122407142D01*
X141673714Y-122311904D01*
X141673714Y-122073809D01*
X141626095Y-121978571D01*
X141578476Y-121930952D01*
X141483238Y-121883333D01*
X141292761Y-121883333D01*
X141197523Y-121930952D01*
X141149904Y-121978571D01*
X141102285Y-122073809D01*
X154945333Y-122502380D02*
X154612000Y-122026190D01*
X154373904Y-122502380D02*
X154373904Y-121502380D01*
X154754857Y-121502380D01*
X154850095Y-121550000D01*
X154897714Y-121597619D01*
X154945333Y-121692857D01*
X154945333Y-121835714D01*
X154897714Y-121930952D01*
X154850095Y-121978571D01*
X154754857Y-122026190D01*
X154373904Y-122026190D01*
X155278666Y-121502380D02*
X155945333Y-121502380D01*
X155516761Y-122502380D01*
X162057333Y-120786380D02*
X161724000Y-120310190D01*
X161485904Y-120786380D02*
X161485904Y-119786380D01*
X161866857Y-119786380D01*
X161962095Y-119834000D01*
X162009714Y-119881619D01*
X162057333Y-119976857D01*
X162057333Y-120119714D01*
X162009714Y-120214952D01*
X161962095Y-120262571D01*
X161866857Y-120310190D01*
X161485904Y-120310190D01*
X162628761Y-120214952D02*
X162533523Y-120167333D01*
X162485904Y-120119714D01*
X162438285Y-120024476D01*
X162438285Y-119976857D01*
X162485904Y-119881619D01*
X162533523Y-119834000D01*
X162628761Y-119786380D01*
X162819238Y-119786380D01*
X162914476Y-119834000D01*
X162962095Y-119881619D01*
X163009714Y-119976857D01*
X163009714Y-120024476D01*
X162962095Y-120119714D01*
X162914476Y-120167333D01*
X162819238Y-120214952D01*
X162628761Y-120214952D01*
X162533523Y-120262571D01*
X162485904Y-120310190D01*
X162438285Y-120405428D01*
X162438285Y-120595904D01*
X162485904Y-120691142D01*
X162533523Y-120738761D01*
X162628761Y-120786380D01*
X162819238Y-120786380D01*
X162914476Y-120738761D01*
X162962095Y-120691142D01*
X163009714Y-120595904D01*
X163009714Y-120405428D01*
X162962095Y-120310190D01*
X162914476Y-120262571D01*
X162819238Y-120214952D01*
X169677333Y-120914380D02*
X169344000Y-120438190D01*
X169105904Y-120914380D02*
X169105904Y-119914380D01*
X169486857Y-119914380D01*
X169582095Y-119962000D01*
X169629714Y-120009619D01*
X169677333Y-120104857D01*
X169677333Y-120247714D01*
X169629714Y-120342952D01*
X169582095Y-120390571D01*
X169486857Y-120438190D01*
X169105904Y-120438190D01*
X170153523Y-120914380D02*
X170344000Y-120914380D01*
X170439238Y-120866761D01*
X170486857Y-120819142D01*
X170582095Y-120676285D01*
X170629714Y-120485809D01*
X170629714Y-120104857D01*
X170582095Y-120009619D01*
X170534476Y-119962000D01*
X170439238Y-119914380D01*
X170248761Y-119914380D01*
X170153523Y-119962000D01*
X170105904Y-120009619D01*
X170058285Y-120104857D01*
X170058285Y-120342952D01*
X170105904Y-120438190D01*
X170153523Y-120485809D01*
X170248761Y-120533428D01*
X170439238Y-120533428D01*
X170534476Y-120485809D01*
X170582095Y-120438190D01*
X170629714Y-120342952D01*
X153199142Y-110118380D02*
X152865809Y-109642190D01*
X152627714Y-110118380D02*
X152627714Y-109118380D01*
X153008666Y-109118380D01*
X153103904Y-109166000D01*
X153151523Y-109213619D01*
X153199142Y-109308857D01*
X153199142Y-109451714D01*
X153151523Y-109546952D01*
X153103904Y-109594571D01*
X153008666Y-109642190D01*
X152627714Y-109642190D01*
X154151523Y-110118380D02*
X153580095Y-110118380D01*
X153865809Y-110118380D02*
X153865809Y-109118380D01*
X153770571Y-109261238D01*
X153675333Y-109356476D01*
X153580095Y-109404095D01*
X154770571Y-109118380D02*
X154865809Y-109118380D01*
X154961047Y-109166000D01*
X155008666Y-109213619D01*
X155056285Y-109308857D01*
X155103904Y-109499333D01*
X155103904Y-109737428D01*
X155056285Y-109927904D01*
X155008666Y-110023142D01*
X154961047Y-110070761D01*
X154865809Y-110118380D01*
X154770571Y-110118380D01*
X154675333Y-110070761D01*
X154627714Y-110023142D01*
X154580095Y-109927904D01*
X154532476Y-109737428D01*
X154532476Y-109499333D01*
X154580095Y-109308857D01*
X154627714Y-109213619D01*
X154675333Y-109166000D01*
X154770571Y-109118380D01*
X141261142Y-110118380D02*
X140927809Y-109642190D01*
X140689714Y-110118380D02*
X140689714Y-109118380D01*
X141070666Y-109118380D01*
X141165904Y-109166000D01*
X141213523Y-109213619D01*
X141261142Y-109308857D01*
X141261142Y-109451714D01*
X141213523Y-109546952D01*
X141165904Y-109594571D01*
X141070666Y-109642190D01*
X140689714Y-109642190D01*
X142213523Y-110118380D02*
X141642095Y-110118380D01*
X141927809Y-110118380D02*
X141927809Y-109118380D01*
X141832571Y-109261238D01*
X141737333Y-109356476D01*
X141642095Y-109404095D01*
X143165904Y-110118380D02*
X142594476Y-110118380D01*
X142880190Y-110118380D02*
X142880190Y-109118380D01*
X142784952Y-109261238D01*
X142689714Y-109356476D01*
X142594476Y-109404095D01*
X133133142Y-110118380D02*
X132799809Y-109642190D01*
X132561714Y-110118380D02*
X132561714Y-109118380D01*
X132942666Y-109118380D01*
X133037904Y-109166000D01*
X133085523Y-109213619D01*
X133133142Y-109308857D01*
X133133142Y-109451714D01*
X133085523Y-109546952D01*
X133037904Y-109594571D01*
X132942666Y-109642190D01*
X132561714Y-109642190D01*
X134085523Y-110118380D02*
X133514095Y-110118380D01*
X133799809Y-110118380D02*
X133799809Y-109118380D01*
X133704571Y-109261238D01*
X133609333Y-109356476D01*
X133514095Y-109404095D01*
X134466476Y-109213619D02*
X134514095Y-109166000D01*
X134609333Y-109118380D01*
X134847428Y-109118380D01*
X134942666Y-109166000D01*
X134990285Y-109213619D01*
X135037904Y-109308857D01*
X135037904Y-109404095D01*
X134990285Y-109546952D01*
X134418857Y-110118380D01*
X135037904Y-110118380D01*
X122973142Y-109990380D02*
X122639809Y-109514190D01*
X122401714Y-109990380D02*
X122401714Y-108990380D01*
X122782666Y-108990380D01*
X122877904Y-109038000D01*
X122925523Y-109085619D01*
X122973142Y-109180857D01*
X122973142Y-109323714D01*
X122925523Y-109418952D01*
X122877904Y-109466571D01*
X122782666Y-109514190D01*
X122401714Y-109514190D01*
X123925523Y-109990380D02*
X123354095Y-109990380D01*
X123639809Y-109990380D02*
X123639809Y-108990380D01*
X123544571Y-109133238D01*
X123449333Y-109228476D01*
X123354095Y-109276095D01*
X124258857Y-108990380D02*
X124877904Y-108990380D01*
X124544571Y-109371333D01*
X124687428Y-109371333D01*
X124782666Y-109418952D01*
X124830285Y-109466571D01*
X124877904Y-109561809D01*
X124877904Y-109799904D01*
X124830285Y-109895142D01*
X124782666Y-109942761D01*
X124687428Y-109990380D01*
X124401714Y-109990380D01*
X124306476Y-109942761D01*
X124258857Y-109895142D01*
X166212380Y-101061904D02*
X167021904Y-101061904D01*
X167117142Y-101014285D01*
X167164761Y-100966666D01*
X167212380Y-100871428D01*
X167212380Y-100680952D01*
X167164761Y-100585714D01*
X167117142Y-100538095D01*
X167021904Y-100490476D01*
X166212380Y-100490476D01*
X167212380Y-99490476D02*
X167212380Y-100061904D01*
X167212380Y-99776190D02*
X166212380Y-99776190D01*
X166355238Y-99871428D01*
X166450476Y-99966666D01*
X166498095Y-100061904D01*
D11*
X178601904Y-101709523D02*
X178601904Y-101861904D01*
X178640000Y-101938095D01*
X178678095Y-101976190D01*
X178792380Y-102052380D01*
X178944761Y-102090476D01*
X179249523Y-102090476D01*
X179325714Y-102052380D01*
X179363809Y-102014285D01*
X179401904Y-101938095D01*
X179401904Y-101785714D01*
X179363809Y-101709523D01*
X179325714Y-101671428D01*
X179249523Y-101633333D01*
X179059047Y-101633333D01*
X178982857Y-101671428D01*
X178944761Y-101709523D01*
X178906666Y-101785714D01*
X178906666Y-101938095D01*
X178944761Y-102014285D01*
X178982857Y-102052380D01*
X179059047Y-102090476D01*
X179401904Y-101290476D02*
X178601904Y-101290476D01*
X179401904Y-100833333D01*
X178601904Y-100833333D01*
X179401904Y-100033333D02*
X179401904Y-100490476D01*
X179401904Y-100261904D02*
X178601904Y-100261904D01*
X178716190Y-100338095D01*
X178792380Y-100414285D01*
X178830476Y-100490476D01*
X178601904Y-99766666D02*
X178601904Y-99271428D01*
X178906666Y-99538095D01*
X178906666Y-99423809D01*
X178944761Y-99347619D01*
X178982857Y-99309523D01*
X179059047Y-99271428D01*
X179249523Y-99271428D01*
X179325714Y-99309523D01*
X179363809Y-99347619D01*
X179401904Y-99423809D01*
X179401904Y-99652380D01*
X179363809Y-99728571D01*
X179325714Y-99766666D01*
X178944761Y-98814285D02*
X178906666Y-98890476D01*
X178868571Y-98928571D01*
X178792380Y-98966666D01*
X178754285Y-98966666D01*
X178678095Y-98928571D01*
X178640000Y-98890476D01*
X178601904Y-98814285D01*
X178601904Y-98661904D01*
X178640000Y-98585714D01*
X178678095Y-98547619D01*
X178754285Y-98509523D01*
X178792380Y-98509523D01*
X178868571Y-98547619D01*
X178906666Y-98585714D01*
X178944761Y-98661904D01*
X178944761Y-98814285D01*
X178982857Y-98890476D01*
X179020952Y-98928571D01*
X179097142Y-98966666D01*
X179249523Y-98966666D01*
X179325714Y-98928571D01*
X179363809Y-98890476D01*
X179401904Y-98814285D01*
X179401904Y-98661904D01*
X179363809Y-98585714D01*
X179325714Y-98547619D01*
X179249523Y-98509523D01*
X179097142Y-98509523D01*
X179020952Y-98547619D01*
X178982857Y-98585714D01*
X178944761Y-98661904D01*
D14*
X122428095Y-112784380D02*
X122428095Y-113593904D01*
X122475714Y-113689142D01*
X122523333Y-113736761D01*
X122618571Y-113784380D01*
X122809047Y-113784380D01*
X122904285Y-113736761D01*
X122951904Y-113689142D01*
X122999523Y-113593904D01*
X122999523Y-112784380D01*
X123380476Y-112784380D02*
X123999523Y-112784380D01*
X123666190Y-113165333D01*
X123809047Y-113165333D01*
X123904285Y-113212952D01*
X123951904Y-113260571D01*
X123999523Y-113355809D01*
X123999523Y-113593904D01*
X123951904Y-113689142D01*
X123904285Y-113736761D01*
X123809047Y-113784380D01*
X123523333Y-113784380D01*
X123428095Y-113736761D01*
X123380476Y-113689142D01*
X132339333Y-114087142D02*
X132291714Y-114134761D01*
X132148857Y-114182380D01*
X132053619Y-114182380D01*
X131910761Y-114134761D01*
X131815523Y-114039523D01*
X131767904Y-113944285D01*
X131720285Y-113753809D01*
X131720285Y-113610952D01*
X131767904Y-113420476D01*
X131815523Y-113325238D01*
X131910761Y-113230000D01*
X132053619Y-113182380D01*
X132148857Y-113182380D01*
X132291714Y-113230000D01*
X132339333Y-113277619D01*
X133196476Y-113515714D02*
X133196476Y-114182380D01*
X132958380Y-113134761D02*
X132720285Y-113849047D01*
X133339333Y-113849047D01*
X135476095Y-118170285D02*
X135438000Y-118132190D01*
X135399904Y-118056000D01*
X135399904Y-117865523D01*
X135438000Y-117789333D01*
X135476095Y-117751238D01*
X135552285Y-117713142D01*
X135628476Y-117713142D01*
X135742761Y-117751238D01*
X136199904Y-118208380D01*
X136199904Y-117713142D01*
X135476095Y-117408380D02*
X135438000Y-117370285D01*
X135399904Y-117294095D01*
X135399904Y-117103619D01*
X135438000Y-117027428D01*
X135476095Y-116989333D01*
X135552285Y-116951238D01*
X135628476Y-116951238D01*
X135742761Y-116989333D01*
X136199904Y-117446476D01*
X136199904Y-116951238D01*
X135666571Y-116265523D02*
X136199904Y-116265523D01*
X135666571Y-116608380D02*
X136085619Y-116608380D01*
X136161809Y-116570285D01*
X136199904Y-116494095D01*
X136199904Y-116379809D01*
X136161809Y-116303619D01*
X136123714Y-116265523D01*
X135780857Y-115617904D02*
X135780857Y-115884571D01*
X136199904Y-115884571D02*
X135399904Y-115884571D01*
X135399904Y-115503619D01*
X107511904Y-110202380D02*
X107511904Y-109202380D01*
X107750000Y-109202380D01*
X107892857Y-109250000D01*
X107988095Y-109345238D01*
X108035714Y-109440476D01*
X108083333Y-109630952D01*
X108083333Y-109773809D01*
X108035714Y-109964285D01*
X107988095Y-110059523D01*
X107892857Y-110154761D01*
X107750000Y-110202380D01*
X107511904Y-110202380D01*
X108464285Y-109297619D02*
X108511904Y-109250000D01*
X108607142Y-109202380D01*
X108845238Y-109202380D01*
X108940476Y-109250000D01*
X108988095Y-109297619D01*
X109035714Y-109392857D01*
X109035714Y-109488095D01*
X108988095Y-109630952D01*
X108416666Y-110202380D01*
X109035714Y-110202380D01*
X113075047Y-107197428D02*
X113836952Y-107197428D01*
X113456000Y-107578380D02*
X113456000Y-106816476D01*
X113075047Y-101863428D02*
X113836952Y-101863428D01*
X140124380Y-116077904D02*
X140933904Y-116077904D01*
X141029142Y-116030285D01*
X141076761Y-115982666D01*
X141124380Y-115887428D01*
X141124380Y-115696952D01*
X141076761Y-115601714D01*
X141029142Y-115554095D01*
X140933904Y-115506476D01*
X140124380Y-115506476D01*
X140219619Y-115077904D02*
X140172000Y-115030285D01*
X140124380Y-114935047D01*
X140124380Y-114696952D01*
X140172000Y-114601714D01*
X140219619Y-114554095D01*
X140314857Y-114506476D01*
X140410095Y-114506476D01*
X140552952Y-114554095D01*
X141124380Y-115125523D01*
X141124380Y-114506476D01*
D11*
X160133904Y-117430285D02*
X160133904Y-116896952D01*
X160933904Y-117239809D01*
X160400571Y-116249333D02*
X160933904Y-116249333D01*
X160095809Y-116439809D02*
X160667238Y-116630285D01*
X160667238Y-116135047D01*
X160933904Y-115449333D02*
X160933904Y-115830285D01*
X160133904Y-115830285D01*
X160895809Y-115220761D02*
X160933904Y-115106476D01*
X160933904Y-114916000D01*
X160895809Y-114839809D01*
X160857714Y-114801714D01*
X160781523Y-114763619D01*
X160705333Y-114763619D01*
X160629142Y-114801714D01*
X160591047Y-114839809D01*
X160552952Y-114916000D01*
X160514857Y-115068380D01*
X160476761Y-115144571D01*
X160438666Y-115182666D01*
X160362476Y-115220761D01*
X160286285Y-115220761D01*
X160210095Y-115182666D01*
X160172000Y-115144571D01*
X160133904Y-115068380D01*
X160133904Y-114877904D01*
X160172000Y-114763619D01*
X160933904Y-114001714D02*
X160933904Y-114458857D01*
X160933904Y-114230285D02*
X160133904Y-114230285D01*
X160248190Y-114306476D01*
X160324380Y-114382666D01*
X160362476Y-114458857D01*
X160400571Y-113316000D02*
X160933904Y-113316000D01*
X160095809Y-113506476D02*
X160667238Y-113696952D01*
X160667238Y-113201714D01*
D14*
X180924761Y-132605619D02*
X180829523Y-132558000D01*
X180734285Y-132462761D01*
X180591428Y-132319904D01*
X180496190Y-132272285D01*
X180400952Y-132272285D01*
X180448571Y-132510380D02*
X180353333Y-132462761D01*
X180258095Y-132367523D01*
X180210476Y-132177047D01*
X180210476Y-131843714D01*
X180258095Y-131653238D01*
X180353333Y-131558000D01*
X180448571Y-131510380D01*
X180639047Y-131510380D01*
X180734285Y-131558000D01*
X180829523Y-131653238D01*
X180877142Y-131843714D01*
X180877142Y-132177047D01*
X180829523Y-132367523D01*
X180734285Y-132462761D01*
X180639047Y-132510380D01*
X180448571Y-132510380D01*
X181829523Y-132510380D02*
X181258095Y-132510380D01*
X181543809Y-132510380D02*
X181543809Y-131510380D01*
X181448571Y-131653238D01*
X181353333Y-131748476D01*
X181258095Y-131796095D01*
X184441142Y-133360380D02*
X184107809Y-132884190D01*
X183869714Y-133360380D02*
X183869714Y-132360380D01*
X184250666Y-132360380D01*
X184345904Y-132408000D01*
X184393523Y-132455619D01*
X184441142Y-132550857D01*
X184441142Y-132693714D01*
X184393523Y-132788952D01*
X184345904Y-132836571D01*
X184250666Y-132884190D01*
X183869714Y-132884190D01*
X185393523Y-133360380D02*
X184822095Y-133360380D01*
X185107809Y-133360380D02*
X185107809Y-132360380D01*
X185012571Y-132503238D01*
X184917333Y-132598476D01*
X184822095Y-132646095D01*
X186250666Y-132693714D02*
X186250666Y-133360380D01*
X186012571Y-132312761D02*
X185774476Y-133027047D01*
X186393523Y-133027047D01*
D11*
X184988761Y-136569904D02*
X184531619Y-136569904D01*
X184760190Y-136569904D02*
X184760190Y-135769904D01*
X184684000Y-135884190D01*
X184607809Y-135960380D01*
X184531619Y-135998476D01*
X185331619Y-136569904D02*
X185331619Y-135769904D01*
X185407809Y-136265142D02*
X185636380Y-136569904D01*
X185636380Y-136036571D02*
X185331619Y-136341333D01*
D14*
X175984142Y-120864380D02*
X175650809Y-120388190D01*
X175412714Y-120864380D02*
X175412714Y-119864380D01*
X175793666Y-119864380D01*
X175888904Y-119912000D01*
X175936523Y-119959619D01*
X175984142Y-120054857D01*
X175984142Y-120197714D01*
X175936523Y-120292952D01*
X175888904Y-120340571D01*
X175793666Y-120388190D01*
X175412714Y-120388190D01*
X176936523Y-120864380D02*
X176365095Y-120864380D01*
X176650809Y-120864380D02*
X176650809Y-119864380D01*
X176555571Y-120007238D01*
X176460333Y-120102476D01*
X176365095Y-120150095D01*
X177841285Y-119864380D02*
X177365095Y-119864380D01*
X177317476Y-120340571D01*
X177365095Y-120292952D01*
X177460333Y-120245333D01*
X177698428Y-120245333D01*
X177793666Y-120292952D01*
X177841285Y-120340571D01*
X177888904Y-120435809D01*
X177888904Y-120673904D01*
X177841285Y-120769142D01*
X177793666Y-120816761D01*
X177698428Y-120864380D01*
X177460333Y-120864380D01*
X177365095Y-120816761D01*
X177317476Y-120769142D01*
D11*
X174066761Y-122473904D02*
X173609619Y-122473904D01*
X173838190Y-122473904D02*
X173838190Y-121673904D01*
X173762000Y-121788190D01*
X173685809Y-121864380D01*
X173609619Y-121902476D01*
X174409619Y-122473904D02*
X174409619Y-121673904D01*
X174485809Y-122169142D02*
X174714380Y-122473904D01*
X174714380Y-121940571D02*
X174409619Y-122245333D01*
D14*
X110482142Y-131390380D02*
X110148809Y-130914190D01*
X109910714Y-131390380D02*
X109910714Y-130390380D01*
X110291666Y-130390380D01*
X110386904Y-130438000D01*
X110434523Y-130485619D01*
X110482142Y-130580857D01*
X110482142Y-130723714D01*
X110434523Y-130818952D01*
X110386904Y-130866571D01*
X110291666Y-130914190D01*
X109910714Y-130914190D01*
X111434523Y-131390380D02*
X110863095Y-131390380D01*
X111148809Y-131390380D02*
X111148809Y-130390380D01*
X111053571Y-130533238D01*
X110958333Y-130628476D01*
X110863095Y-130676095D01*
X112291666Y-130390380D02*
X112101190Y-130390380D01*
X112005952Y-130438000D01*
X111958333Y-130485619D01*
X111863095Y-130628476D01*
X111815476Y-130818952D01*
X111815476Y-131199904D01*
X111863095Y-131295142D01*
X111910714Y-131342761D01*
X112005952Y-131390380D01*
X112196428Y-131390380D01*
X112291666Y-131342761D01*
X112339285Y-131295142D01*
X112386904Y-131199904D01*
X112386904Y-130961809D01*
X112339285Y-130866571D01*
X112291666Y-130818952D01*
X112196428Y-130771333D01*
X112005952Y-130771333D01*
X111910714Y-130818952D01*
X111863095Y-130866571D01*
X111815476Y-130961809D01*
D11*
X111029761Y-134599904D02*
X110572619Y-134599904D01*
X110801190Y-134599904D02*
X110801190Y-133799904D01*
X110725000Y-133914190D01*
X110648809Y-133990380D01*
X110572619Y-134028476D01*
X111372619Y-134599904D02*
X111372619Y-133799904D01*
X111448809Y-134295142D02*
X111677380Y-134599904D01*
X111677380Y-134066571D02*
X111372619Y-134371333D01*
D14*
X107862380Y-126908095D02*
X106862380Y-126908095D01*
X106862380Y-126670000D01*
X106910000Y-126527142D01*
X107005238Y-126431904D01*
X107100476Y-126384285D01*
X107290952Y-126336666D01*
X107433809Y-126336666D01*
X107624285Y-126384285D01*
X107719523Y-126431904D01*
X107814761Y-126527142D01*
X107862380Y-126670000D01*
X107862380Y-126908095D01*
X107195714Y-125479523D02*
X107862380Y-125479523D01*
X106814761Y-125717619D02*
X107529047Y-125955714D01*
X107529047Y-125336666D01*
X105399428Y-129604952D02*
X105399428Y-128843047D01*
X105780380Y-129224000D02*
X105018476Y-129224000D01*
X105399428Y-123508952D02*
X105399428Y-122747047D01*
X188692380Y-128468095D02*
X187692380Y-128468095D01*
X187692380Y-128230000D01*
X187740000Y-128087142D01*
X187835238Y-127991904D01*
X187930476Y-127944285D01*
X188120952Y-127896666D01*
X188263809Y-127896666D01*
X188454285Y-127944285D01*
X188549523Y-127991904D01*
X188644761Y-128087142D01*
X188692380Y-128230000D01*
X188692380Y-128468095D01*
X187692380Y-127563333D02*
X187692380Y-126944285D01*
X188073333Y-127277619D01*
X188073333Y-127134761D01*
X188120952Y-127039523D01*
X188168571Y-126991904D01*
X188263809Y-126944285D01*
X188501904Y-126944285D01*
X188597142Y-126991904D01*
X188644761Y-127039523D01*
X188692380Y-127134761D01*
X188692380Y-127420476D01*
X188644761Y-127515714D01*
X188597142Y-127563333D01*
X188457428Y-126048952D02*
X188457428Y-125287047D01*
X188838380Y-125668000D02*
X188076476Y-125668000D01*
X188457428Y-130366952D02*
X188457428Y-129605047D01*
X175600380Y-116562095D02*
X174600380Y-116562095D01*
X174600380Y-116324000D01*
X174648000Y-116181142D01*
X174743238Y-116085904D01*
X174838476Y-116038285D01*
X175028952Y-115990666D01*
X175171809Y-115990666D01*
X175362285Y-116038285D01*
X175457523Y-116085904D01*
X175552761Y-116181142D01*
X175600380Y-116324000D01*
X175600380Y-116562095D01*
X175600380Y-115038285D02*
X175600380Y-115609714D01*
X175600380Y-115324000D02*
X174600380Y-115324000D01*
X174743238Y-115419238D01*
X174838476Y-115514476D01*
X174886095Y-115609714D01*
X175430380Y-112275904D02*
X174430380Y-112275904D01*
X175430380Y-111704476D02*
X174858952Y-112133047D01*
X174430380Y-111704476D02*
X175001809Y-112275904D01*
M02*
